<svg width="107" height="80" viewBox="0 0 107 80" fill="none" xmlns="http://www.w3.org/2000/svg">
<path d="M35.8554 66.2388C35.2092 64.3827 37.1564 62.8343 38.8561 63.7469C39.0223 63.8362 39.2451 64.0281 39.5247 64.3226C40.8125 65.6837 41.9766 66.7836 43.0169 67.6223C48.4626 72.0128 54.6623 74.64 61.6158 75.5039C73.622 76.9957 85.6403 72.5169 93.4119 63.233C95.669 60.5359 97.5309 57.5209 98.9974 54.1879C102.735 45.6876 102.936 36.2937 99.8052 27.5476C98.821 24.7967 97.4816 22.2125 95.787 19.7949C93.912 17.1208 91.6246 14.5394 89.1687 12.4857C84.596 8.65886 79.3651 6.14452 73.476 4.94264C64.1387 3.03669 54.1243 4.84296 46.0348 9.79773C44.0286 11.0271 42.043 12.5991 40.0781 14.5136C39.5934 14.988 39.2474 15.2635 39.04 15.3403C38.6184 15.4961 38.1761 15.5265 37.7132 15.4314C36.4535 15.1718 35.7867 13.6595 36.3882 12.5269C36.4959 12.3264 36.713 12.0583 37.0396 11.7226C41.3395 7.30001 46.6483 4.07646 52.966 2.05193C59.2928 0.0239589 65.7714 -0.500793 72.4018 0.477673C80.8918 1.73226 88.8009 5.78992 94.7353 11.9563C96.3943 13.6807 98.0081 15.6829 99.5766 17.9629C103.696 23.954 105.832 31.1378 106.104 38.3612C106.351 44.9549 105.064 51.1986 102.242 57.0924C100.283 61.1827 97.6936 64.8914 94.474 68.2187C83.2016 79.8675 65.5067 83.0761 50.5788 76.9579C45.2064 74.7569 40.5404 71.5265 36.5807 67.2666C36.1888 66.8449 35.9471 66.5024 35.8554 66.2388Z" fill="#F4F4F4"/>
<path d="M67.5038 41.2339C72.7949 44.6528 78.1518 48.1943 83.5746 51.8584C85.9669 53.4739 83.6279 56.9335 81.1273 55.2544C77.6099 52.893 72.0003 49.1648 64.2986 44.0696C63.2554 43.3805 63.2812 42.3201 63.3276 41.0878C63.3379 40.8209 63.343 40.3282 63.343 39.6098C63.3396 34.1458 63.3379 27.6895 63.3379 20.241C63.3379 19.5043 63.539 18.9509 63.9411 18.5808C64.9603 17.6407 66.7786 17.9329 67.2873 19.2889C67.3709 19.5089 67.4121 19.9225 67.411 20.5297C67.4053 28.6324 67.4076 35.4811 67.4179 41.0758C67.4179 41.1075 67.4258 41.1386 67.4408 41.1662C67.4558 41.1939 67.4775 41.2171 67.5038 41.2339Z" fill="#F4F4F4"/>
<path d="M33.9942 22.6765L18.8016 22.65C17.6826 22.6481 16.7738 23.5537 16.7719 24.6727L16.7717 24.769C16.7697 25.888 17.6753 26.7968 18.7944 26.7988L33.9869 26.8253C35.106 26.8272 36.0148 25.9216 36.0167 24.8026L36.0169 24.7063C36.0189 23.5873 35.1133 22.6785 33.9942 22.6765Z" fill="#EFBF04"/>
<path d="M33.5921 37.1104H2.05203C0.918725 37.1104 0 38.0291 0 39.1624V39.2174C0 40.3507 0.918725 41.2694 2.05203 41.2694H33.5921C34.7254 41.2694 35.6441 40.3507 35.6441 39.2174V39.1624C35.6441 38.0291 34.7254 37.1104 33.5921 37.1104Z" fill="#EFBF04"/>
<path d="M34.086 52.0186H20.3955C19.2925 52.0186 18.3984 52.9127 18.3984 54.0156V54.1187C18.3984 55.2216 19.2925 56.1157 20.3955 56.1157H34.086C35.1889 56.1157 36.083 55.2216 36.083 54.1187V54.0156C36.083 52.9127 35.1889 52.0186 34.086 52.0186Z" fill="#EFBF04"/>
</svg>
