<svg width="88" height="80" viewBox="0 0 88 80" fill="none" xmlns="http://www.w3.org/2000/svg">
<path d="M75.5802 35.0095C75.4803 26.0827 71.7506 17.5092 65.1215 11.4844C60.5103 7.29275 55.1674 4.63288 49.0926 3.50482C45.86 2.90488 42.4723 2.86503 38.9296 3.38527C30.3246 4.64908 22.3673 9.52961 17.404 16.6185C14.8633 20.2462 13.1287 24.1856 12.2003 28.4369C11.6932 30.7561 11.4511 33.0288 11.4738 35.2552C11.474 35.2626 11.4756 35.2699 11.4785 35.2767C11.4815 35.2835 11.4857 35.2896 11.4909 35.2947C11.4962 35.2999 11.5024 35.3039 11.5091 35.3065C11.5159 35.3092 11.5231 35.3105 11.5303 35.3103C12.6172 35.299 13.3153 35.2963 13.6244 35.3025C15.9694 35.355 17.8954 36.7949 18.5483 39.0492C18.6788 39.4977 18.7432 40.2771 18.7414 41.3877C18.7318 48.7665 18.7335 54.0039 18.7467 57.1C18.7528 58.5503 18.6858 59.5269 18.5457 60.0296C18.0543 61.7834 16.7051 63.0853 14.9027 63.5478C14.5366 63.6415 13.9879 63.6879 13.2566 63.687C11.5251 63.6835 9.92845 63.6835 8.4667 63.687C5.89353 63.694 3.77535 62.7057 2.11216 60.7219C1.14613 59.5693 0.508965 58.302 0.200675 56.92C0.0640465 56.306 -0.00251863 55.2366 0.000984665 53.7118C0.014122 48.2887 0.016314 45.4152 0.00755575 45.0911C-0.0222223 44.013 0.0360183 43.1533 0.182281 42.5122C1.1216 38.3937 3.99868 35.2933 8.41546 35.2998C8.42944 35.2999 8.44327 35.297 8.45608 35.2915C8.4689 35.286 8.48042 35.2779 8.48993 35.2678C8.49943 35.2577 8.50671 35.2458 8.51131 35.2327C8.5159 35.2197 8.51771 35.2059 8.51662 35.1921C8.49472 34.897 8.49034 34.579 8.50348 34.2383C8.7128 28.937 9.95516 24.014 12.2306 19.4693C14.1232 15.6884 16.5751 12.3756 19.5862 9.53092C24.9514 4.46384 31.9143 1.15192 39.2278 0.26646C44.7087 -0.39829 50.3512 0.162673 55.6377 2.15298C62.2786 4.65171 68.1169 9.1079 72.1645 14.9777C76.3089 20.9876 78.427 27.6692 78.519 35.0226C78.519 35.0348 78.5214 35.0469 78.5261 35.0581C78.5308 35.0694 78.5377 35.0796 78.5464 35.0881C78.5551 35.0967 78.5654 35.1034 78.5767 35.108C78.588 35.1125 78.6001 35.1148 78.6123 35.1146C83.8304 35.0515 87.0478 39.7206 87.0557 44.5499C87.0592 46.0475 87.064 48.7976 87.0701 52.8001C87.0727 54.6122 86.9992 55.8699 86.8494 56.5732C86.1886 59.6762 84.0604 62.481 80.9245 63.331C79.8577 63.6214 78.6372 63.6634 77.4615 63.6279C77.4365 63.6272 77.412 63.6356 77.3925 63.6515C77.373 63.6674 77.3597 63.6897 77.355 63.7146C76.1635 70.2859 71.011 75.0127 64.4778 76.094C63.5617 76.2455 62.1923 76.3155 60.3698 76.3042C58.4403 76.2928 55.6504 76.2888 51.9999 76.2923C51.9805 76.2923 51.9616 76.2986 51.946 76.3102C51.9304 76.3218 51.9189 76.3381 51.9132 76.3567C51.3786 78.1355 50.1003 79.4834 48.2978 79.8736C48.0001 79.9384 47.479 79.9712 46.7345 79.9721C44.1079 79.9756 42.333 79.973 41.4099 79.9642C41.1542 79.9616 40.9506 79.9436 40.799 79.9104C39.0018 79.5127 37.8011 78.4775 37.1968 76.8047C36.8307 75.7905 36.758 74.7329 36.9787 73.632C37.3623 71.714 38.6471 70.3083 40.5021 69.7709C40.9085 69.6536 41.6657 69.6028 42.7736 69.6186C43.0521 69.6229 44.5546 69.6251 47.281 69.6251C47.7881 69.6251 48.2869 69.7158 48.7774 69.8971C50.3915 70.4944 51.4315 71.6141 51.8975 73.2563C51.9032 73.2759 51.9151 73.2932 51.9314 73.3056C51.9478 73.3179 51.9677 73.3246 51.9881 73.3246C57.3771 73.3369 60.714 73.3347 61.9988 73.318C63.9475 73.2926 65.792 72.8727 67.5322 72.0582C71.0399 70.4173 73.4349 67.489 74.3821 63.733C74.3854 63.7203 74.3856 63.7069 74.3828 63.694C74.38 63.6811 74.3742 63.6691 74.3659 63.6589C74.3576 63.6487 74.347 63.6405 74.335 63.6351C74.323 63.6298 74.3098 63.6273 74.2967 63.6279C73.7099 63.6489 73.1923 63.6284 72.7438 63.5662C70.6432 63.2785 69.0877 61.7572 68.5123 59.7655C68.3827 59.3162 68.3214 58.6475 68.3284 57.7595C68.3608 53.3979 68.3612 48.0457 68.3297 41.703C68.3235 40.3533 68.3897 39.435 68.5281 38.9481C69.1179 36.875 70.923 35.1724 73.134 35.112C73.7602 35.0945 74.548 35.0879 75.4974 35.0923C75.5084 35.0923 75.5193 35.0901 75.5294 35.0859C75.5395 35.0818 75.5487 35.0756 75.5564 35.0679C75.5641 35.0602 75.5702 35.0511 75.5743 35.0411C75.5783 35.031 75.5804 35.0203 75.5802 35.0095ZM73.7252 60.5433V38.2098C73.7252 38.1753 73.7115 38.1422 73.6871 38.1178C73.6627 38.0934 73.6296 38.0797 73.5951 38.0797H73.5176C72.9058 38.0797 72.319 38.3295 71.8864 38.7742C71.4538 39.2189 71.2107 39.8221 71.2107 40.451V58.302C71.2107 58.9309 71.4538 59.5341 71.8864 59.9788C72.319 60.4235 72.9058 60.6733 73.5176 60.6733H73.5951C73.6296 60.6733 73.6627 60.6596 73.6871 60.6352C73.7115 60.6108 73.7252 60.5778 73.7252 60.5433ZM76.5944 38.2518L76.6338 60.5275C76.6338 60.5731 76.6519 60.6169 76.6842 60.6492C76.7165 60.6815 76.7603 60.6996 76.8059 60.6996L78.7056 60.6957C80.1643 60.6929 81.562 60.0107 82.5913 58.7991C83.6206 57.5875 84.1972 55.9456 84.1943 54.2347L84.1786 44.5183C84.1771 43.671 84.0334 42.8322 83.7556 42.0498C83.4778 41.2674 83.0713 40.5568 82.5595 39.9586C82.0476 39.3603 81.4403 38.8861 80.7723 38.563C80.1042 38.24 79.3886 38.0744 78.6662 38.0758L76.7665 38.0797C76.7208 38.0797 76.6771 38.0978 76.6448 38.1301C76.6125 38.1624 76.5944 38.2062 76.5944 38.2518ZM10.4583 60.5551V38.437C10.4583 38.3883 10.4389 38.3415 10.4045 38.307C10.37 38.2725 10.3232 38.2531 10.2744 38.2531H8.35634C6.90759 38.2531 5.51818 38.9061 4.49376 40.0685C3.46935 41.2309 2.89383 42.8075 2.89383 44.4513V54.5408C2.89383 56.1847 3.46935 57.7612 4.49376 58.9236C5.51818 60.086 6.90759 60.739 8.35634 60.739H10.2744C10.3232 60.739 10.37 60.7196 10.4045 60.6851C10.4389 60.6506 10.4583 60.6039 10.4583 60.5551ZM13.3104 38.3556V60.6549C13.3104 60.6804 13.3205 60.7048 13.3385 60.7227C13.3565 60.7407 13.3809 60.7508 13.4063 60.7508H13.5811C14.195 60.7508 14.7838 60.5024 15.2179 60.0601C15.652 59.6179 15.8959 59.0181 15.8959 58.3927V40.6178C15.8959 39.9924 15.652 39.3926 15.2179 38.9504C14.7838 38.5081 14.195 38.2597 13.5811 38.2597H13.4063C13.3809 38.2597 13.3565 38.2698 13.3385 38.2878C13.3205 38.3058 13.3104 38.3301 13.3104 38.3556ZM49.1935 74.6051C49.193 74.3412 49.1405 74.0799 49.0391 73.8362C48.9377 73.5925 48.7892 73.3712 48.6023 73.1849C48.4153 72.9985 48.1934 72.8509 47.9494 72.7503C47.7054 72.6497 47.4439 72.5982 47.1799 72.5986L41.7463 72.6081C41.4824 72.6086 41.2211 72.661 40.9774 72.7625C40.7337 72.8639 40.5124 73.0123 40.3261 73.1993C40.1397 73.3863 39.9921 73.6081 39.8915 73.8522C39.7909 74.0962 39.7394 74.3577 39.7398 74.6216L39.7405 75.0184C39.741 75.2823 39.7934 75.5436 39.8949 75.7873C39.9963 76.031 40.1448 76.2523 40.3317 76.4386C40.5187 76.625 40.7405 76.7726 40.9846 76.8732C41.2286 76.9738 41.4901 77.0253 41.754 77.0249L47.1876 77.0154C47.4516 77.0149 47.7129 76.9625 47.9566 76.861C48.2003 76.7596 48.4216 76.6112 48.6079 76.4242C48.7942 76.2372 48.9419 76.0154 49.0425 75.7713C49.1431 75.5273 49.1946 75.2658 49.1942 75.0019L49.1935 74.6051Z" fill="#F4F4F4"/>
<path d="M51.9506 73.3295V76.3549C51.9441 76.3635 51.9392 76.3731 51.936 76.3835C51.4013 78.1623 50.1231 79.5102 48.3206 79.9004C48.0228 79.9652 47.5017 79.9981 46.7573 79.9989C44.1307 80.0024 42.3558 79.9998 41.4327 79.991C41.177 79.9884 40.9733 79.9705 40.8218 79.9372C39.0246 79.5396 37.8239 78.5043 37.2195 76.8315C36.8535 75.8173 36.7808 74.7597 37.0015 73.6588C37.3851 71.7408 38.6699 70.3351 40.5249 69.7978C40.9313 69.6804 41.6884 69.6296 42.7964 69.6454C43.0749 69.6498 44.5773 69.6519 47.3038 69.6519C47.8109 69.6519 48.3097 69.7426 48.8001 69.9239C50.4143 70.5212 51.4543 71.6409 51.9203 73.2831C51.9255 73.3013 51.9361 73.3175 51.9506 73.3295ZM49.2162 74.632C49.2158 74.368 49.1633 74.1067 49.0619 73.863C48.9604 73.6193 48.812 73.398 48.625 73.2117C48.4381 73.0254 48.2162 72.8777 47.9722 72.7771C47.7281 72.6765 47.4667 72.625 47.2027 72.6254L41.7691 72.6349C41.5052 72.6354 41.2439 72.6878 41.0002 72.7893C40.7565 72.8907 40.5352 73.0392 40.3488 73.2261C40.1625 73.4131 40.0148 73.6349 39.9143 73.879C39.8137 74.123 39.7621 74.3845 39.7626 74.6484L39.7633 75.0452C39.7638 75.3092 39.8162 75.5704 39.9176 75.8141C40.0191 76.0578 40.1675 76.2791 40.3545 76.4655C40.5415 76.6518 40.7633 76.7995 41.0074 76.9C41.2514 77.0006 41.5129 77.0522 41.7768 77.0517L47.2104 77.0422C47.4744 77.0418 47.7357 76.9893 47.9794 76.8879C48.223 76.7864 48.4444 76.638 48.6307 76.451C48.817 76.2641 48.9647 76.0422 49.0653 75.7982C49.1659 75.5541 49.2174 75.2927 49.2169 75.0287L49.2162 74.632Z" fill="#EFBF04"/>
</svg>
