<svg width="78" height="78" viewBox="0 0 78 78" fill="none" xmlns="http://www.w3.org/2000/svg">
<path d="M7.11656 17.3902C7.2594 17.336 7.3653 17.1574 7.35422 17.0146C7.30865 16.3964 7.35791 15.298 7.32959 14.5124C7.3066 13.8655 7.27951 12.6407 7.24832 10.8379C7.23354 9.99563 7.2947 9.38075 7.43179 8.99327C8.01178 7.35675 9.36262 7.03905 10.8563 6.57481C13.0876 5.88154 14.383 7.71139 15.7844 8.89476C16.0984 9.15951 16.368 9.14227 16.7732 9.00682C17.7484 8.68255 18.4832 8.42765 18.9774 8.24212C19.0427 8.21755 19.0972 8.17075 19.1315 8.10995C19.1657 8.04915 19.1774 7.97823 19.1645 7.90965C18.8427 6.20704 18.6703 5.30606 18.6474 5.20673C18.3974 4.13911 18.4454 3.39289 19.1498 2.65898C19.7322 2.05313 20.3738 1.94477 21.2678 1.95092C21.7874 1.95503 22.7643 1.95585 24.1985 1.95338C24.4563 1.95256 24.7181 1.88894 24.9841 1.76252C25.8945 1.32825 26.7434 0.909571 27.5306 0.506494C28.1504 0.188794 28.5974 0.0213223 28.8716 0.0040828C29.7422 -0.0500986 30.5611 0.438768 30.901 1.24533C30.9995 1.47766 31.0602 1.82819 31.0832 2.29695C31.2219 5.09714 31.3061 6.69262 31.3357 7.08338C31.3562 7.35839 31.4892 7.5784 31.7346 7.74341C31.8717 7.83535 32.1344 7.84151 32.5227 7.76188C33.608 7.5394 34.4449 7.36496 35.0335 7.23853C35.1399 7.21479 35.2436 7.17971 35.3426 7.13387C35.6899 6.97379 36.143 6.67333 36.5334 6.52556C37.7968 6.04778 38.777 6.16968 40.6044 6.17092C40.8433 6.17092 41.0489 6.03916 41.2213 5.77564C41.4635 5.4054 41.883 4.79011 42.4798 3.92977C43.1144 3.01279 43.9981 2.57442 45.131 2.61464C46.1949 2.65159 46.9473 3.20325 47.5297 4.12557C47.6693 4.3464 47.8318 4.76015 48.0174 5.36681C48.519 7.00868 48.9688 8.39318 49.367 9.52031C49.7167 10.5116 50.8176 11.2911 51.8113 11.5681C53.1322 11.9367 54.8098 12.3841 56.844 12.9103C58.3545 13.3011 59.3232 14.2489 59.7501 15.7536C59.8449 16.0873 60.2143 16.2363 60.5702 16.2819C61.3534 16.3829 62.9517 16.6062 65.3653 16.9518C66.577 17.125 67.432 17.3126 67.9303 17.5145C68.7594 17.8503 69.5204 18.2821 70.2133 18.81C71.6466 19.9034 72.6588 20.6571 73.2499 21.0708C73.5339 21.2703 74.1008 21.6065 74.9505 22.0793C76.2668 22.812 76.9589 23.3661 77.4773 24.5791C77.6415 24.9624 77.7305 25.4829 77.7445 26.1405C77.7716 27.463 77.747 28.4329 77.6706 29.0503C77.559 29.95 77.2503 30.8764 76.7446 31.8295C76.5271 32.24 76.0661 32.8286 75.3617 33.5953C73.3299 35.8086 71.826 37.4689 70.8499 38.5763C70.2379 39.2684 69.9239 40.2806 69.7921 41.2965C69.6567 42.3465 69.4613 43.7338 69.206 45.4586C69.0944 46.2089 68.8156 46.9896 68.3699 47.8007C67.5235 49.3408 66.6168 51.036 65.6497 52.8864C65.1375 53.8666 64.7237 54.5176 64.4085 54.8394C63.7665 55.4953 62.9854 55.9173 62.0651 56.1053C61.8829 56.143 61.543 56.1594 61.0455 56.1545C59.4312 56.1385 57.9523 56.5843 56.5731 57.4881C55.5863 58.1334 54.7002 58.7651 53.9145 59.3832C52.7135 60.3265 51.9899 61.5525 51.7436 63.0614C51.6512 63.6254 51.7485 64.4492 51.6488 65.0932C51.2412 67.7518 49.649 69.5349 47.2207 70.6936C46.3624 71.1024 45.6309 71.6763 45.312 72.3917C44.9286 73.2512 44.661 73.8747 44.5091 74.2622C44.4574 74.3935 44.3733 74.547 44.2567 74.7227C43.5449 75.7957 42.7852 76.6987 41.9774 77.4318C41.7451 77.6428 41.3916 77.8086 40.9171 77.9293C39.9419 78.1768 38.9937 77.7593 38.4519 76.9158C38.2869 76.6589 38.1691 76.2751 38.0985 75.7645C38.0386 75.3286 37.9499 74.8327 37.8325 74.277C37.6133 73.234 36.7513 72.6047 35.8007 72.1368C34.1744 71.3364 33.262 70.8906 33.0633 70.7995C32.4115 70.5023 31.9727 70.2265 31.7469 69.972C30.9379 69.0571 30.7778 67.8774 31.3307 66.8135C31.4752 66.5352 31.7564 66.1953 32.1742 65.7939C33.5575 64.4615 35.0602 63.0044 36.6824 61.4224C36.9028 61.2082 36.9336 61.0444 36.8129 60.7501C35.8417 58.3833 35.2379 56.9438 35.0015 56.4316C34.8537 56.1098 34.5767 55.8397 34.1703 55.6213C33.9667 55.5105 33.4487 55.2375 32.6163 54.8024C31.4822 54.2089 30.8135 53.7151 30.4429 52.6487C30.3411 52.3565 30.2935 51.8943 30.3 51.2622C30.3263 48.7682 30.3304 46.9917 30.3124 45.9327C30.305 45.5345 30.0944 45.2226 29.6807 44.9968C29.1725 44.7202 28.2149 44.251 26.8078 43.5893C25.5329 42.9901 24.8203 41.9807 24.6701 40.5613C24.6299 40.173 24.5946 39.5692 24.5642 38.75C24.5396 38.0813 24.0606 37.7772 23.4523 37.4718C21.2177 36.3528 19.5828 35.5434 18.5476 35.0434C17.9262 34.743 17.5005 34.486 17.2706 34.2726C16.8766 33.9056 16.5737 33.5034 16.3619 33.0658C16.0429 32.4083 16.0183 31.5118 15.9531 30.6572C15.9219 30.2468 15.7142 30.0793 15.33 30.1548C15.2973 30.1613 15.2662 30.1725 15.2376 30.1881C12.5835 31.5689 11.1592 32.3098 10.9647 32.4107C9.99679 32.9123 9.03672 33.0014 8.08444 32.6779C6.98973 32.3073 6.19794 31.3702 5.0589 30.7385C3.80533 30.044 3.03284 29.6224 2.74141 29.4739C1.8507 29.0207 1.26209 28.6398 0.975586 28.3311C-0.0871082 27.1859 -0.165919 25.9237 0.192417 24.3943C0.30078 23.9322 0.423511 23.3083 0.560607 22.5226C0.691956 21.7649 0.866403 21.1697 1.08395 20.7371C1.49688 19.9145 2.22258 19.2996 3.26106 18.8925C5.01456 18.2045 6.29973 17.7038 7.11656 17.3902ZM40.5551 75.432C41.2669 74.7363 42.1325 73.8238 42.4761 72.9126C42.7478 72.1926 42.9728 71.6483 43.1509 71.2797C43.6123 70.3291 44.3018 69.5812 45.2196 69.0361C45.7935 68.695 46.5422 68.3934 47.0212 68.0818C48.1573 67.3405 48.8892 66.2934 49.2167 64.9405C49.3584 64.3581 49.2709 63.5884 49.3276 63.102C49.4089 62.3887 49.5537 61.7196 49.7623 61.0949C50.2647 59.5827 51.3446 58.2663 52.624 57.2935C53.5459 56.5916 54.4502 55.9567 55.3368 55.3886C57.0361 54.3017 58.8557 53.7594 60.7956 53.7619C61.4113 53.7627 61.8061 53.7254 61.9802 53.6498C62.444 53.4487 62.7785 53.1544 62.9838 52.7669C64.1996 50.4634 65.2319 48.5346 66.0807 46.9806C66.4785 46.2516 66.7789 45.5079 66.8897 44.7752C66.9735 44.2169 67.1939 42.7109 67.551 40.2572C67.7497 38.8879 68.3703 37.6343 69.4129 36.4965C71.2435 34.4984 72.548 33.0749 73.3263 32.226C73.9707 31.5233 74.3212 31.1301 74.3779 31.0463C74.6915 30.5883 74.9234 30.1142 75.0736 29.6241C75.4159 28.5072 75.3741 27.6243 75.3519 26.1294C75.3453 25.7123 75.2091 25.3364 74.9431 25.0014C74.8027 24.8249 74.4727 24.5926 73.953 24.3045C72.5501 23.527 71.7283 23.046 71.4878 22.8613C69.8878 21.6323 69.0073 20.953 68.8464 20.8233C67.9114 20.0648 66.8778 19.6116 65.7458 19.4638C64.6195 19.3152 62.9858 19.0903 60.8448 18.789C59.8901 18.6544 59.2629 18.5033 58.9633 18.3359C58.1752 17.8963 57.6752 17.2178 57.3957 16.3275C57.1987 15.7007 56.7972 15.468 56.1076 15.2771C55.033 14.9783 53.6867 14.6117 52.0687 14.1775C51.1566 13.9336 50.5512 13.7411 50.2524 13.5999C49.0407 13.0286 48.2082 12.3636 47.4817 11.1741C47.2584 10.8079 47.0318 10.2427 46.802 9.47844C46.6526 8.98178 46.2491 7.72781 45.5915 5.71653C45.5053 5.45383 45.4253 5.2839 45.3514 5.20673C45.1113 4.95676 44.6815 4.97523 44.4833 5.26214C43.8577 6.16763 43.3537 6.89128 42.9711 7.4331C42.3025 8.3825 41.3617 8.62632 40.1032 8.60785C39.797 8.60292 39.1513 8.60744 38.1662 8.62139C37.2205 8.63494 36.5986 9.31221 35.898 9.50431C35.5047 9.61185 34.5594 9.81544 33.0621 10.1151C32.5359 10.2202 32.1053 10.2698 31.7703 10.2641C30.5389 10.2419 29.4861 9.34053 29.1007 8.17563C28.9841 7.82427 28.9168 7.3432 28.8987 6.73243C28.8807 6.13315 28.8236 4.77492 28.7276 2.65774C28.7273 2.64905 28.7248 2.64058 28.7203 2.63311C28.7159 2.62563 28.7096 2.6194 28.7022 2.61498C28.6947 2.61056 28.6862 2.6081 28.6775 2.60783C28.6688 2.60755 28.6602 2.60947 28.6524 2.61341C28.1533 2.872 27.2597 3.31572 25.9717 3.94455C25.4373 4.20561 24.9706 4.33778 24.5716 4.34106C23.1842 4.35419 22.0066 4.36405 21.0387 4.37062C21.0245 4.37068 21.0104 4.37391 20.9976 4.38008C20.9847 4.38625 20.9734 4.39519 20.9644 4.40627C20.9555 4.41736 20.9491 4.43029 20.9458 4.44414C20.9424 4.458 20.9422 4.47242 20.9451 4.48637C21.1766 5.64388 21.3782 6.7 21.5497 7.65475C21.748 8.76547 21.0929 10.0535 20.029 10.4377C19.066 10.7858 18.3034 11.0509 17.741 11.2332C17.1992 11.408 16.8343 11.5041 16.6463 11.5213C15.7548 11.6051 14.9569 11.3526 14.2525 10.764C14.0571 10.6007 13.4201 10.0387 12.3414 9.07824C12.1017 8.8648 11.8455 8.80036 11.573 8.88491C11.1732 9.00887 10.7455 9.15582 10.2899 9.32575C9.89253 9.47516 9.68853 9.72636 9.67786 10.0794C9.65652 10.8042 9.67827 12.4449 9.74312 15.0013C9.76775 15.9634 9.78007 16.4522 9.78007 16.4678C9.77432 17.0975 9.73656 17.5248 9.66678 17.7497C9.42296 18.5267 8.9538 19.2373 8.19526 19.5439C6.09368 20.3935 4.69933 20.9596 4.01221 21.242C3.52129 21.4439 3.22658 21.7645 3.12807 22.2037C2.89739 23.2323 2.65111 24.3796 2.38923 25.6454C2.38024 25.6896 2.37734 25.7347 2.38061 25.7797C2.4274 26.3794 2.69831 26.6613 3.2586 26.9754C4.0746 27.431 4.89594 27.8788 5.72262 28.3188C6.66094 28.8171 7.56725 29.4295 8.44154 30.156C8.85201 30.4967 9.30187 30.5394 9.79115 30.2841C12.1136 29.0716 13.3807 28.4091 13.5925 28.2966C14.1244 28.0142 14.5636 27.8295 14.9101 27.7425C16.2314 27.4125 17.6093 28.1624 18.1055 29.3987C18.2032 29.6417 18.2763 30.035 18.3247 30.5784C18.4146 31.5598 18.4442 32.3701 19.364 32.737C19.3648 32.737 19.4945 32.8007 19.7531 32.9279C22.463 34.2652 23.9969 35.0172 24.3549 35.1838C25.2329 35.5927 25.9766 36.0914 26.4113 36.7896C26.7832 37.3872 26.9679 37.9701 26.9654 38.5382C26.963 39.0767 26.9929 39.6485 27.0553 40.2535C27.107 40.7633 27.3373 41.1233 27.7461 41.3334C28.4521 41.6971 29.2123 42.0669 30.0267 42.4429C30.8156 42.8082 31.357 43.1386 31.6509 43.4342C32.6791 44.4686 32.7739 45.4303 32.7616 46.9744C32.737 49.9323 32.7243 51.4387 32.7234 51.4937C32.7185 51.9074 32.8852 52.2025 33.2234 52.379C34.0615 52.8174 34.8152 53.2238 35.4842 53.5981C36.3322 54.0726 36.9278 54.7388 37.271 55.5967C37.7488 56.792 38.2668 58.0402 38.825 59.3414C39.1345 60.0621 39.2987 60.5354 39.3176 60.7612C39.3578 61.2562 39.2782 61.7524 39.0787 62.2499C38.9728 62.5134 38.6534 62.9026 38.1206 63.4173C35.3984 66.0451 33.9425 67.4513 33.7529 67.636C33.6265 67.7592 33.5308 67.8848 33.466 68.0129C33.4458 68.0532 33.4364 68.0982 33.4389 68.1434C33.4438 68.2394 33.5518 68.3396 33.7627 68.4438C35.6386 69.3682 36.7238 69.901 37.0185 70.0422C38.5245 70.7638 39.7867 71.9176 40.1426 73.5381C40.2838 74.1784 40.3995 74.8023 40.4898 75.4098C40.4907 75.417 40.4935 75.4238 40.4981 75.4294C40.5026 75.435 40.5087 75.4392 40.5155 75.4415C40.5223 75.4438 40.5297 75.4442 40.5367 75.4425C40.5437 75.4408 40.5501 75.4372 40.5551 75.432Z" fill="#F4F4F4"/>
<path d="M50.1178 24.0752C56.7205 24.0752 61.624 29.6977 61.2779 36.1379C61.2065 37.4547 60.865 38.8446 60.2534 40.3075C60.072 40.7417 59.3336 41.9764 58.0381 44.0115C54.4466 49.657 52.1734 53.1952 51.2187 54.6261C50.9404 55.0432 50.5738 55.2517 50.119 55.2517C49.6634 55.2517 49.2964 55.0432 49.0182 54.6261C48.0634 53.1952 45.7903 49.657 42.1987 44.0115C40.9024 41.9772 40.1636 40.743 39.9822 40.3087C39.3706 38.8458 39.0295 37.4555 38.9589 36.1379C38.6104 29.6977 43.515 24.0752 50.1178 24.0752ZM50.1904 52.0624C52.3249 48.7704 54.6941 45.0578 57.2981 40.9244C57.8226 40.0911 58.183 39.4126 58.3792 38.8889C59.2215 36.6453 59.3175 34.3401 58.4063 32.0953C57.1959 29.1104 54.69 27.0318 51.513 26.4838C48.1389 25.9026 44.7132 27.4775 42.8193 30.2506C41.1027 32.7639 40.7641 35.9631 41.8243 38.847C42.032 39.4126 42.5057 40.2795 43.2454 41.4477C45.9963 45.7962 48.2584 49.3344 50.0316 52.0624C50.0402 52.0756 50.052 52.0864 50.0659 52.0939C50.0797 52.1015 50.0952 52.1054 50.111 52.1054C50.1268 52.1054 50.1423 52.1015 50.1562 52.0939C50.1701 52.0864 50.1818 52.0756 50.1904 52.0624Z" fill="#EFBF04"/>
<path d="M55.1259 35.5278C55.1259 36.8537 54.5992 38.1254 53.6616 39.0629C52.724 40.0005 51.4524 40.5273 50.1264 40.5273C48.8005 40.5273 47.5288 40.0005 46.5913 39.0629C45.6537 38.1254 45.127 36.8537 45.127 35.5278C45.127 34.2018 45.6537 32.9302 46.5913 31.9926C47.5288 31.0551 48.8005 30.5283 50.1264 30.5283C51.4524 30.5283 52.724 31.0551 53.6616 31.9926C54.5992 32.9302 55.1259 34.2018 55.1259 35.5278ZM52.854 35.529C52.854 34.8043 52.5661 34.1093 52.0536 33.5969C51.5412 33.0844 50.8462 32.7965 50.1215 32.7965C49.3968 32.7965 48.7018 33.0844 48.1893 33.5969C47.6769 34.1093 47.389 34.8043 47.389 35.529C47.389 36.2537 47.6769 36.9487 48.1893 37.4612C48.7018 37.9736 49.3968 38.2615 50.1215 38.2615C50.8462 38.2615 51.5412 37.9736 52.0536 37.4612C52.5661 36.9487 52.854 36.2537 52.854 35.529Z" fill="#EFBF04"/>
</svg>
