<svg width="79" height="80" viewBox="0 0 79 80" fill="none" xmlns="http://www.w3.org/2000/svg">
<path d="M66.9547 17.9636C67.5246 18.0792 68.2901 18.2306 68.8379 18.4552C72.0122 19.7549 74.3869 22.3678 75.1627 25.6697C75.3611 26.5168 75.4501 27.9651 75.4297 30.0144C75.4173 31.2959 75.4139 34.8875 75.4195 40.7893C75.4207 41.3847 75.3475 41.8128 75.2001 42.0736C74.2883 43.688 71.7179 43.1301 71.7128 41.2265C71.6992 35.2725 71.6992 31.2352 71.7128 29.1145C71.7162 28.502 71.7037 27.9923 71.6753 27.5851C71.4814 24.8803 69.5574 22.5719 66.9853 21.8268C66.4342 21.6669 65.5093 21.587 64.2108 21.587C41.8716 21.5915 24.1776 21.5926 11.1288 21.5904C10.0389 21.5892 9.21616 21.6624 8.66046 21.8098C6.38435 22.412 4.6458 24.1438 3.99086 26.345C3.81962 26.9245 3.73456 28.0972 3.73569 29.863C3.74477 42.3016 3.7442 54.3944 3.73399 66.1412C3.73286 67.6144 3.81621 68.6345 3.98406 69.2016C4.64069 71.4266 6.33161 73.092 8.61282 73.7555C9.2241 73.9324 10.0463 73.997 11.0795 73.9494C11.1713 73.946 21.1785 73.9443 41.101 73.9443C43.2597 73.9443 43.8687 76.6746 42.0485 77.6102C41.833 77.7214 41.4463 77.7764 40.8883 77.7752C28.4565 77.765 18.7652 77.7667 11.8143 77.7803C10.0089 77.7837 8.76082 77.7038 8.07016 77.5405C4.2001 76.6236 1.15508 73.5598 0.258587 69.6898C0.0850716 68.9379 -0.00111707 67.6484 1.70123e-05 65.8214C0.00568744 53.7411 0.00568744 41.5877 1.70123e-05 29.3611C-0.00111707 27.9106 0.0544498 26.8667 0.166724 26.2293C0.525662 24.1999 1.50721 22.5345 2.88172 20.8283C3.51227 20.0469 4.29877 19.3471 5.24119 18.7291C5.76968 18.3832 6.72458 17.9363 8.10589 17.3886C19.2908 12.9554 31.624 8.15996 45.6753 2.72315C47.1315 2.15951 48.6177 1.58794 50.134 1.00842C51.5459 0.469728 52.6029 0.158987 53.3049 0.0761985C57.4862 -0.41883 61.2866 1.52386 63.3398 5.15407C63.7333 5.84813 64.1734 7.14552 64.6599 9.04625C65.6658 12.9747 66.3905 15.908 66.8339 17.8462C66.8404 17.8754 66.8553 17.9021 66.8767 17.923C66.8982 17.9438 66.9253 17.9579 66.9547 17.9636ZM63.0166 17.7067C61.6909 12.5761 60.9849 9.8265 60.8987 9.45792C60.4462 7.52714 59.764 6.07608 58.2807 4.97375C56.6459 3.75914 54.4497 3.45294 52.57 4.16911C47.4473 6.12314 37.6301 9.92913 23.1183 15.5871C19.7807 16.889 17.9515 17.5927 17.6305 17.6982C17.6213 17.701 17.6133 17.7067 17.6076 17.7144C17.602 17.7221 17.5989 17.7315 17.5989 17.7413C17.5989 17.751 17.602 17.7606 17.6076 17.7688C17.6133 17.7769 17.6213 17.7831 17.6305 17.7866L17.6747 17.802C17.6803 17.8042 17.6867 17.8054 17.6934 17.8054H62.9401C62.9522 17.8055 62.9641 17.8029 62.975 17.7976C62.9859 17.7924 62.9955 17.7846 63.0029 17.7751C63.0103 17.7655 63.0154 17.7544 63.0178 17.7425C63.0202 17.7306 63.0198 17.7184 63.0166 17.7067Z" fill="#F4F4F4"/>
<path d="M42.1418 57.7252C43.0115 52.8914 45.7696 48.6018 49.8092 45.8C53.8488 42.9982 58.839 41.9137 63.6821 42.7851C68.5252 43.6565 72.8245 46.4124 75.6341 50.4466C78.4437 54.4808 79.5335 59.4628 78.6637 64.2965C77.794 69.1303 75.036 73.42 70.9964 76.2218C66.9568 79.0236 61.9666 80.1081 57.1234 79.2367C52.2803 78.3653 47.9811 75.6093 45.1715 71.5752C42.3619 67.541 41.2721 62.559 42.1418 57.7252ZM45.5706 60.8051C45.4601 69.0079 52.12 75.6134 60.2123 75.7222C68.3045 75.8311 75.1396 69.4077 75.2502 61.2048C75.3608 53.0037 68.7009 46.3982 60.6086 46.2876C52.5163 46.1787 45.6812 52.6039 45.5706 60.8051Z" fill="#EFBF04"/>
<path d="M53.0237 65.0947V55.27H56.6767C57.3449 55.27 57.9339 55.3931 58.4438 55.6392C58.9625 55.8766 59.3669 56.2283 59.6571 56.6942C59.9472 57.1514 60.0923 57.7097 60.0923 58.3691C60.0923 59.046 59.9296 59.6219 59.6043 60.0966C59.2878 60.5714 58.857 60.9231 58.3119 61.1516L60.567 65.0947H58.5361L56.1228 60.7824L57.2833 61.4681H54.8172V65.0947H53.0237ZM54.8172 59.8856H56.7031C57.0284 59.8856 57.3097 59.8241 57.5471 59.701C57.7844 59.5691 57.9691 59.3889 58.1009 59.1603C58.2328 58.9317 58.2988 58.668 58.2988 58.3691C58.2988 58.0614 58.2328 57.7976 58.1009 57.5778C57.9691 57.3492 57.7844 57.1734 57.5471 57.0503C57.3097 56.9184 57.0284 56.8525 56.7031 56.8525H54.8172V59.8856ZM64.9101 65.253C64.2859 65.253 63.7057 65.1387 63.1694 64.9101C62.6419 64.6815 62.1847 64.365 61.7979 63.9606C61.4198 63.5474 61.1429 63.0682 60.967 62.5231L62.4572 61.877C62.6946 62.4396 63.0375 62.8836 63.4859 63.2089C63.9343 63.5254 64.4398 63.6837 65.0024 63.6837C65.3189 63.6837 65.5915 63.6353 65.8201 63.5386C66.0574 63.4331 66.2377 63.2924 66.3608 63.1166C66.4926 62.9408 66.5586 62.7298 66.5586 62.4836C66.5586 62.1935 66.4707 61.9561 66.2948 61.7715C66.1278 61.578 65.8728 61.4286 65.5299 61.3231L63.6441 60.7165C62.8792 60.4791 62.3034 60.123 61.9166 59.6483C61.5297 59.1735 61.3363 58.6152 61.3363 57.9734C61.3363 57.4108 61.4726 56.914 61.7451 56.4832C62.0264 56.0524 62.4133 55.7184 62.9056 55.481C63.4067 55.2348 63.9782 55.1117 64.62 55.1117C65.209 55.1117 65.7497 55.2172 66.2421 55.4282C66.7344 55.6304 67.1564 55.9162 67.5081 56.2854C67.8685 56.6459 68.1367 57.0723 68.3125 57.5646L66.8355 58.224C66.6421 57.7317 66.352 57.3536 65.9651 57.0899C65.5783 56.8173 65.1299 56.6811 64.62 56.6811C64.3211 56.6811 64.0573 56.7338 63.8288 56.8393C63.6002 56.936 63.4199 57.0767 63.2881 57.2613C63.165 57.4371 63.1034 57.6481 63.1034 57.8943C63.1034 58.1669 63.1914 58.4086 63.3672 58.6196C63.543 58.8218 63.8112 58.9801 64.1716 59.0944L65.9783 59.6614C66.7608 59.9164 67.3454 60.2681 67.7323 60.7165C68.1279 61.1648 68.3257 61.7187 68.3257 62.3781C68.3257 62.9408 68.1806 63.4375 67.8905 63.8683C67.6004 64.2991 67.2004 64.6376 66.6905 64.8837C66.1805 65.1299 65.5871 65.253 64.9101 65.253ZM64.2771 66.4135V53.9512H65.3981V66.4135H64.2771Z" fill="#EFBF04"/>
</svg>
