<svg width="76" height="81" viewBox="0 0 76 81" fill="none" xmlns="http://www.w3.org/2000/svg">
<path d="M44.8696 37.263C49.7588 37.6443 54.1601 39.3102 58.0733 42.2607C58.2532 42.395 58.3599 42.5611 58.3935 42.7589C58.3993 42.7929 58.3973 42.8278 58.3876 42.8609C58.378 42.894 58.3609 42.9245 58.3376 42.95C58.3144 42.9755 58.2856 42.9953 58.2535 43.008C58.2214 43.0207 58.1869 43.0259 58.1525 43.0232C57.1142 42.9453 56.1161 43.046 55.1582 43.3254C55.0863 43.3463 55.0109 43.3521 54.9369 43.3421C54.8628 43.3322 54.7918 43.3069 54.7284 43.2678C51.1915 41.1086 47.328 40.0164 43.1378 39.9912C39.9511 39.972 37.9099 39.9786 37.0143 40.011C35.3766 40.0697 33.5542 40.0745 31.5472 40.0253C29.4371 39.9738 27.1574 39.9624 24.708 39.9912C17.7608 40.0739 11.3136 43.5538 7.24208 49.1288C5.93406 50.9199 4.87601 52.9185 4.06794 55.1246C3.04286 57.9228 2.71376 60.7877 2.72635 64.1722C2.73834 66.9945 2.73774 68.8528 2.72455 69.7472C2.71136 70.5661 2.79289 71.1805 2.96913 71.5906C3.34799 72.4766 3.97382 73.1036 4.84664 73.4717C5.2207 73.6299 5.91188 73.7096 6.92017 73.7108C13.5502 73.7132 23.1206 73.7108 35.6313 73.7037C36.2812 73.7037 36.7098 73.769 36.9172 73.8997C37.6509 74.3601 37.7696 75.4984 37.1006 76.0793C36.8297 76.3155 36.4598 76.4336 35.991 76.4336C32.0562 76.4336 22.0446 76.4324 5.95624 76.43C4.28734 76.43 2.45659 75.5308 1.37756 74.2018C0.459188 73.0676 0 71.7314 0 70.1932C0 67.9428 0.00539449 65.2902 0.0161848 62.2354C0.0341686 57.3492 1.72105 52.3407 4.50494 48.2314C6.02638 45.9858 7.85113 44.0333 9.97922 42.374C13.8326 39.3671 18.3081 37.6557 23.4059 37.2397C23.4117 37.2389 23.4171 37.2364 23.4214 37.2325C23.4257 37.2286 23.4287 37.2235 23.4301 37.2179C23.4314 37.2122 23.4311 37.2063 23.429 37.2009C23.4269 37.1955 23.4233 37.1908 23.4185 37.1875C18.8866 34.2825 15.9151 30.2361 14.5039 25.0484C13.5652 21.5937 13.7091 17.4233 14.842 14.0064C16.9731 7.58793 22.0913 2.60641 28.6069 0.773859C40.0931 -2.45603 51.5974 4.75008 53.9766 16.3299C54.2248 17.5456 54.268 18.7235 54.2985 19.9968C54.464 26.9601 50.7 33.4774 44.8462 37.1695C44.837 37.1751 44.8297 37.1834 44.8256 37.1934C44.8214 37.2034 44.8206 37.2145 44.8232 37.2249C44.8259 37.2354 44.8318 37.2448 44.8401 37.2517C44.8485 37.2585 44.8588 37.2625 44.8696 37.263ZM51.5989 20.031C51.587 17.7575 51.1227 15.5086 50.2326 13.4127C49.3424 11.3168 48.0438 9.41501 46.4108 7.81588C44.7779 6.21674 42.8427 4.9516 40.7156 4.09266C38.5885 3.23373 36.3113 2.79783 34.0139 2.80986C31.7165 2.82189 29.4439 3.28161 27.3259 4.16277C25.208 5.04394 23.2861 6.32929 21.67 7.94543C20.0539 9.56158 18.7753 11.4769 17.9071 13.582C17.0389 15.6871 16.5982 17.9407 16.6101 20.2143C16.622 22.4878 17.0863 24.7367 17.9765 26.8326C18.8666 28.9285 20.1653 30.8303 21.7982 32.4294C23.4311 34.0286 25.3664 35.2937 27.4934 36.1526C29.6205 37.0116 31.8978 37.4475 34.1952 37.4354C36.4926 37.4234 38.7651 36.9637 40.8831 36.0825C43.0011 35.2014 44.923 33.916 46.539 32.2999C48.1551 30.6837 49.4338 28.7684 50.302 26.6633C51.1701 24.5582 51.6108 22.3046 51.5989 20.031Z" fill="#F4F4F4"/>
<path d="M59.6853 46.3955C69.0081 46.7498 76.3455 54.4289 75.9877 63.8524C75.628 73.2759 67.7277 80.3741 58.4067 80.0199C49.0839 79.6656 41.7465 71.9865 42.1044 62.563C42.464 53.1395 50.3643 46.0412 59.6853 46.3955ZM44.7696 63.2086C44.7696 66.9537 46.2732 70.5454 48.9497 73.1936C51.6262 75.8418 55.2564 77.3295 59.0415 77.3295C62.8267 77.3295 66.4568 75.8418 69.1333 73.1936C71.8098 70.5454 73.3135 66.9537 73.3135 63.2086C73.3135 59.4635 71.8098 55.8718 69.1333 53.2236C66.4568 50.5754 62.8267 49.0877 59.0415 49.0877C55.2564 49.0877 51.6262 50.5754 48.9497 53.2236C46.2732 55.8718 44.7696 59.4635 44.7696 63.2086Z" fill="#EFBF04"/>
<path d="M59.0208 61.3683C59.0436 61.3683 59.0574 61.3659 59.0622 61.3611C61.8808 58.5544 63.3154 57.1271 63.3657 57.0791C63.8477 56.6223 64.6462 56.6853 65.0958 57.1331C65.5435 57.5809 65.6065 58.3812 65.1479 58.8631C65.1 58.9123 63.6726 60.3462 60.866 63.1648C60.86 63.1696 60.857 63.1828 60.857 63.2044C60.857 63.2272 60.86 63.241 60.866 63.2458C63.6714 66.0644 65.0982 67.4989 65.1461 67.5493C65.6047 68.0313 65.54 68.8297 65.0922 69.2793C64.6444 69.7271 63.8441 69.7901 63.3621 69.3315C63.313 69.2835 61.8796 67.8562 59.0622 65.0495C59.0574 65.0436 59.0436 65.0406 59.0208 65.0406C58.998 65.0406 58.9843 65.0436 58.9795 65.0495C56.1608 67.855 54.7269 69.2817 54.6777 69.3297C54.194 69.7883 53.3955 69.7235 52.9477 69.2757C52.4999 68.8279 52.4369 68.0277 52.8937 67.5457C52.9417 67.4965 54.3696 66.0632 57.1775 63.2458C57.1823 63.241 57.1847 63.2272 57.1847 63.2044C57.1847 63.1816 57.1823 63.1678 57.1775 63.163C54.3708 60.3444 52.9435 58.9105 52.8955 58.8613C52.4387 58.3776 52.5017 57.5791 52.9495 57.1313C53.3973 56.6835 54.1976 56.6205 54.6795 57.0773C54.7287 57.1253 56.162 58.5532 58.9795 61.3611C58.9855 61.3659 58.9992 61.3683 59.0208 61.3683Z" fill="#EFBF04"/>
</svg>
