<svg width="65" height="80" viewBox="0 0 65 80" fill="none" xmlns="http://www.w3.org/2000/svg">
<path d="M32.1877 0C32.7772 0 33.3587 0.155601 33.9322 0.466803C38.5136 2.9524 43.4992 5.50056 48.4235 7.72509C51.4585 9.09743 54.3821 10.2167 57.1941 11.0829C58.5392 11.4976 59.3705 11.7495 59.6881 11.8385C60.803 12.1489 61.5958 12.4557 62.0666 12.7589C63.1895 13.4807 63.9162 14.4749 64.2466 15.7413C64.3501 16.1351 64.4022 16.8374 64.4031 17.848C64.4119 29.34 64.4143 35.8563 64.4103 37.3971C64.4067 38.8047 64.3008 40.3423 64.1011 41.7619C62.8803 50.4315 59.3432 57.9929 53.4897 64.4464C49.3162 69.0482 44.3017 72.927 38.9226 76.5507C37.4653 77.5333 35.9614 78.4789 34.411 79.3876C33.7164 79.7951 32.9954 79.9992 32.2478 80C31.5003 80 30.7793 79.7971 30.0847 79.3912C28.5327 78.4849 27.0272 77.5413 25.5683 76.5603C20.1844 72.945 15.1639 69.0735 10.9831 64.4776C5.11999 58.033 1.57166 50.4772 0.33808 41.8101C0.135959 40.3904 0.0276797 38.8529 0.0216642 37.4452C0.0160498 35.9045 0.00883205 29.3881 9.32658e-06 17.8961C-0.000792739 16.8855 0.0501371 16.1833 0.152801 15.7895C0.481648 14.5222 1.20712 13.5268 2.32921 12.8034C2.79922 12.4994 3.59166 12.1914 4.70653 11.8794C5.02334 11.7904 5.85428 11.5373 7.19935 11.1202C10.0098 10.25 12.9313 9.1263 15.9639 7.74916C20.8858 5.51741 25.8678 2.96203 30.4456 0.469208C31.0183 0.157204 31.599 0.000802065 32.1877 0ZM32.2924 3.59606C32.2689 3.58316 32.2425 3.57639 32.2158 3.57639C32.1891 3.57639 32.1629 3.58316 32.1396 3.59606C27.6677 6.02391 23.3558 8.30499 19.0402 10.3202C14.5515 12.416 10.0808 14.1099 5.19859 15.3985C4.65159 15.5428 4.31311 15.6607 4.18318 15.7522C3.88 15.9655 3.64058 16.2378 3.46493 16.5691C3.34622 16.7928 3.28727 17.2933 3.28807 18.0705C3.29369 26.1401 3.29369 30.9381 3.28807 32.4644C3.27524 35.9831 3.30211 38.1679 3.36868 39.0189C3.69232 43.1924 4.73059 47.3034 6.34274 51.1605C8.78864 57.0136 12.8527 62.1099 17.6952 66.2715C22.06 70.0227 26.7044 73.3778 31.6283 76.3366C31.9062 76.5026 32.1925 76.7083 32.5294 76.5086C37.1116 73.7912 41.4319 70.753 45.4904 67.394C49.7337 63.8833 53.6004 59.723 56.3074 54.8721C58.8484 50.318 60.3975 45.376 60.955 40.0463C61.0592 39.0453 61.1114 38.0319 61.1114 37.0061C61.1082 27.5794 61.1118 21.2527 61.1222 18.026C61.1246 17.2865 61.0588 16.7848 60.9249 16.5209C60.6731 16.0237 60.2877 15.7048 59.7687 15.5645C57.5358 14.9613 55.4769 14.3317 53.592 13.6756C50.6236 12.6418 47.4907 11.3328 44.1934 9.7487C40.382 7.91679 36.415 5.8659 32.2924 3.59606Z" fill="#F4F4F4"/>
<path d="M28.0649 44.9194C28.4098 44.5424 28.5834 44.3523 28.5858 44.3491C34.5772 38.2013 40.1336 32.4689 45.2547 27.152C45.7761 26.6107 46.3756 26.4446 47.0534 26.654C48.0652 26.9656 48.3732 28.0532 48.0327 28.9735C47.9774 29.1235 47.7921 29.3621 47.4769 29.6894C41.2224 36.1845 35.2418 42.35 29.5351 48.1858C29.1898 48.5383 28.8649 48.809 28.4029 48.8956C27.3286 49.099 26.8353 48.5455 26.0136 47.7262C24.2531 45.9697 21.2898 43.0237 17.1239 38.8883C16.7028 38.4704 16.467 38.1628 16.4165 37.9655C16.1181 36.8021 16.7558 35.7674 17.9986 35.7277C18.4862 35.7125 18.9109 35.8837 19.2726 36.2415C22.4488 39.388 25.3515 42.2814 27.9807 44.9218C27.9863 44.9273 27.993 44.9315 28.0003 44.9344C28.0076 44.9372 28.0154 44.9385 28.0233 44.9383C28.0311 44.9381 28.0388 44.9363 28.046 44.933C28.0531 44.9298 28.0596 44.9252 28.0649 44.9194Z" fill="#EFBF04"/>
</svg>
