<svg width="190" height="224" viewBox="0 0 190 224" fill="none" xmlns="http://www.w3.org/2000/svg">
<g filter="url(#filter0_f_151_4445)">
<path d="M113.764 7.85728C113.764 7.83016 113.753 7.80414 113.734 7.78495C113.715 7.76577 113.689 7.75499 113.662 7.75499C50.8236 7.75305 16.7694 7.7511 11.4991 7.74915C9.84493 7.74915 8.71099 8.37847 8.09726 9.6371C7.81864 10.2099 7.67934 11.1325 7.67934 12.4047C7.67349 71.052 7.67349 131.27 7.67934 193.058C7.67934 194.616 8.2921 195.693 9.51761 196.287C10.0904 196.566 10.9983 196.704 12.2414 196.702C38.6318 196.679 67.8308 196.68 99.8383 196.705C100.966 196.707 101.706 196.824 102.056 197.056C103.152 197.781 103.05 199.829 101.755 200.414C101.432 200.562 100.879 200.636 100.095 200.636C57.1226 200.653 27.5925 200.649 11.5049 200.621C8.03296 200.615 5.01107 198.526 4.07878 195.168C3.89369 194.505 3.80115 193.39 3.80115 191.822C3.81673 126.076 3.81673 66.6049 3.80115 13.4072C3.80115 11.0672 3.93461 9.52021 4.20153 8.7662C5.04517 6.38921 6.84739 4.81104 9.60821 4.0317C10.1635 3.87583 11.162 3.79887 12.6038 3.80082C30.5364 3.81835 63.8259 3.8203 112.472 3.80666C114.372 3.80666 115.801 3.79205 117.259 4.47885C118.088 4.86852 118.952 5.50757 119.852 6.39602C127.039 13.4919 134.752 21.1918 142.989 29.4957C148.217 34.764 151.962 38.5185 154.224 40.7591C155.484 42.006 156.298 43.0036 156.664 43.7518C157.163 44.7649 157.412 46.0226 157.412 47.5247C157.426 77.4943 157.424 97.4658 157.406 107.439C157.404 108.842 156.727 109.533 155.375 109.512C154.666 109.5 154.158 109.215 153.852 108.658C153.679 108.342 153.592 107.75 153.592 106.881C153.618 82.6379 153.615 63.925 153.584 50.7424C153.582 49.7234 153.601 48.8077 153.642 47.9953C153.642 47.9812 153.64 47.9672 153.635 47.9541C153.63 47.941 153.623 47.929 153.613 47.9189C153.604 47.9089 153.592 47.9008 153.58 47.8954C153.567 47.8899 153.553 47.8871 153.54 47.8871C150.633 47.9066 139.963 47.9134 121.529 47.9076C118.946 47.9076 116.872 46.9032 115.307 44.8945C113.7 42.8282 113.752 41.0367 113.752 38.0528C113.754 26.8673 113.758 16.8022 113.764 7.85728ZM118.671 42.9218C119.4 43.6524 120.218 44.0187 121.126 44.0206C129.266 44.0245 139.482 44.0362 151.774 44.0557C151.788 44.0557 151.802 44.053 151.815 44.0477C151.828 44.0424 151.839 44.0346 151.849 44.0249C151.859 44.0151 151.866 44.0035 151.872 43.9907C151.877 43.978 151.88 43.9643 151.88 43.9505C151.88 43.9252 151.863 43.8959 151.83 43.8628C145.473 37.4352 139.814 31.7363 134.853 26.766C129.891 21.7977 124.201 16.13 117.786 9.76277C117.752 9.72965 117.723 9.71309 117.698 9.71309C117.67 9.71308 117.644 9.72376 117.624 9.74286C117.605 9.76197 117.593 9.78799 117.593 9.81538C117.591 22.1075 117.586 32.3247 117.578 40.4668C117.576 41.3728 117.94 42.1911 118.671 42.9218Z" fill="white"/>
<path d="M120.822 68.9824H30.5631C29.5091 68.9824 28.6547 69.8368 28.6547 70.8908V70.996C28.6547 72.05 29.5091 72.9045 30.5631 72.9045H120.822C121.876 72.9045 122.731 72.05 122.731 70.996V70.8908C122.731 69.8368 121.876 68.9824 120.822 68.9824Z" fill="white"/>
<path d="M120.781 93.2314H30.5804C29.5087 93.2314 28.6399 94.1003 28.6399 95.172V95.2129C28.6399 96.2847 29.5087 97.1535 30.5804 97.1535H120.781C121.853 97.1535 122.722 96.2847 122.722 95.2129V95.172C122.722 94.1003 121.853 93.2314 120.781 93.2314Z" fill="white"/>
<path d="M141.258 219.434C140.815 219.416 140.336 219.282 139.821 219.032C131.998 215.268 124.038 210.48 117.856 205.329C112.16 200.584 107.154 195.169 103.349 188.817C99.4718 182.341 97.0714 175.268 96.1482 167.599C95.8984 165.523 95.7759 161.781 95.7804 156.373C95.791 143.039 95.7963 133.389 95.7963 127.425C95.7986 125.404 97.0722 123.697 98.9974 123.138C99.3969 123.022 100.154 122.985 101.27 123.027C105.484 123.188 109.005 123.166 112.914 122.682C114.639 122.469 116.066 122.234 117.194 121.978C124.663 120.28 131.095 116.848 136.491 111.683C137.397 110.813 138.139 109.978 138.974 109.496C141.118 108.264 143.205 108.259 145.238 109.48C145.603 109.7 146.441 110.476 147.751 111.807C152.275 116.399 157.731 119.615 164.12 121.454C166.485 122.133 169.107 122.609 171.984 122.88C174.524 123.119 177.191 123.17 179.984 123.034C181.131 122.977 181.81 122.895 182.756 123.261C183.949 123.721 184.772 124.513 185.227 125.638C185.467 126.233 185.587 127.327 185.587 128.921C185.584 147.67 185.577 158.39 185.565 161.081C185.522 170.208 183.385 179.489 178.951 187.521C173.764 196.917 165.986 204.534 157.064 210.639C152.34 213.869 147.542 216.665 142.67 219.027C142.079 219.315 141.608 219.45 141.258 219.434ZM141.469 216.605C152.734 210.975 163.477 203.83 171.376 194.016C177.59 186.291 181.312 177.445 182.541 167.479C182.815 165.257 182.948 161.604 182.94 156.52C182.928 146.301 182.922 136.756 182.922 127.885C182.922 126.952 182.779 126.358 182.053 125.876C181.824 125.726 181.265 125.675 180.375 125.722C177.318 125.887 174.273 125.831 171.242 125.554C162.365 124.739 154.24 121.415 147.547 115.415C146.501 114.477 145.65 113.652 144.993 112.94C143.815 111.662 142.7 110.906 141.047 111.456C140.557 111.619 139.975 112.052 139.301 112.754C138.968 113.102 138.291 113.743 137.269 114.677C130.381 120.973 121.239 124.764 111.986 125.54C108.078 125.869 104.239 125.917 100.471 125.686C98.9383 125.59 98.3685 126.539 98.4434 127.988C98.4661 128.402 98.4684 138.015 98.4502 156.827C98.4457 161.782 98.563 165.259 98.8021 167.256C99.5377 173.383 101.293 179.181 104.069 184.651C107.833 192.07 113.906 198.761 120.501 203.992C126.772 208.968 133.862 213.141 141.133 216.607C141.187 216.632 141.244 216.645 141.303 216.644C141.361 216.644 141.418 216.631 141.469 216.605Z" fill="#EFBF04"/>
<path d="M176.702 133.063C176.754 133.188 176.781 133.32 176.781 133.454C176.786 149.146 176.784 158.392 176.777 161.192C176.768 164.025 176.442 167.164 175.801 170.609C174.234 179.009 170.188 186.278 164.456 192.553C160.168 197.248 155.262 201.326 149.738 204.788C147.457 206.217 145.095 207.582 142.652 208.883C141.542 209.474 140.902 209.349 139.751 208.774C131.022 204.42 122.869 198.808 116.426 191.672C109.843 184.382 105.991 175.931 104.871 166.32C104.65 164.415 104.551 160.959 104.573 155.952C104.614 147.404 104.609 140.252 104.557 134.496C104.548 133.632 104.638 133.056 104.825 132.768C105.133 132.296 105.649 132.064 106.376 132.074C108.838 132.101 111.289 131.993 113.729 131.751C123.992 130.734 133.005 126.924 140.768 120.32C141.216 119.94 141.574 119.725 141.842 119.673C142.282 119.589 142.674 119.704 143.018 120.021C148.471 125.033 154.83 128.641 162.068 130.464C166.08 131.476 170.148 132.008 174.273 132.058C175.415 132.071 176.275 132.033 176.702 133.063ZM107.259 134.864C107.256 140.412 107.248 147.852 107.236 157.183C107.23 161.734 107.364 165.009 107.638 167.008C108.408 172.602 110.29 178.173 113.298 183.009C114.285 184.595 114.986 185.665 115.402 186.217C118.513 190.335 122.016 193.843 126.129 197.046C130.814 200.697 135.821 203.818 141.152 206.411C141.207 206.438 141.267 206.451 141.328 206.451C141.389 206.45 141.449 206.435 141.504 206.406C149.783 202.091 157.455 196.551 163.55 189.484C168.118 184.19 171.383 178.112 172.929 171.267C173.526 168.62 173.873 166.246 173.968 164.143C174.109 161.05 174.164 158.075 174.132 155.219C174.126 154.721 174.114 147.943 174.098 134.886C174.098 134.848 174.083 134.812 174.056 134.785C174.029 134.758 173.993 134.743 173.955 134.743C167.317 134.696 160.49 133.42 154.406 130.757C149.854 128.767 145.767 126.138 142.144 122.872C142.118 122.849 142.086 122.836 142.052 122.835C142.017 122.835 141.984 122.846 141.958 122.868C135.29 128.477 127.271 132.273 118.701 133.81C115.044 134.466 111.274 134.774 107.388 134.737C107.372 134.736 107.355 134.739 107.339 134.746C107.323 134.752 107.309 134.761 107.297 134.773C107.285 134.785 107.275 134.799 107.269 134.814C107.262 134.83 107.259 134.847 107.259 134.864Z" fill="#EFBF04"/>
<path d="M141.692 140.943C154.528 141.438 164.503 152.372 164.008 165.199C163.513 178.024 152.725 188.156 139.889 187.661C127.053 187.166 117.077 176.232 117.572 163.405C118.067 150.578 128.856 140.446 141.692 140.943ZM120.313 163.526C119.874 174.843 128.676 184.492 140.003 184.93C151.331 185.368 160.85 176.428 161.286 165.108C161.724 153.791 152.923 144.142 141.596 143.704C130.27 143.266 120.748 152.206 120.313 163.526Z" fill="#EFBF04"/>
<path d="M137.299 169.711C137.32 169.731 137.349 169.743 137.379 169.742C137.408 169.742 137.437 169.73 137.458 169.709C142.699 164.393 146.739 160.31 149.576 157.461C150.041 156.993 150.565 156.44 151.15 155.801C151.872 155.013 153.218 155.02 153.708 156.01C154.099 156.793 153.747 157.399 153.134 158.021C145.023 166.247 140.718 170.608 140.218 171.105C139.163 172.158 138.039 174.011 136.391 173.005C136.335 172.972 136.284 172.931 136.239 172.885C134.244 170.82 131.902 168.471 129.214 165.838C128.71 165.344 128.569 164.793 128.79 164.183C129.176 163.113 130.438 162.925 131.199 163.683C133.492 165.966 135.525 167.975 137.299 169.711Z" fill="#EFBF04"/>
<path d="M82.3064 117.635H30.5718C29.513 117.635 28.6547 118.493 28.6547 119.552V119.593C28.6547 120.652 29.513 121.51 30.5718 121.51H82.3064C83.3652 121.51 84.2236 120.652 84.2236 119.593V119.552C84.2236 118.493 83.3652 117.635 82.3064 117.635Z" fill="white"/>
<path d="M62.3127 142.513H30.5449C29.4877 142.513 28.6306 143.37 28.6306 144.427V144.48C28.6306 145.537 29.4877 146.394 30.5449 146.394H62.3127C63.3699 146.394 64.227 145.537 64.227 144.48V144.427C64.227 143.37 63.3699 142.513 62.3127 142.513Z" fill="white"/>
</g>
<path d="M113.764 7.85728C113.764 7.83016 113.753 7.80414 113.734 7.78495C113.715 7.76577 113.689 7.75499 113.662 7.75499C50.8236 7.75305 16.7694 7.7511 11.4991 7.74915C9.84493 7.74915 8.71099 8.37847 8.09726 9.6371C7.81864 10.2099 7.67934 11.1325 7.67934 12.4047C7.67349 71.052 7.67349 131.27 7.67934 193.058C7.67934 194.616 8.2921 195.693 9.51761 196.287C10.0904 196.566 10.9983 196.704 12.2414 196.702C38.6318 196.679 67.8308 196.68 99.8383 196.705C100.966 196.707 101.706 196.824 102.056 197.056C103.152 197.781 103.05 199.829 101.755 200.414C101.432 200.562 100.879 200.636 100.095 200.636C57.1226 200.653 27.5925 200.649 11.5049 200.621C8.03296 200.615 5.01107 198.526 4.07878 195.168C3.89369 194.505 3.80115 193.39 3.80115 191.822C3.81673 126.076 3.81673 66.6049 3.80115 13.4072C3.80115 11.0672 3.93461 9.52021 4.20153 8.7662C5.04517 6.38921 6.84739 4.81104 9.60821 4.0317C10.1635 3.87583 11.162 3.79887 12.6038 3.80082C30.5364 3.81835 63.8259 3.8203 112.472 3.80666C114.372 3.80666 115.801 3.79205 117.259 4.47885C118.088 4.86852 118.952 5.50757 119.852 6.39602C127.039 13.4919 134.752 21.1918 142.989 29.4957C148.217 34.764 151.962 38.5185 154.224 40.7591C155.484 42.006 156.298 43.0036 156.664 43.7518C157.163 44.7649 157.412 46.0226 157.412 47.5247C157.426 77.4943 157.424 97.4658 157.406 107.439C157.404 108.842 156.727 109.533 155.375 109.512C154.666 109.5 154.158 109.215 153.852 108.658C153.679 108.342 153.592 107.75 153.592 106.881C153.618 82.6379 153.615 63.925 153.584 50.7424C153.582 49.7234 153.601 48.8077 153.642 47.9953C153.642 47.9812 153.64 47.9672 153.635 47.9541C153.63 47.941 153.623 47.929 153.613 47.9189C153.604 47.9089 153.592 47.9008 153.58 47.8954C153.567 47.8899 153.553 47.8871 153.54 47.8871C150.633 47.9066 139.963 47.9134 121.529 47.9076C118.946 47.9076 116.872 46.9032 115.307 44.8945C113.7 42.8282 113.752 41.0367 113.752 38.0528C113.754 26.8673 113.758 16.8022 113.764 7.85728ZM118.671 42.9218C119.4 43.6524 120.218 44.0187 121.126 44.0206C129.266 44.0245 139.482 44.0362 151.774 44.0557C151.788 44.0557 151.802 44.053 151.815 44.0477C151.828 44.0424 151.839 44.0346 151.849 44.0249C151.859 44.0151 151.866 44.0035 151.872 43.9907C151.877 43.978 151.88 43.9643 151.88 43.9505C151.88 43.9252 151.863 43.8959 151.83 43.8628C145.473 37.4352 139.814 31.7363 134.853 26.766C129.891 21.7977 124.201 16.13 117.786 9.76277C117.752 9.72965 117.723 9.71309 117.698 9.71309C117.67 9.71308 117.644 9.72376 117.624 9.74286C117.605 9.76197 117.593 9.78799 117.593 9.81538C117.591 22.1075 117.586 32.3247 117.578 40.4668C117.576 41.3728 117.94 42.1911 118.671 42.9218Z" fill="white"/>
<path d="M120.822 68.9824H30.5631C29.5091 68.9824 28.6547 69.8368 28.6547 70.8908V70.996C28.6547 72.05 29.5091 72.9045 30.5631 72.9045H120.822C121.876 72.9045 122.731 72.05 122.731 70.996V70.8908C122.731 69.8368 121.876 68.9824 120.822 68.9824Z" fill="white"/>
<path d="M120.781 93.2314H30.5804C29.5087 93.2314 28.6399 94.1003 28.6399 95.172V95.2129C28.6399 96.2847 29.5087 97.1535 30.5804 97.1535H120.781C121.853 97.1535 122.722 96.2847 122.722 95.2129V95.172C122.722 94.1003 121.853 93.2314 120.781 93.2314Z" fill="white"/>
<path d="M141.258 219.434C140.815 219.416 140.336 219.282 139.821 219.032C131.998 215.268 124.038 210.48 117.856 205.329C112.16 200.584 107.154 195.169 103.349 188.817C99.4718 182.341 97.0714 175.268 96.1482 167.599C95.8984 165.523 95.7759 161.781 95.7804 156.373C95.791 143.039 95.7963 133.389 95.7963 127.425C95.7986 125.404 97.0722 123.697 98.9974 123.138C99.3969 123.022 100.154 122.985 101.27 123.027C105.484 123.188 109.005 123.166 112.914 122.682C114.639 122.469 116.066 122.234 117.194 121.978C124.663 120.28 131.095 116.848 136.491 111.683C137.397 110.813 138.139 109.978 138.974 109.496C141.118 108.264 143.205 108.259 145.238 109.48C145.603 109.7 146.441 110.476 147.751 111.807C152.275 116.399 157.731 119.615 164.12 121.454C166.485 122.133 169.107 122.609 171.984 122.88C174.524 123.119 177.191 123.17 179.984 123.034C181.131 122.977 181.81 122.895 182.756 123.261C183.949 123.721 184.772 124.513 185.227 125.638C185.467 126.233 185.587 127.327 185.587 128.921C185.584 147.67 185.577 158.39 185.565 161.081C185.522 170.208 183.385 179.489 178.951 187.521C173.764 196.917 165.986 204.534 157.064 210.639C152.34 213.869 147.542 216.665 142.67 219.027C142.079 219.315 141.608 219.45 141.258 219.434ZM141.469 216.605C152.734 210.975 163.477 203.83 171.376 194.016C177.59 186.291 181.312 177.445 182.541 167.479C182.815 165.257 182.948 161.604 182.94 156.52C182.928 146.301 182.922 136.756 182.922 127.885C182.922 126.952 182.779 126.358 182.053 125.876C181.824 125.726 181.265 125.675 180.375 125.722C177.318 125.887 174.273 125.831 171.242 125.554C162.365 124.739 154.24 121.415 147.547 115.415C146.501 114.477 145.65 113.652 144.993 112.94C143.815 111.662 142.7 110.906 141.047 111.456C140.557 111.619 139.975 112.052 139.301 112.754C138.968 113.102 138.291 113.743 137.269 114.677C130.381 120.973 121.239 124.764 111.986 125.54C108.078 125.869 104.239 125.917 100.471 125.686C98.9383 125.59 98.3685 126.539 98.4434 127.988C98.4661 128.402 98.4684 138.015 98.4502 156.827C98.4457 161.782 98.563 165.259 98.8021 167.256C99.5377 173.383 101.293 179.181 104.069 184.651C107.833 192.07 113.906 198.761 120.501 203.992C126.772 208.968 133.862 213.141 141.133 216.607C141.187 216.632 141.244 216.645 141.303 216.644C141.361 216.644 141.418 216.631 141.469 216.605Z" fill="#EFBF04"/>
<path d="M176.702 133.063C176.754 133.188 176.781 133.32 176.781 133.454C176.786 149.146 176.784 158.392 176.777 161.192C176.768 164.025 176.442 167.164 175.801 170.609C174.234 179.009 170.188 186.278 164.456 192.553C160.168 197.248 155.262 201.326 149.738 204.788C147.457 206.217 145.095 207.582 142.652 208.883C141.542 209.474 140.902 209.349 139.751 208.774C131.022 204.42 122.869 198.808 116.426 191.672C109.843 184.382 105.991 175.931 104.871 166.32C104.65 164.415 104.551 160.959 104.573 155.952C104.614 147.404 104.609 140.252 104.557 134.496C104.548 133.632 104.638 133.056 104.825 132.768C105.133 132.296 105.649 132.064 106.376 132.074C108.838 132.101 111.289 131.993 113.729 131.751C123.992 130.734 133.005 126.924 140.768 120.32C141.216 119.94 141.574 119.725 141.842 119.673C142.282 119.589 142.674 119.704 143.018 120.021C148.471 125.033 154.83 128.641 162.068 130.464C166.08 131.476 170.148 132.008 174.273 132.058C175.415 132.071 176.275 132.033 176.702 133.063ZM107.259 134.864C107.256 140.412 107.248 147.852 107.236 157.183C107.23 161.734 107.364 165.009 107.638 167.008C108.408 172.602 110.29 178.173 113.298 183.009C114.285 184.595 114.986 185.665 115.402 186.217C118.513 190.335 122.016 193.843 126.129 197.046C130.814 200.697 135.821 203.818 141.152 206.411C141.207 206.438 141.267 206.451 141.328 206.451C141.389 206.45 141.449 206.435 141.504 206.406C149.783 202.091 157.455 196.551 163.55 189.484C168.118 184.19 171.383 178.112 172.929 171.267C173.526 168.62 173.873 166.246 173.968 164.143C174.109 161.05 174.164 158.075 174.132 155.219C174.126 154.721 174.114 147.943 174.098 134.886C174.098 134.848 174.083 134.812 174.056 134.785C174.029 134.758 173.993 134.743 173.955 134.743C167.317 134.696 160.49 133.42 154.406 130.757C149.854 128.767 145.767 126.138 142.144 122.872C142.118 122.849 142.086 122.836 142.052 122.835C142.017 122.835 141.984 122.846 141.958 122.868C135.29 128.477 127.271 132.273 118.701 133.81C115.044 134.466 111.274 134.774 107.388 134.737C107.372 134.736 107.355 134.739 107.339 134.746C107.323 134.752 107.309 134.761 107.297 134.773C107.285 134.785 107.275 134.799 107.269 134.814C107.262 134.83 107.259 134.847 107.259 134.864Z" fill="#EFBF04"/>
<path d="M141.692 140.943C154.528 141.438 164.503 152.372 164.008 165.199C163.513 178.024 152.725 188.156 139.889 187.661C127.053 187.166 117.077 176.232 117.572 163.405C118.067 150.578 128.856 140.446 141.692 140.943ZM120.313 163.526C119.874 174.843 128.676 184.492 140.003 184.93C151.331 185.368 160.85 176.428 161.286 165.108C161.724 153.791 152.923 144.142 141.596 143.704C130.27 143.266 120.748 152.206 120.313 163.526Z" fill="#EFBF04"/>
<path d="M137.299 169.711C137.32 169.731 137.349 169.743 137.379 169.742C137.408 169.742 137.437 169.73 137.458 169.709C142.699 164.393 146.739 160.31 149.576 157.461C150.041 156.993 150.565 156.44 151.15 155.801C151.872 155.013 153.218 155.02 153.708 156.01C154.099 156.793 153.747 157.399 153.134 158.021C145.023 166.247 140.718 170.608 140.218 171.105C139.163 172.158 138.039 174.011 136.391 173.005C136.335 172.972 136.284 172.931 136.239 172.885C134.244 170.82 131.902 168.471 129.214 165.838C128.71 165.344 128.569 164.793 128.79 164.183C129.176 163.113 130.438 162.925 131.199 163.683C133.492 165.966 135.525 167.975 137.299 169.711Z" fill="#EFBF04"/>
<path d="M82.3064 117.635H30.5718C29.513 117.635 28.6547 118.493 28.6547 119.552V119.593C28.6547 120.652 29.513 121.51 30.5718 121.51H82.3064C83.3652 121.51 84.2236 120.652 84.2236 119.593V119.552C84.2236 118.493 83.3652 117.635 82.3064 117.635Z" fill="white"/>
<path d="M62.3127 142.513H30.5449C29.4877 142.513 28.6306 143.37 28.6306 144.427V144.48C28.6306 145.537 29.4877 146.394 30.5449 146.394H62.3127C63.3699 146.394 64.227 145.537 64.227 144.48V144.427C64.227 143.37 63.3699 142.513 62.3127 142.513Z" fill="white"/>
<defs>
<filter id="filter0_f_151_4445" x="2.45571e-05" y="-0.000341654" width="189.389" height="223.237" filterUnits="userSpaceOnUse" color-interpolation-filters="sRGB">
<feFlood flood-opacity="0" result="BackgroundImageFix"/>
<feBlend mode="normal" in="SourceGraphic" in2="BackgroundImageFix" result="shape"/>
<feGaussianBlur stdDeviation="1.90056" result="effect1_foregroundBlur_151_4445"/>
</filter>
</defs>
</svg>
