<svg width="42" height="51" viewBox="0 0 42 51" fill="none" xmlns="http://www.w3.org/2000/svg">
<path d="M41.0539 7.63484C41.0838 7.70559 41.0992 7.78114 41.0992 7.85704C41.1017 16.7866 41.1009 22.048 41.0966 23.6413C41.0914 25.2536 40.9062 27.0398 40.5411 29.0001C39.6497 33.78 37.3475 37.9167 34.0855 41.4874C31.6456 44.1591 28.8538 46.4797 25.7102 48.4494C24.4123 49.2625 23.0683 50.0393 21.6782 50.78C21.0465 51.1159 20.6822 51.0448 20.0272 50.718C15.0599 48.2401 10.4207 45.0466 6.75434 40.9862C3.00787 36.8375 0.81597 32.0287 0.178639 26.5597C0.0528951 25.4754 -0.00351696 23.5087 0.00940191 20.6596C0.0326559 15.7953 0.0296405 11.7254 0.000357759 8.45002C-0.00480979 7.95825 0.0460035 7.63053 0.152799 7.46689C0.327635 7.19818 0.621757 7.06641 1.03516 7.07157C2.43643 7.08708 3.83123 7.02593 5.21958 6.88813C11.0598 6.30936 16.1886 4.14115 20.606 0.38348C20.8609 0.167304 21.0646 0.0445705 21.217 0.0152877C21.4676 -0.0329427 21.6907 0.0329473 21.8862 0.21295C24.9893 3.06544 28.6079 5.11825 32.7264 6.15563C35.0096 6.73181 37.3247 7.03411 39.6716 7.06253C40.3214 7.07028 40.8111 7.04833 41.0539 7.63484ZM1.5377 8.65931C1.53598 11.8167 1.53167 16.0502 1.52478 21.3598C1.52134 23.9497 1.59756 25.8134 1.75345 26.9511C2.1914 30.1343 3.26237 33.3046 4.97412 36.0564C5.53566 36.959 5.93486 37.5674 6.1717 37.8818C7.94159 40.2253 9.93497 42.2212 12.2759 44.0441C14.9415 46.1214 17.7909 47.8978 20.8243 49.3731C20.8555 49.3884 20.8899 49.3961 20.9247 49.3957C20.9595 49.3952 20.9937 49.3866 21.0245 49.3705C25.736 46.9147 30.1013 43.7625 33.57 39.7408C36.1693 36.7281 38.027 33.2698 38.9068 29.3747C39.247 27.8684 39.4443 26.5171 39.4985 25.3208C39.5786 23.5604 39.6096 21.8676 39.5915 20.2424C39.5881 19.959 39.5816 16.1023 39.5721 8.67222C39.5721 8.65064 39.5636 8.62993 39.5483 8.61467C39.533 8.59941 39.5123 8.59083 39.4908 8.59083C35.7133 8.56371 31.8286 7.83766 28.3663 6.32228C25.7765 5.18973 23.4507 3.69415 21.3888 1.83556C21.3744 1.82255 21.3558 1.81514 21.3363 1.81466C21.3169 1.81419 21.298 1.82068 21.2829 1.83297C17.4886 5.02523 12.9257 7.18526 8.04881 8.05987C5.96801 8.4328 3.82219 8.60849 1.61134 8.58696C1.60173 8.58679 1.59219 8.58853 1.58326 8.59209C1.57433 8.59565 1.5662 8.60095 1.55934 8.60769C1.55249 8.61442 1.54704 8.62245 1.54333 8.63132C1.53961 8.64018 1.5377 8.6497 1.5377 8.65931Z" fill="#EFBF04"/>
<path d="M17.557 29.9595C17.575 29.9767 17.5991 29.9861 17.624 29.9857C17.6489 29.9854 17.6727 29.9753 17.6903 29.9575C22.0877 25.4979 25.4768 22.0726 27.8578 19.6815C28.2476 19.2891 28.6876 18.825 29.1777 18.2892C29.7834 17.6282 30.9129 17.6339 31.3244 18.4644C31.652 19.1215 31.3567 19.6301 30.8425 20.152C24.0375 27.0535 20.4255 30.7125 20.0064 31.129C19.1207 32.0127 18.1779 33.567 16.7951 32.7232C16.7483 32.6954 16.7054 32.6614 16.6674 32.6223C14.9938 30.8902 13.0294 28.9195 10.7742 26.71C10.3513 26.296 10.2326 25.8332 10.418 25.3214C10.7418 24.4243 11.8008 24.2662 12.4389 24.9024C14.3627 26.8173 16.0687 28.503 17.557 29.9595Z" fill="#EFBF04"/>
</svg>
