<svg width="40" height="45" viewBox="0 0 40 45" fill="none" xmlns="http://www.w3.org/2000/svg">
<path d="M22.3877 0.0498047C22.5217 0.0498047 22.6737 0.130301 22.8398 0.271484C23.2123 0.587627 23.604 0.945343 24.0146 1.34473C24.74 2.04974 25.4398 2.73975 26.1133 3.41406C29.0124 6.31575 30.7182 8.03012 31.2305 8.55664C31.358 8.68771 31.4927 8.82335 31.5947 8.9707C31.6972 9.11879 31.7697 9.28256 31.7705 9.47168C31.7766 11.6326 31.7765 16.8621 31.7695 25.1592C31.7695 25.3468 31.766 25.4716 31.7607 25.5303L31.7617 25.5312C31.7611 25.5426 31.7565 25.5542 31.75 25.5635C31.7436 25.5725 31.7348 25.5796 31.7246 25.584C31.7143 25.5884 31.7026 25.5905 31.6914 25.5889C31.6802 25.5872 31.6698 25.5815 31.6611 25.5742L30.9971 25.0107C30.9802 24.9962 30.9664 24.9783 30.957 24.958C30.9476 24.9376 30.9433 24.9151 30.9434 24.8926V9.79199C27.6934 9.78726 25.6557 9.78724 24.8301 9.79199C24.3261 9.79503 23.9503 9.76119 23.707 9.68848C22.8617 9.43694 22.1643 8.72015 21.9805 7.85156C21.9646 7.77662 21.9528 7.64616 21.9453 7.46387C21.9378 7.28045 21.9346 7.04095 21.9346 6.74609C21.9337 4.88172 21.9345 2.93152 21.9375 0.895508C14.6852 0.897232 8.15588 0.896804 2.34961 0.895508C2.19767 0.895508 2.04171 0.933972 1.88184 1.01074C1.38295 1.25024 1.0644 1.60844 0.920898 2.08594C0.901956 2.1493 0.885531 2.28418 0.875 2.49707C0.864566 2.70823 0.859375 2.99147 0.859375 3.3457C0.860673 25.2866 0.861217 36.5983 0.860352 37.2803C0.859157 38.0211 1.33419 38.6753 2.04199 38.8984C2.16802 38.9382 2.3981 38.9599 2.73828 38.96C12.1248 38.9617 20.7279 38.9606 28.5469 38.958C28.6477 38.958 28.7338 38.9508 28.8193 38.9414C28.9045 38.932 28.9911 38.9207 29.0898 38.915C29.2199 38.9073 29.3301 38.9324 29.4131 38.9971C29.4961 39.062 29.5442 39.1611 29.5635 39.2861C29.5763 39.3692 29.5639 39.4468 29.5244 39.5156C29.4854 39.5836 29.4218 39.6388 29.3389 39.6846L29.3398 39.6855L29.2725 39.708C28.9727 39.7526 28.7488 39.7754 28.6025 39.7754H2.49512C1.94855 39.7754 1.32235 39.5379 0.897461 39.166C0.579934 38.8882 0.349018 38.5597 0.206055 38.1807L0.150391 38.0146C0.0830719 37.7914 0.0513308 37.3549 0.0517578 36.7129C0.0534886 29.6116 0.0535998 18.1721 0.0527344 2.39453C0.052744 2.17537 0.112263 1.9164 0.228516 1.61914C0.511578 0.893918 1.12121 0.359257 1.86426 0.143555C2.08455 0.0800173 2.45148 0.0498047 2.95996 0.0498047C13.1082 0.0502374 19.5841 0.0498047 22.3877 0.0498047ZM22.7383 1.25781C22.744 2.26042 22.7448 4.05637 22.7393 6.64551C22.7386 6.93648 22.743 7.17294 22.752 7.35449C22.7609 7.5373 22.7747 7.66177 22.792 7.73047C22.9337 8.29521 23.3729 8.75253 23.9355 8.91895C24.067 8.95825 24.2842 8.97895 24.5898 8.97852C28.0651 8.97729 30.0384 8.97663 30.5098 8.97656C27.9963 6.43712 25.5213 3.92274 23.3164 1.79785C23.1084 1.59779 22.9157 1.41777 22.7383 1.25781Z" fill="#F4F4F4" stroke="#F4F4F4" stroke-width="0.1"/>
<path d="M9.44434 6.7832C10.2892 6.7832 11.0998 7.11854 11.6973 7.71582C12.2947 8.31325 12.6308 9.12387 12.6309 9.96875C12.6309 10.8138 12.2948 11.6242 11.6973 12.2217C11.0998 12.8192 10.2893 13.1553 9.44434 13.1553C8.59946 13.1552 7.78883 12.8191 7.19141 12.2217C6.59413 11.6242 6.25879 10.8136 6.25879 9.96875C6.25889 9.12387 6.59398 8.31324 7.19141 7.71582C7.78883 7.1184 8.59946 6.7833 9.44434 6.7832ZM9.44434 7.5918C9.13213 7.5918 8.82264 7.65305 8.53418 7.77246C8.24559 7.892 7.9826 8.06721 7.76172 8.28809C7.54084 8.50897 7.36563 8.77195 7.24609 9.06055C7.12668 9.34901 7.06543 9.6585 7.06543 9.9707C7.0655 10.6014 7.31583 11.2063 7.76172 11.6523C8.20781 12.0984 8.81347 12.3486 9.44434 12.3486C10.0751 12.3486 10.68 12.0984 11.126 11.6523C11.572 11.2063 11.8222 10.6015 11.8223 9.9707C11.8223 9.65845 11.7611 9.34905 11.6416 9.06055C11.5221 8.77195 11.3469 8.50897 11.126 8.28809C10.9051 8.06731 10.643 7.89196 10.3545 7.77246C10.066 7.65296 9.75662 7.59183 9.44434 7.5918Z" fill="#F4F4F4" stroke="#F4F4F4" stroke-width="0.1"/>
<path d="M26.9043 13.8242C27.1207 13.8242 27.2967 13.9994 27.2969 14.2158V14.2393C27.2969 14.4558 27.1208 14.6318 26.9043 14.6318H17.2285C17.0121 14.6317 16.8369 14.4557 16.8369 14.2393V14.2158C16.837 13.9995 17.0122 13.8244 17.2285 13.8242H26.9043Z" fill="#F4F4F4" stroke="#F4F4F4" stroke-width="0.1"/>
<path d="M9.44727 14.2178C10.4862 14.2175 11.6681 14.4575 12.6465 14.9912C13.6256 15.5253 14.4047 16.3555 14.627 17.5332C14.6664 17.7422 14.6799 18.031 14.6699 18.3975C14.6678 18.4801 14.6688 18.7641 14.6719 19.251C14.6733 19.4486 14.6008 19.5957 14.4463 19.6748C14.4029 19.697 14.3408 19.7113 14.2656 19.7207C14.1895 19.7302 14.0948 19.7351 13.9824 19.7354C13.6194 19.7358 12.1083 19.7364 9.44922 19.7373H4.91602C4.80326 19.7373 4.70816 19.7331 4.63184 19.7236C4.55684 19.7144 4.49549 19.6999 4.45215 19.6777C4.2975 19.5987 4.22517 19.4516 4.22656 19.2539C4.22916 18.767 4.2287 18.4829 4.22656 18.4004C4.21616 18.034 4.23005 17.7451 4.26953 17.5361C4.49118 16.3587 5.26966 15.5288 6.24805 14.9941C7.22607 14.4597 8.40818 14.2181 9.44727 14.2178ZM9.44727 15.0088C8.86231 15.0093 8.26944 15.0985 7.66895 15.2764C7.04134 15.4621 6.38402 15.7813 5.88184 16.2363C5.38021 16.6909 5.03459 17.2792 5.02539 18.0068C5.02038 18.4317 5.01983 18.7356 5.02246 18.9189C5.21101 18.9208 6.68563 18.9217 9.44922 18.9209C12.2099 18.9201 13.6843 18.9183 13.875 18.916C13.8776 18.7327 13.8775 18.4282 13.8721 18.0029C13.8624 17.2755 13.5174 16.6875 13.0156 16.2334C12.5131 15.7787 11.8552 15.4598 11.2275 15.2744C10.6265 15.097 10.0328 15.0088 9.44727 15.0088Z" fill="#F4F4F4" stroke="#F4F4F4" stroke-width="0.1"/>
<path d="M26.9043 18.0312C27.1207 18.0312 27.2967 18.2064 27.2969 18.4229V18.4492C27.2968 18.6657 27.1208 18.8408 26.9043 18.8408H17.2324C17.0161 18.8407 16.8409 18.6656 16.8408 18.4492V18.4229C16.841 18.2065 17.0161 18.0314 17.2324 18.0312H26.9043Z" fill="#F4F4F4" stroke="#F4F4F4" stroke-width="0.1"/>
<path d="M18.5752 24.3652C18.7958 24.3654 18.9745 24.5441 18.9746 24.7646V24.7783C18.9744 24.9988 18.7957 25.1775 18.5752 25.1777H4.61133C4.39077 25.1776 4.21217 24.9988 4.21191 24.7783V24.7646C4.21203 24.544 4.39068 24.3654 4.61133 24.3652H18.5752Z" fill="#F4F4F4" stroke="#F4F4F4" stroke-width="0.1"/>
<path d="M26.998 24.3936C30.6224 24.6295 33.5176 27.5742 33.6543 31.25C33.7076 32.67 33.3048 34.0533 32.541 35.2568L32.3838 35.4951C32.3828 35.4966 32.3817 35.4984 32.3818 35.5C32.382 35.5015 32.3829 35.503 32.3838 35.5039L33.2354 36.3545C33.2435 36.3626 33.2537 36.3687 33.2646 36.3721C33.2756 36.3754 33.2875 36.3762 33.2988 36.374L33.5312 36.3408C33.7587 36.3235 33.9703 36.3527 34.165 36.4287C34.2432 36.4592 34.3382 36.5209 34.4482 36.6094C34.559 36.6984 34.6886 36.8168 34.8359 36.9648C36.1829 38.3174 37.5172 39.6553 38.8398 40.9775C38.9801 41.1178 39.0865 41.2702 39.1572 41.4346C39.4494 42.1147 39.3814 42.752 38.9531 43.3389C38.2581 44.2906 36.9146 44.4381 36.0859 43.6016C33.9695 41.4644 32.6912 40.1794 32.251 39.7461V39.7451C32.2412 39.7355 32.1526 39.6531 31.9844 39.4961C31.5679 39.1067 31.4225 38.6177 31.5479 38.0371V38.0117L31.5352 37.9912L30.7363 37.1924C30.5748 37.2969 30.4267 37.3927 30.291 37.4785C29.7574 37.8164 29.1723 38.0807 28.5361 38.2715C27.0794 38.7086 25.6261 38.6699 24.1797 38.1562C22.2487 37.4713 20.6668 35.973 19.917 34.0557C19.3081 32.497 19.2575 30.9232 19.7646 29.3369C20.1864 28.0187 20.9261 26.9153 21.9834 26.0283C23.3608 24.8726 25.1993 24.2766 26.998 24.3936ZM33.6309 37.1143C33.494 37.1143 33.3624 37.1689 33.2656 37.2656L32.4492 38.083C32.3526 38.1797 32.2979 38.3106 32.2979 38.4473C32.2979 38.5841 32.3525 38.7157 32.4492 38.8125L36.6387 43.0029C36.7414 43.1057 36.8632 43.1872 36.9961 43.2441C37.1289 43.301 37.2706 43.3315 37.4131 43.334C37.5556 43.3364 37.6966 43.311 37.8271 43.2588C37.9577 43.2065 38.076 43.1282 38.1748 43.0293L38.2129 42.9912C38.3117 42.8924 38.3901 42.7741 38.4424 42.6436C38.4945 42.5132 38.52 42.3728 38.5176 42.2305C38.5152 42.0879 38.4846 41.9454 38.4277 41.8125C38.3708 41.6797 38.2883 41.5588 38.1855 41.4561L33.9961 37.2656C33.8993 37.1689 33.7677 37.1143 33.6309 37.1143ZM26.3271 25.1914C24.6582 25.2468 23.0795 25.9615 21.9385 27.1787C20.7974 28.3959 20.1869 30.0156 20.2422 31.6816C20.2975 33.3476 21.0142 34.9236 22.2334 36.0625C23.4526 37.2012 25.0753 37.8102 26.7441 37.7549C28.413 37.6994 29.9919 36.9837 31.1328 35.7666C32.2736 34.5494 32.8834 32.9295 32.8281 31.2637C32.7728 29.5978 32.057 28.0217 30.8379 26.8828C29.6188 25.744 27.996 25.1361 26.3271 25.1914ZM31.3486 36.6943L32.0205 37.3662L32.5625 36.8242L31.8906 36.1523L31.3486 36.6943Z" fill="#F4F4F4" stroke="#F4F4F4" stroke-width="0.1"/>
<path d="M17.4883 28.5713C17.712 28.5713 17.8936 28.7529 17.8936 28.9766V28.9814C17.8935 29.2051 17.7119 29.3867 17.4883 29.3867H4.61719C4.39355 29.3867 4.21199 29.2051 4.21191 28.9814V28.9766C4.21191 28.7529 4.3935 28.5713 4.61719 28.5713H17.4883Z" fill="#F4F4F4" stroke="#F4F4F4" stroke-width="0.1"/>
<path d="M17.7197 32.7773C17.9411 32.7775 18.1201 32.9573 18.1201 33.1787V33.1875C18.12 33.4089 17.9411 33.5887 17.7197 33.5889H4.61328C4.39179 33.5889 4.21199 33.409 4.21191 33.1875V33.1787C4.21191 32.9572 4.39175 32.7773 4.61328 32.7773H17.7197Z" fill="#F4F4F4" stroke="#F4F4F4" stroke-width="0.1"/>
</svg>
