<svg width="25" height="25" viewBox="0 0 25 25" fill="none" xmlns="http://www.w3.org/2000/svg">
<path d="M17.6958 3.02552C18.2494 2.46691 19.0087 1.69785 19.9738 0.718344C20.9034 -0.225893 22.5888 -0.238489 23.5396 0.67602C23.8644 0.98875 24.1333 1.25664 24.3463 1.47968C24.5801 1.72455 24.748 2.00605 24.8501 2.32415C25.1027 3.11085 25.0347 3.86899 24.6461 4.59858C24.553 4.77292 24.4353 4.9318 24.2929 5.07524C18.8639 10.5408 14.8513 14.59 12.2551 17.2228C12.0107 17.4707 11.7523 17.5171 11.33 17.6098C10.6327 17.7626 9.52501 18.0031 8.00705 18.3313C7.67349 18.4034 7.36815 18.3812 7.10262 18.157C6.8087 17.9094 6.71044 17.5796 6.80786 17.1674C7.26032 15.2561 7.566 13.9539 7.72489 13.261C7.7783 13.0267 7.99848 12.8443 8.24437 12.5949C11.7654 9.02114 14.9158 5.83136 17.6958 3.02552ZM19.2346 3.25226L21.7766 5.79425C21.7828 5.80043 21.7912 5.8039 21.8 5.8039C21.8088 5.8039 21.8172 5.80043 21.8234 5.79425L23.3642 4.25293C23.6317 3.98548 23.7823 3.62296 23.7828 3.2451C23.7832 2.86723 23.6336 2.50497 23.3668 2.23799L22.7909 1.66208C22.5239 1.39525 22.1616 1.24561 21.7837 1.24609C21.4059 1.24656 21.0434 1.3971 20.7759 1.6646L19.2346 3.2054C19.2284 3.21163 19.2249 3.22006 19.2249 3.22883C19.2249 3.23761 19.2284 3.24603 19.2346 3.25226ZM8.11941 17.0052C8.11904 17.007 8.11912 17.0088 8.11964 17.0106C8.12017 17.0123 8.12113 17.0139 8.12243 17.0152C8.12373 17.0165 8.12533 17.0175 8.12709 17.018C8.12885 17.0186 8.13071 17.0186 8.13251 17.0183C9.25579 16.7677 10.3021 16.543 11.2716 16.3441C11.3562 16.3266 11.4177 16.2986 11.456 16.26C13.9024 13.784 17.0576 10.5984 20.9215 6.70321C20.9234 6.70122 20.9244 6.69852 20.9243 6.69569C20.9243 6.69287 20.9231 6.69014 20.921 6.6881L18.3669 4.13352C18.365 4.1316 18.3627 4.13007 18.3602 4.12904C18.3577 4.128 18.355 4.12746 18.3523 4.12746C18.3496 4.12746 18.3469 4.128 18.3444 4.12904C18.3419 4.13007 18.3396 4.1316 18.3377 4.13352L8.91047 13.6923C8.88479 13.7183 8.86698 13.7509 8.85908 13.7865L8.11941 17.0052Z" fill="#0A1E66"/>
<path d="M22.2425 11.3582C22.3083 11.2326 22.4015 11.1441 22.5221 11.0927C22.8698 10.9445 23.2159 11.0786 23.3595 11.4262C23.3898 11.4985 23.4039 11.6246 23.4019 11.8046C23.4005 11.9199 23.3997 14.8072 23.3993 20.4665C23.3993 21.8222 22.881 22.9045 21.8444 23.7134C21.3849 24.0718 20.8644 24.3088 20.283 24.4244C20.0162 24.4771 19.5295 24.5035 18.8228 24.5035C9.03542 24.5025 4.06482 24.5016 3.91098 24.5009C1.98119 24.4934 0.391505 23.1163 0.0584524 21.2369C0.0191512 21.0166 -0.000331638 20.4944 4.26997e-06 19.6704C0.000676085 11.9835 0.00134833 6.84127 0.00202015 4.24369C0.00252401 3.08783 0.526539 1.99395 1.42442 1.2568C2.13587 0.672322 2.97715 0.379914 3.94826 0.379578C6.30667 0.378907 9.52736 0.378738 13.6103 0.379074C13.9489 0.379074 14.221 0.582635 14.2507 0.926269C14.2759 1.21599 14.153 1.48102 13.8728 1.58784C13.7969 1.61673 13.6736 1.63117 13.503 1.63117C12.4462 1.63016 9.38426 1.62916 4.31709 1.62815C3.81424 1.62781 3.45397 1.65435 3.23631 1.70776C2.03006 2.00453 1.22943 3.06718 1.2254 4.30617C1.2217 5.51443 1.2212 10.9101 1.22388 20.4932C1.22422 21.2971 1.50655 21.9741 2.07088 22.5243C2.40611 22.8515 2.79677 23.0683 3.24286 23.1748C3.45011 23.2242 3.85623 23.2488 4.4612 23.2488C13.223 23.2478 18.2882 23.2468 19.6567 23.2458C19.7907 23.2458 19.9496 23.2243 20.1333 23.1813C20.8946 23.0035 21.525 22.4648 21.8812 21.7851C22.0797 21.4066 22.179 20.9842 22.179 20.5179C22.1803 16.2032 22.1792 13.2771 22.1755 11.7396C22.1751 11.572 22.1975 11.4449 22.2425 11.3582Z" fill="#0A1E66"/>
<path d="M18.3251 4.15733L17.4512 3.28343C17.5331 3.20072 17.6147 3.11833 17.696 3.03627C18.2496 2.47765 19.0089 1.70859 19.974 0.729086C20.9036 -0.215151 22.589 -0.227747 23.5398 0.686762C23.8646 0.999492 24.1335 1.26738 24.3465 1.49042C24.5803 1.7353 24.7482 2.01679 24.8504 2.33489C25.103 3.12159 25.0349 3.87973 24.6463 4.60932C24.5533 4.78366 24.4355 4.94254 24.2931 5.08598C23.4171 5.96786 22.578 6.81287 21.7758 7.62101L20.9018 6.73402C20.9085 6.72733 20.9151 6.72065 20.9218 6.71395C20.9237 6.71196 20.9247 6.70926 20.9246 6.70644C20.9245 6.70361 20.9233 6.70089 20.9213 6.69884L18.3672 4.14426C18.3653 4.14234 18.363 4.14082 18.3605 4.13978C18.358 4.13874 18.3553 4.1382 18.3526 4.1382C18.3499 4.1382 18.3472 4.13874 18.3447 4.13978C18.3422 4.14082 18.3399 4.14234 18.338 4.14426L18.3251 4.15733ZM19.2348 3.263L21.7768 5.80499C21.783 5.81117 21.7915 5.81464 21.8002 5.81464C21.809 5.81464 21.8174 5.81117 21.8237 5.80499L23.3645 4.26367C23.632 3.99623 23.7825 3.6337 23.783 3.25584C23.7835 2.87798 23.6338 2.51572 23.367 2.24873L22.7911 1.67282C22.5241 1.40599 22.1618 1.25636 21.784 1.25683C21.4061 1.2573 21.0436 1.40784 20.7761 1.67534L19.2348 3.21615C19.2286 3.22238 19.2252 3.2308 19.2252 3.23958C19.2252 3.24835 19.2286 3.25678 19.2348 3.263Z" fill="#0A1E66"/>
</svg>
