<svg width="26" height="50" viewBox="0 0 26 50" fill="none" xmlns="http://www.w3.org/2000/svg">
<mask id="path-1-outside-1_77_915" maskUnits="userSpaceOnUse" x="-0.78125" y="-0.782227" width="27" height="51" fill="black">
<rect fill="white" x="-0.78125" y="-0.782227" width="27" height="51"/>
<path d="M12.7359 0.217773C13.0056 0.217773 13.2419 0.303211 13.4448 0.474084C14.7461 1.57301 15.876 2.84708 16.8345 4.2963C19.3319 8.07286 20.6038 12.636 20.6711 17.1262C20.6941 18.6801 20.6196 20.1851 20.4476 21.6412C20.4444 21.6693 20.4469 21.6978 20.455 21.7248C20.4631 21.7518 20.4767 21.7768 20.4949 21.7982C21.7054 23.2314 22.9787 24.7428 24.3147 26.3325C24.7088 26.8019 24.9792 27.3097 25.1261 27.8559C25.2286 28.2377 25.2695 28.7621 25.2486 29.429C25.2433 29.602 25.243 31.2243 25.2478 34.2957C25.2484 34.6738 25.2099 34.9376 25.1325 35.0871C24.8794 35.5741 24.2474 35.7551 23.7532 35.4884C23.6566 35.436 23.5164 35.3159 23.3327 35.1279C22.1686 33.9388 21.0014 32.7544 19.8309 31.5748C19.448 31.1888 19.0032 30.9033 18.4965 30.7186C18.4881 30.7156 18.4788 30.716 18.4707 30.7195C18.4625 30.7231 18.456 30.7296 18.4524 30.7378L17.7988 32.3686C17.7877 32.3972 17.7817 32.4276 17.7812 32.4583C17.7764 33.0863 17.7769 33.6568 17.7828 34.17C17.7882 34.6452 17.6063 34.9955 17.2374 35.2208C16.9354 35.4051 16.5493 35.3794 16.2233 35.3594C16.2175 35.3591 16.2118 35.3605 16.2067 35.3633C16.2016 35.3661 16.1974 35.3703 16.1946 35.3754C16.1918 35.3805 16.1904 35.3862 16.1907 35.392C16.1909 35.3978 16.1928 35.4035 16.1961 35.4083C17.798 37.7086 17.6827 40.5737 16.7688 43.1039C16.0004 45.2318 14.8395 47.1141 13.2862 48.7508C13.1252 48.9206 12.9642 49.08 12.7367 49.08C12.5093 49.08 12.3483 48.9206 12.1873 48.7508C10.6339 47.1141 9.47305 45.2318 8.70466 43.1039C7.79076 40.5737 7.67542 37.7086 9.27735 35.4083C9.28064 35.4035 9.28252 35.3978 9.28279 35.392C9.28306 35.3862 9.2817 35.3805 9.27887 35.3754C9.27604 35.3703 9.27185 35.3661 9.26677 35.3633C9.26169 35.3605 9.25592 35.3591 9.25012 35.3594C8.92412 35.3794 8.53806 35.4051 8.23529 35.2208C7.86632 34.9955 7.6845 34.6452 7.68984 34.17C7.69571 33.6568 7.69625 33.0863 7.69144 32.4583C7.69091 32.4276 7.68494 32.3972 7.67382 32.3686L7.02023 30.7378C7.01668 30.7296 7.01016 30.7231 7.00198 30.7195C6.99381 30.716 6.98459 30.7156 6.97618 30.7186C6.46943 30.9033 6.02463 31.1888 5.64176 31.5748C4.47128 32.7544 3.30401 33.9388 2.13994 35.1279C1.95678 35.3159 1.81688 35.436 1.72023 35.4884C1.22603 35.7551 0.594069 35.5741 0.340163 35.0871C0.262736 34.9376 0.224289 34.6738 0.224823 34.2957C0.229629 31.2243 0.229364 29.602 0.224024 29.429C0.203199 28.7621 0.244048 28.2377 0.346572 27.8559C0.493416 27.3097 0.763876 26.8019 1.15795 26.3325C2.49396 24.7428 3.76724 23.2314 4.97776 21.7982C4.99595 21.7768 5.00953 21.7518 5.01766 21.7248C5.02578 21.6978 5.02829 21.6693 5.02502 21.6412C4.85308 20.1851 4.77859 18.6801 4.80155 17.1262C4.86883 12.636 6.13997 8.07286 8.63738 4.2963C9.59587 2.84708 10.7258 1.57301 12.0271 0.474084C12.23 0.303211 12.4663 0.217773 12.7359 0.217773ZM12.7375 7.7789C15.7876 7.7773 17.4435 7.77463 17.7051 7.77089C17.7111 7.77094 17.717 7.76946 17.7222 7.7666C17.7275 7.76374 17.7319 7.75959 17.7351 7.75454C17.7383 7.74949 17.7402 7.74372 17.7406 7.73775C17.7409 7.73178 17.7397 7.72582 17.7372 7.72043C16.5822 5.19979 15.0315 2.9763 12.9506 1.17173C12.8753 1.10605 12.8032 1.07321 12.7343 1.07321C12.6654 1.07321 12.5934 1.10605 12.5181 1.17173C10.4396 2.97871 8.89048 5.20379 7.73869 7.72604C7.73632 7.73134 7.73529 7.73714 7.73569 7.74293C7.7361 7.74872 7.73793 7.75432 7.74102 7.75923C7.74411 7.76415 7.74836 7.76822 7.75341 7.77109C7.75845 7.77397 7.76413 7.77555 7.76993 7.7757C8.03212 7.77944 9.68798 7.7805 12.7375 7.7789ZM12.7359 31.6477C13.6998 31.6477 15.1589 31.6485 17.1132 31.6501C17.1391 31.6501 17.1645 31.6421 17.1858 31.6272C17.2071 31.6123 17.2234 31.5913 17.2326 31.5668C18.1937 28.9984 18.8863 26.3637 19.3103 23.6629C19.6387 21.5651 19.8373 19.4946 19.8117 17.4057C19.7748 14.3786 19.2216 11.4783 18.1521 8.70482C18.1459 8.68883 18.1352 8.67507 18.1211 8.66535C18.1071 8.65563 18.0905 8.6504 18.0736 8.65035C16.9373 8.65035 15.1591 8.65035 12.7391 8.65035C10.3186 8.64982 8.5402 8.64929 7.40389 8.64875C7.38691 8.6488 7.37033 8.65403 7.35632 8.66375C7.34231 8.67347 7.33153 8.68723 7.3254 8.70322C6.25531 11.4767 5.7013 14.377 5.66339 17.4041C5.63776 19.493 5.8356 21.5635 6.16319 23.6613C6.58664 26.3621 7.27867 28.997 8.2393 31.566C8.24855 31.5903 8.26492 31.6112 8.28624 31.6259C8.30756 31.6407 8.33281 31.6485 8.35864 31.6485C10.313 31.648 11.7721 31.6477 12.7359 31.6477ZM5.15638 22.9428C5.05118 23.0448 4.93558 23.1692 4.80956 23.3161C4.01767 24.2409 2.98602 25.4696 1.71462 27.0021C1.29812 27.5035 1.08853 28.0669 1.08586 28.6921C1.07892 30.183 1.07759 32.1563 1.08186 34.6121C1.08184 34.6352 1.08706 34.658 1.09711 34.6788C1.10716 34.6996 1.12179 34.7178 1.1399 34.7322C1.15801 34.7465 1.17913 34.7565 1.20168 34.7615C1.22422 34.7666 1.24761 34.7664 1.27009 34.7611C1.31547 34.7504 1.37021 34.7122 1.43428 34.6465C1.87375 34.198 2.96627 33.0881 4.71184 31.3169C5.37985 30.6385 5.9189 30.2404 6.71746 29.9128C6.72746 29.9087 6.73555 29.901 6.74015 29.8912C6.74475 29.8814 6.74551 29.8703 6.74229 29.86C6.03157 27.6135 5.51494 25.3118 5.19242 22.9548C5.192 22.951 5.19047 22.9473 5.18802 22.9443C5.18557 22.9413 5.18229 22.939 5.17854 22.9378C5.1748 22.9365 5.17074 22.9364 5.16682 22.9372C5.16291 22.9381 5.15929 22.9401 5.15638 22.9428ZM20.3187 22.9428C20.3158 22.9401 20.3122 22.9381 20.3082 22.9372C20.3043 22.9364 20.3003 22.9365 20.2965 22.9378C20.2928 22.939 20.2895 22.9413 20.287 22.9443C20.2846 22.9473 20.2831 22.951 20.2826 22.9548C19.959 25.3134 19.4411 27.6164 18.7288 29.864C18.7255 29.8743 18.7263 29.8854 18.7309 29.8952C18.7355 29.905 18.7436 29.9127 18.7536 29.9168C19.553 30.2452 20.092 30.6441 20.76 31.3225C22.5067 33.0959 23.5997 34.2071 24.0392 34.6561C24.1033 34.7218 24.158 34.76 24.2034 34.7707C24.2258 34.776 24.2492 34.7762 24.2718 34.7712C24.2943 34.7662 24.3155 34.7561 24.3336 34.7418C24.3517 34.7274 24.3663 34.7092 24.3764 34.6884C24.3864 34.6676 24.3916 34.6448 24.3916 34.6217C24.3969 32.1643 24.3964 30.1897 24.39 28.6978C24.3873 28.0719 24.1777 27.5081 23.7612 27.0061C22.4893 25.472 21.4574 24.2422 20.6655 23.3169C20.5395 23.1695 20.4239 23.0448 20.3187 22.9428ZM16.8994 32.5112H8.57891C8.56829 32.5112 8.5581 32.5154 8.55059 32.5229C8.54308 32.5304 8.53886 32.5406 8.53886 32.5512V34.1756C8.53886 34.2622 8.57532 34.3454 8.64021 34.4066C8.7051 34.4679 8.79311 34.5024 8.88488 34.5024H16.5934C16.6852 34.5024 16.7732 34.4679 16.8381 34.4066C16.9029 34.3454 16.9394 34.2622 16.9394 34.1756V32.5512C16.9394 32.5406 16.9352 32.5304 16.9277 32.5229C16.9202 32.5154 16.91 32.5112 16.8994 32.5112ZM12.7343 35.361C11.9136 35.361 11.1263 35.3618 10.3723 35.3634C10.3585 35.3634 10.3449 35.3665 10.3324 35.3725C10.32 35.3784 10.309 35.3871 10.3002 35.3978C9.30539 36.6239 8.82614 38.0352 8.86245 39.6318C8.88274 40.5048 9.01357 41.3386 9.25492 42.1332C9.86206 44.1281 10.8595 45.9527 12.2473 47.607C12.328 47.7036 12.4836 47.8665 12.7143 48.0956C12.7207 48.102 12.7223 48.102 12.7343 48.102C12.7471 48.102 12.7487 48.102 12.7543 48.0956C12.9856 47.8665 13.1415 47.7036 13.2221 47.607C14.6099 45.9527 15.6074 44.1281 16.2145 42.1332C16.4554 41.3386 16.5859 40.5048 16.6062 39.6318C16.6425 38.0352 16.1633 36.6239 15.1685 35.3978C15.1597 35.3871 15.1487 35.3784 15.1362 35.3725C15.1238 35.3665 15.1101 35.3634 15.0964 35.3634C14.3424 35.3618 13.555 35.361 12.7343 35.361Z"/>
</mask>
<path d="M12.7359 0.217773C13.0056 0.217773 13.2419 0.303211 13.4448 0.474084C14.7461 1.57301 15.876 2.84708 16.8345 4.2963C19.3319 8.07286 20.6038 12.636 20.6711 17.1262C20.6941 18.6801 20.6196 20.1851 20.4476 21.6412C20.4444 21.6693 20.4469 21.6978 20.455 21.7248C20.4631 21.7518 20.4767 21.7768 20.4949 21.7982C21.7054 23.2314 22.9787 24.7428 24.3147 26.3325C24.7088 26.8019 24.9792 27.3097 25.1261 27.8559C25.2286 28.2377 25.2695 28.7621 25.2486 29.429C25.2433 29.602 25.243 31.2243 25.2478 34.2957C25.2484 34.6738 25.2099 34.9376 25.1325 35.0871C24.8794 35.5741 24.2474 35.7551 23.7532 35.4884C23.6566 35.436 23.5164 35.3159 23.3327 35.1279C22.1686 33.9388 21.0014 32.7544 19.8309 31.5748C19.448 31.1888 19.0032 30.9033 18.4965 30.7186C18.4881 30.7156 18.4788 30.716 18.4707 30.7195C18.4625 30.7231 18.456 30.7296 18.4524 30.7378L17.7988 32.3686C17.7877 32.3972 17.7817 32.4276 17.7812 32.4583C17.7764 33.0863 17.7769 33.6568 17.7828 34.17C17.7882 34.6452 17.6063 34.9955 17.2374 35.2208C16.9354 35.4051 16.5493 35.3794 16.2233 35.3594C16.2175 35.3591 16.2118 35.3605 16.2067 35.3633C16.2016 35.3661 16.1974 35.3703 16.1946 35.3754C16.1918 35.3805 16.1904 35.3862 16.1907 35.392C16.1909 35.3978 16.1928 35.4035 16.1961 35.4083C17.798 37.7086 17.6827 40.5737 16.7688 43.1039C16.0004 45.2318 14.8395 47.1141 13.2862 48.7508C13.1252 48.9206 12.9642 49.08 12.7367 49.08C12.5093 49.08 12.3483 48.9206 12.1873 48.7508C10.6339 47.1141 9.47305 45.2318 8.70466 43.1039C7.79076 40.5737 7.67542 37.7086 9.27735 35.4083C9.28064 35.4035 9.28252 35.3978 9.28279 35.392C9.28306 35.3862 9.2817 35.3805 9.27887 35.3754C9.27604 35.3703 9.27185 35.3661 9.26677 35.3633C9.26169 35.3605 9.25592 35.3591 9.25012 35.3594C8.92412 35.3794 8.53806 35.4051 8.23529 35.2208C7.86632 34.9955 7.6845 34.6452 7.68984 34.17C7.69571 33.6568 7.69625 33.0863 7.69144 32.4583C7.69091 32.4276 7.68494 32.3972 7.67382 32.3686L7.02023 30.7378C7.01668 30.7296 7.01016 30.7231 7.00198 30.7195C6.99381 30.716 6.98459 30.7156 6.97618 30.7186C6.46943 30.9033 6.02463 31.1888 5.64176 31.5748C4.47128 32.7544 3.30401 33.9388 2.13994 35.1279C1.95678 35.3159 1.81688 35.436 1.72023 35.4884C1.22603 35.7551 0.594069 35.5741 0.340163 35.0871C0.262736 34.9376 0.224289 34.6738 0.224823 34.2957C0.229629 31.2243 0.229364 29.602 0.224024 29.429C0.203199 28.7621 0.244048 28.2377 0.346572 27.8559C0.493416 27.3097 0.763876 26.8019 1.15795 26.3325C2.49396 24.7428 3.76724 23.2314 4.97776 21.7982C4.99595 21.7768 5.00953 21.7518 5.01766 21.7248C5.02578 21.6978 5.02829 21.6693 5.02502 21.6412C4.85308 20.1851 4.77859 18.6801 4.80155 17.1262C4.86883 12.636 6.13997 8.07286 8.63738 4.2963C9.59587 2.84708 10.7258 1.57301 12.0271 0.474084C12.23 0.303211 12.4663 0.217773 12.7359 0.217773ZM12.7375 7.7789C15.7876 7.7773 17.4435 7.77463 17.7051 7.77089C17.7111 7.77094 17.717 7.76946 17.7222 7.7666C17.7275 7.76374 17.7319 7.75959 17.7351 7.75454C17.7383 7.74949 17.7402 7.74372 17.7406 7.73775C17.7409 7.73178 17.7397 7.72582 17.7372 7.72043C16.5822 5.19979 15.0315 2.9763 12.9506 1.17173C12.8753 1.10605 12.8032 1.07321 12.7343 1.07321C12.6654 1.07321 12.5934 1.10605 12.5181 1.17173C10.4396 2.97871 8.89048 5.20379 7.73869 7.72604C7.73632 7.73134 7.73529 7.73714 7.73569 7.74293C7.7361 7.74872 7.73793 7.75432 7.74102 7.75923C7.74411 7.76415 7.74836 7.76822 7.75341 7.77109C7.75845 7.77397 7.76413 7.77555 7.76993 7.7757C8.03212 7.77944 9.68798 7.7805 12.7375 7.7789ZM12.7359 31.6477C13.6998 31.6477 15.1589 31.6485 17.1132 31.6501C17.1391 31.6501 17.1645 31.6421 17.1858 31.6272C17.2071 31.6123 17.2234 31.5913 17.2326 31.5668C18.1937 28.9984 18.8863 26.3637 19.3103 23.6629C19.6387 21.5651 19.8373 19.4946 19.8117 17.4057C19.7748 14.3786 19.2216 11.4783 18.1521 8.70482C18.1459 8.68883 18.1352 8.67507 18.1211 8.66535C18.1071 8.65563 18.0905 8.6504 18.0736 8.65035C16.9373 8.65035 15.1591 8.65035 12.7391 8.65035C10.3186 8.64982 8.5402 8.64929 7.40389 8.64875C7.38691 8.6488 7.37033 8.65403 7.35632 8.66375C7.34231 8.67347 7.33153 8.68723 7.3254 8.70322C6.25531 11.4767 5.7013 14.377 5.66339 17.4041C5.63776 19.493 5.8356 21.5635 6.16319 23.6613C6.58664 26.3621 7.27867 28.997 8.2393 31.566C8.24855 31.5903 8.26492 31.6112 8.28624 31.6259C8.30756 31.6407 8.33281 31.6485 8.35864 31.6485C10.313 31.648 11.7721 31.6477 12.7359 31.6477ZM5.15638 22.9428C5.05118 23.0448 4.93558 23.1692 4.80956 23.3161C4.01767 24.2409 2.98602 25.4696 1.71462 27.0021C1.29812 27.5035 1.08853 28.0669 1.08586 28.6921C1.07892 30.183 1.07759 32.1563 1.08186 34.6121C1.08184 34.6352 1.08706 34.658 1.09711 34.6788C1.10716 34.6996 1.12179 34.7178 1.1399 34.7322C1.15801 34.7465 1.17913 34.7565 1.20168 34.7615C1.22422 34.7666 1.24761 34.7664 1.27009 34.7611C1.31547 34.7504 1.37021 34.7122 1.43428 34.6465C1.87375 34.198 2.96627 33.0881 4.71184 31.3169C5.37985 30.6385 5.9189 30.2404 6.71746 29.9128C6.72746 29.9087 6.73555 29.901 6.74015 29.8912C6.74475 29.8814 6.74551 29.8703 6.74229 29.86C6.03157 27.6135 5.51494 25.3118 5.19242 22.9548C5.192 22.951 5.19047 22.9473 5.18802 22.9443C5.18557 22.9413 5.18229 22.939 5.17854 22.9378C5.1748 22.9365 5.17074 22.9364 5.16682 22.9372C5.16291 22.9381 5.15929 22.9401 5.15638 22.9428ZM20.3187 22.9428C20.3158 22.9401 20.3122 22.9381 20.3082 22.9372C20.3043 22.9364 20.3003 22.9365 20.2965 22.9378C20.2928 22.939 20.2895 22.9413 20.287 22.9443C20.2846 22.9473 20.2831 22.951 20.2826 22.9548C19.959 25.3134 19.4411 27.6164 18.7288 29.864C18.7255 29.8743 18.7263 29.8854 18.7309 29.8952C18.7355 29.905 18.7436 29.9127 18.7536 29.9168C19.553 30.2452 20.092 30.6441 20.76 31.3225C22.5067 33.0959 23.5997 34.2071 24.0392 34.6561C24.1033 34.7218 24.158 34.76 24.2034 34.7707C24.2258 34.776 24.2492 34.7762 24.2718 34.7712C24.2943 34.7662 24.3155 34.7561 24.3336 34.7418C24.3517 34.7274 24.3663 34.7092 24.3764 34.6884C24.3864 34.6676 24.3916 34.6448 24.3916 34.6217C24.3969 32.1643 24.3964 30.1897 24.39 28.6978C24.3873 28.0719 24.1777 27.5081 23.7612 27.0061C22.4893 25.472 21.4574 24.2422 20.6655 23.3169C20.5395 23.1695 20.4239 23.0448 20.3187 22.9428ZM16.8994 32.5112H8.57891C8.56829 32.5112 8.5581 32.5154 8.55059 32.5229C8.54308 32.5304 8.53886 32.5406 8.53886 32.5512V34.1756C8.53886 34.2622 8.57532 34.3454 8.64021 34.4066C8.7051 34.4679 8.79311 34.5024 8.88488 34.5024H16.5934C16.6852 34.5024 16.7732 34.4679 16.8381 34.4066C16.9029 34.3454 16.9394 34.2622 16.9394 34.1756V32.5512C16.9394 32.5406 16.9352 32.5304 16.9277 32.5229C16.9202 32.5154 16.91 32.5112 16.8994 32.5112ZM12.7343 35.361C11.9136 35.361 11.1263 35.3618 10.3723 35.3634C10.3585 35.3634 10.3449 35.3665 10.3324 35.3725C10.32 35.3784 10.309 35.3871 10.3002 35.3978C9.30539 36.6239 8.82614 38.0352 8.86245 39.6318C8.88274 40.5048 9.01357 41.3386 9.25492 42.1332C9.86206 44.1281 10.8595 45.9527 12.2473 47.607C12.328 47.7036 12.4836 47.8665 12.7143 48.0956C12.7207 48.102 12.7223 48.102 12.7343 48.102C12.7471 48.102 12.7487 48.102 12.7543 48.0956C12.9856 47.8665 13.1415 47.7036 13.2221 47.607C14.6099 45.9527 15.6074 44.1281 16.2145 42.1332C16.4554 41.3386 16.5859 40.5048 16.6062 39.6318C16.6425 38.0352 16.1633 36.6239 15.1685 35.3978C15.1597 35.3871 15.1487 35.3784 15.1362 35.3725C15.1238 35.3665 15.1101 35.3634 15.0964 35.3634C14.3424 35.3618 13.555 35.361 12.7343 35.361Z" fill="#F4F4F4"/>
<path d="M12.7359 0.217773C13.0056 0.217773 13.2419 0.303211 13.4448 0.474084C14.7461 1.57301 15.876 2.84708 16.8345 4.2963C19.3319 8.07286 20.6038 12.636 20.6711 17.1262C20.6941 18.6801 20.6196 20.1851 20.4476 21.6412C20.4444 21.6693 20.4469 21.6978 20.455 21.7248C20.4631 21.7518 20.4767 21.7768 20.4949 21.7982C21.7054 23.2314 22.9787 24.7428 24.3147 26.3325C24.7088 26.8019 24.9792 27.3097 25.1261 27.8559C25.2286 28.2377 25.2695 28.7621 25.2486 29.429C25.2433 29.602 25.243 31.2243 25.2478 34.2957C25.2484 34.6738 25.2099 34.9376 25.1325 35.0871C24.8794 35.5741 24.2474 35.7551 23.7532 35.4884C23.6566 35.436 23.5164 35.3159 23.3327 35.1279C22.1686 33.9388 21.0014 32.7544 19.8309 31.5748C19.448 31.1888 19.0032 30.9033 18.4965 30.7186C18.4881 30.7156 18.4788 30.716 18.4707 30.7195C18.4625 30.7231 18.456 30.7296 18.4524 30.7378L17.7988 32.3686C17.7877 32.3972 17.7817 32.4276 17.7812 32.4583C17.7764 33.0863 17.7769 33.6568 17.7828 34.17C17.7882 34.6452 17.6063 34.9955 17.2374 35.2208C16.9354 35.4051 16.5493 35.3794 16.2233 35.3594C16.2175 35.3591 16.2118 35.3605 16.2067 35.3633C16.2016 35.3661 16.1974 35.3703 16.1946 35.3754C16.1918 35.3805 16.1904 35.3862 16.1907 35.392C16.1909 35.3978 16.1928 35.4035 16.1961 35.4083C17.798 37.7086 17.6827 40.5737 16.7688 43.1039C16.0004 45.2318 14.8395 47.1141 13.2862 48.7508C13.1252 48.9206 12.9642 49.08 12.7367 49.08C12.5093 49.08 12.3483 48.9206 12.1873 48.7508C10.6339 47.1141 9.47305 45.2318 8.70466 43.1039C7.79076 40.5737 7.67542 37.7086 9.27735 35.4083C9.28064 35.4035 9.28252 35.3978 9.28279 35.392C9.28306 35.3862 9.2817 35.3805 9.27887 35.3754C9.27604 35.3703 9.27185 35.3661 9.26677 35.3633C9.26169 35.3605 9.25592 35.3591 9.25012 35.3594C8.92412 35.3794 8.53806 35.4051 8.23529 35.2208C7.86632 34.9955 7.6845 34.6452 7.68984 34.17C7.69571 33.6568 7.69625 33.0863 7.69144 32.4583C7.69091 32.4276 7.68494 32.3972 7.67382 32.3686L7.02023 30.7378C7.01668 30.7296 7.01016 30.7231 7.00198 30.7195C6.99381 30.716 6.98459 30.7156 6.97618 30.7186C6.46943 30.9033 6.02463 31.1888 5.64176 31.5748C4.47128 32.7544 3.30401 33.9388 2.13994 35.1279C1.95678 35.3159 1.81688 35.436 1.72023 35.4884C1.22603 35.7551 0.594069 35.5741 0.340163 35.0871C0.262736 34.9376 0.224289 34.6738 0.224823 34.2957C0.229629 31.2243 0.229364 29.602 0.224024 29.429C0.203199 28.7621 0.244048 28.2377 0.346572 27.8559C0.493416 27.3097 0.763876 26.8019 1.15795 26.3325C2.49396 24.7428 3.76724 23.2314 4.97776 21.7982C4.99595 21.7768 5.00953 21.7518 5.01766 21.7248C5.02578 21.6978 5.02829 21.6693 5.02502 21.6412C4.85308 20.1851 4.77859 18.6801 4.80155 17.1262C4.86883 12.636 6.13997 8.07286 8.63738 4.2963C9.59587 2.84708 10.7258 1.57301 12.0271 0.474084C12.23 0.303211 12.4663 0.217773 12.7359 0.217773ZM12.7375 7.7789C15.7876 7.7773 17.4435 7.77463 17.7051 7.77089C17.7111 7.77094 17.717 7.76946 17.7222 7.7666C17.7275 7.76374 17.7319 7.75959 17.7351 7.75454C17.7383 7.74949 17.7402 7.74372 17.7406 7.73775C17.7409 7.73178 17.7397 7.72582 17.7372 7.72043C16.5822 5.19979 15.0315 2.9763 12.9506 1.17173C12.8753 1.10605 12.8032 1.07321 12.7343 1.07321C12.6654 1.07321 12.5934 1.10605 12.5181 1.17173C10.4396 2.97871 8.89048 5.20379 7.73869 7.72604C7.73632 7.73134 7.73529 7.73714 7.73569 7.74293C7.7361 7.74872 7.73793 7.75432 7.74102 7.75923C7.74411 7.76415 7.74836 7.76822 7.75341 7.77109C7.75845 7.77397 7.76413 7.77555 7.76993 7.7757C8.03212 7.77944 9.68798 7.7805 12.7375 7.7789ZM12.7359 31.6477C13.6998 31.6477 15.1589 31.6485 17.1132 31.6501C17.1391 31.6501 17.1645 31.6421 17.1858 31.6272C17.2071 31.6123 17.2234 31.5913 17.2326 31.5668C18.1937 28.9984 18.8863 26.3637 19.3103 23.6629C19.6387 21.5651 19.8373 19.4946 19.8117 17.4057C19.7748 14.3786 19.2216 11.4783 18.1521 8.70482C18.1459 8.68883 18.1352 8.67507 18.1211 8.66535C18.1071 8.65563 18.0905 8.6504 18.0736 8.65035C16.9373 8.65035 15.1591 8.65035 12.7391 8.65035C10.3186 8.64982 8.5402 8.64929 7.40389 8.64875C7.38691 8.6488 7.37033 8.65403 7.35632 8.66375C7.34231 8.67347 7.33153 8.68723 7.3254 8.70322C6.25531 11.4767 5.7013 14.377 5.66339 17.4041C5.63776 19.493 5.8356 21.5635 6.16319 23.6613C6.58664 26.3621 7.27867 28.997 8.2393 31.566C8.24855 31.5903 8.26492 31.6112 8.28624 31.6259C8.30756 31.6407 8.33281 31.6485 8.35864 31.6485C10.313 31.648 11.7721 31.6477 12.7359 31.6477ZM5.15638 22.9428C5.05118 23.0448 4.93558 23.1692 4.80956 23.3161C4.01767 24.2409 2.98602 25.4696 1.71462 27.0021C1.29812 27.5035 1.08853 28.0669 1.08586 28.6921C1.07892 30.183 1.07759 32.1563 1.08186 34.6121C1.08184 34.6352 1.08706 34.658 1.09711 34.6788C1.10716 34.6996 1.12179 34.7178 1.1399 34.7322C1.15801 34.7465 1.17913 34.7565 1.20168 34.7615C1.22422 34.7666 1.24761 34.7664 1.27009 34.7611C1.31547 34.7504 1.37021 34.7122 1.43428 34.6465C1.87375 34.198 2.96627 33.0881 4.71184 31.3169C5.37985 30.6385 5.9189 30.2404 6.71746 29.9128C6.72746 29.9087 6.73555 29.901 6.74015 29.8912C6.74475 29.8814 6.74551 29.8703 6.74229 29.86C6.03157 27.6135 5.51494 25.3118 5.19242 22.9548C5.192 22.951 5.19047 22.9473 5.18802 22.9443C5.18557 22.9413 5.18229 22.939 5.17854 22.9378C5.1748 22.9365 5.17074 22.9364 5.16682 22.9372C5.16291 22.9381 5.15929 22.9401 5.15638 22.9428ZM20.3187 22.9428C20.3158 22.9401 20.3122 22.9381 20.3082 22.9372C20.3043 22.9364 20.3003 22.9365 20.2965 22.9378C20.2928 22.939 20.2895 22.9413 20.287 22.9443C20.2846 22.9473 20.2831 22.951 20.2826 22.9548C19.959 25.3134 19.4411 27.6164 18.7288 29.864C18.7255 29.8743 18.7263 29.8854 18.7309 29.8952C18.7355 29.905 18.7436 29.9127 18.7536 29.9168C19.553 30.2452 20.092 30.6441 20.76 31.3225C22.5067 33.0959 23.5997 34.2071 24.0392 34.6561C24.1033 34.7218 24.158 34.76 24.2034 34.7707C24.2258 34.776 24.2492 34.7762 24.2718 34.7712C24.2943 34.7662 24.3155 34.7561 24.3336 34.7418C24.3517 34.7274 24.3663 34.7092 24.3764 34.6884C24.3864 34.6676 24.3916 34.6448 24.3916 34.6217C24.3969 32.1643 24.3964 30.1897 24.39 28.6978C24.3873 28.0719 24.1777 27.5081 23.7612 27.0061C22.4893 25.472 21.4574 24.2422 20.6655 23.3169C20.5395 23.1695 20.4239 23.0448 20.3187 22.9428ZM16.8994 32.5112H8.57891C8.56829 32.5112 8.5581 32.5154 8.55059 32.5229C8.54308 32.5304 8.53886 32.5406 8.53886 32.5512V34.1756C8.53886 34.2622 8.57532 34.3454 8.64021 34.4066C8.7051 34.4679 8.79311 34.5024 8.88488 34.5024H16.5934C16.6852 34.5024 16.7732 34.4679 16.8381 34.4066C16.9029 34.3454 16.9394 34.2622 16.9394 34.1756V32.5512C16.9394 32.5406 16.9352 32.5304 16.9277 32.5229C16.9202 32.5154 16.91 32.5112 16.8994 32.5112ZM12.7343 35.361C11.9136 35.361 11.1263 35.3618 10.3723 35.3634C10.3585 35.3634 10.3449 35.3665 10.3324 35.3725C10.32 35.3784 10.309 35.3871 10.3002 35.3978C9.30539 36.6239 8.82614 38.0352 8.86245 39.6318C8.88274 40.5048 9.01357 41.3386 9.25492 42.1332C9.86206 44.1281 10.8595 45.9527 12.2473 47.607C12.328 47.7036 12.4836 47.8665 12.7143 48.0956C12.7207 48.102 12.7223 48.102 12.7343 48.102C12.7471 48.102 12.7487 48.102 12.7543 48.0956C12.9856 47.8665 13.1415 47.7036 13.2221 47.607C14.6099 45.9527 15.6074 44.1281 16.2145 42.1332C16.4554 41.3386 16.5859 40.5048 16.6062 39.6318C16.6425 38.0352 16.1633 36.6239 15.1685 35.3978C15.1597 35.3871 15.1487 35.3784 15.1362 35.3725C15.1238 35.3665 15.1101 35.3634 15.0964 35.3634C14.3424 35.3618 13.555 35.361 12.7343 35.361Z" stroke="white" stroke-width="0.436061" mask="url(#path-1-outside-1_77_915)"/>
<path d="M12.7373 12.6904C13.7855 12.6904 14.7911 13.1075 15.5322 13.8486C16.2732 14.5897 16.6894 15.5946 16.6895 16.6426C16.6895 17.6907 16.2734 18.6963 15.5322 19.4375C14.7911 20.1787 13.7855 20.5947 12.7373 20.5947C11.6894 20.5947 10.6844 20.1785 9.94336 19.4375C9.20221 18.6963 8.78516 17.6907 8.78516 16.6426C8.78523 15.5945 9.20227 14.5897 9.94336 13.8486C10.6845 13.1075 11.6892 12.6905 12.7373 12.6904ZM12.7373 13.7705C11.9744 13.7706 11.2426 14.0738 10.7031 14.6133C10.1637 15.1528 9.8604 15.8845 9.86035 16.6475C9.86035 17.4104 10.1637 18.1421 10.7031 18.6816C11.2426 19.2211 11.9744 19.5243 12.7373 19.5244C13.5003 19.5244 14.2319 19.2212 14.7715 18.6816C15.311 18.1421 15.6143 17.4105 15.6143 16.6475C15.6142 15.8845 15.311 15.1528 14.7715 14.6133C14.232 14.0739 13.5002 13.7705 12.7373 13.7705Z" fill="#F4F4F4" stroke="white" stroke-width="0.21803"/>
<path d="M10.8887 36.4795C11.1029 36.4768 11.3063 36.6062 11.3838 36.8604V36.8613C11.4041 36.9299 11.3966 37.0104 11.3779 37.0908C11.3586 37.1739 11.3234 37.2708 11.2754 37.3809V37.3818C10.8463 38.3638 11.005 39.3798 11.4033 40.4189C11.7192 41.2396 12.1817 41.897 12.7324 42.5723C13.2831 41.897 13.7457 41.2404 14.0615 40.4199L14.1992 40.0312C14.4914 39.127 14.5672 38.2413 14.1914 37.3818C14.1433 37.2715 14.108 37.1741 14.0889 37.0908C14.0704 37.0103 14.0632 36.93 14.084 36.8613C14.1614 36.6071 14.3649 36.4778 14.5791 36.4805C14.7885 36.4832 14.9973 36.6116 15.1006 36.8398V36.8408C16.1797 39.2405 14.8359 41.8061 13.252 43.5244C13.0968 43.6923 12.9235 43.7919 12.7324 43.792C12.5408 43.792 12.3667 43.6925 12.2119 43.5244C10.6289 41.8053 9.28631 39.2387 10.3672 36.8398L10.4102 36.7588C10.5222 36.5809 10.7052 36.4819 10.8887 36.4795Z" fill="#F4F4F4" stroke="white" stroke-width="0.21803"/>
</svg>
