<svg width="135" height="135" viewBox="0 0 135 135" fill="none" xmlns="http://www.w3.org/2000/svg">
<path fill-rule="evenodd" clip-rule="evenodd" d="M73.5426 2.55116C72.7553 1.74371 71.8145 1.10201 70.7753 0.663867C69.7362 0.225723 68.6199 0 67.4922 0C66.3644 0 65.2481 0.225723 64.209 0.663867C63.1699 1.10201 62.229 1.74371 61.4417 2.55116L56.0504 8.08615C54.9892 9.17645 53.6534 9.95997 52.1839 10.3542C50.7144 10.7483 49.1657 10.7384 47.7015 10.3255L40.2652 8.2298C39.1797 7.92435 38.0441 7.83923 36.9252 7.97944C35.8064 8.11965 34.727 8.48234 33.7504 9.04623C32.774 9.61004 31.9202 10.3636 31.2395 11.2625C30.5587 12.1615 30.0647 13.1875 29.7867 14.2802L27.8768 21.7672C27.5025 23.2411 26.7372 24.5867 25.662 25.662C24.5867 26.7372 23.2411 27.5025 21.7672 27.8768L14.2802 29.7782C13.1875 30.0563 12.1615 30.5503 11.2625 31.231C10.3636 31.9117 9.61004 32.7655 9.04623 33.742C8.48234 34.7185 8.11965 35.798 7.97944 36.9168C7.83923 38.0356 7.92435 39.1713 8.2298 40.2567L10.3255 47.7015C10.7384 49.1657 10.7483 50.7144 10.3542 52.1839C9.95997 53.6534 9.17645 54.9892 8.08615 56.0504L2.55116 61.4417C1.74371 62.229 1.10201 63.1699 0.663867 64.209C0.225723 65.2481 0 66.3644 0 67.4922C0 68.6199 0.225723 69.7362 0.663867 70.7753C1.10201 71.8145 1.74371 72.7553 2.55116 73.5426L8.08615 78.9424C9.17493 80.0028 9.9576 81.3372 10.3517 82.805C10.7459 84.2728 10.7367 85.8202 10.3255 87.2829L8.2298 94.7193C7.92435 95.8043 7.83923 96.94 7.97944 98.0588C8.11965 99.1777 8.48234 100.258 9.04623 101.234C9.61004 102.211 10.3636 103.064 11.2625 103.745C12.1615 104.425 13.1875 104.92 14.2802 105.198L21.7672 107.107C23.2411 107.482 24.5867 108.247 25.662 109.322C26.7372 110.398 27.5025 111.743 27.8768 113.217L29.7782 120.704C30.0553 121.798 30.5487 122.824 31.229 123.724C31.9094 124.624 32.763 125.379 33.7396 125.943C34.7162 126.508 35.7959 126.871 36.9153 127.012C38.0345 127.153 39.1707 127.068 40.2567 126.763L47.7015 124.667C49.165 124.253 50.7132 124.242 52.1827 124.634C53.6521 125.027 54.9883 125.809 56.0504 126.898L61.4417 132.433C62.229 133.24 63.1699 133.882 64.209 134.32C65.2481 134.759 66.3644 134.984 67.4922 134.984C68.6199 134.984 69.7362 134.759 70.7753 134.32C71.8145 133.882 72.7553 133.24 73.5426 132.433L78.9424 126.898C80.0036 125.811 81.3385 125.03 82.8062 124.637C84.274 124.245 85.8202 124.255 87.2829 124.667L94.7193 126.763C95.8051 127.068 96.9417 127.153 98.0605 127.012C99.1802 126.871 100.259 126.508 101.236 125.943C102.213 125.379 103.067 124.624 103.747 123.724C104.427 122.824 104.921 121.798 105.198 120.704L107.107 113.217C107.482 111.743 108.247 110.398 109.322 109.322C110.398 108.247 111.743 107.482 113.217 107.107L120.704 105.206C121.798 104.929 122.824 104.435 123.724 103.755C124.624 103.075 125.379 102.221 125.943 101.245C126.508 100.268 126.871 99.1887 127.012 98.069C127.153 96.9502 127.068 95.8136 126.763 94.7277L124.667 87.2914C124.253 85.8278 124.242 84.2796 124.634 82.8101C125.027 81.3407 125.809 80.0045 126.898 78.9424L132.433 73.5426C133.24 72.7553 133.882 71.8145 134.32 70.7753C134.759 69.7362 134.984 68.6199 134.984 67.4922C134.984 66.3644 134.759 65.2481 134.32 64.209C133.882 63.1699 133.24 62.229 132.433 61.4417L126.898 56.0504C125.809 54.9883 125.027 53.6521 124.634 52.1827C124.242 50.7132 124.253 49.165 124.667 47.7015L126.763 40.2652C127.068 39.1791 127.153 38.043 127.012 36.9237C126.871 35.8044 126.508 34.7247 125.943 33.7481C125.379 32.7715 124.624 31.9178 123.724 31.2375C122.824 30.5571 121.798 30.0638 120.704 29.7867L113.217 27.8768C111.743 27.5025 110.398 26.7372 109.322 25.662C108.247 24.5867 107.482 23.2411 107.107 21.7672L105.206 14.2802C104.928 13.1875 104.434 12.1615 103.754 11.2625C103.072 10.3636 102.219 9.61004 101.242 9.04623C100.266 8.48234 99.1861 8.11965 98.0673 7.97944C96.9485 7.83923 95.8127 7.92435 94.7277 8.2298L87.2914 10.3255C85.8261 10.74 84.2755 10.7508 82.8043 10.3565C81.3331 9.96234 79.9959 9.17789 78.9339 8.08615L73.5426 2.55116ZM99.3754 53.0421C100.586 51.8744 101.283 50.2738 101.312 48.5924C101.343 46.9109 100.704 45.2864 99.536 44.0763C98.3681 42.866 96.7676 42.1692 95.086 42.139C93.4052 42.1089 91.7802 42.748 90.5701 43.9157L55.6364 77.6494L44.5072 66.5373C43.316 65.3494 41.7017 64.6835 40.0195 64.6858C38.3373 64.6882 36.725 65.3587 35.5372 66.55C34.3493 67.7412 33.6833 69.3554 33.6857 71.0376C33.6881 72.7199 34.3586 74.3322 35.5498 75.52L51.0901 91.018C52.2636 92.1909 53.8503 92.856 55.5092 92.872C57.1682 92.8881 58.7671 92.2526 59.9629 91.1025L99.3754 53.0421Z" fill="#C9CDE6"/>
</svg>
