<svg width="32" height="32" viewBox="0 0 32 32" fill="none" xmlns="http://www.w3.org/2000/svg">
<path fill-rule="evenodd" clip-rule="evenodd" d="M27.2 4.6C24.2 1.6 20.2 0 16 0C7.2 0 0 7.2 0 16C0 18.8 0.800012 21.6 2.20001 24L0 32L8.40003 29.8C10.8 31 13.4 31.8 16 31.8C24.8 31.8 32 24.6 32 15.8C32 11.6 30.2 7.6 27.2 4.6ZM16 29.2C13.6 29.2 11.2 28.6 9.20001 27.4L8.79999 27.2L3.79999 28.6L5.20001 23.8L4.79999 23.2C3.39999 21 2.79999 18.6 2.79999 16.2C2.79999 9 8.8 3 16 3C19.6 3 22.8 4.4 25.4 6.8C28 9.4 29.2 12.6 29.2 16.2C29.2 23.2 23.4 29.2 16 29.2ZM23.2 19.2C22.8 19 20.8 18 20.4 18C20 17.8 19.8 17.8 19.6 18.2C19.4 18.6 18.6 19.4 18.4 19.8C18.2 20 18 20 17.6 20C17.2 19.8 16 19.4 14.4 18C13.2 17 12.4 15.6 12.2 15.2C12 14.8 12.2 14.6 12.4 14.4C12.6 14.2 12.8 14 13 13.8C13.2 13.6 13.2 13.4 13.4 13.2C13.6 13 13.4 12.8 13.4 12.6C13.4 12.4 12.6 10.4 12.2 9.6C12 9 11.6 9 11.4 9C11.2 9 11 9 10.6 9C10.4 9 9.99998 9 9.59998 9.4C9.19998 9.8 8.20001 10.8 8.20001 12.8C8.20001 14.8 9.59999 16.6 9.79999 17C9.99999 17.2 12.6 21.4 16.6 23C20 24.4 20.6 24 21.4 24C22.2 24 23.8 23 24 22.2C24.4 21.2 24.4 20.4 24.2 20.4C24 19.4 23.6 19.4 23.2 19.2Z" fill="white"/>
</svg>
