<svg width="58" height="46" viewBox="0 0 58 46" fill="none" xmlns="http://www.w3.org/2000/svg">
<path d="M9.93944 13.1219C9.95087 13.0064 9.98597 12.889 10.0447 12.7699C11.4957 9.82431 13.3907 7.36732 15.7297 5.39887C18.1238 3.38429 20.8031 1.91703 23.7674 0.997089C29.5852 -0.808925 36.0636 -0.127538 41.4082 2.76514C44.139 4.24302 46.4726 6.22616 48.4088 8.71458C49.4854 10.0982 50.4072 11.6469 51.1741 13.3606C52.0504 15.3197 52.6295 17.4032 52.9116 19.6113C53.2091 21.9426 53.1303 24.2624 52.6752 26.5709C52.6283 26.8092 52.5728 26.9665 52.5087 27.0429C52.401 27.1702 52.2532 27.2453 52.0655 27.2682C51.5629 27.3294 51.1851 26.948 51.2892 26.4441C51.7049 24.4361 51.7784 22.3123 51.5763 20.27C51.3849 18.3309 50.919 16.4578 50.1787 14.6506C49.5007 12.9951 48.6504 11.4579 47.6276 10.0388C47.0533 9.2417 46.3779 8.45338 45.6012 7.67383C43.2585 5.32214 40.5033 3.62346 37.3358 2.57781C34.1082 1.51257 30.5874 1.15504 27.2276 1.68337C23.5245 2.2662 20.1872 3.71448 17.2155 6.02822C14.6455 8.02891 12.6791 10.5708 11.271 13.4733C10.9349 14.1669 9.86292 13.8926 9.93944 13.1219Z" fill="#F4F4F4"/>
<path d="M30.4985 4.62351L30.3809 4.6233C29.9904 4.62262 29.6733 4.93865 29.6726 5.32917L29.6678 8.06084C29.6671 8.45136 29.9832 8.76849 30.3737 8.76917L30.4912 8.76938C30.8818 8.77006 31.1989 8.45403 31.1996 8.06351L31.2043 5.33184C31.205 4.94132 30.889 4.62419 30.4985 4.62351Z" fill="#F4F4F4"/>
<path d="M17.8172 9.87793L17.7928 9.902C17.5426 10.1487 17.5398 10.5514 17.7865 10.8015L19.5094 12.5487C19.756 12.7988 20.1588 12.8016 20.4089 12.5549L20.4333 12.5309C20.6834 12.2842 20.6863 11.8815 20.4396 11.6313L18.7167 9.88421C18.47 9.63408 18.0673 9.63127 17.8172 9.87793Z" fill="#F4F4F4"/>
<path d="M42.2154 9.87709L40.4452 11.6289C40.195 11.8764 40.1929 12.28 40.4405 12.5301L40.4629 12.5528C40.7104 12.803 41.114 12.8051 41.3641 12.5575L43.1344 10.8057C43.3845 10.5581 43.3867 10.1546 43.1391 9.90444L43.1167 9.88181C42.8691 9.63163 42.4656 9.62951 42.2154 9.87709Z" fill="#F4F4F4"/>
<path d="M31.1736 20.0394C31.5972 20.1949 31.9413 20.3896 32.2541 20.7459C32.8321 21.4038 33.0147 22.1656 32.8021 23.0312C32.8005 23.038 32.801 23.0452 32.8036 23.0516C32.8063 23.0581 32.8109 23.0636 32.8168 23.0674C34.4632 24.0955 36.7822 25.5535 39.7739 27.4416C39.98 27.5718 40.1096 27.6791 40.1626 27.7636C40.3855 28.1175 40.2392 28.5803 39.8535 28.7542C39.618 28.8603 39.3811 28.838 39.1427 28.6874C34.4707 25.737 32.1256 24.2559 32.1072 24.244C32.0997 24.2393 32.0909 24.2371 32.0821 24.2377C32.0733 24.2384 32.0649 24.2419 32.0582 24.2477C30.7995 25.3454 28.9109 24.9107 28.2025 23.4181C28.0234 23.0406 27.9536 22.638 27.9932 22.2103C28.0715 21.3605 28.4754 20.714 29.2047 20.2708C29.3559 20.179 29.5623 20.1073 29.7282 20.0467C29.7388 20.0427 29.7479 20.0356 29.7543 20.0263C29.7608 20.017 29.7643 20.006 29.7643 19.9947C29.7667 17.2879 29.7657 14.7572 29.7612 12.4027C29.7608 12.0807 29.9006 11.8542 30.1806 11.7231C30.5204 11.5646 30.963 11.7501 31.0971 12.107C31.1277 12.189 31.143 12.3388 31.143 12.5564C31.143 17.2585 31.1424 19.7371 31.1411 19.9922C31.1411 20.0025 31.1442 20.0125 31.15 20.0209C31.1558 20.0293 31.164 20.0358 31.1736 20.0394ZM29.2882 22.3398C29.2794 22.4881 29.3003 22.6367 29.3499 22.7772C29.3995 22.9176 29.4767 23.0471 29.5771 23.1583C29.6775 23.2696 29.7991 23.3603 29.9351 23.4253C30.071 23.4903 30.2186 23.5284 30.3694 23.5374C30.6739 23.5555 30.9731 23.4538 31.201 23.2548C31.429 23.0558 31.567 22.7758 31.5848 22.4762C31.5936 22.3279 31.5726 22.1793 31.5231 22.0388C31.4735 21.8984 31.3963 21.7689 31.2959 21.6577C31.1955 21.5465 31.0739 21.4557 30.9379 21.3907C30.802 21.3257 30.6544 21.2876 30.5036 21.2786C30.199 21.2605 29.8999 21.3622 29.672 21.5612C29.444 21.7602 29.306 22.0403 29.2882 22.3398Z" fill="#F4F4F4"/>
<path d="M9.65419 16.0947H3.46476C3.10129 16.0947 2.80664 16.3894 2.80664 16.7529V16.7859C2.80664 17.1494 3.10129 17.444 3.46476 17.444H9.65419C10.0177 17.444 10.3123 17.1494 10.3123 16.7859V16.7529C10.3123 16.3894 10.0177 16.0947 9.65419 16.0947Z" fill="#F4F4F4"/>
<path d="M8.47357 21.6367H0.687509C0.307808 21.6367 0 21.9445 0 22.3242V22.3487C0 22.7284 0.307808 23.0362 0.687509 23.0362H8.47357C8.85327 23.0362 9.16108 22.7284 9.16108 22.3487V22.3242C9.16108 21.9445 8.85327 21.6367 8.47357 21.6367Z" fill="#F4F4F4"/>
<path d="M15.6907 21.7315L12.8036 21.7466C12.4428 21.7485 12.1519 22.0425 12.1538 22.4032L12.1541 22.4497C12.1559 22.8105 12.4499 23.1014 12.8107 23.0995L15.6978 23.0844C16.0586 23.0825 16.3495 22.7885 16.3476 22.4278L16.3474 22.3813C16.3455 22.0205 16.0515 21.7296 15.6907 21.7315Z" fill="#F4F4F4"/>
<path d="M47.9891 21.8115H45.3321C44.9589 21.8115 44.6562 22.1141 44.6562 22.4874V22.5376C44.6562 22.9109 44.9589 23.2135 45.3321 23.2135H47.9891C48.3624 23.2135 48.665 22.9109 48.665 22.5376V22.4874C48.665 22.1141 48.3624 21.8115 47.9891 21.8115Z" fill="#F4F4F4"/>
<path d="M9.6562 27.0618L3.76677 27.0721C3.40262 27.0727 3.10794 27.3684 3.10857 27.7326L3.10862 27.7595C3.10926 28.1237 3.40497 28.4184 3.76912 28.4177L9.65855 28.4074C10.0227 28.4068 10.3174 28.1111 10.3167 27.7469L10.3167 27.72C10.3161 27.3559 10.0203 27.0612 9.6562 27.0618Z" fill="#F4F4F4"/>
<path d="M57.0925 36.1459C57.357 39.8106 55.352 43.3271 52.0847 44.944C49.5097 46.218 46.3924 46.1739 43.8444 44.8166C41.1096 43.3602 39.2185 40.5734 38.9932 37.4506C38.7685 34.3277 40.2403 31.2985 42.7375 29.4649C45.0645 27.7556 48.1433 27.2653 50.8743 28.1566C54.3401 29.288 56.8287 32.4807 57.0925 36.1459ZM55.8709 36.3917C55.8172 35.3674 55.562 34.3637 55.1199 33.438C54.6778 32.5122 54.0575 31.6825 53.2943 30.9962C52.5311 30.31 51.64 29.7806 50.6718 29.4382C49.7037 29.0959 48.6775 28.9474 47.6519 29.0012C46.6262 29.0549 45.6212 29.3099 44.6941 29.7515C43.7671 30.1932 42.9362 30.8128 42.2489 31.5751C41.5616 32.3374 41.0314 33.2274 40.6885 34.1943C40.3456 35.1612 40.1967 36.186 40.2504 37.2103C40.3041 38.2346 40.5592 39.2383 41.0013 40.164C41.4434 41.0898 42.0638 41.9195 42.827 42.6058C43.5902 43.292 44.4813 43.8214 45.4494 44.1638C46.4176 44.5061 47.4438 44.6546 48.4694 44.6009C49.4951 44.5471 50.5001 44.2921 51.4271 43.8505C52.3542 43.4088 53.1851 42.7892 53.8724 42.0269C54.5596 41.2646 55.0899 40.3746 55.4328 39.4077C55.7757 38.4408 55.9246 37.416 55.8709 36.3917Z" fill="#EFBF04"/>
<path d="M37.9471 41.8418C38.5495 41.8945 38.836 42.6573 38.3751 43.0748C38.3069 43.1365 38.1673 43.204 37.9563 43.2775C37.6963 43.3681 37.4333 43.4577 37.1672 43.5462C33.568 44.7498 29.6321 44.9506 25.9607 44.1364C22.9666 43.4728 20.2117 42.283 17.6959 40.5672C15.1479 38.8292 12.8845 36.5487 11.2353 33.9088C10.7863 33.1901 10.3727 32.4259 9.99431 31.6161C9.89513 31.4031 9.92819 31.0449 10.1119 30.8637C10.3996 30.579 10.8036 30.5772 11.1091 30.819C11.1626 30.8611 11.2399 30.9884 11.3412 31.201C12.2011 33.0022 13.3041 34.6296 14.6502 36.0834C15.4958 36.9964 16.436 37.8515 17.4706 38.6486C20.0272 40.6168 23.0252 41.9777 26.1676 42.7314C27.1549 42.9681 28.1534 43.1124 29.1632 43.1642C30.7778 43.2467 32.226 43.1834 33.508 42.9744C34.6916 42.7818 36.0146 42.4398 37.4769 41.9484C37.7096 41.87 37.8663 41.8345 37.9471 41.8418Z" fill="#F4F4F4"/>
<path d="M20.4229 32.3542L20.4003 32.3318C20.1523 32.0854 19.7515 32.0868 19.5051 32.3349L17.7856 34.0665C17.5393 34.3145 17.5407 34.7153 17.7888 34.9617L17.8113 34.9841C18.0594 35.2305 18.4602 35.2291 18.7066 34.981L20.4261 33.2494C20.6724 33.0014 20.671 32.6006 20.4229 32.3542Z" fill="#F4F4F4"/>
<path d="M46.6452 38.8926C46.6522 38.8992 46.6615 38.903 46.6712 38.9031C46.681 38.9032 46.6905 38.8997 46.6978 38.8932C46.8187 38.785 46.9882 38.6215 47.2066 38.4028C48.0094 37.5967 49.5109 36.0846 51.7112 33.8663C51.8863 33.69 52.0236 33.5861 52.1232 33.5547C52.6491 33.3906 53.1481 33.9979 52.8671 34.4816C52.8389 34.5293 52.7365 34.642 52.5597 34.8195C50.8464 36.5382 49.1199 38.2754 47.3805 40.0313C46.9862 40.4292 46.4572 40.502 46.0263 40.0925C45.2614 39.366 44.4431 38.5932 43.5713 37.774C43.4105 37.623 43.3123 37.5061 43.2768 37.4233C42.9781 36.729 43.829 36.2288 44.3421 36.7149C45.5236 37.8357 46.2913 38.5615 46.6452 38.8926Z" fill="#EFBF04"/>
<path d="M30.467 36.0742H30.4045C30.0269 36.0742 29.7207 36.3804 29.7207 36.7581V39.5399C29.7207 39.9176 30.0269 40.2238 30.4045 40.2238H30.467C30.8447 40.2238 31.1508 39.9176 31.1508 39.5399V36.7581C31.1508 36.3804 30.8447 36.0742 30.467 36.0742Z" fill="#F4F4F4"/>
</svg>
