<svg width="45" height="51" viewBox="0 0 45 51" fill="none" xmlns="http://www.w3.org/2000/svg">
<path d="M34.5678 10.202C34.5678 10.0355 34.4588 9.84264 34.2782 9.84326C30.6735 9.84734 28.6777 9.84407 28.2908 9.83346C27.1803 9.80346 26.2148 9.04861 25.9185 7.97419C25.8561 7.74767 25.8259 7.37198 25.8279 6.84711C25.8328 5.66963 25.8338 3.92055 25.831 1.59987C25.8303 1.26561 25.8108 0.84992 25.3779 0.84992C15.8622 0.849103 8.51241 0.8489 3.32864 0.849308C3.0458 0.849308 2.7048 0.830942 2.40298 0.876245C1.6971 0.982157 1.12163 1.56192 0.910417 2.22004C0.849196 2.41146 0.818585 2.78593 0.818585 3.34344C0.81981 24.2924 0.820422 38.1956 0.820422 45.0532C0.820422 45.7731 1.09387 46.3511 1.64078 46.787C1.90485 46.9971 2.20993 47.1361 2.55603 47.2039C2.66337 47.2251 3.00192 47.2357 3.57169 47.2357C4.31491 47.2361 4.731 47.2347 4.81998 47.2314C5.12241 47.2204 5.40525 47.2737 5.43157 47.6018C5.45423 47.8834 5.25036 48.0567 4.97548 48.0579C3.78575 48.0624 3.11232 48.0628 2.95519 48.0591C1.59425 48.0297 0.430445 47.1855 0.0931184 45.865C0.0335302 45.6303 0.0035319 45.2356 0.00312376 44.681C0.00189934 35.2725 0.00251148 22.6768 0.00496031 6.89364C0.00536845 4.83744 0.00373671 3.48588 6.34649e-05 2.83898C-0.00850745 1.45356 0.851644 0.358929 2.21687 0.0491513C2.35849 0.0169083 2.64725 0.000787257 3.08314 0.000787257C15.6452 -0.000437159 23.143 -0.000233426 25.5763 0.00139913C26.1891 0.00201134 26.786 0.143431 27.2201 0.596466C27.2576 0.636055 28.9526 2.3484 32.3051 5.7335C32.7348 6.16735 33.0136 6.44999 33.1413 6.58141C33.7568 7.21566 34.2613 7.72889 34.6547 8.12112C34.8869 8.35253 35.0392 8.54129 35.1114 8.68741C35.4138 9.30145 35.3679 9.98774 35.3679 10.7352C35.3671 16.701 35.3675 19.8276 35.3692 20.1149C35.37 20.2985 35.3469 20.423 35.3 20.4883C35.1543 20.691 34.7857 20.713 34.6345 20.5024C34.5921 20.4432 34.5708 20.3251 34.5708 20.1479C34.5721 15.3123 34.571 11.997 34.5678 10.202ZM26.6378 1.22153C26.6391 1.45172 26.6387 3.39671 26.6366 7.05649C26.6366 7.57564 26.6776 7.91786 26.9568 8.29866C27.1715 8.5917 27.4443 8.79781 27.7753 8.91699C27.9353 8.97453 28.1867 9.00331 28.5296 9.00331C30.6254 9.00412 32.4904 9.00494 34.1245 9.00576C34.1397 9.00579 34.1546 9.00251 34.1684 8.99617C34.1821 8.98982 34.1943 8.98056 34.2041 8.96902C34.2139 8.95748 34.221 8.94394 34.2251 8.92935C34.2291 8.91476 34.2299 8.89947 34.2274 8.88454C34.2253 8.87189 34.2068 8.84781 34.1717 8.8123C32.0651 6.68243 29.1681 3.71199 26.6727 1.20745C26.67 1.20449 26.6663 1.20245 26.6624 1.20158C26.6584 1.20071 26.6543 1.20106 26.6505 1.20258C26.6467 1.2041 26.6435 1.20672 26.6412 1.2101C26.639 1.21348 26.6378 1.21747 26.6378 1.22153Z" fill="#F4F4F4"/>
<path d="M18.874 8.09961H5.72624C5.49666 8.09961 5.31055 8.28572 5.31055 8.5153V8.53244C5.31055 8.76202 5.49666 8.94813 5.72624 8.94813H18.874C19.1036 8.94813 19.2897 8.76202 19.2897 8.53244V8.5153C19.2897 8.28572 19.1036 8.09961 18.874 8.09961Z" fill="#F4F4F4"/>
<path d="M29.8452 13.8018H5.7156C5.48974 13.8018 5.30664 13.9849 5.30664 14.2107V14.2364C5.30664 14.4623 5.48974 14.6454 5.7156 14.6454H29.8452C30.071 14.6454 30.2541 14.4623 30.2541 14.2364V14.2107C30.2541 13.9849 30.071 13.8018 29.8452 13.8018Z" fill="#F4F4F4"/>
<path d="M29.8432 18.6973H5.71364C5.48778 18.6973 5.30469 18.8804 5.30469 19.1062V19.1221C5.30469 19.348 5.48778 19.5311 5.71364 19.5311H29.8432C30.0691 19.5311 30.2522 19.348 30.2522 19.1221V19.1062C30.2522 18.8804 30.0691 18.6973 29.8432 18.6973Z" fill="#F4F4F4"/>
<path d="M32.5958 50.8369C32.4762 50.832 32.3471 50.7958 32.2083 50.7285C30.0986 49.7134 27.9522 48.4223 26.2852 47.0332C24.7491 45.7537 23.3992 44.2936 22.3732 42.5806C21.3275 40.8342 20.6802 38.927 20.4312 36.8589C20.3639 36.2989 20.3308 35.2898 20.3321 33.8315C20.3349 30.2358 20.3363 27.6338 20.3363 26.0253C20.337 25.4804 20.6804 25.02 21.1996 24.8694C21.3073 24.838 21.5116 24.828 21.8124 24.8394C22.9486 24.8829 23.8982 24.8768 24.9524 24.7464C25.4177 24.6888 25.8023 24.6256 26.1064 24.5566C28.1206 24.0987 29.8552 23.1732 31.3102 21.7802C31.5545 21.5458 31.7546 21.3205 31.9799 21.1907C32.5579 20.8584 33.1209 20.857 33.669 21.1864C33.7674 21.2456 33.9933 21.4547 34.3467 21.8139C35.5667 23.0522 37.038 23.9193 38.7608 24.4152C39.3987 24.5984 40.1056 24.7266 40.8814 24.7996C41.5663 24.8641 42.2854 24.878 43.0389 24.8413C43.348 24.826 43.5311 24.8039 43.7864 24.9025C44.108 25.0266 44.33 25.2402 44.4525 25.5435C44.5174 25.7039 44.5498 25.999 44.5498 26.4287C44.549 31.4847 44.5469 34.3756 44.5437 35.1013C44.532 37.5623 43.956 40.065 42.7603 42.231C41.3614 44.765 39.264 46.8189 36.858 48.4652C35.5842 49.3361 34.2904 50.0902 32.9766 50.7273C32.817 50.8048 32.6901 50.8413 32.5958 50.8369ZM32.6528 50.074C35.6905 48.5558 38.5875 46.6291 40.7174 43.9826C42.3932 41.8994 43.3968 39.5141 43.7282 36.8265C43.8021 36.2273 43.838 35.2423 43.836 33.8713C43.8327 31.1156 43.8311 28.5417 43.8311 26.1496C43.8311 25.8979 43.7925 25.7375 43.5966 25.6078C43.535 25.5673 43.3841 25.5535 43.1442 25.5661C42.3197 25.6106 41.4988 25.5955 40.6813 25.5208C38.2875 25.301 36.0964 24.4048 34.2916 22.7867C34.0096 22.5337 33.78 22.3112 33.6029 22.1194C33.2852 21.7747 32.9846 21.5709 32.5389 21.719C32.4066 21.7631 32.2497 21.8798 32.0681 22.0692C31.9783 22.1631 31.7957 22.3359 31.5202 22.5877C29.6627 24.2854 27.1974 25.3078 24.702 25.5171C23.6482 25.6057 22.6132 25.6188 21.5969 25.5563C21.1836 25.5306 21.03 25.7865 21.0502 26.1771C21.0563 26.2889 21.0569 28.8812 21.052 33.954C21.0508 35.2902 21.0824 36.2277 21.1469 36.7665C21.3453 38.4186 21.8187 39.9822 22.5672 41.4572C23.5823 43.4579 25.2199 45.2621 26.9984 46.6726C28.6893 48.0146 30.6012 49.1398 32.5621 50.0747C32.5765 50.0813 32.5921 50.0848 32.6078 50.0846C32.6234 50.0845 32.6388 50.0809 32.6528 50.074Z" fill="#EFBF04"/>
<path d="M15.5739 23.667H5.72344C5.49217 23.667 5.30469 23.8545 5.30469 24.0857V24.0943C5.30469 24.3256 5.49217 24.5131 5.72344 24.5131H15.5739C15.8051 24.5131 15.9926 24.3256 15.9926 24.0943V24.0857C15.9926 23.8545 15.8051 23.667 15.5739 23.667Z" fill="#F4F4F4"/>
<path d="M42.1541 27.5458C42.1683 27.5793 42.1756 27.6151 42.1756 27.6511C42.1768 31.8827 42.1764 34.376 42.1743 35.131C42.1719 35.8951 42.0841 36.7416 41.9111 37.6705C41.4887 39.9356 40.3977 41.8959 38.8519 43.5881C37.6956 44.8541 36.3726 45.9539 34.8829 46.8873C34.2679 47.2726 33.631 47.6407 32.9722 47.9917C32.6729 48.1509 32.5002 48.1172 32.1898 47.9623C29.8359 46.7881 27.6375 45.2747 25.9 43.3505C24.1246 41.3845 23.0859 39.1057 22.7839 36.514C22.7243 36.0002 22.6976 35.0682 22.7037 33.7181C22.7147 31.4129 22.7133 29.4842 22.6994 27.9321C22.6969 27.699 22.721 27.5437 22.7716 27.4662C22.8545 27.3389 22.9939 27.2764 23.1898 27.2789C23.8538 27.2862 24.5148 27.2572 25.1727 27.1919C27.9403 26.9177 30.3708 25.8902 32.4641 24.1095C32.5849 24.007 32.6814 23.9489 32.7537 23.935C32.8724 23.9121 32.9782 23.9433 33.0708 24.0286C34.5413 25.3804 36.2561 26.3532 38.2078 26.8448C39.2898 27.1179 40.3869 27.2611 41.4991 27.2746C41.807 27.2782 42.039 27.2678 42.1541 27.5458ZM23.4279 28.0313C23.4271 29.5275 23.4251 31.5337 23.4218 34.0499C23.4202 35.2772 23.4563 36.1604 23.5302 36.6995C23.7377 38.208 24.2452 39.7104 25.0564 41.0144C25.3225 41.4421 25.5117 41.7304 25.6239 41.8794C26.4626 42.99 27.4073 43.9358 28.5166 44.7996C29.7798 45.7841 31.1301 46.6259 32.5676 47.325C32.5824 47.3322 32.5987 47.3359 32.6152 47.3357C32.6316 47.3355 32.6478 47.3314 32.6625 47.3238C34.8952 46.16 36.9638 44.6662 38.6076 42.7604C39.8394 41.3327 40.7197 39.6938 41.1366 37.848C41.2979 37.1342 41.3913 36.4938 41.417 35.9269C41.455 35.0927 41.4697 34.2905 41.4611 33.5203C41.4595 33.386 41.4564 31.5584 41.4519 28.0374C41.4519 28.0272 41.4479 28.0173 41.4406 28.0101C41.4334 28.0029 41.4236 27.9988 41.4134 27.9988C39.6233 27.986 37.7824 27.6419 36.1416 26.9238C34.9144 26.3871 33.8122 25.6783 32.8351 24.7976C32.8283 24.7914 32.8194 24.7879 32.8102 24.7877C32.801 24.7875 32.792 24.7905 32.7849 24.7964C30.9868 26.3091 28.8245 27.3327 26.5134 27.7472C25.5274 27.9239 24.5105 28.0072 23.4628 27.997C23.4583 27.9969 23.4537 27.9977 23.4495 27.9994C23.4453 28.0011 23.4414 28.0036 23.4382 28.0068C23.4349 28.01 23.4323 28.0138 23.4306 28.018C23.4288 28.0222 23.4279 28.0267 23.4279 28.0313Z" fill="#EFBF04"/>
<path d="M15.5769 28.6338H5.71548C5.4886 28.6338 5.30469 28.8177 5.30469 29.0446V29.0593C5.30469 29.2861 5.4886 29.4701 5.71548 29.4701H15.5769C15.8038 29.4701 15.9877 29.2861 15.9877 29.0593V29.0446C15.9877 28.8177 15.8038 28.6338 15.5769 28.6338Z" fill="#F4F4F4"/>
<path d="M32.712 29.6707C36.1734 29.8042 38.8634 32.7526 38.73 36.2116C38.5965 39.6699 35.6873 42.4022 32.2259 42.2688C28.7645 42.1353 26.0744 39.1869 26.2079 35.7279C26.3413 32.269 29.2506 29.5367 32.712 29.6707ZM26.9468 35.7604C26.8287 38.8122 29.2022 41.4141 32.2565 41.5323C35.3114 41.6504 37.8784 39.2396 37.9959 36.1871C38.1141 33.1352 35.7406 30.5334 32.6863 30.4152C29.632 30.297 27.0644 32.7079 26.9468 35.7604Z" fill="#EFBF04"/>
<path d="M9.97707 33.2148C10.3289 33.2148 10.6668 33.323 10.9909 33.5393C11.246 33.7095 11.5019 33.8803 11.7586 34.0517C12.0629 34.255 12.5379 34.3419 13.0191 34.4405C13.3179 34.5017 13.5309 34.5666 13.6583 34.6352C14.1787 34.9156 14.3893 35.3368 14.4713 35.9128C14.4864 36.0186 14.5205 36.2112 14.5735 36.4908C14.6225 36.7528 14.6929 36.9389 14.8435 37.1746C15.0798 37.544 15.2274 37.7813 15.2861 37.8866C15.5824 38.4192 15.5859 38.9512 15.2965 39.4826C15.2325 39.6006 15.0594 39.8685 14.7774 40.2865C14.5692 40.595 14.5527 40.9721 14.4639 41.506C14.415 41.7998 14.3519 42.0141 14.2748 42.1488C14.096 42.4602 13.825 42.681 13.4618 42.8112C13.4483 42.816 13.4366 42.8248 13.4284 42.8364C13.4202 42.8481 13.4158 42.8619 13.4158 42.8761C13.413 45.8943 13.4128 48.2052 13.4152 49.8087C13.4158 50.2342 12.9646 50.4124 12.6481 50.1522C11.5829 49.2735 10.8423 48.6574 10.4264 48.3039C10.3183 48.2117 10.174 48.0974 9.9936 47.9611C9.98564 47.955 9.98686 47.9556 9.97217 47.9556C9.95686 47.9556 9.95809 47.955 9.95013 47.9611C9.76973 48.0974 9.62546 48.2115 9.5173 48.3033C9.101 48.6568 8.36002 49.2724 7.29437 50.1504C6.97786 50.4105 6.52666 50.2318 6.52728 49.8063C6.53095 48.2027 6.53238 45.8918 6.53156 42.8737C6.53159 42.8595 6.5272 42.8456 6.51897 42.834C6.51075 42.8224 6.49911 42.8136 6.48565 42.8088C6.1224 42.6782 5.8516 42.4571 5.67324 42.1457C5.59611 42.011 5.53325 41.7968 5.48468 41.5029C5.39591 40.9691 5.38 40.592 5.17185 40.2834C4.89023 39.8651 4.71738 39.5969 4.65331 39.479C4.36434 38.9472 4.36822 38.4151 4.66494 37.8829C4.72371 37.7776 4.87125 37.5403 5.10756 37.1709C5.25878 36.9358 5.32918 36.7497 5.37816 36.4877C5.43163 36.2081 5.46591 36.0155 5.48101 35.9098C5.56366 35.3337 5.77426 34.9125 6.29464 34.6327C6.42197 34.5641 6.63523 34.4995 6.93439 34.4386C7.41559 34.3401 7.89066 34.2538 8.19493 34.0505C8.45165 33.8791 8.70755 33.7085 8.96264 33.5387C9.28711 33.3228 9.62525 33.2148 9.97707 33.2148ZM9.9838 43.4834C10.1948 43.4834 10.3936 43.4157 10.5801 43.2802C10.9772 42.9916 11.2776 42.7875 11.4813 42.6679C11.9606 42.3857 12.4926 42.2847 13.0736 42.18C13.5664 42.0912 13.7397 41.7686 13.796 41.2715C13.814 41.1111 13.8501 40.8991 13.9044 40.6354C14.0011 40.1652 14.2766 39.7306 14.5264 39.359C14.8092 38.9396 14.9304 38.6292 14.6586 38.208C14.3921 37.7962 14.2099 37.4946 14.1119 37.3032C13.8946 36.8771 13.8279 36.361 13.7752 35.993C13.7426 35.7653 13.6895 35.6063 13.616 35.5161C13.4883 35.359 13.3516 35.2641 13.2059 35.2315C12.8765 35.1584 12.5524 35.0855 12.2337 35.0129C11.5927 34.8666 11.1666 34.5544 10.5574 34.1405C10.3656 34.0103 10.1726 33.9452 9.97829 33.9452C9.78443 33.9452 9.59158 34.0105 9.39975 34.1411C8.79122 34.5556 8.36512 34.8684 7.72475 35.0153C7.406 35.0884 7.08194 35.1617 6.75257 35.2351C6.60686 35.2678 6.47014 35.3627 6.34239 35.5198C6.26933 35.6104 6.21648 35.7696 6.18383 35.9973C6.13179 36.3653 6.06567 36.8814 5.84895 37.3075C5.75099 37.4989 5.56897 37.8007 5.30286 38.2129C5.03165 38.6347 5.15287 38.9445 5.43632 39.3639C5.68671 39.7355 5.96282 40.1695 6.05955 40.6397C6.11424 40.9034 6.15056 41.1154 6.16852 41.2758C6.22546 41.7729 6.39932 42.0949 6.89215 42.1831C7.47314 42.2872 8.00515 42.3876 8.48512 42.6698C8.68878 42.789 8.98937 42.9926 9.3869 43.2808C9.57342 43.4163 9.77239 43.4838 9.9838 43.4834ZM9.97584 47.153C10.106 47.153 10.2189 47.192 10.3144 47.2699C10.8805 47.7315 11.6604 48.3721 12.6543 49.1916C12.6584 49.195 12.6633 49.1971 12.6686 49.1977C12.6738 49.1984 12.6791 49.1975 12.6839 49.1953C12.6887 49.1931 12.6928 49.1895 12.6956 49.1851C12.6985 49.1807 12.7001 49.1755 12.7002 49.1702V43.0426C12.7001 43.039 12.6993 43.0355 12.6978 43.0323C12.6963 43.029 12.6941 43.0262 12.6913 43.0238C12.6886 43.0215 12.6854 43.0198 12.682 43.0188C12.6785 43.0178 12.6749 43.0176 12.6714 43.0181C12.2906 43.0763 11.9698 43.1902 11.6159 43.4406C11.5111 43.5148 11.2807 43.6732 10.9248 43.9156C10.6342 44.1136 10.3177 44.2128 9.97523 44.2132C9.6328 44.2132 9.31629 44.1142 9.0257 43.9162C8.66939 43.6738 8.43879 43.5157 8.3339 43.4418C7.98005 43.1914 7.65925 43.0775 7.27845 43.02C7.27491 43.0194 7.2713 43.0197 7.26786 43.0207C7.26442 43.0217 7.26124 43.0234 7.25851 43.0257C7.25579 43.028 7.25359 43.0309 7.25207 43.0341C7.25054 43.0374 7.24973 43.0409 7.24968 43.0445L7.25335 49.172C7.25343 49.1773 7.255 49.1825 7.25787 49.1869C7.26075 49.1914 7.26481 49.1949 7.2696 49.1971C7.27439 49.1994 7.27972 49.2002 7.28496 49.1996C7.29021 49.1989 7.29517 49.1968 7.29927 49.1935C8.29268 48.3731 9.07222 47.7319 9.6379 47.2699C9.73341 47.192 9.84605 47.153 9.97584 47.153Z" fill="#EFBF04"/>
<path d="M31.5269 37.4287C31.5327 37.4342 31.5404 37.4372 31.5484 37.4371C31.5564 37.437 31.5641 37.4337 31.5697 37.428C32.9831 35.9947 34.0724 34.8937 34.8377 34.1252C34.963 33.9991 35.1044 33.8499 35.262 33.6777C35.4566 33.4652 35.8197 33.4671 35.9519 33.734C36.0572 33.9452 35.9623 34.1086 35.797 34.2764C33.6098 36.4946 32.4489 37.6707 32.3142 37.8045C32.0295 38.0886 31.7265 38.5882 31.282 38.317C31.267 38.308 31.2532 38.2971 31.241 38.2845C30.703 37.7278 30.0717 37.0944 29.3468 36.3842C29.2109 36.2512 29.1727 36.1024 29.2323 35.9379C29.3364 35.6496 29.6768 35.5988 29.8819 35.8032C30.5002 36.4187 31.0485 36.9605 31.5269 37.4287Z" fill="#EFBF04"/>
<path d="M12.8335 38.7058C12.8335 39.4649 12.532 40.1929 11.9952 40.7296C11.4585 41.2664 10.7305 41.5679 9.97145 41.5679C9.21238 41.5679 8.4844 41.2664 7.94766 40.7296C7.41091 40.1929 7.10938 39.4649 7.10938 38.7058C7.10938 37.9468 7.41091 37.2188 7.94766 36.682C8.4844 36.1453 9.21238 35.8438 9.97145 35.8438C10.7305 35.8438 11.4585 36.1453 11.9952 36.682C12.532 37.2188 12.8335 37.9468 12.8335 38.7058ZM12.1213 38.6258C12.111 38.3447 12.0452 38.0683 11.9277 37.8126C11.8101 37.5568 11.6432 37.3266 11.4363 37.1352C11.2294 36.9437 10.9867 36.7947 10.722 36.6967C10.4573 36.5987 10.1758 36.5536 9.89356 36.5639C9.32355 36.5848 8.78515 36.8304 8.39681 37.2466C8.00847 37.6629 7.802 38.2157 7.82282 38.7834C7.83313 39.0645 7.89893 39.3409 8.01646 39.5966C8.13399 39.8524 8.30096 40.0825 8.50782 40.274C8.71469 40.4655 8.9574 40.6145 9.2221 40.7125C9.4868 40.8105 9.76831 40.8556 10.0506 40.8453C10.6206 40.8244 11.159 40.5788 11.5473 40.1626C11.9356 39.7463 12.1421 39.1935 12.1213 38.6258Z" fill="#EFBF04"/>
<path d="M25.047 47.2373H14.9431C14.72 47.2373 14.5391 47.4182 14.5391 47.6414V47.6548C14.5391 47.878 14.72 48.0589 14.9431 48.0589H25.047C25.2702 48.0589 25.4511 47.878 25.4511 47.6548V47.6414C25.4511 47.4182 25.2702 47.2373 25.047 47.2373Z" fill="#F4F4F4"/>
</svg>
