<svg width="47" height="55" viewBox="0 0 47 55" fill="none" xmlns="http://www.w3.org/2000/svg">
<path d="M35.6666 11.3348C35.6666 11.3288 35.6641 11.323 35.6597 11.3188C35.6553 11.3145 35.6494 11.3121 35.6432 11.3121C32.059 11.3186 29.6481 11.3169 28.4107 11.3073C27.9652 11.3036 27.5186 11.161 27.0708 10.8792C26.4812 10.5076 26.0922 9.9926 25.9036 9.33421C25.8398 9.11077 25.8079 8.7841 25.8079 8.3542C25.8075 6.35609 25.8093 3.9774 25.8134 1.21813C25.8134 1.20791 25.8094 1.19811 25.8021 1.19088C25.7949 1.18365 25.7851 1.17959 25.7749 1.17959C16.9025 1.18143 9.83684 1.18028 4.57798 1.17615C3.85857 1.17569 3.38072 1.20919 3.14444 1.27663C2.12726 1.56775 1.34614 2.45416 1.18923 3.52777C1.17271 3.63834 1.16445 3.95721 1.16445 4.48438C1.16445 14.0643 1.16445 27.4266 1.16445 44.5713C1.16445 45.1747 1.19634 45.5873 1.26011 45.8094C1.53471 46.7612 2.3296 47.5527 3.32957 47.7509C3.50346 47.7853 3.82095 47.8027 4.28205 47.8032C11.5656 47.8077 15.8922 47.8066 17.2617 47.7997C17.6265 47.7974 17.902 47.8004 18.0883 47.8087C18.7269 47.8362 18.8577 48.7116 18.2624 48.9415C18.1871 48.9708 18.0426 48.9855 17.8288 48.9855C13.4187 48.9837 8.78892 48.9839 3.93932 48.9862C2.01577 48.9869 0.451467 47.6779 0.0626275 45.795C0.0213348 45.594 0.000688883 45.2836 0.000688883 44.8638C0.000230076 18.7104 0 5.23431 0 4.43552C0 3.75832 0.0330343 3.27933 0.0991026 2.99854C0.489318 1.33926 1.95177 0.0901552 3.66679 0.0123873C3.85215 0.00412876 4.17286 0 4.62891 0C8.36406 0.000917615 15.5169 0.00160574 26.0873 0.00206455C26.5773 0.00206455 26.8519 -0.0151405 27.1678 0.288361C27.4353 0.546211 27.6321 0.73868 27.7583 0.86577C30.7025 3.826 33.5416 6.75686 36.2756 9.65836C36.5365 9.93433 36.7815 10.1862 36.8179 10.5606C36.8262 10.6469 36.8301 10.9393 36.8296 11.4381C36.8264 16.7809 36.8262 21.6046 36.8289 25.9091C36.8296 26.1562 36.7828 26.3461 36.5791 26.4782C36.2763 26.6737 35.8737 26.5808 35.7182 26.2539C35.6838 26.1814 35.6666 26.0408 35.6666 25.832C35.662 19.8533 35.662 15.0209 35.6666 11.3348ZM26.9621 1.73292C26.9662 4.58899 26.9664 6.83784 26.9627 8.47945C26.9623 8.75887 26.988 8.97336 27.0398 9.12293C27.2614 9.76365 27.8733 10.1394 28.5449 10.1401C29.9842 10.1415 32.1698 10.141 35.1015 10.1387C35.1066 10.1388 35.1116 10.1374 35.1158 10.1347C35.1201 10.1319 35.1234 10.128 35.1254 10.1233C35.1274 10.1186 35.128 10.1135 35.127 10.1085C35.1261 10.1036 35.1237 10.099 35.1201 10.0954C32.4673 7.30077 29.7571 4.50939 26.9896 1.72122C26.9874 1.71891 26.9846 1.71735 26.9815 1.71672C26.9785 1.71609 26.9752 1.71642 26.9723 1.71767C26.9693 1.71892 26.9668 1.72105 26.965 1.72376C26.9632 1.72647 26.9621 1.72966 26.9621 1.73292Z" fill="#F4F4F4"/>
<path d="M17.7017 11.5664H6.10394C5.7801 11.5664 5.51758 11.8289 5.51758 12.1528V12.1651C5.51758 12.489 5.7801 12.7515 6.10394 12.7515H17.7017C18.0255 12.7515 18.288 12.489 18.288 12.1651V12.1528C18.288 11.8289 18.0255 11.5664 17.7017 11.5664Z" fill="#F4F4F4"/>
<path d="M30.3832 18.2432H6.09075C5.77527 18.2432 5.51953 18.4989 5.51953 18.8144V18.8488C5.51953 19.1643 5.77527 19.42 6.09075 19.42H30.3832C30.6987 19.42 30.9544 19.1643 30.9544 18.8488V18.8144C30.9544 18.4989 30.6987 18.2432 30.3832 18.2432Z" fill="#F4F4F4"/>
<path d="M30.3671 24.7568H6.10209C5.77712 24.7568 5.51367 25.0203 5.51367 25.3453V25.3521C5.51367 25.6771 5.77712 25.9406 6.10209 25.9406H30.3671C30.692 25.9406 30.9555 25.6771 30.9555 25.3521V25.3453C30.9555 25.0203 30.692 24.7568 30.3671 24.7568Z" fill="#F4F4F4"/>
<path d="M34.6922 36.2308C34.6931 36.228 34.6931 36.225 34.6921 36.2223C34.6912 36.2195 34.6894 36.2171 34.6871 36.2155C34.6847 36.2138 34.6819 36.2129 34.679 36.2129C34.6761 36.213 34.6732 36.2139 34.6709 36.2156L28.7351 40.5169C28.7188 40.5289 28.705 40.544 28.6947 40.5612C28.6844 40.5785 28.6778 40.5976 28.6752 40.6174C28.5692 41.4139 28.4013 42.1625 28.1714 42.8631C27.6525 44.4446 26.918 45.9352 25.9678 47.3351C24.2886 49.8085 21.9548 51.7403 19.2123 52.8931C17.0747 53.7919 14.7658 54.2426 12.5078 54.3046C11.5204 54.3316 10.4372 54.3271 9.25802 54.2908C8.40464 54.2647 8.45006 53.1257 9.20915 53.1339C10.6929 53.1498 12.1795 53.1979 13.5318 53.0672C15.2847 52.8972 17.0727 52.5269 18.6466 51.8656C21.7885 50.5465 24.1853 48.3947 25.837 45.4101C26.6487 43.9433 27.2024 42.3926 27.4984 40.7578C27.5021 40.7376 27.4989 40.7168 27.4893 40.6985C27.4797 40.6803 27.4642 40.6658 27.4454 40.6573C25.6606 39.8521 23.64 38.9235 21.3836 37.8715C21.0822 37.7311 20.8911 37.618 20.8103 37.5322C20.2673 36.9575 20.3472 35.9864 21.0457 35.5715C21.098 35.5403 21.3013 35.4503 21.6555 35.3017C22.2225 35.0631 23.1936 34.6676 24.5687 34.1152C32.9006 30.7654 39.5779 28.0759 44.6004 26.0466C45.0964 25.8461 45.5066 25.9404 45.8309 26.3295C45.9617 26.4868 46.0269 26.6743 46.0264 26.8917C46.0259 27.0115 45.9773 27.2072 45.8805 27.4788C43.1763 35.0454 41.4131 39.9657 40.5909 42.2395C39.8669 44.2427 39.2966 45.8288 38.88 46.9978C38.7635 47.325 38.6479 47.5514 38.5332 47.6771C38.0562 48.2015 37.282 48.2469 36.7115 47.7968C35.786 47.0669 34.6475 46.1573 33.2959 45.0681C33.2855 45.0597 33.2724 45.0554 33.2591 45.056C33.2458 45.0567 33.2331 45.0622 33.2236 45.0715C32.2867 46.0006 30.9475 47.3346 29.2058 49.0735C28.9491 49.3295 28.7199 49.5786 28.3139 49.4128C28.2084 49.3696 28.1237 49.2939 28.06 49.1857C27.9076 48.9287 27.9528 48.6803 28.1955 48.4403C28.9058 47.7383 30.2849 46.3661 32.3331 44.3234C32.3359 44.3205 32.3381 44.3171 32.3396 44.3133C32.341 44.3095 32.3417 44.3054 32.3415 44.3013C32.3413 44.2972 32.3403 44.2933 32.3385 44.2896C32.3367 44.286 32.3341 44.2827 32.331 44.2801C31.4125 43.5189 30.7844 43.0048 30.4467 42.7378C30.2453 42.5781 30.1175 42.4504 30.0633 42.3545C29.8404 41.9587 29.8748 41.4302 30.1872 41.0916C32.306 38.7953 33.7909 37.2 34.642 36.3058C34.6682 36.2783 34.6849 36.2532 34.6922 36.2308ZM44.6741 27.3508C44.6759 27.3446 44.676 27.338 44.6743 27.3318C44.6726 27.3256 44.6692 27.32 44.6645 27.3156C44.6597 27.3112 44.6539 27.3083 44.6475 27.3071C44.6412 27.3059 44.6347 27.3065 44.6286 27.3088L21.5894 36.5783C21.5779 36.5829 21.568 36.5908 21.561 36.601C21.5539 36.6112 21.55 36.6232 21.5497 36.6356C21.5494 36.6479 21.5528 36.6601 21.5593 36.6706C21.5659 36.6811 21.5754 36.6895 21.5866 36.6946L27.9313 39.6064C27.9546 39.6173 27.9804 39.6217 28.0059 39.6192C28.0315 39.6166 28.0559 39.6072 28.0765 39.592C31.9295 36.7823 35.7058 34.0806 39.4051 31.4869C39.624 31.3337 39.8295 31.3488 40.0218 31.5323C40.3012 31.7994 40.1642 32.0471 39.9206 32.3025C39.1576 33.1017 38.1562 34.1735 36.9165 35.5178C35.057 37.5329 33.1236 39.6154 31.1163 41.7654C31.1135 41.7684 31.1114 41.7719 31.1101 41.7758C31.1087 41.7796 31.1082 41.7837 31.1085 41.7878C31.1089 41.7919 31.11 41.7958 31.1119 41.7994C31.1139 41.803 31.1165 41.8062 31.1197 41.8087C33.3055 43.5962 35.2554 45.1693 36.9695 46.5278C37.1691 46.6856 37.3409 46.8161 37.485 46.9194C37.5081 46.9359 37.5363 46.9438 37.5645 46.9415C37.5928 46.9392 37.6192 46.927 37.6392 46.907C37.6635 46.8822 37.6828 46.8515 37.697 46.8148C37.8855 46.3316 38.0929 45.7747 38.3191 45.1438C41.695 35.7272 43.5917 30.4291 44.0093 29.2495C44.4052 28.1305 44.6268 27.4976 44.6741 27.3508Z" fill="#EFBF04"/>
<path d="M19.9645 31.3945H6.10393C5.7801 31.3945 5.51758 31.6571 5.51758 31.9809V31.9919C5.51758 32.3157 5.7801 32.5783 6.10393 32.5783H19.9645C20.2883 32.5783 20.5509 32.3157 20.5509 31.9919V31.9809C20.5509 31.6571 20.2883 31.3945 19.9645 31.3945Z" fill="#F4F4F4"/>
</svg>
