<svg width="47" height="57" viewBox="0 0 47 57" fill="none" xmlns="http://www.w3.org/2000/svg">
<path d="M3.02308 8.97951C5.59619 8.50566 8.09033 7.79672 10.492 6.83739C14.5293 5.22483 18.3122 3.14598 21.8405 0.600826C22.2838 0.280845 22.5735 0.102081 22.7099 0.0645322C23.0311 -0.0248502 23.3533 -0.0213811 23.6765 0.0749396C23.8186 0.117386 24.093 0.285947 24.5 0.580623C27.1206 2.47847 29.9223 4.11878 32.905 5.50155C35.2454 6.587 37.7126 7.54327 40.077 8.18486C41.4765 8.56524 43.075 8.90257 44.8724 9.19684C45.4054 9.28418 45.7956 9.57008 46.0429 10.0545C46.1336 10.2321 46.197 10.5219 46.2333 10.9239C46.297 11.632 46.3291 12.1197 46.3295 12.3871C46.3323 15.6089 46.3331 20.2745 46.3319 26.384C46.3319 27.8404 46.2946 28.9993 46.1262 30.2023C46.0148 30.9978 45.8711 31.8224 45.6952 32.6762C45.5707 33.2791 45.3893 33.98 45.151 34.7792C44.704 36.2766 44.1657 37.7235 43.536 39.1197C42.104 42.2959 40.0911 45.1555 37.6447 47.6729C36.5692 48.7798 35.3401 49.8509 33.9573 50.8864C31.0383 53.0726 27.7655 54.807 24.3414 56.0228C23.57 56.2967 22.8003 56.2989 22.0321 56.0295C21.4595 55.8283 20.671 55.4943 19.6666 55.0274C17.5691 54.0521 15.4527 52.8889 13.5714 51.5751C13.3674 51.4323 13.0686 51.2213 12.6752 50.9421C12.0042 50.4652 11.5744 50.1113 10.994 49.6546C10.4975 49.2634 10.2129 48.9885 9.62208 48.4541C8.65969 47.5835 7.67913 46.5434 6.68041 45.3336C4.55238 42.7563 2.9184 39.8858 1.77847 36.7223C1.05769 34.7229 0.548539 32.6715 0.251006 30.5684C0.0832612 29.3844 -0.000406653 28.1604 1.48595e-06 26.8964C1.48595e-06 26.4695 1.48595e-06 21.6024 1.48595e-06 12.2952C1.48595e-06 11.8589 0.0406107 11.3385 0.12183 10.7341C0.201825 10.1423 0.486911 9.71334 0.977086 9.44723C1.16565 9.34479 1.4444 9.26133 1.81336 9.19684C2.21048 9.12746 2.61372 9.05501 3.02308 8.97951ZM45.0689 10.9C45.042 10.69 45.0322 10.4366 44.7702 10.3931C42.4879 10.0148 40.1106 9.53111 37.8687 8.78544C34.1351 7.54306 30.609 5.90173 27.2904 3.86145C26.088 3.12231 24.8518 2.29603 23.5816 1.38262C23.4478 1.2863 23.34 1.23018 23.2584 1.21426C23.1253 1.18855 23.0086 1.21242 22.9082 1.28589C18.8003 4.28693 14.2804 6.80555 9.50882 8.5026C6.94734 9.41356 4.39933 9.98047 1.67255 10.4231C1.48522 10.4537 1.35033 10.5757 1.26788 10.7892C1.26138 10.8063 1.25726 10.8242 1.25564 10.8425C1.17891 11.7314 1.14054 12.2462 1.14054 12.3871C1.14095 18.2798 1.14034 23.1268 1.13871 26.9282C1.13871 27.4602 1.16687 27.8698 1.17728 28.3302C1.18503 28.6718 1.20789 29.0212 1.24584 29.3783C1.56501 32.3597 2.30048 35.1892 3.45224 37.8665C4.27138 39.7713 5.25397 41.5173 6.40002 43.1046C8.06605 45.4134 10.0504 47.4639 12.3531 49.2561C15.2366 51.5004 18.4538 53.3279 21.8032 54.7292C22.5819 55.0543 23.1513 55.2269 23.9416 54.9686C24.3391 54.8384 24.8136 54.66 25.365 54.4335C29.4741 52.7444 33.3476 50.3593 36.5139 47.2217C37.9175 45.8308 39.1776 44.3072 40.2943 42.651C41.3032 41.1551 42.1607 39.5558 42.8668 37.8531C43.5692 36.1593 44.1263 34.4306 44.5381 32.6671C44.7961 31.5626 44.9848 30.3588 45.1044 29.0556C45.1726 28.3104 45.2048 27.1862 45.2012 25.683C45.1963 23.9272 45.1952 19.8625 45.1981 13.489C45.1985 12.4458 45.1554 11.5828 45.0689 10.9Z" fill="#EFBF04"/>
<path d="M9.25942 26.8431C9.25789 26.8406 9.25587 26.8385 9.25347 26.8369C9.25108 26.8353 9.24837 26.8343 9.24553 26.8338C9.24269 26.8334 9.23978 26.8335 9.237 26.8342C9.23422 26.835 9.23164 26.8363 9.22942 26.8382C8.9225 27.0892 8.76557 27.2177 8.75863 27.2239C8.31355 27.6016 7.81583 27.7932 7.24158 27.7663C6.84079 27.7479 6.47877 27.6269 6.15552 27.4032C5.47556 26.9327 5.13926 26.2858 5.1466 25.4625C5.14987 25.0899 5.25986 24.725 5.47658 24.3679C5.56556 24.221 5.75044 24.0281 6.03124 23.7894C8.20213 21.9438 10.3736 20.1561 12.5457 18.4264C15.6441 15.9598 19.8378 12.5829 21.8085 10.9899C22.1272 10.732 22.3666 10.5744 22.5266 10.5173C22.9457 10.3671 23.3682 10.3679 23.7938 10.5198C23.9485 10.5749 24.1448 10.6987 24.3828 10.8914C26.7778 12.8315 28.5985 14.3179 30.4975 15.8129C30.5007 15.8154 30.5045 15.817 30.5085 15.8175C30.5125 15.818 30.5165 15.8173 30.5202 15.8156C30.5238 15.8139 30.5269 15.8112 30.5291 15.8078C30.5312 15.8044 30.5324 15.8004 30.5324 15.7964C30.5312 15.4637 30.5306 14.8456 30.5306 13.942C30.5306 13.6322 30.559 13.4071 30.6157 13.2667C30.7977 12.8174 31.1667 12.5911 31.7226 12.5878C33.4208 12.5784 34.4228 12.5784 34.7285 12.5878C35.2079 12.6031 35.6486 12.9086 35.7931 13.3727C35.8217 13.4657 35.836 13.6277 35.836 13.8587C35.8339 15.6374 35.8341 17.7003 35.8366 20.0476C35.8366 20.0579 35.839 20.0681 35.8435 20.0776C35.8481 20.087 35.8547 20.0953 35.8629 20.102C36.8735 20.9293 38.3287 22.1382 40.2286 23.7288C40.5571 24.0043 40.7683 24.2177 40.8622 24.3691C42.0052 26.2113 40.078 28.4624 38.0718 27.5636C37.9628 27.5151 37.801 27.4026 37.5863 27.2263C37.4585 27.1214 37.3028 26.9982 37.1192 26.8565C37.1163 26.8542 37.1128 26.8528 37.1091 26.8524C37.1055 26.8519 37.1018 26.8526 37.0984 26.8542C37.0951 26.8558 37.0923 26.8583 37.0903 26.8614C37.0884 26.8645 37.0873 26.8681 37.0873 26.8718V42.447C37.0873 42.461 37.0929 42.4744 37.1028 42.4843C37.1126 42.4941 37.126 42.4997 37.14 42.4997L38.1465 42.4929C38.1651 42.4925 38.1839 42.495 38.2022 42.5003C38.6111 42.6178 38.7164 43.08 38.444 43.3862C38.2756 43.5753 38.0424 43.5466 37.7589 43.5466C33.9902 43.5457 24.2048 43.5457 8.40294 43.5466C8.28662 43.5466 8.13295 43.549 8.03684 43.4902C7.80746 43.3494 7.72665 43.1403 7.7944 42.8627C7.86358 42.5787 8.08765 42.4831 8.38273 42.4936C8.60844 42.5021 8.88842 42.4999 9.22268 42.4868C9.23454 42.4863 9.24575 42.4813 9.25397 42.4727C9.26219 42.4642 9.26677 42.4528 9.26676 42.4409C9.26839 37.4604 9.26819 32.266 9.26615 26.8578C9.26615 26.8563 9.26612 26.8549 9.26606 26.8536C9.266 26.8523 9.26591 26.8511 9.2658 26.8501C9.26568 26.8492 9.26555 26.8484 9.2654 26.8479C9.26525 26.8475 9.26509 26.8473 9.26493 26.8473C9.26207 26.8461 9.26023 26.8447 9.25942 26.8431ZM23.1535 14.5818C23.4269 14.5814 23.6863 14.6789 23.9316 14.8744C28.7101 18.6766 33.4522 22.4923 38.1581 26.3215C38.3573 26.4839 38.5103 26.5857 38.6172 26.627C39.189 26.8467 39.8098 26.5131 40.0351 25.9731C40.2133 25.5446 40.1178 25.0352 39.7651 24.7389C37.5183 22.8529 35.0966 20.8763 32.5001 18.8091C31.2034 17.7765 28.2291 15.3844 23.5771 11.6328C23.4526 11.5324 23.311 11.4824 23.1523 11.4828C22.9935 11.4828 22.8521 11.533 22.728 11.6334C18.0793 15.3891 15.107 17.7838 13.8112 18.8176C11.2166 20.8873 8.79679 22.8662 6.55162 24.7542C6.19899 25.0505 6.1041 25.5599 6.28286 25.9884C6.50876 26.5284 7.12954 26.8614 7.70135 26.641C7.80828 26.5998 7.96113 26.4978 8.15989 26.3349C12.8625 22.5017 17.6012 18.6817 22.376 14.875C22.6213 14.6795 22.8804 14.5818 23.1535 14.5818ZM34.7946 19.2468V13.7351C34.7946 13.7117 34.7853 13.6893 34.7688 13.6727C34.7523 13.6562 34.7298 13.6469 34.7065 13.6469C34.0865 13.6502 33.0894 13.6528 31.7152 13.6549C31.5395 13.6555 31.572 13.7877 31.572 13.9096C31.572 14.6516 31.5724 15.5635 31.5732 16.6455C31.5732 16.6532 31.5749 16.6607 31.5782 16.6676C31.5815 16.6745 31.5862 16.6805 31.5922 16.6853L34.7646 19.2615C34.7673 19.2637 34.7706 19.2651 34.7741 19.2655C34.7776 19.2659 34.7812 19.2653 34.7843 19.2638C34.7875 19.2622 34.7901 19.2598 34.792 19.2568C34.7938 19.2538 34.7947 19.2503 34.7946 19.2468ZM24.0534 42.4599C24.0567 39.2956 24.0569 35.2715 24.054 30.3877C24.054 29.9163 24.3326 29.5435 24.7617 29.3892C24.8601 29.3541 25.0366 29.3366 25.2913 29.3366C28.0205 29.3374 29.7698 29.3362 30.5392 29.3329C31.0473 29.3309 31.3573 29.3468 31.4691 29.3807C31.7883 29.4782 32.0138 29.6827 32.1456 29.9941C32.1933 30.1076 32.217 30.3027 32.2166 30.5794C32.2125 32.8176 32.2127 36.7745 32.2172 42.4501C32.2172 42.4626 32.2222 42.4746 32.231 42.4834C32.2399 42.4923 32.2519 42.4972 32.2644 42.4972H35.9811C35.9965 42.4972 36.0113 42.491 36.0222 42.48C36.0331 42.469 36.0392 42.454 36.0392 42.4385V26.0374C36.0392 26.0237 36.0361 26.01 36.0301 25.9975C36.024 25.985 36.0152 25.974 36.0043 25.9652C34.2767 24.5846 32.6856 23.2665 31.0124 21.9301C29.0509 20.3628 27.9587 19.4806 26.2947 18.1589C25.5625 17.5777 24.5662 16.778 23.3059 15.7596C23.208 15.6809 23.1202 15.6719 23.0427 15.7327C22.6023 16.0788 22.2633 16.3474 22.0258 16.5384C18.1117 19.6819 14.2134 22.8227 10.3308 25.9609C10.3226 25.9674 10.3159 25.9757 10.3114 25.9852C10.3068 25.9948 10.3045 26.0053 10.3045 26.016V42.4391C10.3045 42.4545 10.3106 42.4693 10.3215 42.4802C10.3324 42.4911 10.3472 42.4972 10.3626 42.4972H24.0161C24.026 42.4972 24.0355 42.4933 24.0425 42.4863C24.0495 42.4793 24.0534 42.4698 24.0534 42.4599ZM31.182 30.4851C31.182 30.4628 31.1731 30.4415 31.1574 30.4258C31.1417 30.4101 31.1203 30.4012 31.0981 30.4012H25.1707C25.1485 30.4012 25.1271 30.4101 25.1114 30.4258C25.0957 30.4415 25.0868 30.4628 25.0868 30.4851V42.4134C25.0868 42.4356 25.0957 42.4569 25.1114 42.4727C25.1271 42.4884 25.1485 42.4972 25.1707 42.4972H31.0981C31.1203 42.4972 31.1417 42.4884 31.1574 42.4727C31.1731 42.4569 31.182 42.4356 31.182 42.4134V30.4851Z" fill="#F4F4F4"/>
<path d="M21.0831 37.0675C21.0831 37.3369 20.976 37.5952 20.7856 37.7857C20.5951 37.9762 20.3368 38.0832 20.0674 38.0832H13.791C13.5217 38.0832 13.2633 37.9762 13.0729 37.7857C12.8824 37.5952 12.7754 37.3369 12.7754 37.0675V30.3516C12.7754 30.0822 12.8824 29.8239 13.0729 29.6334C13.2633 29.4429 13.5217 29.3359 13.791 29.3359H20.0674C20.3368 29.3359 20.5951 29.4429 20.7856 29.6334C20.976 29.8239 21.0831 30.0822 21.0831 30.3516V37.0675ZM16.4101 30.4502C16.4101 30.436 16.4045 30.4225 16.3945 30.4125C16.3845 30.4025 16.3709 30.3969 16.3568 30.3969H13.8614C13.8473 30.3969 13.8338 30.4025 13.8238 30.4125C13.8138 30.4225 13.8082 30.436 13.8082 30.4502V33.1316C13.8082 33.1458 13.8138 33.1593 13.8238 33.1693C13.8338 33.1793 13.8473 33.1849 13.8614 33.1849H16.3568C16.3709 33.1849 16.3845 33.1793 16.3945 33.1693C16.4045 33.1593 16.4101 33.1458 16.4101 33.1316V30.4502ZM20.0552 30.4514C20.0552 30.4377 20.0497 30.4247 20.0401 30.415C20.0305 30.4054 20.0174 30.4 20.0037 30.4H17.49C17.4764 30.4 17.4633 30.4054 17.4536 30.415C17.444 30.4247 17.4386 30.4377 17.4386 30.4514V33.1341C17.4386 33.1477 17.444 33.1608 17.4536 33.1704C17.4633 33.1801 17.4764 33.1855 17.49 33.1855H20.0037C20.0174 33.1855 20.0305 33.1801 20.0401 33.1704C20.0497 33.1608 20.0552 33.1477 20.0552 33.1341V30.4514ZM16.4088 34.285C16.4088 34.2733 16.4042 34.2621 16.3959 34.2539C16.3877 34.2456 16.3765 34.2409 16.3648 34.2409H13.8523C13.8406 34.2409 13.8294 34.2456 13.8211 34.2539C13.8128 34.2621 13.8082 34.2733 13.8082 34.285V36.9775C13.8082 36.9833 13.8093 36.989 13.8115 36.9944C13.8138 36.9997 13.817 37.0046 13.8211 37.0087C13.8252 37.0128 13.83 37.016 13.8354 37.0182C13.8407 37.0205 13.8465 37.0216 13.8523 37.0216H16.3648C16.3706 37.0216 16.3763 37.0205 16.3816 37.0182C16.387 37.016 16.3918 37.0128 16.3959 37.0087C16.4 37.0046 16.4033 36.9997 16.4055 36.9944C16.4077 36.989 16.4088 36.9833 16.4088 36.9775V34.285ZM20.0552 34.2844C20.0552 34.2729 20.0506 34.2618 20.0424 34.2537C20.0343 34.2455 20.0232 34.2409 20.0117 34.2409H17.4833C17.4717 34.2409 17.4607 34.2455 17.4525 34.2537C17.4444 34.2618 17.4398 34.2729 17.4398 34.2844V36.9769C17.4398 36.9884 17.4444 36.9995 17.4525 37.0076C17.4607 37.0158 17.4717 37.0204 17.4833 37.0204H20.0117C20.0232 37.0204 20.0343 37.0158 20.0424 37.0076C20.0506 36.9995 20.0552 36.9884 20.0552 36.9769V34.2844Z" fill="#F4F4F4"/>
<path d="M29.6617 37.2922C30.1016 37.2922 30.4582 36.9356 30.4582 36.4957C30.4582 36.0558 30.1016 35.6992 29.6617 35.6992C29.2218 35.6992 28.8652 36.0558 28.8652 36.4957C28.8652 36.9356 29.2218 37.2922 29.6617 37.2922Z" fill="#F4F4F4"/>
</svg>
