<svg width="39" height="50" viewBox="0 0 39 50" fill="none" xmlns="http://www.w3.org/2000/svg">
<path d="M26.7921 0.882981C26.7921 0.876047 26.7894 0.869398 26.7845 0.864496C26.7796 0.859593 26.7729 0.856839 26.766 0.856839C15.8936 0.85771 8.01063 0.85771 3.11711 0.856839C2.85742 0.856839 2.56484 0.92786 2.23936 1.0699C1.31782 1.47185 0.839407 2.32084 0.839407 3.34434C0.837664 17.8402 0.837664 31.9791 0.839407 45.7612C0.839843 46.0039 0.903021 46.2797 1.02894 46.5886C1.30475 47.2618 1.84656 47.7337 2.53477 47.9461C2.7278 48.0054 3.0426 48.035 3.47919 48.035C10.2223 48.0346 16.3648 48.0341 21.9067 48.0337C22.1115 48.0337 22.2439 48.1012 22.304 48.2363C22.4295 48.518 22.3021 48.8827 21.9563 48.8827C18.2907 48.8857 12.0331 48.8864 3.18377 48.8846C2.38641 48.8846 1.68731 48.616 1.08646 48.0788C0.362734 47.4313 0.000653408 46.6061 0.000217692 45.6031C-0.000218023 40.8699 4.72889e-07 26.7139 0.000871903 3.13519C0.000871903 1.73001 1.04855 0.438552 2.42759 0.0980402C2.69425 0.0322472 3.22146 -0.000431416 4.00924 4.29982e-06C10.2966 0.00131145 18.0486 0.00240093 27.2653 0.00327236C27.5183 0.00327236 27.6594 0.184311 27.8333 0.354894C28.1056 0.621552 28.7557 1.27948 29.7835 2.32868C31.6384 4.22143 34.1043 6.75076 37.1813 9.91667C37.2103 9.94654 37.2271 9.98594 37.2284 10.0271C37.238 10.3617 37.2428 10.645 37.2428 10.8768C37.2445 21.872 37.2449 28.8489 37.2441 31.8074C37.2441 32.0336 37.2702 32.2669 37.1611 32.3943C36.9879 32.5976 36.6075 32.6146 36.4702 32.3656C36.4363 32.3042 36.4195 32.1893 36.4199 32.0212C36.4212 24.2136 36.4208 17.1598 36.4186 10.8598C36.4186 10.8504 36.4149 10.8414 36.4083 10.8348C36.4017 10.8282 36.3927 10.8245 36.3833 10.8245C35.1916 10.828 33.0867 10.828 30.0685 10.8245C29.5722 10.8236 29.2101 10.7914 28.9823 10.7278C27.9359 10.4356 27.1228 9.59707 26.8673 8.53959C26.8128 8.31519 26.7869 7.88885 26.7895 7.26055C26.7969 5.10811 26.7978 2.98226 26.7921 0.882981ZM27.6169 1.36924C27.6196 2.80144 27.6196 4.87827 27.6169 7.59975C27.6165 7.92305 27.6383 8.1688 27.6823 8.33698C27.8758 9.07683 28.3993 9.6572 29.1254 9.88725C29.3228 9.95 29.6554 9.98093 30.1234 9.98006C32.3534 9.97658 34.3148 9.97396 36.0075 9.97222C36.011 9.9722 36.0144 9.97115 36.0173 9.96921C36.0201 9.96727 36.0224 9.96452 36.0237 9.96131C36.025 9.9581 36.0254 9.95457 36.0247 9.95116C36.024 9.94776 36.0224 9.94462 36.0199 9.94216L27.6522 1.35486C27.6493 1.35198 27.6455 1.35001 27.6414 1.34921C27.6374 1.3484 27.6332 1.3488 27.6294 1.35034C27.6256 1.35188 27.6224 1.3545 27.6202 1.35787C27.618 1.36124 27.6168 1.36519 27.6169 1.36924Z" fill="#F4F4F4"/>
<path d="M18.4201 7.74609H6.0231C5.79353 7.74609 5.60742 7.9322 5.60742 8.16177V8.18137C5.60742 8.41094 5.79353 8.59704 6.0231 8.59704H18.4201C18.6496 8.59704 18.8357 8.41094 18.8357 8.18137V8.16177C18.8357 7.9322 18.6496 7.74609 18.4201 7.74609Z" fill="#F4F4F4"/>
<path d="M31.2164 14.1104H6.02244C5.79323 14.1104 5.60742 14.2962 5.60742 14.5254V14.5437C5.60742 14.7729 5.79323 14.9587 6.02244 14.9587H31.2164C31.4456 14.9587 31.6314 14.7729 31.6314 14.5437V14.5254C31.6314 14.2962 31.4456 14.1104 31.2164 14.1104Z" fill="#F4F4F4"/>
<path d="M31.2216 18.6309H6.01457C5.79295 18.6309 5.61328 18.8105 5.61328 19.0322V19.0766C5.61328 19.2982 5.79295 19.4779 6.01457 19.4779H31.2216C31.4432 19.4779 31.6229 19.2982 31.6229 19.0766V19.0322C31.6229 18.8105 31.4432 18.6309 31.2216 18.6309Z" fill="#F4F4F4"/>
<path d="M31.2085 23.1582H6.0316C5.79625 23.1582 5.60547 23.349 5.60547 23.5843V23.5896C5.60547 23.8249 5.79625 24.0157 6.0316 24.0157H31.2085C31.4439 24.0157 31.6347 23.8249 31.6347 23.5896V23.5843C31.6347 23.349 31.4439 23.1582 31.2085 23.1582Z" fill="#F4F4F4"/>
<path d="M24.814 27.7041H6.02244C5.79323 27.7041 5.60742 27.8899 5.60742 28.1191V28.14C5.60742 28.3692 5.79323 28.5551 6.02244 28.5551H24.814C25.0432 28.5551 25.229 28.3692 25.229 28.14V28.1191C25.229 27.8899 25.0432 27.7041 24.814 27.7041Z" fill="#F4F4F4"/>
<path d="M28.9837 30.8076C29.4355 30.8076 29.8342 30.9473 30.1797 31.2266C30.6816 31.6324 31.0574 31.988 31.7326 31.9017C32.1761 31.8446 32.4417 31.8143 32.5293 31.8108C33.3358 31.7808 33.9292 32.0934 34.3096 32.7487C34.3519 32.8215 34.4782 33.1036 34.6887 33.5951C35.0482 34.4349 35.8521 34.3787 36.4847 34.85C36.9636 35.2068 37.2106 35.7092 37.2259 36.3571C37.2337 36.6891 37.0697 37.2316 37.1135 37.5806C37.1991 38.2551 37.7389 38.5603 38.0154 39.1289C38.1444 39.3943 38.2088 39.6738 38.2088 39.9674C38.2088 40.2607 38.1444 40.54 38.0154 40.8053C37.7383 41.3739 37.1984 41.6785 37.1128 42.353C37.069 42.702 37.2324 43.2451 37.2246 43.5765C37.2089 44.2244 36.9616 44.7268 36.4828 45.0836C35.8501 45.5548 35.0462 45.498 34.6867 46.3378C34.4758 46.8293 34.3493 47.1114 34.307 47.1842C33.9266 47.8395 33.3332 48.1519 32.5267 48.1214C32.4391 48.1179 32.1735 48.0874 31.73 48.0299C31.0548 47.9436 30.6784 48.2992 30.1764 48.7051C29.8309 48.9839 29.4322 49.1233 28.9804 49.1233C28.529 49.1233 28.1305 48.9837 27.785 48.7044C27.2831 48.2985 26.9073 47.943 26.2321 48.0293C25.7886 48.0863 25.523 48.1166 25.4354 48.1201C24.6289 48.1502 24.0355 47.8375 23.6551 47.1822C23.6128 47.1095 23.4865 46.8273 23.276 46.3359C22.9165 45.496 22.1126 45.5522 21.48 45.081C21.0011 44.7241 20.7541 44.2218 20.7388 43.5739C20.731 43.2418 20.895 42.6994 20.8512 42.3504C20.7656 41.6759 20.2258 41.3707 19.9493 40.8021C19.8203 40.5367 19.7559 40.2574 19.7559 39.9642C19.7559 39.6705 19.8203 39.391 19.9493 39.1256C20.2264 38.557 20.7663 38.2525 20.8519 37.578C20.8957 37.229 20.7323 36.6865 20.7401 36.3545C20.7554 35.7066 21.0027 35.2042 21.4819 34.8474C22.1146 34.3768 22.9185 34.433 23.278 33.5931C23.4889 33.1017 23.6154 32.8195 23.6577 32.7468C24.0381 32.0919 24.6315 31.7795 25.438 31.8095C25.5256 31.813 25.7912 31.8435 26.2347 31.901C26.9099 31.9873 27.2863 31.6318 27.7883 31.2259C28.1338 30.947 28.5323 30.8076 28.9837 30.8076ZM28.9804 48.4456C29.2645 48.4456 29.5098 48.3637 29.7163 48.1998C30.3287 47.7149 30.7405 47.3541 31.5574 47.3254C31.8607 47.3149 32.2541 47.4312 32.5404 47.4463C33.2397 47.4829 33.6449 47.1358 33.8737 46.528C34.0802 45.9783 34.3142 45.5052 34.8044 45.1627C35.1207 44.9411 35.4736 44.8424 35.8664 44.6601C36.3749 44.4242 36.5991 43.9457 36.5239 43.4033C36.5161 43.344 36.4917 43.1662 36.4507 42.87C36.3618 42.2199 36.5204 41.6458 36.9265 41.1478C37.3298 40.6537 37.7056 40.2191 37.4605 39.5681C37.3383 39.2433 37.0278 38.9243 36.854 38.691C36.5093 38.2261 36.373 37.7131 36.4448 37.1518C36.4841 36.8479 36.5664 36.4937 36.5409 36.2349C36.4716 35.5192 35.9971 35.2898 35.373 35.0617C34.8338 34.865 34.3861 34.4885 34.1266 33.9892C33.9848 33.7154 33.8338 33.1847 33.6201 32.9272C33.1548 32.3651 32.5881 32.4585 31.9391 32.5651C31.3561 32.6609 30.8206 32.54 30.3326 32.2023C29.9281 31.922 29.5836 31.4873 28.981 31.4873C28.3784 31.4873 28.034 31.922 27.6288 32.2023C27.1408 32.54 26.6053 32.6609 26.0223 32.5651C25.3733 32.4585 24.8067 32.3651 24.3413 32.9272C24.1276 33.1847 23.9766 33.7154 23.8348 33.9892C23.5753 34.4885 23.1276 34.8643 22.5884 35.0611C21.9643 35.2892 21.4898 35.5186 21.4205 36.2342C21.395 36.493 21.4774 36.8473 21.5166 37.1512C21.5885 37.7124 21.4521 38.2255 21.1074 38.6904C20.9336 38.9237 20.6232 39.2426 20.5009 39.5675C20.2558 40.2184 20.6316 40.653 21.0349 41.1471C21.4406 41.6452 21.5989 42.2192 21.51 42.8693C21.4691 43.1656 21.4447 43.3434 21.4368 43.4026C21.3617 43.9451 21.5859 44.4235 22.0943 44.6594C22.4871 44.8418 22.8401 44.9405 23.1564 45.162C23.6466 45.5052 23.8806 45.9783 24.0871 46.528C24.3158 47.1358 24.7211 47.4829 25.4204 47.4463C25.7066 47.4312 26.1001 47.3149 26.4034 47.3254C27.2203 47.3541 27.6321 47.7149 28.2445 48.1998C28.451 48.3632 28.6963 48.4452 28.9804 48.4456Z" fill="#EFBF04"/>
<path d="M16.9907 32.2246H6.02243C5.79538 32.2246 5.61133 32.4087 5.61133 32.6357V32.6592C5.61133 32.8863 5.79538 33.0703 6.02243 33.0703H16.9907C17.2177 33.0703 17.4018 32.8863 17.4018 32.6592V32.6357C17.4018 32.4087 17.2177 32.2246 16.9907 32.2246Z" fill="#F4F4F4"/>
<path d="M35.1999 39.9544C35.2013 40.7626 35.0418 41.5632 34.7305 42.3105C34.4192 43.0578 33.9622 43.7371 33.3857 44.3096C32.8091 44.8821 32.1242 45.3367 31.3701 45.6473C30.6159 45.9579 29.8074 46.1185 28.9906 46.1199C28.1737 46.1214 27.3646 45.9636 26.6094 45.6556C25.8542 45.3476 25.1678 44.8955 24.5892 44.3249C24.0106 43.7544 23.5512 43.0767 23.2374 42.3306C22.9235 41.5844 22.7612 40.7843 22.7598 39.9761C22.7584 39.1679 22.9179 38.3672 23.2291 37.62C23.5404 36.8727 23.9974 36.1934 24.574 35.6209C25.1506 35.0484 25.8355 34.5938 26.5896 34.2832C27.3437 33.9726 28.1522 33.812 28.9691 33.8106C29.7859 33.8091 30.595 33.9669 31.3502 34.2749C32.1054 34.5829 32.7919 35.035 33.3705 35.6055C33.949 36.1761 34.4084 36.8537 34.7223 37.5999C35.0362 38.3461 35.1985 39.1461 35.1999 39.9544ZM34.4703 39.8701C34.4579 39.1577 34.3035 38.4548 34.0161 37.8015C33.7286 37.1482 33.3137 36.5572 32.795 36.0624C32.2763 35.5676 31.664 35.1786 30.9931 34.9176C30.3221 34.6567 29.6056 34.5288 28.8845 34.5414C28.1634 34.554 27.4518 34.7068 26.7903 34.991C26.1289 35.2752 25.5305 35.6854 25.0294 36.198C24.5283 36.7106 24.1343 37.3156 23.8698 37.9786C23.6053 38.6415 23.4756 39.3494 23.488 40.0617C23.5005 40.7741 23.6548 41.477 23.9423 42.1303C24.2297 42.7836 24.6446 43.3746 25.1633 43.8694C25.682 44.3642 26.2943 44.7532 26.9653 45.0142C27.6362 45.2751 28.3527 45.403 29.0739 45.3904C29.795 45.3778 30.5066 45.225 31.168 44.9408C31.8295 44.6566 32.4278 44.2464 32.9289 43.7338C33.43 43.2212 33.8241 42.6162 34.0885 41.9532C34.353 41.2903 34.4827 40.5824 34.4703 39.8701Z" fill="#EFBF04"/>
<path d="M7.82794 42.3982C7.82076 42.4051 7.81527 42.4136 7.8119 42.423C7.80853 42.4324 7.80737 42.4425 7.80851 42.4523C7.80965 42.4622 7.81306 42.4717 7.81847 42.48C7.82388 42.4883 7.83115 42.4952 7.8397 42.5001C8.1691 42.6958 8.50787 42.7561 8.85601 42.6812C9.33137 42.5788 9.76099 42.3864 10.1449 42.1041C10.5034 41.8405 10.8612 41.5516 11.218 41.2374C11.4696 41.0159 11.7807 41.0603 11.9507 41.344C12.0298 41.4753 11.967 41.6989 11.9605 41.9015C11.9441 42.442 12.5114 42.3897 12.8435 42.2394C13.2931 42.0363 13.5728 41.9141 13.6826 41.8727C14.1356 41.7028 14.6159 41.659 15.0944 41.7524C15.5963 41.8511 16.2133 42.0374 16.5924 42.0851C16.8359 42.1156 17.0869 42.1272 17.3453 42.1198C17.8649 42.1041 17.8753 42.8112 17.3766 42.838C16.6597 42.8772 15.8538 42.6962 15.1944 42.5014C14.4238 42.2733 13.8578 42.5583 13.118 42.8903C12.9049 42.9864 12.516 43.0609 12.2742 43.0432C11.747 43.0045 11.4161 42.7154 11.2814 42.176C11.2797 42.1697 11.2765 42.1639 11.2719 42.1593C11.2674 42.1546 11.2617 42.1512 11.2555 42.1494C11.2493 42.1475 11.2427 42.1473 11.2363 42.1488C11.23 42.1502 11.2241 42.1533 11.2193 42.1577C10.586 42.7393 9.88081 43.1779 9.03705 43.3668C8.35646 43.5197 7.76345 43.3777 7.25802 42.9406C7.25017 42.9339 7.24015 42.9303 7.22975 42.9303C7.21934 42.9303 7.20922 42.9339 7.20116 42.9406C6.55456 43.4779 5.84456 43.8818 5.07117 44.1524C4.86595 44.2238 4.70887 44.194 4.59994 44.0628C4.47968 43.9177 4.49145 43.719 4.61367 43.5838C4.64242 43.5519 4.70408 43.5206 4.79863 43.4896C5.53673 43.2469 6.20642 42.8683 6.80771 42.3537C6.8112 42.3506 6.81369 42.3465 6.81485 42.3421C6.81602 42.3377 6.81581 42.3331 6.81425 42.3289C6.56589 41.6544 6.52341 40.957 6.6868 40.2368C6.88679 39.3525 7.29331 38.4558 7.97238 37.8467C8.14884 37.6885 8.32008 37.5805 8.48609 37.5225C8.91548 37.3722 9.40762 37.4153 9.7148 37.7833C10.6037 38.8493 9.25403 40.8636 8.51157 41.6825C8.22792 41.9958 8.00005 42.2343 7.82794 42.3982ZM7.41553 41.8073C7.93578 41.3655 8.37563 40.7714 8.74882 40.1754C9.01417 39.7519 9.19129 39.3118 9.28018 38.8552C9.31939 38.6512 9.2841 38.216 9.02071 38.1617C8.54948 38.0643 8.13708 38.6552 7.92271 39.0048C7.43318 39.8041 7.13254 40.8884 7.37697 41.7956C7.37795 41.7994 7.3799 41.803 7.38266 41.8058C7.38541 41.8087 7.38887 41.8108 7.39272 41.812C7.39657 41.8132 7.40068 41.8134 7.40467 41.8125C7.40866 41.8117 7.41239 41.8099 7.41553 41.8073Z" fill="#EFBF04"/>
<path d="M27.9561 41.2026C27.959 41.2055 27.9625 41.2077 27.9664 41.2091C27.9702 41.2105 27.9743 41.2112 27.9785 41.211C27.9826 41.2108 27.9867 41.2098 27.9905 41.208C27.9943 41.2063 27.9977 41.2037 28.0005 41.2006L31.1435 37.7517C31.1483 37.7465 31.1538 37.7417 31.1599 37.7374C31.505 37.5086 31.9265 37.7315 31.884 38.1367C31.8611 38.3524 31.6154 38.555 31.4801 38.7007C31.0361 39.1791 30.0355 40.2752 28.4783 41.9889C28.3205 42.1618 28.1865 42.2605 28.0763 42.2849C27.9112 42.3215 27.7571 42.2679 27.6142 42.1241C27.1955 41.7024 26.6722 41.1784 26.0443 40.5523C25.8829 40.3915 25.9195 40.1294 26.0744 39.9661C26.3326 39.6929 26.6234 39.8621 26.8502 40.1079C27.0702 40.3458 27.4389 40.7107 27.9561 41.2026Z" fill="#EFBF04"/>
</svg>
