<svg width="51" height="43" viewBox="0 0 51 43" fill="none" xmlns="http://www.w3.org/2000/svg">
<path d="M24.2084 28.9857C24.1704 28.9375 24.1092 28.9134 24.0247 28.9134C23.2423 28.9122 22.0287 28.9122 20.3839 28.9134C19.9272 28.914 19.6884 28.363 19.8905 27.9737C19.999 27.7655 20.1729 27.6602 20.4121 27.6578C21.0231 27.6512 22.2426 27.6486 24.0706 27.6498C24.6761 27.6498 25.2491 28.0251 25.4181 28.6196C25.4565 28.7555 25.4744 28.9712 25.472 29.2667C25.4703 29.4826 25.4699 31.0733 25.4707 34.0388C25.4707 34.3278 25.7671 34.2813 25.9207 34.1411C27.9308 32.304 30.0597 30.3741 32.3073 28.3514C32.5864 28.1 32.7903 27.9474 32.9189 27.8935C33.1429 27.7992 33.3927 27.7468 33.6682 27.7361C33.8111 27.7308 35.6314 27.7304 39.1291 27.7349C39.9833 27.7361 40.6239 27.7047 41.0508 27.6406C45.2402 27.0144 48.5088 23.6111 49.1148 19.4438C49.1806 18.9928 49.2128 18.2304 49.2116 17.1566C49.2071 13.7654 49.2061 11.9642 49.2085 11.7532C49.2216 10.7333 49.1901 9.97068 49.1142 9.4654C48.4879 5.29688 45.2249 1.97136 41.0368 1.38181C40.6058 1.32099 39.7834 1.29079 38.5696 1.2912C30.6957 1.29447 24.6792 1.29487 20.5198 1.29242C19.5003 1.29161 18.7671 1.32304 18.3202 1.38671C16.9917 1.57567 15.7456 2.03626 14.582 2.76846C11.7738 4.53529 10.1031 7.61347 10.1313 10.9561C10.1411 12.081 10.1409 13.0399 10.1306 13.8329C10.1202 14.6275 8.88419 14.5988 8.8848 13.8641C8.88521 12.954 8.88378 12.2569 8.88052 11.7728C8.87317 10.7953 8.89093 10.0986 8.93378 9.68274C9.13948 7.6898 9.86148 5.88194 11.0998 4.25918C12.8764 1.93034 15.5371 0.386357 18.4365 0.0722942C19.1993 -0.00974167 20.0607 5.28353e-05 20.9012 0.000665043C30.6549 0.000665043 36.6193 0.000462244 38.7942 5.41057e-05C39.7903 -0.000558102 40.7117 0.00433814 41.6043 0.172695C44.3457 0.690623 46.7242 2.19115 48.3728 4.43856C49.4116 5.85521 50.0685 7.43267 50.3435 9.17093C50.4348 9.74641 50.4586 10.3721 50.4599 11.0431C50.4635 14.2572 50.4623 16.6562 50.4562 18.2402C50.4505 19.727 50.1219 21.1906 49.4705 22.6309C47.8451 26.2252 44.2404 28.8442 40.2482 29.0028C39.9413 29.0146 39.4413 29.0203 38.7483 29.0199C35.7407 29.0167 34.0261 29.0157 33.6045 29.0169C33.526 29.0173 33.4501 29.0459 33.3909 29.0977C33.057 29.3895 32.5477 29.8425 31.8628 30.4568C30.1858 31.9608 28.5528 33.4342 26.9639 34.8769C26.6354 35.1757 26.4048 35.3475 26.2721 35.3924C26.0566 35.4659 25.8326 35.5006 25.5999 35.4965C25.3844 35.4928 25.1695 35.4316 24.9553 35.3128C24.4724 35.0451 24.2316 34.6047 24.2329 33.9917C24.2386 31.078 24.2378 29.4301 24.2304 29.0481C24.23 29.0255 24.2223 29.0035 24.2084 28.9857Z" fill="#EFBF04"/>
<path d="M11.5506 16.8271C13.1925 16.8271 14.7371 17.3977 15.975 18.4691C17.5502 19.8313 18.4434 21.824 18.3442 23.919C18.2285 26.3703 16.7874 28.6066 14.581 29.7049C14.5768 29.7071 14.5733 29.7106 14.571 29.7147C14.5688 29.7189 14.5678 29.7237 14.5683 29.7284C14.5687 29.7332 14.5706 29.7377 14.5736 29.7413C14.5767 29.745 14.5807 29.7477 14.5853 29.749C15.9893 30.138 17.2808 30.7533 18.4599 31.5948C21.1224 33.4945 22.8385 36.5078 23.0803 39.7629C23.1125 40.1951 23.1137 40.5816 23.084 40.9224C23.0111 41.7673 22.364 42.5001 21.5632 42.7536C21.3522 42.8205 21.0604 42.854 20.6878 42.854C18.8867 42.8546 16.0993 42.8515 11.553 42.8521C7.00676 42.8521 4.21937 42.8558 2.41826 42.8558C2.04563 42.8558 1.75381 42.8223 1.5428 42.7554C0.742032 42.5019 0.0949286 41.7691 0.0214636 40.9243C-0.00833053 40.5835 -0.00710626 40.197 0.0251367 39.7648C0.266347 36.5096 1.98175 33.4964 4.64425 31.5961C5.82295 30.7541 7.1143 30.1386 8.5183 29.7496C8.52287 29.7483 8.52693 29.7456 8.52996 29.7419C8.53299 29.7383 8.53486 29.7338 8.53532 29.729C8.53578 29.7243 8.53481 29.7195 8.53254 29.7154C8.53027 29.7112 8.52681 29.7078 8.52258 29.7056C6.31619 28.6079 4.87444 26.3715 4.75812 23.9202C4.65894 21.8252 5.55154 19.8325 7.12675 18.4697C8.36464 17.3983 9.90924 16.8271 11.5506 16.8271ZM17.1082 23.6276C17.1082 22.1537 16.5227 20.7403 15.4806 19.6982C14.4384 18.656 13.025 18.0705 11.5512 18.0705C10.0774 18.0705 8.66392 18.656 7.62178 19.6982C6.57963 20.7403 5.99417 22.1537 5.99417 23.6276C5.99417 25.1014 6.57963 26.5148 7.62178 27.557C8.66392 28.5991 10.0774 29.1846 11.5512 29.1846C13.025 29.1846 14.4384 28.5991 15.4806 27.557C16.5227 26.5148 17.1082 25.1014 17.1082 23.6276ZM11.5549 41.6228C17.2525 41.6212 20.3374 41.6212 20.8096 41.6228C21.3018 41.6244 21.6416 41.4175 21.8289 41.002C21.9306 40.778 21.914 40.4927 21.9048 40.2319C21.7946 37.1457 20.1907 34.2702 17.6537 32.5211C15.8728 31.2936 13.7208 30.5363 11.5518 30.5369C9.38274 30.5375 7.23083 31.2961 5.45114 32.5248C2.91476 34.2757 1.31261 37.1518 1.20425 40.238C1.19507 40.4988 1.17915 40.7841 1.28078 41.0081C1.46811 41.4236 1.80789 41.6304 2.3001 41.6283C2.77232 41.6263 5.85723 41.6244 11.5549 41.6228Z" fill="#F4F4F4"/>
</svg>
