<?xml version="1.0" encoding="UTF-8"?>
<svg id="Camada_2" data-name="Camada 2" xmlns="http://www.w3.org/2000/svg" viewBox="0 0 1145.44 416.9">
  <defs>
    <style>
      .cls-1 {
        fill: #f4f4f4;
      }
    </style>
  </defs>
  <g id="Camada_1-2" data-name="Camada 1">
    <g>
      <path class="cls-1" d="M701.36,165.65c0-120.9-100.38-120.45-121.03-120.9-7.3-.16-127.8-5.88-120.18,127.07,0,115.03,101.44,116.65,124.94,116.65s116.26-1.62,116.26-122.82ZM580.52,241.68s-53.45,8.04-56.83-75.88c-3.39-83.93,56.83-76.12,56.83-76.12,0,0,55.83-8.89,56.25,76.12,5.51,82.9-56.25,75.88-56.25,75.88Z"/>
      <path class="cls-1" d="M724.44,286.68V46.42c0-.92.74-1.67,1.66-1.67h65.95c.61,0,1.18.34,1.47.88l84.92,159.52c.82,1.53,3.13.95,3.13-.79V46.42c0-.92.74-1.67,1.66-1.67h51.73c.92,0,1.66.75,1.66,1.67v240.37c0,.92-.74,1.67-1.66,1.67h-69.36c-.6,0-1.16-.33-1.45-.85l-82.39-147.31c-.84-1.5-3.11-.9-3.11.82v145.66c0,.93-.75,1.68-1.67,1.67-8.04-.07-42.71-.35-50.83-.11-.94.03-1.71-.73-1.71-1.67Z"/>
      <path class="cls-1" d="M968.19,44.75v243.72h174.72c1.4,0,2.53-1.14,2.53-2.55v-44.64c0-1.41-1.13-2.55-2.53-2.55h-108.87c-1.4,0-2.53-1.14-2.53-2.55v-43.78c0-1.41,1.13-2.55,2.53-2.55h83.74c1.4,0,2.53-1.14,2.53-2.55v-38.95c0-1.41-1.13-2.55-2.53-2.55h-81.2c-1.4,0-2.53-1.14-2.53-2.55v-39.66c0-1.41,1.13-2.55,2.53-2.55h106.33c1.4,0,2.53-1.14,2.53-2.55v-51.22c0-1.41-1.13-2.55-2.53-2.55h-174.72Z"/>
    </g>
    <g>
      <path class="cls-1" d="M399.36,98.84c-.16-4.36-.46-8.7-.91-13.01-.03-.32-.26-.59-.58-.66-11.11-2.7-22.16-5.91-33.14-9.62-31.43-10.5-61.66-23.28-92.11-37.81C247.99,26,223.79,13.44,200.01.05c-.12-.06-.26-.06-.37,0-21.42,12.1-43.26,23.53-65.5,34.3l-35.4,16.34c-32.09,14.3-64.07,26.09-97.19,34.64-.22.05-.37.24-.39.46C.06,102.64-.26,119.47.21,136.28l.33,6.56.34,7.34c.63,11.26,1.61,22.47,2.94,33.61.57,4.66,1.56,10.97,2.95,18.94,3.56,20.33,8.85,40.41,17.01,58.81l6.49,13.35.85,1.63,4.65,7.63,1.59,2.68c9.1,13.99,19.09,27.18,29.96,39.59l9.18,9.96,10.53,10.51c13.2,12.55,27.31,23.91,42.32,34.1,8.67,5.93,17.56,11.38,26.66,16.36,8.25,4.62,16.7,8.78,25.36,12.49l18.15,7c.26.1.56.1.82,0,16.38-5.73,32.13-12.98,47.26-21.75,9.52-5.35,18.78-11.23,27.8-17.65l10.44-7.65c9.81-7.56,19.2-15.62,28.15-24.2l9.44-9.46,9.53-10.44,9.42-11.28,14.29-19.33,8.38-12.55,7.54-13.71,2.81-6.08c2.77-6.22,5.1-12.17,6.97-17.84,5.69-17.22,9.81-35.12,12.35-53.7l1.14-7.92c1.67-13.53,2.78-27.09,3.34-40.68l.26-9.04c.32-11.57.27-23.14-.15-34.7ZM398.93,121.05s.01-.04,0-.06c0,.02,0,.04,0,.06ZM398.9,120.9s0,.03.02.04c-.01-.02-.02-.05-.05-.07.01,0,.02.02.03.03ZM398.81,120.87s-.04,0-.05,0c.02,0,.03,0,.05,0ZM398.68,120.92s.02-.02.04-.03c-.01.01-.03.02-.04.04,0,0,0,0,0,0ZM375.95,129.4c0,.06,0,.11.01.17-.01-.05,0-.11-.01-.17ZM376.03,129.72s.04.1.07.14c-.03-.04-.05-.1-.07-.14ZM376.65,130.19c-.05,0-.1-.04-.15-.05.06.02.11.05.17.06,0,0-.01,0-.02,0ZM376.22,129.97s.08.08.12.11c-.05-.03-.08-.07-.12-.11ZM292.02,334.83l-11.5,9.58c-14.02,11.44-28.88,21.69-44.6,30.76-10.11,5.87-20.58,11.04-31.4,15.5-3.32,1.36-4.42,2.04-7.51.73-10.35-4.41-18.61-8.25-24.79-11.53-18.44-9.95-35.78-21.48-52.01-34.62l-12.27-10.3-10.5-9.89c-3.61-3.47-7.09-6.95-10.43-10.42-.75-.78-1.33-1.5-1.72-2.16-.21-.35-.47-.68-.78-.96-2.19-2.06-3.97-4.09-5.34-6.09-.93-1.35-2.26-2.46-3.3-3.91-3.57-4.95-7.01-9.9-10.33-14.87l-1.58-2.63-5.95-9.39-7.94-14.41c-3.49-7.13-6.44-14.49-8.87-22.07-4.13-12.35-7.4-24.96-9.81-37.82-.87-4.61-1.55-9.25-2.06-13.92-.13-1.18-.33-2.35-.62-3.5-.18-2.34-.46-4.66-.85-6.97-.47-2.83-.31-5.39-.92-7.93-.7-2.93-.35-6.02-.88-9.38-.41-2.65-.6-5.32-.56-8.02l-.91-15.66-.04-30.05c0-.22.15-.42.37-.47,6.07-1.38,12.6-3.16,19.6-5.33,20.16-6.26,40.55-13.69,61.16-22.29,31.25-13.05,61.96-27.44,92.11-43.18,1.11-.78,2.04-.97,2.81-.58,5.26,2.68,10.46,5.33,15.6,7.95,26.39,13.29,53.16,25.57,80.33,36.83,19.66,8.15,39.22,15.24,58.67,21.27,6.52,2.02,13,3.78,19.45,5.3.46.1.78.51.79.98l.13,8.53-.84,29.67c-.67,12.35-1.8,24.58-3.38,36.68l-.45,3.09-1.06,7.53c-3.83,24.48-10.3,48.9-21.06,71.31l-4.03,7.5-8.87,14.08-7.29,11.29c-3.01,4.03-6.11,8.03-9.29,11.99-1.72,2.14-4.06,4.68-7.03,7.63-3.19,3.16-6.23,6.47-9.13,9.93l-11.12,10.22Z"/>
      <path class="cls-1" d="M337.22,251.85c2.44-4.31,3.68-8.38,6.05-14.66,1.83-4.87,3.17-10.11,4.76-15.19,1.9-6.1,3.97-15.48,6.21-28.15l1.25-4.31,2.49-13.04c2.53-15.63,3.98-31.45,4.35-47.46l.04-14.72c0-.18-.14-.33-.32-.34-.74-.04-1.52-.17-2.33-.38-12.94-3.4-25.64-7.4-38.11-11.98-16.12-5.87-31.96-12.3-47.52-19.3-24.6-11.06-49.14-23.22-73.61-36.49-.4-.22-.89-.21-1.29,0-32.91,17.96-66.53,34-100.86,48.12-5.49,2.26-13.31,5.2-23.44,8.82-12.19,4.45-24.6,8.21-37.23,11.31-.22.05-.38.25-.39.48l-.15,6.23c-.08,5.47.69,11.23.7,16.22.01,4.54-.16,6.8.36,10.02.6,3.78.37,7.29,1.02,11.41.85,5.4,1.35,10.85,2.22,16.24.79,5.63,1.94,11.13,3.45,16.51,1.91,10.6,3.71,19.2,5.39,25.78,1.13,4.41,3.03,10.61,5.71,18.61l5.54,14.26c3.31,8.45,7.6,15.43,12.8,23.57,7.49,11.66,15.81,22.61,24.96,32.87,4.95,5.69,10.13,11.09,15.55,16.19,8.92,8.4,18.05,16.34,27.89,23.61,12.99,9.72,26.7,18.23,41.11,25.53,4.96,2.51,9.91,4.72,14.84,6.62.78.3,1.65.3,2.44,0,5.81-2.28,11.65-4.95,17.52-8.01,15.24-7.96,29.66-17.24,43.26-27.84,14.3-11.08,27.46-23.45,39.49-37.09,9.31-10.69,17.81-22.04,25.51-34.07,3.88-6.19,7.33-12.64,10.36-19.36ZM308.61,271.6c-3.98,5.5-8.08,10.76-12.31,15.77-2.22,2.63-4.23,4.5-6.16,6.91-2.23,2.8-5.56,5.91-8.35,8.79-12.31,12.08-25.59,23.01-39.83,32.81-2.41,1.66-6.34,4.27-11.79,7.82-9.15,5.49-18.62,10.93-28.25,15.31-1.48.67-2.64.68-4.05,0-7.84-3.72-15.45-7.8-22.81-12.25-16.31-9.84-31.48-21.13-45.53-33.85-2.51-2.28-5.03-4.52-7.54-6.73-9.03-8.96-15.6-16.05-19.71-21.28-3.29-4.18-6.55-8.36-9.77-12.54-.83-1.37-3-3.74-2.15-5.35.22-.41.84-.91,1.88-1.53,27.22-16.12,46.42-27.46,57.59-34,2.62-1.53,4.39-2.6,5.32-3.23.21-.13.33-.37.33-.62v-12.2c0-.08-.05-.16-.12-.2-.12-.06-.26-.02-.32.09-.14.29-.4.54-.77.76-5.46,3.11-28.29,16.38-68.5,39.81-1.03.6-2.07.88-3.11.83-.25-.01-.48-.16-.59-.38-2.05-3.9-3.86-7.43-5.44-10.61-1.61-3.24-3.18-7.74-4.87-11.55-2.32-6.91-4.91-14.12-6.66-20.8-1.42-5.39-2.92-10.62-3.89-16.27-.4-2.29-.79-4.59-1.17-6.91l-1.87-16.64c-1.69-15.33-2.67-25.16-2.94-29.47-.29-4.69-.4-9.63-.33-14.8,0-.34.22-.65.54-.77l12.76-4.87,11-4.59,35.74-15.77c2.58-1.15,5.12-2.31,7.63-3.5,18.17-8.61,33.95-16.2,47.34-22.79,10.48-5.16,20.13-10.08,28.95-14.76.56-.3,1.24-.3,1.8,0,16.51,8.75,35.12,18.14,55.82,28.17,1.94.94,3.87,1.89,5.78,2.85,6.63,3.33,13.26,6.46,19.91,9.41,16.16,7.67,32.53,14.69,49.11,21.05,4.56,1.75,9.13,3.48,13.71,5.22,0,7.63-.32,15.15-.93,22.57-.68,8.1-1.17,16.28-2.39,24.32l-1.22,13.32c-.43,1.7-.7,3.42-.82,5.15-.13,1.82-.27,3.09-.42,3.8-2.53,12.28-6.3,24.98-11.17,38.38-1.11,3.04-3.14,7.61-6.09,13.69l-2.95,5.69c-.32.61-.94,1-1.62,1.02-1.41.03-2.68-.27-3.8-.91-19.66-11.18-39.54-22.8-59.64-34.87-2.61-1.57-4.94-3.09-7.83-4.17-.03-.01-.06-.02-.09-.02-.15,0-.27.12-.27.27v3.95s-.15,7.44-.15,7.44c0,.23.11.45.31.57,20.75,12.83,41.84,24.94,62.81,37.59.96.58,1.47,1.32,1.52,2.2-.47.93-1.02,1.82-1.62,2.66Z"/>
      <path class="cls-1" d="M233.22,295.61c-.46-.51-.72-1.18-.73-1.87l-.22-12.33-.21-11.01-.2-17,.1-21.25-.06-3.27.2-8.39.43-30.57-.09-5.21-.21-8.5.2-31.18v-9.23s.13-15.27.13-15.27l-.17-9.99.05-14.43c0-.19-.13-.36-.32-.4l-31.41-7.62c-.6-.15-1.24.04-1.67.5-3.14,3.39-6.19,6.27-9.16,8.64-12.41,9.89-24.82,18.44-37.23,25.63-6.37,3.7-12.79,6.58-19.24,8.65l-.08,8.66-.02,9.81.11,20.27s0,.05.02.07c.04.08.14.12.23.08l35.11-16.43.15,8.72.13,31.75-.07,8.61-.04,7.03.21,27.32.17,9.27.18,25.06-.12,15.22c0,2.64.36,7.2-1.6,9.26-1.33,1.4-2.66,2.82-3.99,4.26l-11.05,12.14s-.05.06-.07.1c-.2.32-.1.74.22.94l45.78,28.65c.56.35,1.26.35,1.82.01l47.84-28.72s.07-.04.1-.07c.26-.24.28-.64.04-.91l-15.28-17.01Z"/>
    </g>
    <g>
      <path class="cls-1" d="M464.1,352.3h23.98v5.45h-19.69l1.77-1.41v31.3h-6.06v-35.33ZM469.66,369.16h16.96v5.45h-16.96v-5.45Z"/>
      <path class="cls-1" d="M508.98,352.3h6.06v35.33h-6.06v-35.33ZM508.98,352.3h6.06v5.2h-6.06v-5.2ZM508.98,382.43h6.06v5.2h-6.06v-5.2Z"/>
      <path class="cls-1" d="M547.27,353.43c.49-.59,1.03-.99,1.62-1.21.59-.22,1.3-.33,2.15-.33s1.55.11,2.12.33c.57.22,1.1.62,1.59,1.21.49.59.92,1.41,1.29,2.45l11.71,31.75h-6.36l-10.35-29.88-10.45,29.88h-6.36l11.76-31.75c.37-1.04.8-1.86,1.29-2.45ZM540.88,373.9h20.14v5.15h-20.14v-5.15Z"/>
      <path class="cls-1" d="M612.41,387.5c-.64-.35-1.23-.85-1.77-1.49l-.1-.1-21.86-28.57,3.84.3v29.98h-6.06v-32.05c0-1.21.3-2.13.91-2.75.61-.62,1.4-.93,2.37-.93.57,0,1.12.16,1.64.48.52.32,1.05.8,1.59,1.44l23.02,30.03-4.09-.56v-30.99h6.06v32c0,1.18-.33,2.1-.98,2.75s-1.51.98-2.55.98c-.71,0-1.38-.18-2.02-.53Z"/>
      <path class="cls-1" d="M646.96,385.81c-2.74-1.55-4.86-3.69-6.36-6.44-1.5-2.74-2.25-5.9-2.25-9.46s.75-6.67,2.25-9.41c1.5-2.74,3.62-4.88,6.36-6.41,2.74-1.53,5.95-2.3,9.62-2.3,3.16,0,5.99.58,8.48,1.74,2.49,1.16,4.53,2.8,6.13,4.92s2.65,4.59,3.16,7.42h-6.31c-.71-2.73-2.06-4.84-4.06-6.33-2-1.5-4.47-2.25-7.4-2.25-2.42,0-4.54.51-6.36,1.54-1.82,1.03-3.21,2.5-4.19,4.42-.98,1.92-1.46,4.17-1.46,6.76s.49,4.89,1.46,6.79c.98,1.9,2.37,3.35,4.19,4.34,1.82.99,3.94,1.49,6.36,1.49,2.93,0,5.4-.75,7.42-2.25,2.02-1.5,3.36-3.58,4.04-6.23h6.36c-.57,2.79-1.65,5.24-3.23,7.34-1.58,2.1-3.62,3.74-6.11,4.9-2.49,1.16-5.32,1.74-8.48,1.74-3.67,0-6.87-.77-9.62-2.32ZM652.64,398.13l-1.06-2.78h4.49c.77,0,1.35-.13,1.74-.38.39-.25.58-.65.58-1.19,0-.57-.18-.98-.53-1.21-.35-.24-.92-.35-1.69-.35h-2.42l-.5-1.01.96-4.19,4.04.05-1.41,4.19-1.72-.96h2.22c1.62,0,2.89.3,3.81.91.92.61,1.39,1.56,1.39,2.88,0,1.38-.5,2.4-1.49,3.05-.99.66-2.42.98-4.27.98h-4.14Z"/>
      <path class="cls-1" d="M701.88,353.43c.49-.59,1.03-.99,1.62-1.21.59-.22,1.3-.33,2.15-.33s1.55.11,2.12.33c.57.22,1.1.62,1.59,1.21.49.59.92,1.41,1.29,2.45l11.71,31.75h-6.36l-10.35-29.88-10.45,29.88h-6.36l11.76-31.75c.37-1.04.8-1.86,1.29-2.45ZM695.5,373.9h20.14v5.15h-20.14v-5.15Z"/>
      <path class="cls-1" d="M768.82,386.7c-.62-.62-.93-1.59-.93-2.9v-31.5h6.06v31.3l-1.82-1.41h17.87v5.45h-18.22c-1.35,0-2.33-.31-2.95-.93Z"/>
      <path class="cls-1" d="M814.35,385.81c-2.74-1.55-4.86-3.69-6.36-6.44-1.5-2.74-2.25-5.9-2.25-9.46s.75-6.67,2.25-9.41c1.5-2.74,3.62-4.88,6.36-6.41,2.74-1.53,5.95-2.3,9.62-2.3s6.81.77,9.54,2.3c2.73,1.53,4.83,3.67,6.31,6.41,1.48,2.74,2.22,5.88,2.22,9.41s-.74,6.72-2.22,9.46c-1.48,2.74-3.58,4.89-6.31,6.44-2.73,1.55-5.91,2.32-9.54,2.32s-6.87-.77-9.62-2.32ZM830.27,381.14c1.78-.99,3.16-2.44,4.11-4.34.96-1.9,1.44-4.16,1.44-6.79s-.48-4.9-1.44-6.81c-.96-1.92-2.33-3.38-4.11-4.39-1.78-1.01-3.89-1.51-6.31-1.51s-4.59.5-6.39,1.51c-1.8,1.01-3.19,2.48-4.16,4.42-.98,1.94-1.46,4.2-1.46,6.79s.49,4.89,1.46,6.79c.98,1.9,2.36,3.35,4.16,4.34,1.8.99,3.93,1.49,6.39,1.49s4.53-.5,6.31-1.49Z"/>
      <path class="cls-1" d="M868.81,385.81c-2.74-1.55-4.86-3.69-6.36-6.44-1.5-2.74-2.25-5.9-2.25-9.46s.75-6.67,2.25-9.41c1.5-2.74,3.62-4.88,6.36-6.41,2.74-1.53,5.95-2.3,9.62-2.3,3.16,0,5.99.58,8.48,1.74,2.49,1.16,4.53,2.8,6.13,4.92s2.65,4.59,3.16,7.42h-6.31c-.71-2.73-2.06-4.84-4.06-6.33-2-1.5-4.47-2.25-7.4-2.25-2.42,0-4.54.51-6.36,1.54-1.82,1.03-3.21,2.5-4.19,4.42-.98,1.92-1.46,4.17-1.46,6.76s.49,4.89,1.46,6.79c.98,1.9,2.37,3.35,4.19,4.34,1.82.99,3.94,1.49,6.36,1.49,2.93,0,5.4-.75,7.42-2.25,2.02-1.5,3.36-3.58,4.04-6.23h6.36c-.57,2.79-1.65,5.24-3.23,7.34-1.58,2.1-3.62,3.74-6.11,4.9-2.49,1.16-5.32,1.74-8.48,1.74-3.67,0-6.87-.77-9.62-2.32Z"/>
      <path class="cls-1" d="M923.73,353.43c.49-.59,1.03-.99,1.62-1.21.59-.22,1.3-.33,2.15-.33s1.55.11,2.12.33c.57.22,1.1.62,1.59,1.21.49.59.92,1.41,1.29,2.45l11.71,31.75h-6.36l-10.35-29.88-10.45,29.88h-6.36l11.76-31.75c.37-1.04.8-1.86,1.29-2.45ZM917.35,373.9h20.14v5.15h-20.14v-5.15Z"/>
      <path class="cls-1" d="M966.72,357.75h-10.3v-5.45h26.55v5.45h-10.2v29.88h-6.06v-29.88Z"/>
      <path class="cls-1" d="M1003.01,352.3h6.06v35.33h-6.06v-35.33ZM1003.01,352.3h6.06v5.2h-6.06v-5.2ZM1003.01,382.43h6.06v5.2h-6.06v-5.2ZM1006.39,339.17h5.75l-4.69,9.34h-3.08l2.02-9.34Z"/>
      <path class="cls-1" d="M1038.52,385.81c-2.74-1.55-4.86-3.69-6.36-6.44-1.5-2.74-2.25-5.9-2.25-9.46s.75-6.67,2.25-9.41c1.5-2.74,3.62-4.88,6.36-6.41,2.74-1.53,5.95-2.3,9.62-2.3,3.16,0,5.99.58,8.48,1.74,2.49,1.16,4.53,2.8,6.13,4.92s2.65,4.59,3.16,7.42h-6.31c-.71-2.73-2.06-4.84-4.06-6.33-2-1.5-4.47-2.25-7.4-2.25-2.42,0-4.54.51-6.36,1.54-1.82,1.03-3.21,2.5-4.19,4.42-.98,1.92-1.46,4.17-1.46,6.76s.49,4.89,1.46,6.79c.98,1.9,2.37,3.35,4.19,4.34,1.82.99,3.94,1.49,6.36,1.49,2.93,0,5.4-.75,7.42-2.25,2.02-1.5,3.36-3.58,4.04-6.23h6.36c-.57,2.79-1.65,5.24-3.23,7.34-1.58,2.1-3.62,3.74-6.11,4.9-2.49,1.16-5.32,1.74-8.48,1.74-3.67,0-6.87-.77-9.62-2.32Z"/>
      <path class="cls-1" d="M1086.2,352.3h6.06v35.33h-6.06v-35.33ZM1086.2,352.3h6.06v5.2h-6.06v-5.2ZM1086.2,382.43h6.06v5.2h-6.06v-5.2Z"/>
      <path class="cls-1" d="M1124.49,353.43c.49-.59,1.03-.99,1.62-1.21.59-.22,1.3-.33,2.15-.33s1.55.11,2.12.33c.57.22,1.1.62,1.59,1.21.49.59.92,1.41,1.29,2.45l11.71,31.75h-6.36l-10.35-29.88-10.45,29.88h-6.36l11.76-31.75c.37-1.04.8-1.86,1.29-2.45ZM1118.1,373.9h20.14v5.15h-20.14v-5.15Z"/>
    </g>
  </g>
</svg>