<?xml version="1.0" encoding="UTF-8"?>
<svg id="Camada_2" data-name="Camada 2" xmlns="http://www.w3.org/2000/svg" xmlns:xlink="http://www.w3.org/1999/xlink" viewBox="0 0 1153.2 416.9">
  <defs>
    <style>
      .cls-1 {
        fill: url(#Gradiente_sem_nome_465);
      }

      .cls-2 {
        fill: url(#Gradiente_sem_nome_274);
      }

      .cls-3 {
        fill: url(#Nova_amostra_de_gradiente_2);
      }

      .cls-4 {
        fill: url(#Gradiente_sem_nome_369);
      }

      .cls-5 {
        fill: url(#Gradiente_sem_nome_156);
      }

      .cls-6 {
        fill: #0d0d0d;
      }

      .cls-7 {
        fill: url(#Nova_amostra_de_gradiente_2-2);
      }

      .cls-8 {
        fill: #f4f4f4;
      }
    </style>
    <linearGradient id="Nova_amostra_de_gradiente_2" data-name="Nova amostra de gradiente 2" x1="592.28" y1="37.73" x2="592.28" y2="277.6" gradientUnits="userSpaceOnUse">
      <stop offset="0" stop-color="#fff"/>
      <stop offset="1" stop-color="#bebebe"/>
    </linearGradient>
    <linearGradient id="Nova_amostra_de_gradiente_2-2" data-name="Nova amostra de gradiente 2" x1="840.5" y1="54.27" x2="840.5" y2="264.98" xlink:href="#Nova_amostra_de_gradiente_2"/>
    <linearGradient id="Gradiente_sem_nome_465" data-name="Gradiente sem nome 465" x1="1065.19" y1="65.8" x2="1065.19" y2="232.55" gradientUnits="userSpaceOnUse">
      <stop offset=".27" stop-color="#eff023"/>
      <stop offset=".5" stop-color="#e7982f"/>
    </linearGradient>
    <linearGradient id="Gradiente_sem_nome_156" data-name="Gradiente sem nome 156" x1="200.06" y1="0" x2="200.06" y2="416.83" gradientUnits="userSpaceOnUse">
      <stop offset="0" stop-color="#eff023"/>
      <stop offset=".21" stop-color="#ffce20"/>
      <stop offset=".38" stop-color="#fafbe0"/>
      <stop offset=".39" stop-color="#f6eac2"/>
      <stop offset=".41" stop-color="#f2d49b"/>
      <stop offset=".42" stop-color="#efc17a"/>
      <stop offset=".44" stop-color="#ecb25e"/>
      <stop offset=".46" stop-color="#e9a649"/>
      <stop offset=".48" stop-color="#e89e3a"/>
      <stop offset=".51" stop-color="#e79931"/>
      <stop offset=".54" stop-color="#e7982f"/>
      <stop offset=".56" stop-color="#e79b35"/>
      <stop offset=".58" stop-color="#eaa548"/>
      <stop offset=".61" stop-color="#edb567"/>
      <stop offset=".65" stop-color="#f2cb92"/>
      <stop offset=".68" stop-color="#f9e7c9"/>
      <stop offset=".7" stop-color="#fefbef"/>
      <stop offset=".7" stop-color="#f8f5ea"/>
      <stop offset=".71" stop-color="#d3d1cb"/>
      <stop offset=".72" stop-color="#b3b1af"/>
      <stop offset=".73" stop-color="#989798"/>
      <stop offset=".74" stop-color="#828185"/>
      <stop offset=".75" stop-color="#717177"/>
      <stop offset=".77" stop-color="#65656d"/>
      <stop offset=".79" stop-color="#5e5e67"/>
      <stop offset=".85" stop-color="#5d5d66"/>
      <stop offset=".93" stop-color="#ebe8e8"/>
    </linearGradient>
    <linearGradient id="Gradiente_sem_nome_274" data-name="Gradiente sem nome 274" x1="199.94" y1="45.65" x2="199.94" y2="378.39" gradientUnits="userSpaceOnUse">
      <stop offset="0" stop-color="#a6b0bb"/>
      <stop offset=".28" stop-color="#e8e9ed"/>
      <stop offset=".46" stop-color="#5d5d66"/>
      <stop offset=".53" stop-color="#73727a"/>
      <stop offset=".67" stop-color="#acaaae"/>
      <stop offset=".81" stop-color="#ebe8e8"/>
    </linearGradient>
    <linearGradient id="Gradiente_sem_nome_369" data-name="Gradiente sem nome 369" x1="149.41" y1="111.7" x2="246.89" y2="320.75" gradientUnits="userSpaceOnUse">
      <stop offset="0" stop-color="#eff023"/>
      <stop offset=".01" stop-color="#f3e522"/>
      <stop offset=".03" stop-color="#fcd420"/>
      <stop offset=".05" stop-color="#ffce20"/>
      <stop offset=".07" stop-color="#fed53e"/>
      <stop offset=".12" stop-color="#fce583"/>
      <stop offset=".16" stop-color="#fbf1b5"/>
      <stop offset=".18" stop-color="#faf8d4"/>
      <stop offset=".2" stop-color="#fafbe0"/>
      <stop offset=".21" stop-color="#f8f2d1"/>
      <stop offset=".24" stop-color="#f3d7a0"/>
      <stop offset=".28" stop-color="#eec077"/>
      <stop offset=".31" stop-color="#ebae57"/>
      <stop offset=".34" stop-color="#e8a241"/>
      <stop offset=".37" stop-color="#e79a33"/>
      <stop offset=".39" stop-color="#e7982f"/>
      <stop offset=".41" stop-color="#ecb160"/>
      <stop offset=".43" stop-color="#f2c78b"/>
      <stop offset=".45" stop-color="#f6daaf"/>
      <stop offset=".47" stop-color="#f9e8cb"/>
      <stop offset=".49" stop-color="#fcf2df"/>
      <stop offset=".51" stop-color="#fdf8eb"/>
      <stop offset=".53" stop-color="#fefbef"/>
      <stop offset=".58" stop-color="#ceccc6"/>
      <stop offset=".63" stop-color="#9d9c9d"/>
      <stop offset=".67" stop-color="#7a797f"/>
      <stop offset=".71" stop-color="#64646c"/>
      <stop offset=".74" stop-color="#5d5d66"/>
      <stop offset=".76" stop-color="#7f7e85"/>
      <stop offset=".8" stop-color="#adabaf"/>
      <stop offset=".84" stop-color="#cfccce"/>
      <stop offset=".86" stop-color="#e3e0e1"/>
      <stop offset=".88" stop-color="#ebe8e8"/>
    </linearGradient>
  </defs>
  <g id="Camada_1-2" data-name="Camada 1">
    <g>
      <g>
        <g>
          <path class="cls-3" d="M712.22,165.61c0-120.1-99.68-119.65-120.18-120.1-7.25-.16-126.91-5.84-119.34,126.23,0,114.27,100.73,115.87,124.07,115.87s115.45-1.61,115.45-122ZM592.22,241.13s-53.07,7.99-56.44-75.38c-3.36-83.37,56.44-75.61,56.44-75.61,0,0,55.44-8.83,55.86,75.61,5.47,82.34-55.86,75.38-55.86,75.38Z"/>
          <path class="cls-7" d="M735.14,284.23V47.16c0-.91.74-1.65,1.65-1.65h65.49c.61,0,1.17.34,1.46.87l84.33,157.4c.81,1.51,3.11.94,3.11-.78V47.16c0-.91.74-1.65,1.65-1.65h51.37c.91,0,1.65.74,1.65,1.65v237.19c0,.91-.74,1.65-1.65,1.65h-68.88c-.6,0-1.15-.32-1.44-.84l-81.81-145.36c-.83-1.48-3.09-.89-3.09.81v143.73c0,.92-.74,1.66-1.66,1.65-7.99-.07-42.41-.35-50.48-.11-.93.03-1.69-.72-1.69-1.65Z"/>
          <path class="cls-1" d="M977.19,45.51v240.49h173.5c1.39,0,2.51-1.12,2.51-2.51v-44.05c0-1.39-1.12-2.51-2.51-2.51h-108.11c-1.39,0-2.51-1.12-2.51-2.51v-43.2c0-1.39,1.12-2.51,2.51-2.51h83.16c1.39,0,2.51-1.12,2.51-2.51v-38.44c0-1.39-1.12-2.51-2.51-2.51h-80.63c-1.39,0-2.51-1.12-2.51-2.51v-39.14c0-1.39,1.12-2.51,2.51-2.51h105.59c1.39,0,2.51-1.12,2.51-2.51v-50.54c0-1.39-1.12-2.51-2.51-2.51h-173.5Z"/>
        </g>
        <g>
          <path class="cls-6" d="M399.36,98.84c-.16-4.36-.46-8.7-.91-13.01-.03-.32-.26-.59-.58-.66-11.11-2.7-22.16-5.91-33.14-9.62-31.43-10.5-61.66-23.28-92.11-37.81C247.99,26,223.79,13.44,200.01.05c-.12-.06-.26-.06-.37,0-21.42,12.1-43.26,23.53-65.5,34.3l-35.4,16.34c-32.09,14.3-64.07,26.09-97.19,34.64-.22.05-.37.24-.39.46C.06,102.64-.26,119.47.21,136.28l.33,6.56.34,7.34c.63,11.26,1.61,22.47,2.94,33.61.57,4.66,1.56,10.97,2.95,18.94,3.56,20.33,8.85,40.41,17.01,58.81l6.49,13.35.85,1.63,4.65,7.63,1.59,2.68c9.1,13.99,19.09,27.18,29.96,39.59l9.18,9.96,10.53,10.51c13.2,12.55,27.31,23.91,42.32,34.1,8.67,5.93,17.56,11.38,26.66,16.36,8.25,4.62,16.7,8.78,25.36,12.49l18.15,7c.26.1.56.1.82,0,16.38-5.73,32.13-12.98,47.26-21.75,9.52-5.35,18.78-11.23,27.8-17.65l10.44-7.65c9.81-7.56,19.2-15.62,28.15-24.2l9.44-9.46,9.53-10.44,9.42-11.28,14.29-19.33,8.38-12.55,7.54-13.71,2.81-6.08c2.77-6.22,5.1-12.17,6.97-17.84,5.69-17.22,9.81-35.12,12.35-53.7l1.14-7.92c1.67-13.53,2.78-27.09,3.34-40.68l.26-9.04c.32-11.57.27-23.14-.15-34.7ZM398.93,121.05s.01-.04,0-.06c0,.02,0,.04,0,.06ZM398.9,120.9s0,.03.02.04c-.01-.02-.02-.05-.05-.07.01,0,.02.02.03.03ZM398.81,120.87s-.04,0-.05,0c.02,0,.03,0,.05,0ZM398.68,120.92s.02-.02.04-.03c-.01.01-.03.02-.04.04,0,0,0,0,0,0ZM375.95,129.4c0,.06,0,.11.01.17-.01-.05,0-.11-.01-.17ZM376.03,129.72s.04.1.07.14c-.03-.04-.05-.1-.07-.14ZM376.65,130.19c-.05,0-.1-.04-.15-.05.06.02.11.05.17.06,0,0-.01,0-.02,0ZM376.22,129.97s.08.08.12.11c-.05-.03-.08-.07-.12-.11ZM292.02,334.83l-11.5,9.58c-14.02,11.44-28.88,21.69-44.6,30.76-10.11,5.87-20.58,11.04-31.4,15.5-3.32,1.36-4.42,2.04-7.51.73-10.35-4.41-18.61-8.25-24.79-11.53-18.44-9.95-35.78-21.48-52.01-34.62l-12.27-10.3-10.5-9.89c-3.61-3.47-7.09-6.95-10.43-10.42-.75-.78-1.33-1.5-1.72-2.16-.21-.35-.47-.68-.78-.96-2.19-2.06-3.97-4.09-5.34-6.09-.93-1.35-2.26-2.46-3.3-3.91-3.57-4.95-7.01-9.9-10.33-14.87l-1.58-2.63-5.95-9.39-7.94-14.41c-3.49-7.13-6.44-14.49-8.87-22.07-4.13-12.35-7.4-24.96-9.81-37.82-.87-4.61-1.55-9.25-2.06-13.92-.13-1.18-.33-2.35-.62-3.5-.18-2.34-.46-4.66-.85-6.97-.47-2.83-.31-5.39-.92-7.93-.7-2.93-.35-6.02-.88-9.38-.41-2.65-.6-5.32-.56-8.02l-.91-15.66-.04-30.05c0-.22.15-.42.37-.47,6.07-1.38,12.6-3.16,19.6-5.33,20.16-6.26,40.55-13.69,61.16-22.29,31.25-13.05,61.96-27.44,92.11-43.18,1.11-.78,2.04-.97,2.81-.58,5.26,2.68,10.46,5.33,15.6,7.95,26.39,13.29,53.16,25.57,80.33,36.83,19.66,8.15,39.22,15.24,58.67,21.27,6.52,2.02,13,3.78,19.45,5.3.46.1.78.51.79.98l.13,8.53-.84,29.67c-.67,12.35-1.8,24.58-3.38,36.68l-.45,3.09-1.06,7.53c-3.83,24.48-10.3,48.9-21.06,71.31l-4.03,7.5-8.87,14.08-7.29,11.29c-3.01,4.03-6.11,8.03-9.29,11.99-1.72,2.14-4.06,4.68-7.03,7.63-3.19,3.16-6.23,6.47-9.13,9.93l-11.12,10.22Z"/>
          <path class="cls-6" d="M337.22,251.85c2.44-4.31,3.68-8.38,6.05-14.66,1.83-4.87,3.17-10.11,4.76-15.19,1.9-6.1,3.97-15.48,6.21-28.15l1.25-4.31,2.49-13.04c2.53-15.63,3.98-31.45,4.35-47.46l.04-14.72c0-.18-.14-.33-.32-.34-.74-.04-1.52-.17-2.33-.38-12.94-3.4-25.64-7.4-38.11-11.98-16.12-5.87-31.96-12.3-47.52-19.3-24.6-11.06-49.14-23.22-73.61-36.49-.4-.22-.89-.21-1.29,0-32.91,17.96-66.53,34-100.86,48.12-5.49,2.26-13.31,5.2-23.44,8.82-12.19,4.45-24.6,8.21-37.23,11.31-.22.05-.38.25-.39.48l-.15,6.23c-.08,5.47.69,11.23.7,16.22.01,4.54-.16,6.8.36,10.02.6,3.78.37,7.29,1.02,11.41.85,5.4,1.35,10.85,2.22,16.24.79,5.63,1.94,11.13,3.45,16.51,1.91,10.6,3.71,19.2,5.39,25.78,1.13,4.41,3.03,10.61,5.71,18.61l5.54,14.26c3.31,8.45,7.6,15.43,12.8,23.57,7.49,11.66,15.81,22.61,24.96,32.87,4.95,5.69,10.13,11.09,15.55,16.19,8.92,8.4,18.05,16.34,27.89,23.61,12.99,9.72,26.7,18.23,41.11,25.53,4.96,2.51,9.91,4.72,14.84,6.62.78.3,1.65.3,2.44,0,5.81-2.28,11.65-4.95,17.52-8.01,15.24-7.96,29.66-17.24,43.26-27.84,14.3-11.08,27.46-23.45,39.49-37.09,9.31-10.69,17.81-22.04,25.51-34.07,3.88-6.19,7.33-12.64,10.36-19.36ZM308.61,271.6c-3.98,5.5-8.08,10.76-12.31,15.77-2.22,2.63-4.23,4.5-6.16,6.91-2.23,2.8-5.56,5.91-8.35,8.79-12.31,12.08-25.59,23.01-39.83,32.81-2.41,1.66-6.34,4.27-11.79,7.82-9.15,5.49-18.62,10.93-28.25,15.31-1.48.67-2.64.68-4.05,0-7.84-3.72-15.45-7.8-22.81-12.25-16.31-9.84-31.48-21.13-45.53-33.85-2.51-2.28-5.03-4.52-7.54-6.73-9.03-8.96-15.6-16.05-19.71-21.28-3.29-4.18-6.55-8.36-9.77-12.54-.83-1.37-3-3.74-2.15-5.35.22-.41.84-.91,1.88-1.53,27.22-16.12,46.42-27.46,57.59-34,2.62-1.53,4.39-2.6,5.32-3.23.21-.13.33-.37.33-.62v-12.2c0-.08-.05-.16-.12-.2-.12-.06-.26-.02-.32.09-.14.29-.4.54-.77.76-5.46,3.11-28.29,16.38-68.5,39.81-1.03.6-2.07.88-3.11.83-.25-.01-.48-.16-.59-.38-2.05-3.9-3.86-7.43-5.44-10.61-1.61-3.24-3.18-7.74-4.87-11.55-2.32-6.91-4.91-14.12-6.66-20.8-1.42-5.39-2.92-10.62-3.89-16.27-.4-2.29-.79-4.59-1.17-6.91l-1.87-16.64c-1.69-15.33-2.67-25.16-2.94-29.47-.29-4.69-.4-9.63-.33-14.8,0-.34.22-.65.54-.77l12.76-4.87,11-4.59,35.74-15.77c2.58-1.15,5.12-2.31,7.63-3.5,18.17-8.61,33.95-16.2,47.34-22.79,10.48-5.16,20.13-10.08,28.95-14.76.56-.3,1.24-.3,1.8,0,16.51,8.75,35.12,18.14,55.82,28.17,1.94.94,3.87,1.89,5.78,2.85,6.63,3.33,13.26,6.46,19.91,9.41,16.16,7.67,32.53,14.69,49.11,21.05,4.56,1.75,9.13,3.48,13.71,5.22,0,7.63-.32,15.15-.93,22.57-.68,8.1-1.17,16.28-2.39,24.32l-1.22,13.32c-.43,1.7-.7,3.42-.82,5.15-.13,1.82-.27,3.09-.42,3.8-2.53,12.28-6.3,24.98-11.17,38.38-1.11,3.04-3.14,7.61-6.09,13.69l-2.95,5.69c-.32.61-.94,1-1.62,1.02-1.41.03-2.68-.27-3.8-.91-19.66-11.18-39.54-22.8-59.64-34.87-2.61-1.57-4.94-3.09-7.83-4.17-.03-.01-.06-.02-.09-.02-.15,0-.27.12-.27.27v3.95s-.15,7.44-.15,7.44c0,.23.11.45.31.57,20.75,12.83,41.84,24.94,62.81,37.59.96.58,1.47,1.32,1.52,2.2-.47.93-1.02,1.82-1.62,2.66Z"/>
          <path class="cls-6" d="M233.22,295.61c-.46-.51-.72-1.18-.73-1.87l-.22-12.33-.21-11.01-.2-17,.1-21.25-.06-3.27.2-8.39.43-30.57-.09-5.21-.21-8.5.2-31.18v-9.23s.13-15.27.13-15.27l-.17-9.99.05-14.43c0-.19-.13-.36-.32-.4l-31.41-7.62c-.6-.15-1.24.04-1.67.5-3.14,3.39-6.19,6.27-9.16,8.64-12.41,9.89-24.82,18.44-37.23,25.63-6.37,3.7-12.79,6.58-19.24,8.65l-.08,8.66-.02,9.81.11,20.27s0,.05.02.07c.04.08.14.12.23.08l35.11-16.43.15,8.72.13,31.75-.07,8.61-.04,7.03.21,27.32.17,9.27.18,25.06-.12,15.22c0,2.64.36,7.2-1.6,9.26-1.33,1.4-2.66,2.82-3.99,4.26l-11.05,12.14s-.05.06-.07.1c-.2.32-.1.74.22.94l45.78,28.65c.56.35,1.26.35,1.82.01l47.84-28.72s.07-.04.1-.07c.26-.24.28-.64.04-.91l-15.28-17.01Z"/>
        </g>
        <g>
          <path class="cls-5" d="M399.54,98.83c-.16-4.36-.46-8.7-.91-13.01-.03-.32-.26-.59-.58-.66-11.11-2.7-22.16-5.91-33.13-9.62-31.42-10.5-61.65-23.28-92.09-37.81C248.19,25.99,223.99,13.43,200.22.05c-.12-.06-.26-.06-.37,0-21.42,12.1-43.25,23.53-65.49,34.29l-35.4,16.34c-32.09,14.29-64.06,26.09-97.17,34.64-.22.05-.37.24-.39.46C.3,102.63-.02,119.45.44,136.25l.33,6.56.34,7.34c.63,11.26,1.61,22.46,2.94,33.61.57,4.66,1.56,10.97,2.95,18.94,3.56,20.33,8.85,40.4,17.01,58.8l6.49,13.34.85,1.63,4.65,7.63,1.59,2.68c9.1,13.98,19.08,27.18,29.96,39.58l9.18,9.95,10.53,10.51c13.2,12.55,27.31,23.91,42.32,34.09,8.67,5.93,17.55,11.38,26.66,16.36,8.25,4.62,16.7,8.78,25.36,12.48l18.15,7c.26.1.56.1.82,0,16.37-5.73,32.12-12.98,47.26-21.75,9.51-5.35,18.78-11.23,27.79-17.65l10.44-7.65c9.81-7.56,19.19-15.62,28.15-24.2l9.44-9.46,9.53-10.44,9.42-11.28,14.29-19.33,8.38-12.55,7.54-13.71,2.81-6.07c2.77-6.22,5.1-12.17,6.97-17.84,5.69-17.22,9.8-35.12,12.35-53.69l1.14-7.91c1.67-13.52,2.78-27.08,3.34-40.67l.26-9.04c.32-11.57.27-23.13-.15-34.7ZM399.1,121.03s.01-.04,0-.06c0,.02,0,.04,0,.06ZM399.07,120.88s0,.03.02.04c-.01-.02-.02-.05-.05-.07.01,0,.02.02.03.03ZM398.98,120.85s-.04,0-.05,0c.02,0,.03,0,.05,0ZM398.85,120.9s.02-.02.04-.03c-.01.01-.03.02-.04.04,0,0,0,0,0,0ZM376.12,129.38c0,.06,0,.11.01.17-.01-.05,0-.11-.01-.17ZM376.2,129.7s.04.1.07.14c-.03-.04-.05-.1-.07-.14ZM376.82,130.17c-.05,0-.1-.04-.15-.05.06.02.11.05.17.06,0,0-.01,0-.02,0ZM376.39,129.95s.08.08.12.11c-.05-.03-.08-.07-.12-.11ZM292.21,334.78l-11.5,9.58c-14.01,11.44-28.88,21.69-44.59,30.75-10.11,5.87-20.57,11.03-31.4,15.49-3.32,1.36-4.42,2.04-7.51.73-10.35-4.41-18.61-8.25-24.78-11.53-18.44-9.94-35.77-21.48-52-34.61l-12.27-10.3-10.5-9.89c-3.61-3.47-7.09-6.95-10.43-10.42-.75-.78-1.33-1.5-1.72-2.16-.21-.35-.47-.68-.78-.96-2.19-2.06-3.97-4.09-5.34-6.09-.93-1.35-2.25-2.46-3.3-3.91-3.57-4.94-7.01-9.9-10.33-14.86l-1.58-2.63-5.95-9.39-7.94-14.4c-3.49-7.13-6.44-14.49-8.86-22.07-4.13-12.35-7.4-24.96-9.81-37.81-.87-4.61-1.55-9.25-2.06-13.91-.13-1.18-.33-2.35-.62-3.5-.18-2.34-.46-4.66-.85-6.96-.47-2.83-.31-5.39-.92-7.93-.7-2.93-.35-6.02-.88-9.38-.41-2.65-.6-5.32-.56-8.02l-.91-15.66-.04-30.05c0-.22.15-.42.37-.47,6.07-1.38,12.6-3.16,19.6-5.33,20.16-6.26,40.54-13.68,61.15-22.29,31.25-13.04,61.94-27.44,92.09-43.18,1.11-.78,2.04-.97,2.81-.58,5.26,2.68,10.46,5.33,15.6,7.95,26.38,13.29,53.15,25.57,80.31,36.83,19.66,8.14,39.21,15.23,58.66,21.27,6.52,2.02,13,3.78,19.45,5.3.46.1.78.51.79.98l.13,8.53-.84,29.66c-.67,12.35-1.8,24.58-3.38,36.67l-.45,3.09-1.06,7.53c-3.83,24.48-10.3,48.89-21.06,71.3l-4.03,7.5-8.86,14.08-7.29,11.29c-3.01,4.03-6.11,8.03-9.29,11.99-1.72,2.14-4.06,4.68-7.02,7.62-3.18,3.15-6.23,6.47-9.13,9.93l-11.12,10.21Z"/>
          <path class="cls-2" d="M337.4,251.81c2.44-4.31,3.68-8.37,6.05-14.66,1.83-4.87,3.17-10.11,4.76-15.19,1.9-6.1,3.97-15.48,6.21-28.15l1.25-4.31,2.49-13.04c2.53-15.63,3.98-31.45,4.35-47.46l.04-14.72c0-.18-.14-.33-.32-.34-.74-.04-1.52-.17-2.33-.38-12.94-3.4-25.64-7.4-38.1-11.98-16.12-5.87-31.96-12.3-47.52-19.3-24.6-11.06-49.14-23.22-73.6-36.49-.4-.22-.89-.21-1.29,0-32.9,17.96-66.52,33.99-100.85,48.11-5.49,2.26-13.31,5.2-23.44,8.82-12.19,4.45-24.6,8.21-37.23,11.3-.22.05-.38.25-.39.48l-.15,6.23c-.08,5.47.69,11.23.7,16.22.01,4.54-.16,6.8.36,10.01.6,3.78.37,7.28,1.02,11.41.85,5.4,1.35,10.85,2.22,16.24.79,5.63,1.94,11.13,3.45,16.5,1.91,10.6,3.71,19.19,5.39,25.78,1.13,4.41,3.03,10.61,5.7,18.61l5.54,14.26c3.31,8.45,7.6,15.43,12.8,23.56,7.49,11.66,15.81,22.61,24.95,32.87,4.95,5.69,10.13,11.09,15.55,16.19,8.92,8.4,18.05,16.33,27.89,23.6,12.99,9.72,26.69,18.23,41.11,25.53,4.96,2.51,9.9,4.72,14.83,6.62.78.3,1.65.3,2.44,0,5.81-2.28,11.65-4.95,17.51-8.01,15.24-7.96,29.66-17.24,43.25-27.84,14.3-11.08,27.46-23.44,39.48-37.08,9.31-10.69,17.81-22.04,25.5-34.06,3.88-6.19,7.33-12.64,10.35-19.36ZM308.79,271.55c-3.98,5.5-8.08,10.76-12.31,15.77-2.22,2.63-4.23,4.49-6.16,6.91-2.23,2.8-5.56,5.91-8.35,8.79-12.31,12.08-25.59,23.01-39.82,32.8-2.41,1.66-6.34,4.27-11.79,7.82-9.15,5.49-18.62,10.93-28.24,15.31-1.48.67-2.64.68-4.05,0-7.84-3.72-15.45-7.8-22.81-12.25-16.3-9.84-31.48-21.12-45.52-33.85-2.51-2.27-5.03-4.52-7.54-6.73-9.03-8.96-15.6-16.05-19.71-21.27-3.29-4.18-6.55-8.36-9.77-12.54-.83-1.37-3-3.74-2.15-5.35.22-.41.84-.91,1.88-1.53,27.22-16.12,46.41-27.45,57.58-33.99,2.62-1.53,4.39-2.6,5.32-3.23.21-.13.33-.37.33-.62v-12.2c0-.08-.05-.16-.12-.2-.12-.06-.26-.02-.32.09-.14.29-.4.54-.77.76-5.46,3.11-28.29,16.38-68.49,39.8-1.03.6-2.07.88-3.11.83-.25-.01-.48-.16-.59-.38-2.05-3.9-3.86-7.43-5.44-10.61-1.61-3.24-3.17-7.74-4.87-11.55-2.32-6.91-4.91-14.12-6.66-20.8-1.42-5.39-2.91-10.61-3.89-16.27-.4-2.29-.79-4.59-1.17-6.91l-1.87-16.64c-1.69-15.33-2.67-25.15-2.94-29.47-.29-4.69-.4-9.63-.33-14.8,0-.34.22-.65.54-.77l12.76-4.87,11-4.59,35.74-15.77c2.58-1.15,5.12-2.31,7.63-3.5,18.17-8.6,33.94-16.2,47.33-22.79,10.47-5.16,20.12-10.08,28.95-14.76.56-.3,1.24-.3,1.8,0,16.51,8.75,35.11,18.14,55.81,28.16,1.94.94,3.86,1.89,5.78,2.85,6.63,3.33,13.26,6.46,19.91,9.41,16.16,7.67,32.53,14.69,49.1,21.05,4.55,1.75,9.12,3.48,13.71,5.21,0,7.63-.32,15.15-.93,22.56-.68,8.1-1.17,16.27-2.39,24.31l-1.22,13.32c-.43,1.7-.7,3.42-.82,5.15-.13,1.82-.27,3.09-.42,3.8-2.53,12.28-6.3,24.97-11.17,38.37-1.11,3.04-3.14,7.61-6.09,13.69l-2.94,5.69c-.32.61-.94,1-1.62,1.02-1.41.03-2.68-.27-3.8-.9-19.66-11.18-39.53-22.8-59.63-34.87-2.61-1.57-4.94-3.09-7.83-4.17-.03-.01-.06-.02-.09-.02-.15,0-.27.12-.27.27v3.95s-.15,7.44-.15,7.44c0,.23.11.45.31.57,20.75,12.83,41.83,24.94,62.8,37.58.96.58,1.47,1.32,1.52,2.2-.47.93-1.02,1.82-1.62,2.66Z"/>
          <path class="cls-4" d="M233.42,295.56c-.46-.51-.72-1.17-.73-1.87l-.22-12.33-.21-11.01-.2-16.99.1-21.24-.06-3.27.2-8.39.43-30.57-.09-5.21-.21-8.5.2-31.18v-9.23s.13-15.26.13-15.26l-.17-9.98.05-14.43c0-.19-.13-.36-.32-.4l-31.4-7.62c-.6-.15-1.24.04-1.67.5-3.13,3.39-6.19,6.27-9.16,8.63-12.41,9.89-24.82,18.43-37.22,25.63-6.37,3.7-12.79,6.58-19.23,8.65l-.08,8.66-.02,9.81.11,20.26s0,.05.02.07c.04.08.14.12.23.08l35.11-16.43.15,8.72.13,31.75-.07,8.61-.04,7.03.21,27.32.17,9.26.18,25.06-.12,15.21c0,2.64.36,7.19-1.6,9.26-1.33,1.4-2.66,2.82-3.99,4.26l-11.04,12.13s-.05.06-.07.1c-.2.32-.1.74.22.94l45.77,28.65c.56.35,1.26.35,1.82.01l47.83-28.72s.07-.04.1-.07c.26-.24.28-.64.04-.91l-15.28-17.01Z"/>
        </g>
      </g>
      <g>
        <path class="cls-8" d="M472.35,352.2h23.98v5.45h-19.69l1.77-1.41v31.3h-6.06v-35.33ZM477.9,369.06h16.96v5.45h-16.96v-5.45Z"/>
        <path class="cls-8" d="M517.22,352.2h6.06v35.33h-6.06v-35.33ZM517.22,352.2h6.06v5.2h-6.06v-5.2ZM517.22,382.34h6.06v5.2h-6.06v-5.2Z"/>
        <path class="cls-8" d="M555.51,353.34c.49-.59,1.03-.99,1.62-1.21.59-.22,1.3-.33,2.15-.33s1.55.11,2.12.33c.57.22,1.1.62,1.59,1.21.49.59.92,1.41,1.29,2.45l11.71,31.75h-6.36l-10.35-29.88-10.45,29.88h-6.36l11.76-31.75c.37-1.04.8-1.86,1.29-2.45ZM549.13,373.81h20.14v5.15h-20.14v-5.15Z"/>
        <path class="cls-8" d="M620.65,387.41c-.64-.35-1.23-.85-1.77-1.49l-.1-.1-21.86-28.57,3.84.3v29.98h-6.06v-32.05c0-1.21.3-2.13.91-2.75.61-.62,1.4-.93,2.37-.93.57,0,1.12.16,1.64.48.52.32,1.05.8,1.59,1.44l23.02,30.03-4.09-.56v-30.99h6.06v32c0,1.18-.33,2.1-.98,2.75s-1.51.98-2.55.98c-.71,0-1.38-.18-2.02-.53Z"/>
        <path class="cls-8" d="M655.21,385.72c-2.74-1.55-4.86-3.69-6.36-6.44-1.5-2.74-2.25-5.9-2.25-9.46s.75-6.67,2.25-9.41c1.5-2.74,3.62-4.88,6.36-6.41,2.74-1.53,5.95-2.3,9.62-2.3,3.16,0,5.99.58,8.48,1.74,2.49,1.16,4.53,2.8,6.13,4.92s2.65,4.59,3.16,7.42h-6.31c-.71-2.73-2.06-4.84-4.06-6.33-2-1.5-4.47-2.25-7.4-2.25-2.42,0-4.54.51-6.36,1.54-1.82,1.03-3.21,2.5-4.19,4.42-.98,1.92-1.46,4.17-1.46,6.76s.49,4.89,1.46,6.79c.98,1.9,2.37,3.35,4.19,4.34,1.82.99,3.94,1.49,6.36,1.49,2.93,0,5.4-.75,7.42-2.25,2.02-1.5,3.36-3.58,4.04-6.23h6.36c-.57,2.79-1.65,5.24-3.23,7.34-1.58,2.1-3.62,3.74-6.11,4.9-2.49,1.16-5.32,1.74-8.48,1.74-3.67,0-6.87-.77-9.62-2.32ZM660.89,398.04l-1.06-2.78h4.49c.77,0,1.35-.13,1.74-.38.39-.25.58-.65.58-1.19,0-.57-.18-.98-.53-1.21-.35-.24-.92-.35-1.69-.35h-2.42l-.5-1.01.96-4.19,4.04.05-1.41,4.19-1.72-.96h2.22c1.62,0,2.89.3,3.81.91.92.61,1.39,1.56,1.39,2.88,0,1.38-.5,2.4-1.49,3.05-.99.66-2.42.98-4.27.98h-4.14Z"/>
        <path class="cls-8" d="M710.13,353.34c.49-.59,1.03-.99,1.62-1.21.59-.22,1.3-.33,2.15-.33s1.55.11,2.12.33c.57.22,1.1.62,1.59,1.21.49.59.92,1.41,1.29,2.45l11.71,31.75h-6.36l-10.35-29.88-10.45,29.88h-6.36l11.76-31.75c.37-1.04.8-1.86,1.29-2.45ZM703.74,373.81h20.14v5.15h-20.14v-5.15Z"/>
        <path class="cls-8" d="M777.06,386.61c-.62-.62-.93-1.59-.93-2.9v-31.5h6.06v31.3l-1.82-1.41h17.87v5.45h-18.22c-1.35,0-2.33-.31-2.95-.93Z"/>
        <path class="cls-8" d="M822.59,385.72c-2.74-1.55-4.86-3.69-6.36-6.44-1.5-2.74-2.25-5.9-2.25-9.46s.75-6.67,2.25-9.41c1.5-2.74,3.62-4.88,6.36-6.41,2.74-1.53,5.95-2.3,9.62-2.3s6.81.77,9.54,2.3c2.73,1.53,4.83,3.67,6.31,6.41,1.48,2.74,2.22,5.88,2.22,9.41s-.74,6.72-2.22,9.46c-1.48,2.74-3.58,4.89-6.31,6.44-2.73,1.55-5.91,2.32-9.54,2.32s-6.87-.77-9.62-2.32ZM838.52,381.05c1.78-.99,3.16-2.44,4.11-4.34.96-1.9,1.44-4.16,1.44-6.79s-.48-4.9-1.44-6.81c-.96-1.92-2.33-3.38-4.11-4.39-1.78-1.01-3.89-1.51-6.31-1.51s-4.59.5-6.39,1.51c-1.8,1.01-3.19,2.48-4.16,4.42-.98,1.94-1.46,4.2-1.46,6.79s.49,4.89,1.46,6.79c.98,1.9,2.36,3.35,4.16,4.34,1.8.99,3.93,1.49,6.39,1.49s4.53-.5,6.31-1.49Z"/>
        <path class="cls-8" d="M877.06,385.72c-2.74-1.55-4.86-3.69-6.36-6.44-1.5-2.74-2.25-5.9-2.25-9.46s.75-6.67,2.25-9.41c1.5-2.74,3.62-4.88,6.36-6.41,2.74-1.53,5.95-2.3,9.62-2.3,3.16,0,5.99.58,8.48,1.74,2.49,1.16,4.53,2.8,6.13,4.92s2.65,4.59,3.16,7.42h-6.31c-.71-2.73-2.06-4.84-4.06-6.33-2-1.5-4.47-2.25-7.4-2.25-2.42,0-4.54.51-6.36,1.54-1.82,1.03-3.21,2.5-4.19,4.42-.98,1.92-1.46,4.17-1.46,6.76s.49,4.89,1.46,6.79c.98,1.9,2.37,3.35,4.19,4.34,1.82.99,3.94,1.49,6.36,1.49,2.93,0,5.4-.75,7.42-2.25,2.02-1.5,3.36-3.58,4.04-6.23h6.36c-.57,2.79-1.65,5.24-3.23,7.34-1.58,2.1-3.62,3.74-6.11,4.9-2.49,1.16-5.32,1.74-8.48,1.74-3.67,0-6.87-.77-9.62-2.32Z"/>
        <path class="cls-8" d="M931.98,353.34c.49-.59,1.03-.99,1.62-1.21.59-.22,1.3-.33,2.15-.33s1.55.11,2.12.33c.57.22,1.1.62,1.59,1.21.49.59.92,1.41,1.29,2.45l11.71,31.75h-6.36l-10.35-29.88-10.45,29.88h-6.36l11.76-31.75c.37-1.04.8-1.86,1.29-2.45ZM925.6,373.81h20.14v5.15h-20.14v-5.15Z"/>
        <path class="cls-8" d="M974.96,357.66h-10.3v-5.45h26.55v5.45h-10.2v29.88h-6.06v-29.88Z"/>
        <path class="cls-8" d="M1011.26,352.2h6.06v35.33h-6.06v-35.33ZM1011.26,352.2h6.06v5.2h-6.06v-5.2ZM1011.26,382.34h6.06v5.2h-6.06v-5.2ZM1014.64,339.08h5.75l-4.69,9.34h-3.08l2.02-9.34Z"/>
        <path class="cls-8" d="M1046.77,385.72c-2.74-1.55-4.86-3.69-6.36-6.44-1.5-2.74-2.25-5.9-2.25-9.46s.75-6.67,2.25-9.41c1.5-2.74,3.62-4.88,6.36-6.41,2.74-1.53,5.95-2.3,9.62-2.3,3.16,0,5.99.58,8.48,1.74,2.49,1.16,4.53,2.8,6.13,4.92,1.6,2.12,2.65,4.59,3.16,7.42h-6.31c-.71-2.73-2.06-4.84-4.06-6.33-2-1.5-4.47-2.25-7.4-2.25-2.42,0-4.54.51-6.36,1.54-1.82,1.03-3.21,2.5-4.19,4.42-.98,1.92-1.46,4.17-1.46,6.76s.49,4.89,1.46,6.79c.98,1.9,2.37,3.35,4.19,4.34,1.82.99,3.94,1.49,6.36,1.49,2.93,0,5.4-.75,7.42-2.25,2.02-1.5,3.36-3.58,4.04-6.23h6.36c-.57,2.79-1.65,5.24-3.23,7.34-1.58,2.1-3.62,3.74-6.11,4.9-2.49,1.16-5.32,1.74-8.48,1.74-3.67,0-6.87-.77-9.62-2.32Z"/>
        <path class="cls-8" d="M1094.45,352.2h6.06v35.33h-6.06v-35.33ZM1094.45,352.2h6.06v5.2h-6.06v-5.2ZM1094.45,382.34h6.06v5.2h-6.06v-5.2Z"/>
        <path class="cls-8" d="M1132.73,353.34c.49-.59,1.03-.99,1.62-1.21.59-.22,1.3-.33,2.15-.33s1.55.11,2.12.33c.57.22,1.1.62,1.59,1.21.49.59.92,1.41,1.29,2.45l11.71,31.75h-6.36l-10.35-29.88-10.45,29.88h-6.36l11.76-31.75c.37-1.04.8-1.86,1.29-2.45ZM1126.35,373.81h20.14v5.15h-20.14v-5.15Z"/>
      </g>
    </g>
  </g>
</svg>