<?xml version="1.0" encoding="UTF-8"?>
<svg id="Camada_2" data-name="Camada 2" xmlns="http://www.w3.org/2000/svg" viewBox="0 0 1113.81 465.59">
  <defs>
    <style>
      .cls-1 {
        fill: #fff;
      }
    </style>
  </defs>
  <g id="Camada_1-2" data-name="Camada 1">
    <g>
      <path class="cls-1" d="M97.92,85.64c-.54.2-1.14-.07-1.34-.6-.09-.23-.09-.49,0-.72C112.83,39.2,122.24,13.64,124.79,7.63,128.96-2.21,144.93.15,158.21.48c.56.02,1,.48.98,1.04,0,.11-.02.22-.06.32l-25.31,69.52c-.31.85-.99,1.53-1.84,1.84l-34.06,12.43Z"/>
      <path class="cls-1" d="M453.87,1.85l-103.09,282.8c-.35,1.01-1.31,1.68-2.38,1.67h-61.62c-.38,0-.68-.31-.68-.69,0-.08.01-.16.04-.23,12.09-32.99,43.49-119.17,94.2-258.53,4.88-13.4,8.54-19.96,20.05-24.89,2.56-1.1,6.92-1.66,13.07-1.67,15.52-.05,28.64-.06,39.35-.02.64.01,1.15.54,1.13,1.18,0,.13-.03.26-.07.38Z"/>
      <path class="cls-1" d="M618.32,143.35c.03,16.99.11,26.51.24,28.57,1.13,19.67,11.06,36.73,27.81,46.45,32.6,18.9,74.45,1.16,82.68-36.02.71-3.21.78-5.71,1.25-8.19.18-.89.96-1.53,1.86-1.53h56.95c1,0,1.82.8,1.82,1.79,0,.05,0,.1,0,.15-2.56,38.59-19.08,68.84-49.54,90.73-42.53,30.6-100.85,27.2-140.74-5.43-21.99-17.98-35.53-41.15-40.65-69.52-2.5-13.92-1.67-31.38-1.7-46.9-.02-15.5-.92-32.96,1.53-46.87,5.02-28.39,18.49-51.61,40.41-69.66,39.77-32.77,98.06-36.38,140.72-5.92,30.54,21.78,47.16,51.96,49.85,90.54.08.99-.67,1.85-1.67,1.93-.04,0-.08,0-.12,0l-56.95.21c-.92,0-1.71-.64-1.89-1.53-.47-2.48-.54-4.98-1.27-8.19-8.35-37.13-50.27-54.73-82.8-35.72-16.73,9.77-26.59,26.87-27.67,46.54-.11,2.04-.15,11.57-.12,28.57Z"/>
      <rect class="cls-1" x="820.13" y=".32" width="60.72" height="286.01" rx=".33" ry=".33"/>
      <path class="cls-1" d="M1054.41,173.09h-77.07c-.56,0-1.01.45-1.01,1.01v111.2c0,.56-.45,1.01-1.01,1.01h-59.24c-.56,0-1.01-.45-1.01-1.01V1.33c0-.56.45-1.01,1.01-1.01h196.72c.56,0,1.01.45,1.01,1.01v58.1c0,.56-.45,1.01-1.01,1.01h-135.43c-.56,0-1.01.45-1.01,1.01v50.48c0,.56.45,1.01,1.01,1.01h77.05c.56,0,1.01.45,1.01,1.01h0v58.1c0,.56-.45,1.01-1.01,1.01Z"/>
      <path class="cls-1" d="M205.58,130.23l-35.69-13c-.21-.08-.37-.24-.45-.45l-23.07-63.25c-.06-.17-.06-.35,0-.52l15.5-42.51c.15-.39.58-.59.97-.45.21.08.37.24.45.45l43.26,118.75c.14.39-.06.82-.45.97-.17.06-.35.06-.52,0Z"/>
      <path class="cls-1" d="M557.43,286.33h-62.7c-.32,0-.6-.2-.71-.5l-68.79-188.75c-.06-.17-.06-.35,0-.52l31.35-86.03c.15-.39.58-.59.97-.45.21.08.37.24.45.45l100.14,274.78c.14.39-.06.83-.45.97-.08.03-.17.05-.26.05Z"/>
      <path class="cls-1" d="M130.26,81.14l-12.97,35.55c-.08.22-.25.39-.47.47l-63.34,23.09c-.18.07-.38.07-.57,0l-42.27-15.4c-.42-.15-.63-.61-.48-1.03.08-.23.26-.4.48-.48l118.59-43.24c.41-.16.88.04,1.04.46.07.19.07.39,0,.58Z"/>
      <path class="cls-1" d="M201.05,97.96c-.21-.53.05-1.14.59-1.34.24-.09.51-.09.76,0,45.07,16.17,70.61,25.52,76.62,28.07,9.84,4.15,7.5,20.1,7.2,33.36-.02.56-.48,1-1.04.98-.11,0-.22-.02-.32-.06l-69.47-25.17c-.85-.31-1.52-.97-1.84-1.82l-12.48-34.02Z"/>
      <path class="cls-1" d="M85.72,188.64c.21.53-.05,1.14-.59,1.34-.24.09-.51.09-.76,0-45.14-16.21-70.71-25.59-76.72-28.12C-2.2,157.69.16,141.69.46,128.44c.02-.56.49-1,1.05-.97.1,0,.2.02.29.05l69.59,25.22c.85.32,1.51.99,1.82,1.84l12.5,34.06Z"/>
      <path class="cls-1" d="M156.4,205.53l13.05-35.74c.07-.21.24-.37.45-.45l63.29-23.07c.17-.06.35-.06.52,0l42.53,15.5c.38.14.57.56.43.94-.07.2-.23.35-.43.43l-118.89,43.34c-.38.14-.8-.05-.94-.42-.06-.17-.06-.35,0-.52Z"/>
      <path class="cls-1" d="M81.07,156.3l35.72,13.02c.21.08.37.24.45.45l23.07,63.29c.06.17.06.35,0,.52l-15.5,42.51c-.15.39-.58.59-.97.45-.21-.08-.37-.24-.45-.45l-43.29-118.82c-.14-.39.06-.82.45-.97.17-.06.35-.06.52,0Z"/>
      <path class="cls-1" d="M190.3,202.06c-16.36,45.29-25.82,70.95-28.38,76.98-4.2,9.88-20.24,7.5-33.57,7.17-.56-.02-1-.48-.98-1.04,0-.11.02-.22.06-.32l25.45-69.8c.32-.85.99-1.52,1.84-1.84l34.23-12.48c.53-.21,1.14.05,1.34.59.09.24.09.51,0,.76Z"/>
      <ellipse class="cls-1" cx="485.13" cy="330.53" rx="5.8" ry="6.39" transform="translate(148.69 811.59) rotate(-89.3)"/>
      <ellipse class="cls-1" cx="1010.51" cy="330.58" rx="6.42" ry="5.8" transform="translate(-7.78 24.79) rotate(-1.4)"/>
      <path class="cls-1" d="M580.53,334.87c.58-4.78,3.3-7.48,8.16-8.09,3.63-.47,5.85,3.23,8.94,3.7.74.11,1.45-.34,1.65-1.06.61-2.28,2.5-2.99,5.66-2.12.73.18,1.2.88,1.11,1.63-.6,4.86-3.53,7.52-8.8,7.97-.81.06-1.63-.12-2.34-.52l-5.33-3.14c-.74-.42-1.67-.16-2.09.57-.08.14-.14.3-.17.47-.41,2.09-2.3,2.82-5.66,2.17-.73-.14-1.22-.83-1.13-1.58Z"/>
      <rect class="cls-1" x="1064.9" y="327.66" width="10.52" height="48.27" rx=".39" ry=".39"/>
      <path class="cls-1" d="M301.5,330.58c2.83,0,4.32.02,4.46.05.77.14,1.42.65,1.75,1.37l18.97,42.37c.26.57.01,1.24-.56,1.5-.14.07-.3.1-.46.1h-8.49c-.86,0-1.64-.51-1.98-1.3l-3.02-6.72c-.35-.77-1.1-1.28-1.93-1.32-1.13-.06-4.05-.09-8.75-.09s-7.6.03-8.73.09c-.84.04-1.58.55-1.93,1.32l-3.02,6.72c-.35.79-1.12,1.3-1.98,1.3h-8.49c-.63,0-1.13-.52-1.12-1.15,0-.16.04-.31.1-.46l18.97-42.37c.33-.71.98-1.22,1.75-1.37.16-.03,1.65-.05,4.48-.05ZM301.45,357.73c2.78-.02,4.62-.06,5.5-.12.39-.04.67-.38.64-.77,0-.07-.02-.13-.05-.2-2.03-5.08-3.97-9.7-5.83-13.87-.03-.06-.13-.09-.28-.09-.17,0-.28.03-.31.09-1.84,4.18-3.76,8.81-5.76,13.89-.15.36.03.77.39.92.06.02.13.04.2.05.88.06,2.71.09,5.5.09Z"/>
      <path class="cls-1" d="M711.55,353.11c0,.96-.06,1.9-.19,2.81-.12.79-.79,1.38-1.58,1.37h-17.62c-.68,0-1.23.54-1.23,1.2h0v7.36c0,.69.56,1.25,1.25,1.25h21.7c.56,0,1.01.45,1.01,1.01v6.61c0,.65-.53,1.18-1.18,1.18h-32.18c-.85,0-1.54-.66-1.58-1.51-.08-1.43-.15-8.46-.21-21.09-.08-12.63-.09-19.66-.02-21.09.03-.85.71-1.52,1.56-1.53l32.18-.35c.65-.01,1.19.5,1.2,1.16h0s.07,6.61.07,6.61c.01.56-.43,1.02-.99,1.04,0,0-.02,0-.02,0l-21.7.24c-.68.01-1.23.57-1.23,1.25l.09,7.36c0,.66.55,1.2,1.23,1.2h0l17.62-.19c.78,0,1.45.56,1.58,1.34.14.91.22,1.84.24,2.78Z"/>
      <path class="cls-1" d="M357.53,343.63l-2.55,7.05c-.14.39-.58.59-.99.44-.03-.01-.07-.03-.1-.04-4.56-2.58-9.2-3.11-13.92-1.58-1.07.35-1.65,1.49-1.3,2.56.22.69.8,1.21,1.52,1.36,6.65,1.35,10.95,2.43,12.88,3.23,7.45,3.09,7.34,10.76,2.83,15.92-5.5,6.3-21.04,4.18-27.58,1.23-.77-.35-1.14-1.23-.85-2.01l2.03-5.61c.28-.78,1.16-1.19,1.95-.9.08.03.15.06.22.1,4.97,2.67,10.03,3.47,15.17,2.38,1.07-.25,1.73-1.32,1.48-2.38-.18-.75-.77-1.33-1.52-1.49-5.58-1.09-9.44-1.98-11.56-2.69-7.47-2.56-9.31-7.63-5.52-15.19,4.06-8.16,20.81-5.94,27.51-3.09.28.12.42.44.31.71Z"/>
      <path class="cls-1" d="M388.41,351.15c-4.56-2.59-9.21-3.14-13.94-1.63-1.07.32-1.68,1.45-1.37,2.52.22.73.83,1.28,1.58,1.42,6.65,1.37,10.95,2.45,12.88,3.26,7.45,3.11,7.31,10.8,2.78,15.95-5.52,6.3-21.07,4.13-27.6,1.16-.77-.35-1.14-1.23-.85-2.01l2.05-5.61c.28-.78,1.16-1.19,1.95-.9.08.03.15.06.22.1,4.97,2.69,10.03,3.5,15.17,2.43,1.07-.24,1.73-1.31,1.49-2.37-.17-.75-.76-1.33-1.51-1.5-5.58-1.1-9.44-2.01-11.56-2.74-7.47-2.58-9.3-7.65-5.5-15.22,4.1-8.16,20.85-5.9,27.55-3.02.28.12.42.44.31.71l-2.57,7.05c-.14.39-.58.59-.99.44-.03-.01-.07-.03-.1-.04Z"/>
      <path class="cls-1" d="M396.29,358.21c.14-10.19,9.07-18.32,19.93-18.17h0c10.86.15,19.56,8.53,19.41,18.72-.14,10.19-9.07,18.32-19.93,18.17h0c-10.86-.15-19.56-8.53-19.41-18.72ZM415.86,349.15c-4.78.02-8.64,4.22-8.62,9.4.02,5.17,3.91,9.35,8.69,9.34h0c4.78-.02,8.64-4.22,8.62-9.4h0c-.02-5.17-3.91-9.35-8.69-9.34h0Z"/>
      <path class="cls-1" d="M449.69,358.49c-.02,9.04,9.58,12.36,15.78,5.76.37-.4.94-.54,1.44-.35l6.61,2.41c.83.3,1.26,1.23.95,2.07-.04.11-.09.21-.15.31-9.27,14.6-35.22,9.08-35.17-10.21.02-19.3,26.02-24.7,35.22-10.07.48.76.25,1.76-.5,2.23-.1.06-.2.11-.3.15l-6.63,2.38c-.5.19-1.07.05-1.44-.35-6.16-6.63-15.81-3.35-15.81,5.69Z"/>
      <path class="cls-1" d="M517.37,355.47c.96.03,1.77-.73,1.8-1.69,0-.26-.04-.52-.15-.76l-.52-1.16c-.55-1.26-1.66-2.19-3-2.5-3.92-.91-7.95-.13-12.1,2.34-.73.45-1.7.21-2.15-.54-.03-.06-.06-.11-.09-.17l-2.41-5.36c-.34-.78,0-1.68.75-2.03,12.74-5.94,31.71-5.73,31.23,13.73-.24,9.34-.24,14.97,0,16.89.1.74-.43,1.42-1.18,1.53-3.93.61-6.94.35-9.01-.8-.62-.34-1.38-.37-2.03-.07-20.08,9.06-30.74-16.65-11.42-19.34,1.84-.25,5.26-.28,10.26-.07ZM518.15,361.96h-7.6c-1.72,0-3.12,1.39-3.12,3.11,0,.99.46,1.92,1.26,2.51,3.79,2.8,7.48,2.08,11.06-2.17.74-.89.62-2.21-.27-2.96-.38-.31-.85-.49-1.34-.49Z"/>
      <path class="cls-1" d="M554.65,384.6c-.11-.88-1.12-1.56-3.02-2.03-.78-.2-1.25-1-1.05-1.78.01-.04.02-.09.04-.13l.92-2.52c.3-.83-.13-1.75-.97-2.05-.02,0-.05-.02-.07-.02-10.5-3.26-15.57-12.34-12.86-22.76,3.8-14.58,27.27-18.28,34.77-4.72.37.67.13,1.52-.53,1.88-.04.02-.07.04-.11.05l-6.25,2.78c-.6.27-1.31.14-1.77-.33-11.54-11.68-22.15,7.1-11.96,13.28,4.73,2.86,8.73,2.06,11.98-2.41.14-.2.39-.27.61-.19l7.83,2.85c.55.21.82.82.62,1.35-.02.05-.05.11-.08.16-3.37,5.44-8.24,8.43-14.63,8.96-.48.05-.82.49-.77.97.03.28.19.52.44.66,2.22,1.15,3.84,2.63,4.86,4.46.46.79.46,1.76,0,2.55-3.48,5.99-8.2,7.54-14.18,4.65-1.26-.59-1.81-2.09-1.22-3.35.42-.9,1.34-1.48,2.33-1.46h4.29c.42,0,.76-.33.76-.75,0-.03,0-.07,0-.1Z"/>
      <path class="cls-1" d="M596.02,355.47c.96.04,1.77-.71,1.81-1.68.01-.28-.04-.55-.16-.8l-.52-1.16c-.55-1.26-1.67-2.19-3.02-2.5-3.93-.91-7.98-.13-12.15,2.36-.73.45-1.7.21-2.15-.54-.03-.06-.06-.11-.09-.17l-2.43-5.38c-.34-.77,0-1.67.75-2.03,12.79-5.99,31.82-5.8,31.38,13.73-.24,9.39-.23,15.04.02,16.96.08.75-.44,1.42-1.18,1.53-3.95.63-6.97.37-9.06-.78-.62-.34-1.38-.37-2.03-.07-20.15,9.11-30.88-16.68-11.49-19.41,1.84-.25,5.28-.28,10.31-.07ZM596.33,361.79l-7.53-.09c-1.71-.04-3.12,1.32-3.15,3.03-.02,1,.44,1.94,1.24,2.54,3.73,2.82,7.39,2.13,10.99-2.05.74-.87.64-2.18-.24-2.93-.37-.31-.84-.49-1.32-.49Z"/>
      <path class="cls-1" d="M654.72,358.4c.07,10.19-8.69,18.51-19.57,18.58-10.88.08-19.76-8.12-19.83-18.31h0c-.07-10.19,8.69-18.51,19.57-18.58h0c10.88-.08,19.75,8.12,19.83,18.31ZM634.4,349.24c-4.76.34-8.31,4.79-7.94,9.94h0c.37,5.15,4.52,9.04,9.28,8.7,4.76-.34,8.31-4.79,7.94-9.94h0c-.37-5.15-4.52-9.04-9.28-8.7Z"/>
      <path class="cls-1" d="M722.21,374.53v-32.25c0-.83.61-1.52,1.42-1.63,4.42-.55,7.63-.06,9.62,1.49.56.42,1.31.49,1.93.19,3.99-1.89,8.37-2.38,13.12-1.49.53.11,1.02.33,1.44.66l4.27,3.37c.73.58,1.78.47,2.38-.24,5.24-6.04,17.34-5.9,22.51.52,1.97,2.44,2.93,6.17,2.9,11.21-.03,9.88-.04,16.06-.02,18.57.01.55-.43,1-.99,1.01,0,0-.02,0-.02,0h-8.63c-.55,0-.99-.44-.99-.99,0,0,0-.02,0-.02l.07-18.16c.03-3.7-2.9-6.75-6.61-6.86l-.35-.02c-3.63-.04-6.61,2.88-6.65,6.51,0,.02,0,.03,0,.05v18.35c0,.65-.53,1.18-1.18,1.18h-8.33c-.72,0-1.3-.58-1.3-1.29,0-.03,0-.07,0-.1.6-8.24.41-14.98-.57-20.22-.72-3.93-3.18-5.31-7.38-4.13-3.05.85-5.25,3.04-5.54,5.52-.68,5.74-.78,11.98-.31,18.71.05.77-.53,1.43-1.29,1.48-.03,0-.07,0-.1,0h-7.97c-.78,0-1.42-.63-1.42-1.42h0Z"/>
      <path class="cls-1" d="M800.91,375.36v12.67c0,.59-.48,1.06-1.06,1.06h-8.54c-.61,0-1.11-.51-1.11-1.13v-46.21c0-.64.51-1.16,1.13-1.16l7.5.02c.48,0,.95.2,1.3.54.06.05.22.38.47.99.2.45.72.66,1.16.47.01,0,.03-.01.04-.02,14.58-7.27,28.87,2.36,26.73,19.01-1.65,12.88-15.12,18.87-26.19,12.88-.47-.26-1.06-.08-1.32.4-.08.15-.12.31-.12.47ZM809.96,349.19c-4.76-.27-8.86,3.68-9.16,8.83-.3,5.15,3.32,9.55,8.08,9.82,4.76.27,8.86-3.68,9.16-8.83.3-5.15-3.32-9.55-8.08-9.82Z"/>
      <path class="cls-1" d="M856.67,340.42c.37.02.66.33.66.71v8.21c0,.36-.29.66-.64.66-.02,0-.03,0-.05,0-14.06-.71-11.04,12.86-11.06,24.91,0,.6-.49,1.09-1.09,1.09h-8.63c-.56,0-1.01-.46-1.01-1.04v-33.36c0-.57.48-1.04,1.06-1.04h8.19c.72,0,1.3.58,1.3,1.3v1.39c-.01.48.37.88.85.89.26,0,.51-.11.68-.3,2.26-2.52,5.51-3.66,9.74-3.42Z"/>
      <path class="cls-1" d="M871.89,363.21c3.09,6.09,10.99,5.94,15.31,2.34.99-.83,2.46-.71,3.27.27,0,.01.02.02.03.03l3.04,3.8c.74.92.6,2.28-.33,3.02-.03.02-.06.05-.1.07-4.14,2.97-9.21,4.27-15.22,3.89-28.03-1.82-22.25-42.25,6.49-35.55,4.66,1.1,8.54,4.3,10.5,8.66l2.52,5.64c1.03,2.3,0,4.99-2.32,6.02-.59.26-1.22.4-1.86.4h-20.5c-.53,0-.96.44-.96.98,0,.15.04.3.11.44ZM871.61,355.42l14.01-.05c.2,0,.35-.16.35-.35h0v-.17c-.01-3.17-3.14-5.74-7.01-5.73h-.71c-3.87,0-7.01,2.58-7.01,5.76,0,0,0,.01,0,.02v.17c0,.2.16.35.35.35Z"/>
      <path class="cls-1" d="M930.51,343.72l-2.57,7.05c-.14.39-.58.59-.99.44-.03-.01-.07-.03-.1-.04-4.56-2.59-9.21-3.15-13.94-1.65-1.07.32-1.68,1.45-1.37,2.52.22.73.83,1.28,1.58,1.42,6.65,1.38,10.95,2.48,12.88,3.28,7.45,3.11,7.31,10.8,2.78,15.92-5.52,6.3-21.07,4.13-27.6,1.16-.77-.35-1.14-1.23-.85-2.01l2.05-5.61c.28-.78,1.16-1.19,1.95-.9.08.03.15.06.22.1,4.97,2.69,10.03,3.5,15.17,2.43,1.07-.24,1.73-1.31,1.49-2.37-.17-.75-.76-1.33-1.51-1.5-5.58-1.1-9.44-2.01-11.56-2.74-7.47-2.58-9.3-7.65-5.5-15.22,4.13-8.16,20.85-5.87,27.55-3,.28.12.42.44.31.71Z"/>
      <path class="cls-1" d="M955.61,355.45c.96.04,1.78-.71,1.81-1.67.01-.26-.04-.52-.14-.75l-.52-1.16c-.54-1.27-1.65-2.21-3-2.52-3.92-.91-7.95-.14-12.1,2.31-.73.45-1.7.21-2.15-.54-.03-.06-.06-.11-.09-.17l-2.38-5.36c-.34-.78,0-1.68.75-2.03,12.76-5.92,31.71-5.64,31.19,13.8-.27,9.33-.28,14.95-.05,16.87.1.74-.43,1.42-1.18,1.53-3.93.6-6.94.32-9.01-.83-.62-.34-1.38-.37-2.03-.07-20.08,8.99-30.67-16.73-11.35-19.37,1.84-.24,5.25-.25,10.24-.05ZM956.3,361.93l-7.6.02c-1.72-.02-3.13,1.35-3.15,3.07-.01,1.01.47,1.97,1.29,2.56,3.81,2.78,7.5,2.04,11.09-2.22.74-.89.62-2.21-.27-2.96-.38-.32-.86-.49-1.36-.49Z"/>
      <path class="cls-1" d="M999.21,340.39c.37.02.66.33.66.71l.02,8.16c0,.36-.28.66-.64.66-.02,0-.03,0-.05,0-13.99-.64-10.92,12.83-10.9,24.84,0,.6-.49,1.09-1.09,1.09l-8.59.02c-.55,0-1-.45-1.01-1.01l-.12-33.22c.01-.56.47-1,1.04-1.01l8.14-.05c.72,0,1.3.58,1.3,1.3h0s.02,1.37.02,1.37c0,.48.4.87.88.87.24,0,.47-.1.63-.28,2.25-2.52,5.48-3.66,9.7-3.44Z"/>
      <path class="cls-1" d="M1042.73,355.42c.96.03,1.77-.74,1.79-1.7,0-.25-.04-.5-.14-.73l-.5-1.16c-.54-1.27-1.65-2.21-3-2.52-3.9-.93-7.93-.17-12.1,2.29-.74.43-1.7.17-2.14-.58-.03-.05-.05-.1-.08-.15l-2.38-5.36c-.34-.78,0-1.68.75-2.03,12.76-5.87,31.71-5.57,31.14,13.87-.28,9.33-.31,14.95-.07,16.87.1.75-.44,1.43-1.2,1.53-3.93.6-6.93.31-8.99-.85-.62-.34-1.38-.37-2.03-.07-20.1,8.94-30.62-16.8-11.32-19.39,1.84-.24,5.26-.24,10.26-.02ZM1043.44,361.89h-7.6c-1.72.01-3.1,1.42-3.09,3.14,0,.96.46,1.87,1.23,2.45,3.77,2.82,7.46,2.1,11.06-2.15.74-.89.62-2.21-.27-2.96-.38-.31-.85-.49-1.34-.49Z"/>
      <rect class="cls-1" x="479.87" y="340.63" width="10.52" height="35.29" rx=".4" ry=".4"/>
      <rect class="cls-1" x="1005.29" y="340.61" width="10.57" height="35.34" rx=".39" ry=".39"/>
      <ellipse class="cls-1" cx="520.16" cy="407.27" rx="6.42" ry="5.73" transform="translate(-26.5 36.32) rotate(-3.9)"/>
      <ellipse class="cls-1" cx="773.66" cy="407.3" rx="6.39" ry="5.78" transform="translate(-24.67 50.77) rotate(-3.7)"/>
      <path class="cls-1" d="M649.69,404.56l-10.21,8.23c-.73.6-1.66.92-2.62.92h-5.94c-.47,0-.85-.38-.85-.85,0-.22.08-.43.24-.59l7.76-7.74c.53-.53,1.24-.83,1.98-.83h9.34c.26-.01.48.19.5.45,0,.16-.06.31-.19.4Z"/>
      <path class="cls-1" d="M303.72,419.07c.47.26,1.06.08,1.32-.4.08-.15.12-.31.12-.47l-.09-12.64c0-.58.46-1.05,1.04-1.06l8.52-.07c.61-.01,1.12.48,1.13,1.11,0,0,0,.02,0,.02l.33,46.07c0,.63-.49,1.14-1.11,1.16l-7.48.05c-.48,0-.95-.2-1.3-.54-.06-.05-.23-.38-.5-.99-.22-.45-.74-.64-1.18-.43,0,0,0,0,0,0-14.48,7.36-28.83-2.15-26.8-18.75,1.56-12.86,14.93-18.94,26-13.05ZM297.23,425.9c-4.75-.22-8.79,3.77-9.02,8.89-.23,5.13,3.43,9.46,8.18,9.68,4.75.22,8.79-3.77,9.02-8.89.23-5.13-3.43-9.46-8.18-9.68Z"/>
      <rect class="cls-1" x="424.97" y="404.3" width="11.13" height="48.27" rx=".39" ry=".39"/>
      <rect class="cls-1" x="748.82" y="404.3" width="10.47" height="48.27" rx=".37" ry=".37"/>
      <path class="cls-1" d="M415.75,436.05h-19.41c-.5,0-.9.4-.9.9h0v14.74c0,.5-.4.9-.9.9h-9.37c-.5,0-.9-.4-.9-.9h0v-43.52c0-.5.4-.9.9-.9h33.57c.5,0,.9.4.9.9v7.01c0,.5-.4.9-.9.9h-22.41c-.5,0-.9.4-.9.9h0v9.44c0,.5.4.9.9.9h19.41c.5,0,.9.4.9.9h0v6.96c0,.5-.4.9-.9.9h0Z"/>
      <path class="cls-1" d="M335.19,438.48c-.53.02-.95.46-.94,1,0,.15.04.29.11.42,3.09,6.06,10.97,5.92,15.29,2.31.99-.83,2.46-.71,3.28.27,0,.01.02.02.03.03l3.04,3.77c.74.92.6,2.28-.33,3.02-.03.02-.06.05-.1.07-4.12,2.97-9.18,4.28-15.19,3.92-28-1.77-22.27-42.18,6.44-35.53,4.65,1.09,8.53,4.28,10.5,8.63l2.52,5.64c1.03,2.29,0,4.99-2.29,6.02-.59.26-1.22.4-1.86.4l-20.5.02ZM333.89,432.02l13.97-.09c.2,0,.35-.16.35-.35h0v-.17c-.02-3.13-3.16-5.64-7-5.61h-.76c-3.84.03-6.94,2.58-6.91,5.71v.17c0,.2.16.35.35.35h0Z"/>
      <path class="cls-1" d="M480.79,436.71c0,9-7.3,16.3-16.3,16.3h-5.8c-9,0-16.3-7.3-16.3-16.3v-2.97c0-9,7.3-16.3,16.3-16.3h5.8c9,0,16.3,7.3,16.3,16.3h0v2.97ZM470.05,433.86c0-4.23-3.43-7.67-7.67-7.67h-1.56c-4.23,0-7.67,3.43-7.67,7.67v2.78c0,4.23,3.43,7.67,7.67,7.67h1.56c4.23,0,7.67-3.43,7.67-7.67h0v-2.78Z"/>
      <path class="cls-1" d="M508.53,417.02c.36.02.65.32.66.68l.09,8.19c0,.36-.29.66-.64.66,0,0-.02,0-.02,0-14.01-.52-10.85,12.95-10.71,24.96,0,.6-.49,1.09-1.09,1.09h0l-8.59.09c-.55,0-1-.45-1.01-1.01l-.42-33.22c0-.57.48-1.04,1.06-1.04l8.14-.12c.72-.01,1.31.56,1.32,1.27h0v1.39c0,.48.4.87.88.87.25,0,.49-.11.66-.3,2.23-2.53,5.46-3.7,9.67-3.52Z"/>
      <rect class="cls-1" x="502.23" y="429.66" width="35.34" height="10.57" rx=".37" ry=".37" transform="translate(84.05 954.08) rotate(-89.9)"/>
      <path class="cls-1" d="M552.45,432.16c.96.03,1.77-.73,1.8-1.69,0-.26-.04-.52-.15-.76l-.52-1.16c-.56-1.27-1.68-2.2-3.02-2.5-3.93-.88-7.97-.08-12.13,2.41-.73.45-1.69.22-2.15-.52-.03-.05-.06-.11-.09-.16l-2.45-5.35c-.36-.78-.02-1.7.75-2.05,0,0,0,0,0,0,12.74-6.02,31.75-5.9,31.38,13.61-.19,9.36-.16,15,.09,16.91.1.75-.43,1.45-1.18,1.56-3.93.63-6.94.38-9.04-.75-.62-.34-1.38-.37-2.03-.07-20.08,9.2-30.9-16.54-11.56-19.32,1.86-.27,5.28-.31,10.29-.14ZM553.3,438.44c-4.03-.31-6.99-.06-8.89.75-1.51.64-2.22,2.38-1.58,3.89.28.66.78,1.19,1.42,1.51,4.47,2.26,7.98,1.12,10.54-3.42.5-.89.18-2.01-.7-2.51-.24-.13-.51-.21-.78-.23Z"/>
      <path class="cls-1" d="M610.16,451.58c0,.57-.45,1.04-1.01,1.04h-8.49c-.61,0-1.11-.5-1.11-1.11h0v-18.35c0-3.65-2.95-6.61-6.6-6.61-.21,0-.41,0-.62.03l-.83.07c-3.81.34-6.73,3.54-6.72,7.36v17.46c0,.63-.5,1.13-1.11,1.13h-8.3c-.61,0-1.11-.5-1.11-1.11h0v-32.98c0-.68.54-1.23,1.2-1.23h7.45c.66,0,1.21.53,1.21,1.18,0,.09,0,.17-.03.26-.19.9-.23,1.47-.12,1.72.26.51.88.72,1.39.46.18-.09.32-.22.42-.39,1.43-2.37,4.85-3.5,10.26-3.37,7.41.19,11.97,3.32,13.68,9.39.17.6.27,1.21.28,1.82l.14,23.24Z"/>
      <path class="cls-1" d="M655.42,436.54c.09,8.98-7.11,16.33-16.08,16.42h0l-5.94.06c-8.98.09-16.33-7.11-16.42-16.08h0s-.03-3.02-.03-3.02c-.09-8.98,7.11-16.33,16.08-16.42h0l5.94-.06c8.98-.09,16.33,7.11,16.42,16.08h0s.03,3.02.03,3.02ZM635.67,425.93c-4.76.28-8.37,4.68-8.07,9.81.31,5.14,4.41,9.07,9.17,8.79h0c4.76-.28,8.37-4.68,8.07-9.81-.31-5.14-4.41-9.07-9.17-8.79h0Z"/>
      <path class="cls-1" d="M674.11,451.08c-.47-.25-1.06-.06-1.31.41-.07.14-.11.3-.11.46l-.02,12.57c0,.58-.46,1.05-1.04,1.06l-8.49-.02c-.59-.01-1.07-.5-1.09-1.11l.02-45.86c0-.64.51-1.16,1.13-1.16h0l7.45.05c.47,0,.93.18,1.27.52.06.05.22.38.47.99.18.45.69.66,1.14.48.02,0,.04-.02.06-.03,14.46-7.2,28.64,2.36,26.49,18.9-1.65,12.76-15.03,18.71-26,12.74ZM689.21,433.8c0-4.21-3.4-7.63-7.61-7.63h-1.46c-4.21,0-7.63,3.4-7.63,7.6v2.93c-.01,4.21,3.39,7.63,7.6,7.63h1.46c4.21,0,7.63-3.4,7.63-7.6v-2.93Z"/>
      <path class="cls-1" d="M742.48,436.96c-.09,8.98-7.45,16.18-16.42,16.08l-5.9-.06c-8.98-.09-16.18-7.45-16.08-16.42h0s.03-3.07.03-3.07c.09-8.98,7.45-16.18,16.42-16.08l5.9.06c8.98.09,16.18,7.45,16.08,16.42h0s-.03,3.07-.03,3.07ZM723.82,425.9c-4.77-.27-8.88,3.69-9.17,8.84h0c-.29,5.15,3.35,9.54,8.12,9.81,4.77.27,8.88-3.69,9.17-8.84h0c.29-5.15-3.35-9.54-8.12-9.81Z"/>
      <rect class="cls-1" x="768.26" y="417.28" width="10.57" height="35.34" rx=".37" ry=".37"/>
      <path class="cls-1" d="M815.08,420.32l-2.52,7.05c-.13.4-.56.61-.97.47-.04-.01-.08-.03-.11-.05-4.58-2.58-9.22-3.1-13.94-1.56-1.06.35-1.64,1.5-1.29,2.56.23.69.81,1.21,1.53,1.35,6.65,1.34,10.95,2.41,12.88,3.21,7.45,3.07,7.36,10.76,2.85,15.9-5.5,6.32-21.02,4.25-27.58,1.3-.77-.35-1.14-1.23-.85-2.01l2.03-5.61c.29-.78,1.16-1.18,1.96-.89.06.02.13.05.19.08,4.99,2.66,10.04,3.44,15.17,2.34,1.06-.27,1.7-1.35,1.43-2.41-.18-.71-.74-1.26-1.45-1.43-5.58-1.09-9.44-1.98-11.58-2.69-7.47-2.55-9.32-7.6-5.54-15.17,4.06-8.19,20.81-5.99,27.51-3.16.28.12.42.44.31.71Z"/>
    </g>
  </g>
</svg>