<?xml version="1.0" encoding="UTF-8"?>
<svg id="Camada_2" data-name="Camada 2" xmlns="http://www.w3.org/2000/svg" xmlns:xlink="http://www.w3.org/1999/xlink" viewBox="0 0 536.94 702.74">
  <defs>
    <style>
      .cls-1 {
        fill: url(#Gradiente_sem_nome_149);
      }

      .cls-2 {
        fill: #fff;
      }

      .cls-3 {
        fill: url(#Gradiente_sem_nome_139);
      }

      .cls-4 {
        fill: url(#Gradiente_sem_nome_143);
      }
    </style>
    <linearGradient id="Gradiente_sem_nome_143" data-name="Gradiente sem nome 143" x1="362.85" y1="6.53" x2="362.85" y2="244.62" gradientUnits="userSpaceOnUse">
      <stop offset="0" stop-color="#515151"/>
      <stop offset="1" stop-color="#fff"/>
    </linearGradient>
    <linearGradient id="Gradiente_sem_nome_139" data-name="Gradiente sem nome 139" x1="345" y1="182.83" x2="385.43" y2="261.44" gradientUnits="userSpaceOnUse">
      <stop offset="0" stop-color="#fff"/>
      <stop offset="1" stop-color="#bebebe"/>
    </linearGradient>
    <linearGradient id="Gradiente_sem_nome_149" data-name="Gradiente sem nome 149" x1="115.97" y1="227.71" x2="383.94" y2="227.71" gradientUnits="userSpaceOnUse">
      <stop offset="0" stop-color="#000"/>
      <stop offset=".24" stop-color="#020202"/>
      <stop offset=".38" stop-color="#0a0a0a"/>
      <stop offset=".49" stop-color="#181818"/>
      <stop offset=".59" stop-color="#2c2c2c"/>
      <stop offset=".68" stop-color="#454545"/>
      <stop offset=".76" stop-color="#646464"/>
      <stop offset=".83" stop-color="#8a8a8a"/>
      <stop offset=".9" stop-color="#b5b5b5"/>
      <stop offset=".97" stop-color="#e5e5e5"/>
      <stop offset="1" stop-color="#fff"/>
    </linearGradient>
  </defs>
  <g id="Camada_1-2" data-name="Camada 1">
    <g>
      <path class="cls-4" d="M477.39,242.44c-13.89-24.18-27.79-48.29-41.71-72.32l-46.63-80.75-5.03-8.64-6.39-11.14-25.43-44.06-5.51-9.18c-1.82-2.79-3.94-5.36-6.35-7.7-4.13-4.02-8.83-6.6-14.1-7.75-2.01-.44-7.43-.67-16.24-.7-9.86-.03-19.75.01-29.65.12l-36.56-.2c6.54.85,12.68,2.54,18.43,5.05,5.52,2.78,10.47,6.26,14.85,10.42,4.15,4.24,7.33,8.16,9.52,11.75,2.74,4.5,8.37,14.23,16.89,29.18l2.03,3.44,6.25,10.93,5.32,9.25,47.45,82.07,3.75,6.55c11.91,20.52,23.76,41.04,35.53,61.56,3.13,5.46,4.33,11.11,3.61,16.95,5.15-.76,10.38-.98,15.69-.66,1.6.1,6.81.7,15.62,1.8,14.97,1.87,28.96,3.54,43.16,7.59-.91-5.4-2.41-9.92-4.5-13.56Z"/>
      <path class="cls-2" d="M364.54,162.2l-47.45-82.07-5.32-9.25-6.25-10.93-2.03-3.44c-8.52-14.96-14.15-24.68-16.89-29.18-2.19-3.59-5.37-7.51-9.52-11.75-4.38-4.17-9.33-7.64-14.85-10.42-5.75-2.52-11.9-4.2-18.43-5.05-8.91-.58-17.47,1-25.68,4.76-6.11,2.8-11.34,6.56-15.7,11.31-2.46,2.68-6.03,8.08-10.72,16.2-68.84,119.24-109.9,190.41-123.18,213.49-5.05,8.78-7.58,19-4.71,28.73.4,1.37,3.01,6.26,7.81,14.67,10.65,18.66,21.36,37.32,32.13,55.98-3.63-8.72-5.13-17.29-4.5-25.7.45-5.93,1.83-11.85,4.13-17.74,1.3-3.31,4.12-8.71,8.45-16.21,30.51-52.7,67.31-116.39,110.41-191.08,2.98-5.17,6.13-8.93,9.46-11.25,10.11-7.1,20.08-.31,25.38,8.61,4.84,8.15,10.48,17.93,16.9,29.33l12.41,21.59,32.83,56.88c17.43-10.9,30.29-25.39,48.85-31.31l-3.54-6.17Z"/>
      <path class="cls-3" d="M403.82,230.31c-11.77-20.52-23.62-41.04-35.53-61.56l-.22-.38c-18.56,5.92-31.41,20.41-48.85,31.31l33.51,58.07c.53.75.76,1.3.68,1.66,10.14.04,20.29.03,30.44-.03,6.61-.03,11.51-.51,16.72-3.34,3.37-1.83,5.65-4.76,6.83-8.79.73-5.84-.47-11.49-3.61-16.95Z"/>
      <path class="cls-2" d="M481.89,256c2.34,14.53-1.28,27.49-9.06,39.6-3.66,4.17-6.27,6.92-7.82,8.23-7.93,6.73-17.04,10.94-27.33,12.63-4.58.75-8.44,1.13-11.58,1.12-15.75-.04-31.49-.05-47.24-.02h-96.34s-64.42.02-64.42.02c-8.13,0-16.24,0-24.35-.02-1.67,0-4-.34-6.99-1.01-8.55-1.9-14.51-8.06-13.12-17.44.58-3.95,1.72-7.45,3.42-10.5,3.02-5.42,8.56-15.03,16.61-28.85.05-.08.11-.16.19-.22.13-.09.24-.14.33-.15h159.22c10.14.04,20.29.03,30.44-.02,6.61-.03,11.51-.51,16.72-3.34,3.37-1.83,5.65-4.76,6.83-8.79,5.15-.76,10.38-.98,15.69-.66,1.6.1,6.81.7,15.62,1.8,14.97,1.87,28.96,3.54,43.16,7.59Z"/>
      <path class="cls-1" d="M465.02,303.83c-7.93,6.73-17.04,10.94-27.33,12.63-4.58.75-8.44,1.13-11.58,1.12-15.75-.04-31.49-.05-47.24-.02h-96.34s-64.42.02-64.42.02c-8.13,0-16.24,0-24.35-.02-1.67,0-4-.34-6.99-1.01-8.55-1.9-14.51-8.06-13.12-17.44.58-3.95,1.72-7.45,3.42-10.5,3.02-5.42,8.56-15.03,16.62-28.85.05-.08.11-.16.19-.22.13-.09.25-.14.33-.15l79.79-138.19c-6.42-11.4-12.06-21.18-16.9-29.33-5.3-8.92-15.28-15.7-25.38-8.61-3.32,2.33-6.47,6.08-9.46,11.25-43.09,74.68-79.9,138.38-110.41,191.08-4.33,7.49-7.15,12.89-8.45,16.21-2.31,5.89-3.68,11.8-4.13,17.74-.63,8.41.86,16.98,4.5,25.7,8.5,17.06,25.53,29.77,44.92,29.82,8.16.02,16.31.02,24.43,0h66.29s84.34,0,84.34,0h13.36c21.21.03,42.38.03,63.51,0,5.24-.01,9.2-.22,11.88-.62,8.23-1.24,15.85-4.84,20.86-11.22.41-.53,2.53-4.06,6.34-10.61,11.05-18.99,22.1-37.99,33.15-57.02-3.66,4.17-6.27,6.92-7.82,8.23Z"/>
      <path class="cls-2" d="M42.2,450.14v136.59c0,.21.17.39.39.39h67.5c.21,0,.39.17.39.39v36.99c0,.21-.17.39-.39.39H.64c-.21,0-.39-.17-.39-.39v-174.35c0-.21.17-.39.39-.39h41.17c.21,0,.39.17.39.39Z"/>
      <path class="cls-2" d="M172.01,485.97c-.32,0-.59.26-.59.58h0v30.35c0,.33.27.6.6.6l56.54-.02c.24,0,.44.2.44.45v35.09c0,.21-.16.37-.37.37h0l-56.75.02c-.25,0-.45.2-.45.45h0v33.65c0,.19.16.35.35.35h67.54c.2,0,.36.17.36.36h0s0,36.13,0,36.13c0,.29-.23.52-.52.52h-108.09c-.18,0-.32-.14-.32-.31v-174.44c0-.21.16-.38.37-.38h107.2c.2,0,.36.15.36.35l.02,35.55c0,.18-.14.32-.32.32h-66.37Z"/>
      <path class="cls-2" d="M372.67,449.76h40.62c.13,0,.24.11.24.24,0,.03,0,.07-.02.1l-82.39,181.23c-.04.08-.12.14-.22.14h-2.75c-.09,0-.18-.05-.22-.14l-82.4-181.23c-.06-.12,0-.26.12-.32.03-.01.07-.02.1-.02h43.86c.09,0,.18.06.22.15l40.93,94.86c.05.12.19.18.31.13.06-.02.1-.07.13-.13l41.26-94.86c.04-.09.12-.15.22-.15Z"/>
      <path class="cls-2" d="M468.61,517.5h56.75c.23,0,.41.18.41.41v35.09c0,.23-.18.41-.41.41h-56.75c-.23,0-.41.18-.41.41v33.63c0,.23.18.41.41.41h67.42c.23,0,.41.18.41.41v36.19c0,.23-.18.41-.41.41h-108.09c-.23,0-.41-.18-.41-.41h0v-174.29c0-.23.18-.41.41-.41h107.11c.23,0,.41.18.41.41v35.4c0,.23-.18.41-.41.41h-66.44c-.23,0-.41.18-.41.41h0v30.7c0,.23.18.41.41.41h0Z"/>
      <path class="cls-2" d="M45.05,676.05c2.33,2.14,4.52,4.19,6.59,6.14.07.07.19.07.26,0,.04-.04.06-.09.05-.14v-24.93c0-.21.18-.38.39-.38h8.7c.21,0,.38.17.38.39l-.02,44.98c0,.29-.24.53-.53.54-.13,0-.26-.05-.36-.14-2.15-1.94-9.34-8.57-21.58-19.89-2.32-2.15-4.51-4.2-6.57-6.15-.07-.07-.19-.07-.26,0-.04.03-.05.08-.05.13v24.94c0,.21-.18.38-.39.38h-8.7c-.21,0-.38-.18-.38-.39l.02-44.98c0-.29.24-.53.54-.53.13,0,.25.05.35.14,2.15,1.94,9.34,8.57,21.58,19.9Z"/>
      <path class="cls-2" d="M187.44,667.18c0,.16-.14.29-.3.29-.06,0-.11-.02-.16-.05-3.37-2.21-12.35-5.56-14.82-.62-1.74,3.47,1.04,5.83,4.17,7.28,8.16,3.81,13.95,6.62,13.25,16.2-1.04,14.25-17.79,14.29-27.7,9.83-.23-.11-.38-.34-.38-.6v-8.61c0-.14.12-.25.26-.25.05,0,.09.01.13.04,4.34,2.88,11.62,5.28,16.39,2.53.23-.13.43-.32.57-.54,2.17-3.3.29-6.03-2.91-7.79-2.31-1.28-7.56-3.42-10.01-5.65-3.09-2.81-4.41-6.58-3.99-11.31.61-6.74,4.47-10.63,11.58-11.65,4.59-.66,9.07-.11,13.47,1.63.27.11.45.37.45.66v8.6Z"/>
      <path class="cls-2" d="M287.07,684.64c.12,0,.22-.05.28-.15,7.57-13.39,12.85-22.75,15.85-28.08.17-.3.55-.4.84-.24.16.09.27.24.3.41l8.96,44.78c.05.25-.11.49-.36.54-.03,0-.06,0-.09,0h-8.58c-.22,0-.41-.16-.45-.37l-4.02-20.1c-.01-.07-.07-.11-.14-.1-.04,0-.07.03-.09.07-4.32,7.63-8.28,14.61-11.89,20.94-.13.22-.35.28-.59.28s-.46-.05-.58-.28c-3.62-6.33-7.6-13.3-11.93-20.92-.03-.06-.11-.08-.17-.05-.03.02-.06.05-.07.09l-3.99,20.11c-.04.22-.23.37-.45.37l-8.58.02c-.26,0-.47-.2-.47-.46,0-.03,0-.06,0-.09l8.88-44.8c.07-.33.4-.55.73-.48.17.04.33.15.41.3,3.01,5.32,8.31,14.67,15.9,28.04.06.1.15.15.27.15Z"/>
      <path class="cls-2" d="M385.25,676.05c2.33,2.15,4.52,4.21,6.59,6.17.07.07.19.07.26,0,.04-.04.06-.09.05-.14v-24.99c0-.21.17-.38.39-.38h8.71c.21,0,.38.17.38.39v45.07c0,.29-.24.53-.54.53-.13,0-.26-.05-.35-.14-2.15-1.94-9.35-8.59-21.62-19.93-2.33-2.15-4.52-4.2-6.59-6.15-.07-.07-.19-.07-.26,0-.04.03-.05.08-.05.13v24.99c0,.21-.17.38-.39.38h-8.71c-.21,0-.38-.17-.38-.39v-45.07c0-.29.25-.53.54-.52.12,0,.24.05.34.13,2.15,1.94,9.36,8.58,21.63,19.92Z"/>
      <path class="cls-2" d="M498.5,681.79c-.18,11.62-9.75,20.9-21.38,20.72h0l-4.19-.07c-11.62-.18-20.9-9.75-20.72-21.38l.07-4.15c.18-11.62,9.75-20.9,21.38-20.72h0l4.19.07c11.62.18,20.9,9.75,20.72,21.38l-.07,4.15ZM475.2,664.77c-7.5.1-13.48,6.71-13.37,14.76h0c.11,8.05,6.28,14.49,13.78,14.38,7.5-.1,13.48-6.71,13.37-14.76h0c-.11-8.05-6.28-14.49-13.78-14.38Z"/>
      <path class="cls-2" d="M534.72,667.18c0,.16-.14.29-.3.29-.06,0-.11-.02-.16-.05-3.37-2.2-12.35-5.55-14.82-.6-1.73,3.47,1.05,5.83,4.18,7.28,8.16,3.79,13.96,6.6,13.26,16.19-1.02,14.25-17.78,14.31-27.68,9.85-.24-.11-.39-.34-.39-.6v-8.61c0-.14.11-.25.25-.25.05,0,.09.01.13.04,4.35,2.88,11.62,5.27,16.4,2.52.23-.13.43-.32.57-.54,2.17-3.3.29-6.03-2.92-7.79-2.32-1.28-7.57-3.41-10.01-5.64-3.09-2.81-4.42-6.58-4-11.31.6-6.74,4.46-10.63,11.57-11.65,4.59-.66,9.07-.12,13.47,1.62.27.11.45.37.45.66v8.6Z"/>
      <rect class="cls-2" x="0" y="656.72" width="9.84" height="45.21" rx=".62" ry=".62"/>
      <path class="cls-2" d="M92.5,682.92c.09,0,.15-.04.19-.13,3.1-7.13,6.83-15.68,11.19-25.64.11-.25.35-.41.63-.41h9.77c.15,0,.28.13.27.28,0,.04,0,.08-.03.11-10.09,21.21-17.24,36.25-21.45,45.09-.14.28-.33.43-.58.43s-.45-.14-.58-.43c-4.21-8.85-11.34-23.89-21.4-45.12-.06-.14,0-.31.14-.37.03-.02.07-.02.11-.03l9.77.02c.27,0,.52.16.63.41,4.35,9.97,8.07,18.52,11.15,25.65.04.09.1.13.19.13Z"/>
      <path class="cls-2" d="M150.95,656.74c.3,0,.53.25.53.54v6.98c0,.26-.2.47-.46.47h-17.35c-.27,0-.5.23-.5.5h0l.02,9.27c0,.24.2.44.44.44l11.9-.02c.29,0,.52.23.53.53v7.05c0,.27-.21.5-.49.5h-12.06c-.18,0-.33.15-.33.33v10.23c0,.19.16.35.35.35l18.31-.02c.25,0,.45.2.46.45l.04,7.08c0,.28-.23.51-.51.51h-28.07c-.19,0-.33-.15-.33-.33v-44.33c0-.28.21-.51.49-.51h27.03Z"/>
      <path class="cls-2" d="M213.8,656.74c10.83,0,16.47.02,16.89.03.14,0,.26.12.26.27v7.3c0,.23-.19.41-.42.41h-11.59c-.17,0-.31.14-.31.31l-.03,36.53c0,.16-.12.3-.29.32-.25.03-1.76.04-4.53.04-2.78,0-4.29-.02-4.54-.05-.16-.02-.29-.15-.29-.32l.02-36.53c0-.17-.14-.31-.31-.31h-11.59c-.23,0-.42-.19-.42-.42,0,0,0,0,0,0v-7.3c.01-.14.12-.26.26-.26.43-.02,6.06-.02,16.89-.02Z"/>
      <rect class="cls-2" x="240.89" y="656.74" width="9.72" height="45.21" rx=".37" ry=".37"/>
      <path class="cls-2" d="M351.27,664.73h-17.57c-.21,0-.38.17-.38.38v9.45c0,.21.17.38.38.38h12.13c.21,0,.38.17.38.38v7.31c0,.21-.17.38-.38.38h-12.13c-.21,0-.38.17-.38.38v10.15c0,.21.17.38.38.38h18.39c.21,0,.38.17.38.38v7.29c0,.21-.17.38-.38.38h-28.17c-.21,0-.38-.17-.38-.38h0v-44.47c0-.21.17-.38.38-.38h27.35c.21,0,.38.17.38.38h0v7.24c0,.21-.17.38-.38.38Z"/>
      <path class="cls-2" d="M428.75,701.95c-2.78,0-4.3-.01-4.54-.04-.16-.02-.29-.15-.29-.32l-.02-36.54c0-.17-.14-.31-.31-.31h-11.59c-.23,0-.42-.19-.42-.42h0v-7.3c0-.15.12-.27.26-.27h0c.42-.02,6.05-.02,16.89-.02s16.48,0,16.9.02c.14,0,.26.12.26.26v7.31c0,.23-.19.41-.42.41h-11.59c-.17,0-.31.15-.31.32l-.02,36.54c0,.16-.12.3-.28.32-.25.03-1.77.04-4.54.04Z"/>
    </g>
  </g>
</svg>