<?xml version="1.0" encoding="UTF-8"?>
<svg id="Camada_2" data-name="Camada 2" xmlns="http://www.w3.org/2000/svg" xmlns:xlink="http://www.w3.org/1999/xlink" viewBox="0 0 715.43 703.93">
  <defs>
    <style>
      .cls-1 {
        fill: #fff;
      }

      .cls-2 {
        fill: url(#Gradiente_sem_nome_40-2);
      }

      .cls-3 {
        fill: url(#Gradiente_sem_nome_40);
      }
    </style>
    <linearGradient id="Gradiente_sem_nome_40" data-name="Gradiente sem nome 40" x1="357.72" y1="24.67" x2="357.72" y2="701.99" gradientUnits="userSpaceOnUse">
      <stop offset="0" stop-color="#fcfcfc"/>
      <stop offset=".9" stop-color="#3a3a3a" stop-opacity="0"/>
    </linearGradient>
    <linearGradient id="Gradiente_sem_nome_40-2" data-name="Gradiente sem nome 40" x1="357.72" y1="28.3" x2="357.72" y2="743.73" xlink:href="#Gradiente_sem_nome_40"/>
  </defs>
  <g id="Camada_1-2" data-name="Camada 1">
    <g>
      <path class="cls-3" d="M696.08,342.29c-.84-20.88-3.69-41.49-8.56-61.83-4.47-18.38-10.31-36.37-17.54-53.98-7.91-18.74-17.47-36.66-28.69-53.77-10.36-15.94-22.01-30.84-34.95-44.68-14.36-15.37-29.16-28.83-45.11-40.62-9.77-7.22-18.04-12.96-24.81-17.23-5.4-3.4-12.83-7.57-22.3-12.52-50.53-26.42-106.38-39.31-163.6-38.17-53.76,1.07-104.66,14.33-152.68,39.79-23.46,12.44-45.29,27.93-64.54,44.88-22.13,19.49-42.38,42.58-58.7,67.6-11.36,17.24-21.07,35.36-29.12,54.38-7.74,18.65-13.87,37.82-18.39,57.52-.27,1.35-.55,2.75-.85,4.19-4.04,19.46-6.35,39.16-6.93,59.11-.53,7.53-.15,15.02.15,23.32.8,23.29,4.29,46.41,9.94,69.01,7.09,28.05,17.61,54.69,31.56,79.93,6.39,11.98,13.7,23.33,21.95,34.06.69.89,1.18,2.01,1.73,2.88.06.1.13.18.21.26.61.61,1.6.62,2.21,0,7.88-7.85,16.95-13.86,27.2-18.02,7.8-3.17,16.04-4.72,24.76-3.91,8.56.81,14.12,1.69,21.69,1.21,12.96-.83,21.94-7.1,26.95-18.81,2.31-5.4,3.95-11.01,4.91-16.82,1.33-8.06,2.02-16.19,2.1-24.37,0-.76.3-1.43.89-2.01-8.87-.43-20.49-1.67-23.48-12.17-.6-2.88-.91-5.82-.91-8.84-.06-34.71-.14-69.41-.23-104.1l.04-13.25s0-.07,0-.11c.06-.43.46-.72.88-.66.9.14,1.82,1.75,2.13,1.38,7.47-.66,10.76-.26,18.44-.13.68.01,1.23.57,1.23,1.25l.48,114.66,6.66.45c.11.25.38.38.63.31l1.99-.5c.26-.06.45-.29.46-.56l.3-6.02c-.07-3.21-.13-107.92.02-111.12.08-1.83.45-3.3,1.09-4.41,6.5-11.24,14.3-18.18,27.06-20.84,7.1-1.48,13.64-1.56,20.6-1.48,3.36.04,7.1.25,11.21.63,16.7,1.56,25.14,2.35,25.31,2.38,5.27.6,9.63.33,14.87-.57,13.43-2.3,17.74-14.85,18.76-27.33.45-5.55-.77-10.59-3.67-15.12-1.13-1.76-3.11-3.84-5.94-6.23-4.19-3.54-6.41-5.42-6.65-5.63-.02-.02-.04-.04-.06-.05-.6-.49-1.49-.4-1.98.21-.2.26-.49.84-.87,1.75-1.51,3.68-2.42,7.07-2.75,10.16-.5,4.77-1.28,9.74-2.35,14.92-1.11,5.39-4.36,10.37-9.82,10.97-6.49.7-9.99-5.22-10.76-11.06-.56-4.23-.7-7.57-.41-10.02.69-5.8,1.29-11.6,1.79-17.41.24-2.78.13-5.9-.32-9.37-1.03-7.88-1.99-14.24-2.87-19.08-.51-3.2-1.24-6.36-2.21-9.48-1.59-5.19-2.38-10.32-4.15-15.69-3.33-10.17-7.07-20.02-9.16-30.8-.84-5.48-1.52-15.02,6.44-15.31,2.14-.08,4.06.52,5.76,1.8,2.7,2.04,5.23,3.84,7.61,5.4.05.04.11.05.17.05.16,0,.28-.14.27-.3-.14-4.04-.49-8.2-1.04-12.49-1.16-8.85-1.28-17.96,7.13-23.59,8.6-5.75,17.46-10.88,26.59-15.38.34-.17.51-.56.39-.93-2.24-7.14-2.71-16.51,3.57-21.59,3.23-2.62,7.06-3.97,11.48-4.04.08,0,.16-.02.23-.04.34-.13.51-.52.38-.86-.5-1.28-1.2-3.04-2.11-5.25-1.42-3.47-1.16-6.12-.08-9.84,1.99-6.82,6.39-10.99,13.21-12.51.05-.01.1-.03.14-.05.4-.18.58-.65.41-1.05-1.45-3.28-3.49-8.02-2.93-11.67.55-3.54,1.49-6.23,2.84-8.07,5.35-7.3,14.63-9.54,23.43-7,7.55,2.18,12.45,8.64,12.17,16.66-.11,3.14-1.82,6.9-2.96,9.76,0,0,0,.01,0,.02-.23.59.06,1.25.65,1.48,6.19,2.44,11.43,4.54,13.26,11.77.39,1.52.36,4.02-.08,7.5-.32,2.53-1.7,5.17-2.44,7.8-.07.23.06.48.29.56.33.11,2.33.75,5.99,1.91,8.29,2.64,11.86,8.32,10.71,17.04-.4,3.01-1.03,5.57-1.9,7.67,0,.01,0,.02-.01.03-.11.3.05.63.35.74.92.33,1.64.64,2.16.93,1.99,1.12,9.01,5.06,21.06,11.83,4.46,2.51,7.23,4.43,8.3,5.76,4.14,5.09,4.26,12.4,3.17,18.7-.68,3.88-1.27,8.52-1.8,13.91,0,.1.01.19.06.28.13.25.43.34.68.21,2.74-1.48,5.57-3.3,8.47-5.48,2.21-1.66,7.95-2.75,10.1-.05,3.78,4.76,1.81,12.3,1.08,17.61-3.01,11.24-6.41,22.36-10.2,33.35-1.76,5.09-3.63,12.76-5.63,23.01-1.32,6.46-2.07,12.98-2.27,19.54-.24,7.93.98,16.92,1.92,25.31.18,1.56,0,3.81-.52,6.74-.63,6.95-6.37,13.81-13.86,10.76-4.31-1.76-6.29-7.42-7-11.7-1.66-10.08-2.67-15.89-3.02-17.44-.74-3.27-1.8-5.99-3.19-8.16-.2-.32-.61-.44-.95-.29-.78.33-1.59.86-2.44,1.58-.69.59-3.1,2.55-7.25,5.9-8.09,6.52-9.05,17.09-6.22,26.47,1.39,4.6,2.88,8.12,4.45,10.56,3.82,5.92,9.59,9.19,17.33,9.8,7.08.57,13.72.44,19.91-.38,11.21-1.49,21.14-2.38,29.79-2.68,3.7-.12,7.96.12,12.75.72,13.28,1.68,27.71,9.02,33.83,21.51,1,2.04,1.53,3.12,1.62,3.24.06.09.14.17.21.25v6.2h32.39v17.77c0,.4-.32.72-.72.73l-3.64.04-20.03-.04-6.46-.08s0,0,0,0c-.19,0-.35.16-.35.35v34c0,.4.33.73.73.73l18.14-.08c.5-.15.84-.18,1.02-.07.37.21.55.53.56.97.2,7.19.19,14.32-.03,21.39,0,.28-.24.51-.53.5l-13.39-.16h0l-6.17-.05c-.19,0-.34.15-.34.33v33.46c0,.42.35.77.77.77l28.19.15c.55.05,1.04-.01,1.46-.19.07-.03.15-.05.22-.05.32,0,.57.26.57.57v21.51s0,0,0,0c0,.49-.4.88-.89.87l-24.11-.11c.07.53.06,1.16-.04,1.91-.1.8-.15,1.44-.14,1.91.08,5.07.38,10.1.9,15.1.88,10,2.73,18.31,7.27,27.33,3.62,7.18,9.38,11.64,16.12,14.83,9.04,4.28,23.46,1.08,33.43.92,3.85-.06,7.95.37,12.31,1.29,14.44,3.05,26.84,9.87,37.21,20.45,1.15,1.18,2.2,1.14,3.14-.12,1.59-2.09,3.34-3.95,5.08-6.52,2.71-4,5.99-8.85,9.84-14.55,1.03-1.52,3.3-5.32,6.83-11.41,4.66-8.05,7.85-15.14,13.3-25.96.38-.77.94-2.2,1.66-4.29,3.73-8.24,7.16-16.99,10.3-26.26,5.61-16.59,10.16-33.26,12.94-50.15,1.61-8.73,2.77-16.41,3.48-23.05,1.76-16.54,2.29-33.68,1.58-51.41ZM521.29,415.2c.06.25-.13.6-.58,1.04.45-.44.64-.79.58-1.04ZM520.85,439.55c.11.97.28,1.93.5,2.87-.22-.94-.39-1.9-.5-2.87ZM646.7,334.11c-.18-.18-.41-.32-.7-.43.29.11.52.25.7.43ZM641.66,333.47s.18,0,.5-.02c-.32.01-.49.02-.5.02-5.14,0-10.56,0-16.27,0,5.71,0,11.14,0,16.27,0ZM590.95,334.34c.06-.15.13-.28.22-.38-.08.1-.15.24-.22.38ZM590.56,343.19c0,.59-.02,1.2-.03,1.83,0-.63.02-1.23.03-1.83ZM590.7,336.31c-.03,1.11-.06,2.32-.09,3.63.03-1.31.06-2.52.09-3.63ZM590.51,351.03c.03,1.06.11,2.11.22,3.14-.1-1.04-.18-2.08-.22-3.14ZM649.69,357.05h0c0,.28-.23.49-.5.49l-14.29-.39s-.05,0-.07,0l-.74-.07c-.07-.02-.15-.04-.23-.04-.41,0-.74.33-.74.73l.03,63.62-.29,50.74c0,.22-.18.4-.4.39l-22.56-.47c-.48.72-1.1.77-1.83.16-.28-.24-.45-.58-.46-.95l-.27-38.55-.06-73.57c0-.61-.44-1.14-1.04-1.25-.28-.05-.44-.08-.49-.08.26-.02.3.05.53-.13-.26-.23-.59-.32-1.01-.27-3.74.4-7.4.46-10.99.17h0c-.5-.23-.89-.51-1.18-.84-.14-.17-.22-.38-.22-.6v-20.8s0,0,0,0c0-.38.31-.68.69-.67l53.47.09h0l2.17-.09h0c.22,0,.41.17.42.39l.14,6.13-.09,15.9Z"/>
      <path class="cls-1" d="M121.69,379.76c-5.91.15-11.76.15-17.53.02-1.77-.04-3.45.26-5.05.91-.67.27-1.42-.05-1.69-.72-.05-.11-.08-.23-.09-.36-.14-1.38-.21-2.82-.2-4.3.02-4.78.03-9.53.05-14.25,0-1.15-.16-2.08-.47-2.78-.43-.96-1.09-1.6-1.99-1.91-4.36-1.63-5.22,1.63-5.25,5.01-.07,6.2-.09,9.61-.07,10.25.11,3.26.59,5.52,1.44,6.8,5.12,7.68,15.67,21.42,24.37,33.89,2.23,3.18,3.95,6.68,5.15,10.5,1.42,4.46,1.36,8.73,1.42,14.59.05,4.99.03,10.6-.06,16.83-.11,7.34-2.53,13.51-9.86,16.43-2.89,1.1-5.93,1.86-9.1,2.28-7.45.98-14.53.94-21.24-.1-2.8-.43-5.55-1.36-8.24-2.78-5.83-3.06-7.88-9.12-8.03-15.25-.13-5.54-.15-12.15-.04-19.84l.02-8.16c0-.55.45-1,1-1,.04,0,.07,0,.11,0l3.62.39,18.57.06c.5,0,.91.41.91.91,0,0,0,0,0,0-.04,6.75-.01,13.18.09,19.28.06,3.61,3.06,4.23,6.12,3.34.98-.47,1.49-1.52,1.56-3.16.1-2.56.11-7.52.03-14.87-.02-1.75-.54-3.36-1.56-4.82-8.35-11.83-15.33-21.54-20.95-29.14-3.94-5.34-7-9.92-8.49-15.96-.46-1.87-.76-4.37-.9-7.5-.33-8-.32-15.99.02-23.96.52-2.91,1.11-5.09,1.79-6.55,2.41-5.17,6.1-8.39,11.07-9.67,2.05-.53,3.36-.89,3.93-1.09,6.3-.76,12.91-.78,19.83-.05,14.25,1.5,20.02,9.06,19.9,23.09-.06,7.68-.13,15.54-.19,23.6Z"/>
      <path class="cls-1" d="M385.92,426.22h22.89c.22,0,.39.17.39.39.09,5.8.11,12.2.05,19.21-.02,3.19,1.57,4.61,4.77,4.26,1.33-.14,2.17-.44,2.53-.91.15-.2.28-.41.39-.64.33-.72.51-1.91.54-3.58.11-5.63.06-10.25-.14-13.84-.09-1.63-.82-3.17-1.79-4.53-12.21-17.11-19.77-27.62-22.68-31.54-3.22-4.33-5.38-8.56-6.47-12.68-1.93-7.24-.92-17.26-1.08-25.57-.1-4.69.33-8.42,1.28-11.19,2.25-6.54,7.19-10.53,14.81-11.99,7.05-1.35,14.26-1.5,21.62-.46,6.18.87,11.76,2.91,15.28,8.3,3.27,5,3.22,9.62,3.27,16.98.06,7.67.04,14.67-.05,20.99,0,.35-.29.63-.63.63h-22.4c-.53,0-.96-.43-.97-.96-.05-7.75-.07-13.78-.06-18.09,0-2.63-.6-4.79-3.4-5-3.78-.28-4.84,1.56-4.83,4.99,0,3.25,0,6.99-.03,11.23-.02,2.94.75,5.48,2.31,7.63,13.8,18.99,21.37,29.4,22.71,31.25,4.82,6.64,7.26,13.86,7.33,21.65.02,2.45.02,9.23,0,20.33,0,5.18-.85,10.21-4.26,13.94-3.92,4.29-11.39,5.87-17.4,6.31-8.71.64-19.71.48-27.05-3.64-6.16-3.45-7.56-10.05-7.56-16.61,0-10.38.02-19.15.06-26.32,0-.3.25-.54.54-.54Z"/>
      <path class="cls-1" d="M173.69,334.24l20.64.3c.56,0,1.01.47,1.01,1.04.13,38.74.09,74.94-.13,108.6,0,.8.06,1.84.2,3.1.38,3.39,4.39,3.5,6.8,2.34.92-.44,1.51-1.37,1.51-2.39v-111.6c0-.56.45-1.01,1-1.01h22.26c.33,0,.6.27.6.6h0c-.02,22.77-.02,62.83,0,120.17,0,1.72-.43,3.92-1.28,6.6-3.76,11.73-20.82,12.04-30.71,11.7-8.87-.43-20.49-1.67-23.48-12.17-.6-2.88-.91-5.82-.91-8.84-.06-34.71-.14-69.41-.23-104.1l.04-13.25c0-.43.35-.78.78-.77.04,0,.07,0,.11,0,.9.14,1.5.03,1.82-.34Z"/>
      <path class="cls-1" d="M649.78,341.16l-.09,15.9c0,.27-.22.49-.49.49,0,0,0,0,0,0l-14.29-.39s-.05,0-.07,0l-.74-.07c-.39-.13-.8.08-.93.47-.02.07-.04.15-.04.23l.03,63.62-.29,50.74c0,.22-.18.4-.4.39h0l-22.56-.47c-.37-.79-.56-1.7-.59-2.72-.1-4.62-.15-8.81-.14-12.58.1-32.82.16-65.74.19-98.76,0-.3-.24-.55-.55-.55-.02,0-.03,0-.05,0l-2.49.22c-.26-.23-.59-.32-1.01-.27-3.74.4-7.4.46-10.99.17-.5-.23-.89-.51-1.18-.84-.14-.17-.22-.38-.22-.6v-20.8c0-.38.3-.68.68-.68,0,0,0,0,0,0l53.47.09,2.17-.09c.22,0,.41.16.42.39h0s.14,6.13.14,6.13Z"/>
      <path class="cls-1" d="M312.28,398.32v-63.12c0-.32.26-.57.57-.57h22.34c.36,0,.66.3.66.67h0v136.04c0,.54-.44.98-.98.98h-22.03c-.25,0-.47-.18-.51-.43l-11.32-63.2c0-.1-.1-.17-.19-.16-.1,0-.17.1-.16.19h0v62.96c0,.35-.28.63-.63.63h-22.04c-.44,0-.8-.36-.8-.8v-136.29c0-.32.26-.57.57-.57h22.47c.18,0,.33.12.36.29,4.62,25.41,8.35,46.25,11.19,62.51.05.27.15.58.29.91.02.06.09.09.15.07.05-.02.08-.06.07-.11Z"/>
      <path class="cls-1" d="M540.62,334.63l4.67.23c.31.02.55.27.55.58v21.27c0,.4-.32.72-.72.73l-3.64.04-20.03-.04-6.46-.08c-.19,0-.35.15-.36.34,0,0,0,0,0,0v34c0,.4.33.73.73.73h0l18.14-.09c.5-.15.84-.18,1.02-.07.37.21.55.53.56.97.2,7.19.19,14.32-.03,21.39,0,.28-.24.51-.53.5l-13.39-.16-6.17-.05c-.19,0-.34.15-.34.33v33.46c0,.42.35.77.77.77l28.19.15c.55.05,1.04-.01,1.46-.19.29-.12.63.01.75.3.03.07.05.15.05.22v21.51c0,.49-.39.88-.88.88,0,0,0,0,0,0l-24.11-.11-28.84.03c-.48,0-.87-.39-.87-.87h0v-136.19c0-.35.28-.63.63-.63h48.84Z"/>
      <path class="cls-1" d="M609.91,472.06c-.48.72-1.1.77-1.83.15-.28-.24-.45-.58-.46-.95l-.27-38.55-.06-73.57c0-.61-.44-1.14-1.04-1.25-.28-.05-.44-.08-.49-.09.26-.02.3.05.53-.13l2.49-.22c.3-.03.57.2.59.5,0,.02,0,.03,0,.05-.03,33.02-.1,65.94-.19,98.76-.01,3.76.04,7.95.14,12.58.03,1.02.22,1.93.59,2.72Z"/>
      <path class="cls-2" d="M715.42,352.81c.19-18.56-1.63-36.56-4.62-54.98-.43-2.62-.82-4.64-1.18-6.07-.28-1.85-.61-3.68-.98-5.49-7.41-36.11-20.03-70.23-37.85-102.34-6.42-11.38-13.37-22.37-20.85-32.97-13.28-18.85-29.16-36.9-45.3-52.25-16.32-15.52-34.75-29.92-55.29-43.18-11.45-7.39-24.28-14.44-38.49-21.13-29.1-13.71-58.84-23.27-89.23-28.66-56.91-10.11-113.11-6.85-168.61,9.76-23.24,6.95-47.15,17.21-71.74,30.78-10.71,5.91-21.26,12.66-31.64,20.27-12.27,8.98-22.08,16.76-29.45,23.36-13.09,11.72-25.17,24.08-36.23,37.09-18.62,21.89-34.42,45.96-47.38,72.2C17.47,237.82,5.8,278.58,1.6,321.47c-.67,5.71-1.12,12.5-1.35,20.37-.31,11.09-.34,20.64-.06,28.66.14,4.64.21,9.39.57,13.89,3.31,40.28,13.03,78.91,29.16,115.89,5.54,12.54,10.11,21.84,13.7,27.91,3.14,5.3,5.72,9.76,7.73,13.36.51.9,3.63,5.81,9.36,14.73,3.79,5.9,7.73,10.21,12.49,15.3.05.05.1.1.16.14.59.46,1.44.35,1.9-.24,1.82-2.34,2.61-5.07,2.39-8.18-.02-.22-.08-.44-.2-.63-3.84-6.38-9.19-13.01-13.56-20.14-7.34-11.95-14.09-24.21-20.26-36.79-5.68-11.9-10.45-23.51-14.34-34.82-10.67-31.07-16.91-63.25-18.7-96.52-.7-16.82-.34-33.62,1.08-50.4,3.72-37.27,13.16-73.05,28.32-107.34,1.71-3.87,3.47-7.71,5.28-11.5,31.8-64.8,82.76-118,145.89-152.62,43.99-24.12,93.45-38.53,143.24-41.75,11.66-.75,26.09-.84,43.31-.26,3.09.1,6.09.34,9.02.7.22.03,3.22.33,9.02.93,40.26,4.11,78.9,15.27,115.92,33.49,62.69,30.86,114.8,80.15,149.27,140.88,18.47,32.83,31.33,67.71,38.56,104.65.63,4.09,1.27,8.17,1.92,12.23,1.69,10.67,2.85,20.75,3.48,30.25.34,5.08.51,11.3.52,18.68.02,10.39,0,16.62-.05,18.7-.46,19.87-3.32,41.15-8.57,63.82-.74,2.51-1.43,5.04-2.06,7.57-7.73,31.11-19.99,60.87-36.18,88.52-5.19,8.88-13.06,20.32-17.71,27.3-2.11,3.17-4.1,6.33-3.03,9.54.48,1.44,1.15,3.06,2,4.84.06.12.14.24.23.33.49.51,1.31.52,1.82.03,2.23-2.16,4.26-4.49,6.1-6.99,6.28-8.51,12.05-17.08,17.31-25.69,2.95-4.83,6.24-10.72,9.87-17.67,4.42-8.44,7.4-14.49,8.95-18.17,5.12-12.12,8.28-19.81,9.47-23.06,4.98-13.59,9.13-27.43,12.44-41.52,4.61-19.41,7.6-39.04,8.99-58.91.65-9.33.33-19.8.41-28.18Z"/>
      <rect class="cls-1" x="142.23" y="550.89" width="3.71" height="32.67" rx="1.01" ry="1.01"/>
      <path class="cls-1" d="M174.34,563.38c-.04-.15-.19-.25-.34-.21-.13.03-.22.14-.22.27v19.25c0,.53-.43.96-.96.96h-1.87c-.54,0-.98-.44-.98-.98h0v-31.33c0-.25.2-.45.45-.45h2.6c.45,0,.83.3.94.74l3.51,14.03c.03.09.12.14.21.11.07-.02.12-.09.12-.16v-13.7c0-.53.43-.97.97-.97h2.08c.38,0,.68.3.68.68h0v31.4c0,.32-.26.59-.58.59-.04,0-.08,0-.12-.01-.63-.13-1.34-.11-2.11.07-.41.09-.82-.17-.91-.59-.01-.06-.02-.13-.02-.2.15-3.53,0-6.05-.44-7.54-1.49-5.05-2.49-9.04-3.01-11.97Z"/>
      <path class="cls-1" d="M276.51,551.61c0-.32.24-.58.56-.61,1.66-.14,4.11-.13,7.37.05,2.38.13,3.46,1.59,3.64,3.94.24,2.99.27,6.54.09,10.66-.08,1.61-.67,2.97-1.61,4.09-.24.29-.35.67-.28,1.04l2.19,12.14c.06.33-.16.64-.49.7-.04,0-.07,0-.11,0h-1.95c-.47,0-.87-.33-.96-.79-1.4-7.56-2.14-11.52-2.22-11.86-.2-.75-.76-1-1.69-.77-.4.1-.69.46-.69.87v11.76c0,.43-.34.78-.77.78h-2.34c-.39,0-.7-.31-.7-.7l-.03-31.32ZM280.33,555.47l-.02,10.63c0,.37.3.67.67.67h1.42c1.15,0,2.09-.96,2.09-2.14l.02-7.71c0-1.18-.94-2.14-2.09-2.14h-1.42c-.37,0-.67.3-.67.67Z"/>
      <path class="cls-1" d="M213.79,575.76h2.26c.31,0,.58.21.66.51.78,3.05-.29,6.87-3.95,7.22-7.61.74-7.35-3.01-7.39-9.08-.07-9.57-.01-16.02.17-19.35.22-4.09,3.39-4.19,7.01-4.06,4.65.17,4.48,5.01,4.22,8.37-.04.5-.46.89-.96.89h-1.91c-.47,0-.85-.38-.86-.86v-2.72c0-1.01-.83-1.83-1.85-1.83-.03,0-.07,0-.1,0h-.09c-1.02.03-1.83.86-1.84,1.88-.04,7.44-.04,14.49.02,21.14,0,1.04.64,1.64,1.9,1.79.79.09,1.53-.43,1.7-1.21l.52-2.31c.05-.23.26-.39.5-.39Z"/>
      <path class="cls-1" d="M252.71,579.05c0,2.47-2,4.47-4.47,4.47h-3.68c-2.47,0-4.47-2-4.47-4.47h0v-23.63c0-2.47,2-4.47,4.47-4.47h3.68c2.47,0,4.47,2,4.47,4.47v23.63ZM248.95,556.42c0-.86-.7-1.55-1.56-1.55h-2c-.86,0-1.55.7-1.55,1.56l.04,21.5c0,.86.7,1.55,1.56,1.55h2c.86,0,1.55-.7,1.55-1.56h0s-.04-21.5-.04-21.5Z"/>
      <path class="cls-1" d="M313.21,583.47c-.73,0-1.32-.59-1.32-1.32v-30.56c0-.36.28-.65.63-.65,1.91-.04,4.06,0,6.44.11,2.81.13,4.24,1.73,4.3,4.77.06,3.04.09,6.14.09,9.28,0,5.36-1.66,7.16-7.17,6.49-.26-.03-.5.15-.54.41,0,.02,0,.04,0,.07v10.41c0,.55-.45,1-1.01,1h-1.43ZM319.5,556.05c0-.65-.52-1.17-1.17-1.17h-1.47c-.65,0-1.17.52-1.17,1.17v10.59c0,.65.52,1.17,1.17,1.17h1.47c.65,0,1.17-.52,1.17-1.17h0v-10.59Z"/>
      <path class="cls-1" d="M359.25,579.12c0,2.43-1.97,4.4-4.4,4.4h-3.82c-2.43,0-4.4-1.97-4.4-4.4h0v-23.74c0-2.43,1.97-4.4,4.4-4.4h3.82c2.43,0,4.4,1.97,4.4,4.4h0v23.74ZM355.5,556.5c0-.88-.72-1.59-1.6-1.59h-2.03c-.88,0-1.59.72-1.59,1.6h0l.04,21.39c0,.88.72,1.59,1.6,1.59h2.03c.88,0,1.59-.72,1.59-1.6l-.04-21.39Z"/>
      <path class="cls-1" d="M383.63,551.1c1.65-.14,4.09-.13,7.32.05,2.37.13,3.44,1.58,3.62,3.92.23,2.98.26,6.51.07,10.59-.08,1.6-.67,2.95-1.6,4.06-.24.29-.35.67-.28,1.04l2.16,12.07c.06.33-.16.64-.49.7-.03,0-.07,0-.1,0h-1.94c-.47,0-.87-.33-.95-.79-1.38-7.52-2.12-11.45-2.2-11.79-.19-.74-.75-1-1.68-.77-.4.1-.69.46-.69.87v11.68c0,.43-.35.78-.78.78h-2.32c-.38,0-.7-.31-.7-.7v-31.13c0-.31.24-.58.56-.6ZM386.89,555.39l.03,10.74c0,.36.29.65.65.65,0,0,0,0,0,0h1.24c1.21-.01,2.18-1.04,2.17-2.31h0s-.03-7.45-.03-7.45c0-1.27-.98-2.29-2.19-2.29h-1.24c-.36.01-.64.3-.64.66Z"/>
      <path class="cls-1" d="M424.12,550.95c4.74,0,5.94,1.69,5.96,6.41.02,8.31-.01,16.72-.09,25.24,0,.56-.46,1.01-1.02,1.01h-1.71c-.51,0-.92-.41-.92-.91h0l-.06-10.63c0-.26-.18-.49-.43-.56-.03-.01-.6-.02-1.73-.02s-1.7,0-1.72.02c-.25.07-.42.3-.43.56l-.06,10.63c0,.5-.41.91-.91.91h-1.71c-.56,0-1.02-.45-1.03-1.01h0c-.08-8.52-.12-16.94-.1-25.24.02-4.72,1.21-6.41,5.96-6.41ZM422.58,567.71h3.13c.32,0,.57-.26.57-.57l-.02-10.32c0-1.11-.74-2.02-1.66-2.02h-.96c-.91,0-1.66.9-1.66,2.02h0s.02,10.32.02,10.32c0,.32.26.57.57.57Z"/>
      <path class="cls-1" d="M453.9,551.33c0-.18.15-.33.33-.33h6.71c2.69.01,4.86,2.3,4.86,5.11h0s-.05,22.43-.05,22.43c0,2.82-2.19,5.1-4.88,5.09h-6.71c-.18,0-.32-.15-.33-.33l.06-31.98ZM461.94,556.05c0-.63-.51-1.14-1.14-1.13h-2.07c-.63,0-1.14.52-1.13,1.15l.08,22.36c0,.63.51,1.14,1.14,1.13h2.07c.63,0,1.14-.52,1.13-1.15l-.08-22.36Z"/>
      <path class="cls-1" d="M502.05,579.05c0,2.47-2,4.47-4.47,4.47h-3.76c-2.47,0-4.47-2-4.47-4.47h0v-23.62c0-2.47,2-4.47,4.47-4.47h3.76c2.47,0,4.47,2,4.47,4.47v23.62ZM498.24,556.35c0-.79-.64-1.42-1.43-1.42h-2.24c-.79,0-1.42.64-1.42,1.43l.04,21.7c0,.79.64,1.42,1.43,1.42h2.24c.79,0,1.42-.64,1.42-1.43l-.04-21.7Z"/>
      <path class="cls-1" d="M525.86,551.65c0-.31.24-.58.56-.6,1.65-.14,4.1-.13,7.34.05,2.37.13,3.44,1.58,3.63,3.92.23,2.99.26,6.53.07,10.63-.08,1.6-.67,2.96-1.6,4.07-.25.29-.36.68-.29,1.05l2.17,12.1c.06.33-.16.64-.49.7-.03,0-.07,0-.1,0h-1.94c-.47,0-.87-.33-.96-.79-1.39-7.54-2.12-11.48-2.21-11.82-.19-.75-.75-1.01-1.68-.77-.41.09-.7.46-.7.88v11.71c0,.43-.34.78-.77.78h-2.34c-.38,0-.7-.31-.7-.7h0v-31.22ZM529.68,555.68v10.23c0,.45.37.82.82.82h1.32c1.1,0,1.99-1,1.99-2.24v-7.38c0-1.24-.89-2.24-1.99-2.24h-1.32c-.45,0-.82.37-.82.82Z"/>
      <path class="cls-1" d="M566.92,571.46c-1.12,0-1.69,0-1.72.02-.25.07-.42.3-.43.56l-.05,10.62c0,.5-.41.91-.91.91h-1.71c-.56,0-1.02-.44-1.02-1.01-.09-8.51-.13-16.92-.12-25.21,0-4.71,1.21-6.4,5.94-6.41,4.74,0,5.94,1.68,5.95,6.4.03,8.3,0,16.7-.07,25.21,0,.56-.46,1.01-1.02,1.01h-1.71c-.51,0-.92-.41-.92-.91l-.06-10.62c0-.26-.18-.49-.43-.56-.03-.01-.6-.02-1.73-.02ZM565.18,567.68l3.56-.02c.21,0,.37-.17.37-.37l-.04-10.37c0-1.18-.79-2.13-1.75-2.13h-.82c-.96,0-1.74.96-1.73,2.14h0s.04,10.37.04,10.37c0,.21.17.37.37.37h0Z"/>
      <path class="cls-1" d="M357.22,695.68c87.36.08,169.88-32.86,233.32-92.7,13.96-13.17,26.71-27.39,38.24-42.67.1-.13.29-.16.42-.07.02.02.04.03.05.05l4.47,5.41c.39.47.4,1.15.03,1.63-10.88,14.34-23.35,28.17-37.42,41.47-41.46,39.2-89.75,66.63-144.85,82.29-30.63,8.71-62.79,12.85-94.28,12.83-31.48-.03-63.64-4.24-94.26-13-55.07-15.76-103.31-43.28-144.71-82.55-14.04-13.33-26.49-27.18-37.34-41.54-.37-.48-.36-1.16.03-1.63l4.49-5.4c.1-.13.29-.15.42-.04.02.02.04.04.05.06,11.5,15.3,24.23,29.55,38.17,42.75,63.33,59.94,145.79,93.03,233.15,93.11Z"/>
    </g>
  </g>
</svg>