<?xml version="1.0" encoding="UTF-8"?>
<svg id="Camada_2" data-name="Camada 2" xmlns="http://www.w3.org/2000/svg" viewBox="0 0 1225.25 264.28">
  <defs>
    <style>
      .cls-1 {
        fill: #fff;
      }
    </style>
  </defs>
  <g id="Camada_1-2" data-name="Camada 1">
    <g>
      <path class="cls-1" d="M151.11,263.56L.2,2.19C-.21,1.5.02.61.72.2.94.07,1.19,0,1.45,0h301.82c.8,0,1.45.65,1.45,1.45,0,.26-.07.51-.2.74l-150.91,261.37c-.41.69-1.3.92-1.99.51-.21-.13-.39-.3-.51-.51ZM19.01,10.4c-.58,0-1.06.46-1.06,1.04,0,.19.05.38.15.55l133.37,231.01c.28.51.92.69,1.43.4.17-.09.31-.23.4-.4L286.67,11.99c.28-.51.1-1.15-.4-1.43-.16-.09-.33-.13-.51-.13l-266.74-.02Z"/>
      <path class="cls-1" d="M880.28,99.46c.09,33.06,22.93,55.79,54.72,58.79,13.51,1.28,27.4-1.08,41.68-7.09,1.02-.43,2.21.05,2.64,1.07.1.25.16.52.16.78v5.03c0,1.56-.94,2.96-2.39,3.56-48.23,19.86-109.19-2.82-109.32-62.12-.16-59.3,60.71-82.28,109.03-62.64,1.44.59,2.39,1.98,2.39,3.53l.04,5.03c.01,1.11-.88,2.02-1.99,2.04-.28,0-.55-.05-.81-.16-14.3-5.95-28.2-8.25-41.7-6.89-31.77,3.15-54.54,25.97-54.45,59.06Z"/>
      <path class="cls-1" d="M389.95,152.47c.57,0,1.17-.82,1.81-2.46,15.48-39.19,30.97-78.05,46.46-116.57.4-1.03,1.41-1.7,2.53-1.7h8.93c.69,0,1.25.56,1.26,1.26,0,.16-.03.33-.09.48l-53.87,131.89c-.24.61-.76,1.07-1.41,1.23-.54.15-2.42.22-5.64.22-3.21-.01-5.08-.09-5.61-.22-.64-.16-1.17-.62-1.41-1.23l-53.75-131.94c-.26-.65.05-1.39.69-1.65.15-.06.31-.09.47-.09h8.93c1.12,0,2.12.67,2.53,1.7,15.47,38.54,30.92,77.41,46.35,116.61.64,1.64,1.25,2.46,1.83,2.46Z"/>
      <path class="cls-1" d="M484.44,43.69v47.54c0,.68.55,1.23,1.23,1.23h74.47c.68,0,1.23.55,1.23,1.23v8.63c0,.68-.55,1.23-1.23,1.23h-74.47c-.68,0-1.23.55-1.23,1.23v50.24c0,.68.55,1.23,1.23,1.23h83.95c.68,0,1.23.55,1.23,1.23v8.32c0,.68-.55,1.23-1.23,1.23h-95.83c-.68,0-1.23-.55-1.23-1.23h0V32.75c0-.68.55-1.23,1.23-1.23h95.83c.68,0,1.23.55,1.23,1.23v8.48c0,.68-.55,1.23-1.23,1.23h-83.95c-.68,0-1.23.55-1.23,1.23Z"/>
      <path class="cls-1" d="M700.9,166.75h-14.34c-.17,0-.33-.09-.43-.25l-28.86-43.53c-.38-.57-1.02-.92-1.7-.92h-48.54c-.41,0-.74.33-.74.74h0v43.06c0,.53-.43.96-.96.96h-9.6c-.53,0-.96-.43-.96-.96h0V32.57c0-.47.38-.85.85-.85h0c3.28,0,21.3,0,54.05.02,26.13.02,48.9,13.27,50.38,41.12,1.14,21.59-7.76,37.92-28.14,45.21-1.1.4-1.67,1.62-1.27,2.74.06.15.13.3.22.44l30.09,45.39s.02.07,0,.09c-.01,0-.03.02-.04.02ZM606.16,42.64l.22,68.5c0,.35.28.63.63.63l44.02-.16c19.92-.06,36.02-14.04,35.97-31.23h0s-.04-7.52-.04-7.52c-.05-17.18-16.24-31.07-36.15-31l-44.02.16c-.35,0-.63.28-.63.63Z"/>
      <path class="cls-1" d="M755.41,31.54c18.06-.06,36.21-.07,54.45-.02.93,0,1.68.75,1.68,1.68v7.54c0,.94-.76,1.7-1.7,1.7h-47.65c-.52,0-.94.42-.94.94v121.65c0,.99-.79,1.8-1.77,1.81h-4.03c-1.92.01-3.27.01-4.03,0-.98-.01-1.77-.82-1.77-1.81l-.11-121.65c0-.52-.42-.94-.94-.94l-47.65.04c-.94,0-1.7-.76-1.7-1.7v-7.54c0-.93.75-1.68,1.68-1.68,18.24-.06,36.4-.07,54.47-.02Z"/>
      <rect class="cls-1" x="828.11" y="31.68" width="11.95" height="135.16" rx=".7" ry=".7"/>
      <path class="cls-1" d="M1053.98,31.72c1.8,0,3.57.12,5.3.36.81.1,1.51.62,1.83,1.36l57.63,131.76c.25.58-.01,1.25-.58,1.5-.14.06-.3.09-.45.09h-9.24c-1.01,0-1.92-.6-2.33-1.52l-14.7-33.62c-.32-.73-1.05-1.21-1.86-1.23-14.26-.04-26.13-.07-35.61-.07s-21.36.02-35.61.07c-.81.02-1.53.5-1.86,1.23l-14.7,33.62c-.41.92-1.32,1.52-2.33,1.52h-9.24c-.62,0-1.12-.5-1.12-1.13,0-.16.03-.32.09-.46l57.63-131.76c.32-.74,1.01-1.26,1.81-1.36,1.74-.24,3.52-.36,5.32-.36ZM1022.46,117.71c-.23.53,0,1.15.54,1.39.14.06.29.09.45.09h61.2c.58.01,1.06-.45,1.07-1.03,0-.15-.03-.31-.09-.45l-30.62-71.61c-.23-.53-.86-.77-1.39-.54-.24.11-.43.3-.54.54l-30.62,71.61Z"/>
      <path class="cls-1" d="M1224.33,166.72h-82.97c-.51,0-.92-.41-.92-.92V32.62c0-.51.41-.92.92-.92h9.71c.51,0,.92.41.92.92v123.21c0,.51.41.92.92.92h71.43c.51,0,.92.41.92.92v8.14c0,.51-.41.92-.92.92Z"/>
      <path class="cls-1" d="M491.51,246.43c3.98-.02,7.38-1.81,7.58-6.26.22-4.73.24-11.69.04-20.89-.02-1.12.87-2.06,1.99-2.08.02,0,.03,0,.05,0h.49c1.09,0,1.99.88,2.01,1.99.21,7.29.22,14.05.04,20.27-.22,7.11-5.44,11.07-12.19,11.12-6.73.07-12.01-3.83-12.35-10.94-.27-6.22-.35-12.97-.25-20.27.01-1.1.88-1.99,1.97-2.01h.49c1.12-.02,2.06.87,2.08,1.99,0,.02,0,.03,0,.05-.06,9.2.05,16.17.34,20.89.29,4.45,3.71,6.2,7.7,6.15Z"/>
      <path class="cls-1" d="M613.32,248.24c.33.51.19,1.19-.31,1.52-.18.12-.39.18-.61.18h-2.06c-.94,0-1.81-.47-2.33-1.25l-7.14-10.78c-.79-1.21-2.41-1.55-3.62-.76-.74.48-1.19,1.31-1.19,2.19v8.9c0,1.03-.83,1.86-1.86,1.86h-.94c-.95,0-1.72-.77-1.72-1.72h0v-30.11c0-.45.36-.82.81-.83,6.02-.18,15.99-1.28,19.26,3.49,2.66,3.89,3.04,12.64-2.82,14.41-1.28.39-2.05,1.04-2.3,1.95-.09.3-.04.62.13.87l6.69,10.09ZM595.94,222.89v8.55c0,.88.71,1.59,1.59,1.59h5.82c3,0,5.44-2.12,5.44-4.74v-2.24c0-2.62-2.43-4.74-5.44-4.74h-5.82c-.88,0-1.59.71-1.59,1.59Z"/>
      <path class="cls-1" d="M719.95,233.52s.04.47.09.51c.97,1.1,1.8,2.17,2.51,3.2.43.62.71,1.33.83,2.08.92,5.58-1.51,9.08-7.29,10.51-.1.01-.21.02-.31.02l-13.74.25c-.7.01-1.29-.54-1.3-1.23,0-.02,0-.03,0-.05.01-5.15-.01-10.14-.09-14.99-.07-4.85-.19-9.85-.36-15.01-.02-.69.53-1.27,1.23-1.3,0,0,0,0,0,0l13.74-.18c.1,0,.21,0,.31,0,5.83,1.25,8.37,4.68,7.63,10.29-.09.75-.35,1.47-.76,2.1-.67,1.04-1.48,2.13-2.42,3.27-.04.04-.07.51-.07.51ZM705.26,223.12v6.4c.01.99.82,1.79,1.81,1.79h6.46c2.62,0,4.74-1.84,4.74-4.12,0,0,0-.01,0-.02v-1.79c-.01-2.27-2.13-4.09-4.74-4.09h-6.46c-1,0-1.81.81-1.81,1.81,0,0,0,.01,0,.02ZM705.26,236.67v8.23c-.01.84.66,1.53,1.5,1.54,0,0,.02,0,.02,0h5.57c3.78,0,6.86-2.33,6.87-5.21v-.81c.01-2.89-3.05-5.24-6.84-5.26,0,0-.02,0-.02,0h-5.57c-.83,0-1.51.67-1.52,1.5Z"/>
      <path class="cls-1" d="M934.44,234.93c-1.69-2.51-3.61-5.38-5.77-8.63-.19-.26-.55-.32-.81-.13-.14.1-.23.27-.24.44v21.88c0,.89-.72,1.61-1.61,1.61h-1.28c-.91,0-1.66-.74-1.66-1.66h0v-28.7c.02-1.57,1.31-2.82,2.88-2.8.94.01,1.81.49,2.33,1.28,3.31,5.13,6.44,9.89,9.4,14.29,1.67,2.51,3.59,5.38,5.77,8.63.19.26.55.32.81.13.14-.1.23-.27.24-.44v-21.88c0-.89.72-1.61,1.61-1.61h1.28c.91,0,1.66.74,1.66,1.66v28.7c-.02,1.57-1.31,2.82-2.88,2.8-.94-.01-1.81-.49-2.33-1.28-3.31-5.13-6.44-9.89-9.4-14.29Z"/>
      <path class="cls-1" d="M822.3,217.55c1.69,0,2.83.81,3.42,2.44,3.47,9.54,6.96,18.92,10.45,28.14.16.45-.04.94-.47,1.12l-1.41.63c-1.02.45-2.21-.01-2.65-1.03,0,0,0-.01,0-.02l-2.04-4.63c-.34-.77-1.11-1.26-1.95-1.25-1.76.01-3.54.02-5.35.02s-3.59,0-5.35-.02c-.84,0-1.61.48-1.95,1.25l-2.04,4.63c-.44,1.02-1.62,1.5-2.64,1.06,0,0-.01,0-.02,0l-1.41-.63c-.43-.18-.63-.67-.47-1.12,3.49-9.22,6.96-18.6,10.42-28.14.6-1.63,1.74-2.44,3.44-2.44ZM817.2,237.64c-.21.58.09,1.22.67,1.43.11.04.24.06.36.07l8.08.13c.62,0,1.12-.49,1.13-1.1,0-.13-.02-.25-.06-.37l-3.87-11.5c-.2-.58-.84-.89-1.43-.69-.31.11-.56.35-.68.66l-4.21,11.36Z"/>
      <path class="cls-1" d="M1048.37,242.98c-1.82,0-3.61,0-5.37-.02-.84,0-1.6.48-1.95,1.25l-2.06,4.65c-.45,1.02-1.64,1.49-2.66,1.05l-1.41-.63c-.44-.19-.64-.7-.47-1.14,3.5-9.23,7.01-18.63,10.51-28.21.6-1.64,1.75-2.46,3.47-2.46s2.83.82,3.42,2.46c3.46,9.59,6.93,19.01,10.42,28.25.17.44-.03.95-.47,1.14l-1.41.63c-1.03.45-2.23-.03-2.68-1.06,0,0,0-.01,0-.02l-2.04-4.65c-.34-.78-1.11-1.28-1.95-1.28-1.76.01-3.55.02-5.37.02ZM1043.31,237.66c-.21.57.08,1.2.65,1.41.12.05.25.07.38.07l8.01.11c.61,0,1.1-.48,1.11-1.08,0-.13-.02-.25-.06-.37l-3.85-11.39c-.2-.57-.82-.88-1.39-.68-.31.1-.55.34-.67.64l-4.18,11.3Z"/>
      <path class="cls-1" d="M662.78,232.51c0,.93-.76,1.65-1.7,1.61-.76-.03-1.43-.56-1.63-1.3-.15-.58.01-1.23.49-1.95.44-.66,1.29-.87,1.89-.49.08.05.15.11.21.17.49.52.74,1.17.74,1.95Z"/>
      <ellipse class="cls-1" cx="549.05" cy="232.22" rx="1.74" ry="1.97" transform="translate(-9.8 439.76) rotate(-43.3)"/>
      <circle class="cls-1" cx="764.74" cy="232.2" r="1.81"/>
      <circle class="cls-1" cx="868.6" cy="232.24" r="1.66"/>
      <circle class="cls-1" cx="983.18" cy="232.09" r="1.74"/>
    </g>
  </g>
</svg>