<svg width="25" height="25" viewBox="0 0 25 25" fill="none" xmlns="http://www.w3.org/2000/svg">
<circle cx="12.1196" cy="12.1196" r="12.1196" fill="#EFBF04"/>
<path d="M10.4779 14.5124C10.5952 14.3842 10.6543 14.3196 10.6551 14.3185C12.6925 12.2279 14.5819 10.2786 16.3233 8.47063C16.5006 8.28653 16.7045 8.23007 16.935 8.30126C17.279 8.40722 17.3838 8.77706 17.268 9.09003C17.2492 9.14103 17.1862 9.22217 17.079 9.33345C14.9521 11.5421 12.9184 13.6387 10.9779 15.6231C10.8605 15.743 10.75 15.8351 10.5929 15.8645C10.2276 15.9337 10.0598 15.7455 9.78041 15.4669C9.18174 14.8696 8.1741 13.8678 6.75748 12.4615C6.61429 12.3194 6.5341 12.2148 6.51692 12.1477C6.41546 11.7521 6.63229 11.4003 7.0549 11.3868C7.22073 11.3816 7.36515 11.4398 7.48815 11.5615C8.56821 12.6314 9.55526 13.6154 10.4493 14.5132C10.4512 14.5151 10.4535 14.5165 10.456 14.5175C10.4585 14.5185 10.4611 14.5189 10.4638 14.5188C10.4665 14.5188 10.4691 14.5182 10.4715 14.517C10.474 14.5159 10.4761 14.5144 10.4779 14.5124Z" fill="#03051F"/>
</svg>
