<svg width="53" height="47" viewBox="0 0 53 47" fill="none" xmlns="http://www.w3.org/2000/svg">
<path d="M7.84752 24.482C7.84179 24.482 7.83629 24.4842 7.83217 24.4882C7.82806 24.4922 7.82566 24.4976 7.82547 24.5033C7.82263 31.4825 7.82239 37.4885 7.82476 42.5213C7.82476 42.8404 7.79252 43.055 7.72804 43.165C7.61994 43.3489 7.43052 43.4407 7.1598 43.4402C5.47001 43.4369 4.01657 43.4385 2.79948 43.4452C2.49035 43.4471 2.28719 43.416 2.18999 43.352C1.92401 43.1778 1.86782 42.9374 1.86782 42.6024C1.86735 31.8672 1.86759 22.745 1.86854 15.2358C1.86854 15.2273 1.86516 15.2191 1.85916 15.2131C1.85316 15.2071 1.84502 15.2038 1.83653 15.2038C1.36952 15.2047 1.04308 15.2069 0.857221 15.2102C0.598822 15.2154 0.422211 15.1827 0.327385 15.112C0.0749126 14.9236 0.000237134 14.7628 0.000237134 14.4165C-0.00071112 13.7167 0.00118443 12.9024 0.00592571 11.9735C0.00734809 11.699 0.141289 11.4959 0.407748 11.3641C5.25238 8.96971 9.00866 7.12085 11.6766 5.81747C12.7618 5.2874 13.4813 4.93607 13.835 4.76349C17.0615 3.19128 20.2291 1.62761 23.338 0.0724735C23.5494 -0.0332569 23.7844 -0.0233014 24.0428 0.102342C25.019 0.57884 26.6995 1.38841 29.0844 2.53106C32.2527 4.04874 35.9687 5.84948 39.5083 7.59332C42.7447 9.18781 45.0321 10.3255 46.3706 11.0063C46.5868 11.1163 46.7362 11.1948 46.8186 11.2417C46.8418 11.2549 46.8628 11.2715 46.8812 11.2908C47.1678 11.5902 47.2973 11.6926 47.293 12.162C47.2864 12.9135 47.2857 13.6235 47.2909 14.292C47.2951 14.8972 47.1145 15.2166 46.4986 15.2031C46.4521 15.2021 46.1143 15.2042 45.4852 15.2095C45.4745 15.2096 45.4644 15.214 45.457 15.2216C45.4495 15.2292 45.4453 15.2394 45.4453 15.25C45.4415 17.7529 45.4413 21.4471 45.4446 26.3325C45.4453 27.2371 44.1325 27.262 44.1325 26.2969C44.133 22.3968 44.1322 18.595 44.1303 14.8916C44.1299 14.5374 44.1605 14.3183 44.2221 14.2344C44.4483 13.9243 44.6588 13.8859 45.0705 13.8895C45.4176 13.8919 45.7128 13.894 45.956 13.8959C45.9628 13.8959 45.9693 13.8932 45.9741 13.8884C45.9789 13.8836 45.9816 13.8771 45.9816 13.8703V12.5126C45.9815 12.5011 45.9783 12.4898 45.9721 12.48C45.9659 12.4702 45.9572 12.4623 45.9467 12.4572C38.3896 8.71487 33.6002 6.35087 31.5785 5.36516C30.302 4.74286 28.5546 3.89015 25.9068 2.60076C25.1487 2.23236 24.4133 1.90521 23.6971 1.53184C23.6907 1.52853 23.6837 1.52681 23.6765 1.52681C23.6693 1.52681 23.6622 1.52853 23.6559 1.53184L1.36217 12.4785C1.34788 12.4853 1.33582 12.496 1.32739 12.5094C1.31895 12.5227 1.31449 12.5382 1.31452 12.5539V13.8667C1.31452 13.8743 1.31751 13.8815 1.32285 13.8868C1.32818 13.8922 1.33542 13.8952 1.34297 13.8952C1.78533 13.8947 2.10015 13.8928 2.28743 13.8895C2.57807 13.8843 2.77151 13.9203 2.86776 13.9976C3.12308 14.2017 3.16717 14.3539 3.16717 14.7109C3.16812 21.6659 3.16812 30.7976 3.16717 42.106C3.16717 42.1171 3.17152 42.1278 3.17925 42.1357C3.18699 42.1435 3.19748 42.148 3.20842 42.148H6.56595C6.57991 42.148 6.5933 42.1424 6.60317 42.1325C6.61304 42.1227 6.61858 42.1093 6.61858 42.0953C6.62285 33.0788 6.62237 24.9291 6.61716 17.646C6.61716 17.3563 6.65319 17.1569 6.72526 17.0479C6.83431 16.8838 7.01424 16.8018 7.26505 16.8018C26.288 16.8037 37.1929 16.803 39.9798 16.7997C40.2553 16.7992 40.4454 16.8902 40.5502 17.0728C40.6114 17.178 40.642 17.3945 40.642 17.7221C40.6457 22.232 40.645 24.8236 40.6398 25.4968C40.6356 26.0501 40.6337 26.3785 40.6341 26.4818C40.6346 26.5119 40.6298 26.5418 40.6199 26.57C40.4938 26.9233 40.2522 27.0593 39.8952 26.9783C39.5169 26.8915 39.4408 26.5771 39.4457 26.2073C39.4514 25.792 39.4538 25.2375 39.4528 24.5438C39.4528 24.5274 39.4463 24.5117 39.4345 24.5001C39.4228 24.4885 39.4069 24.482 39.3903 24.482H7.84752ZM39.4486 18.0407C39.4486 18.0258 39.4427 18.0115 39.4321 18.001C39.4216 17.9904 39.4073 17.9845 39.3924 17.9845H7.88379C7.86889 17.9845 7.8546 17.9904 7.84406 18.001C7.83352 18.0115 7.82761 18.0258 7.82761 18.0407V19.9353C7.82761 19.9427 7.82906 19.95 7.83188 19.9568C7.8347 19.9636 7.83884 19.9698 7.84406 19.9751C7.84928 19.9803 7.85547 19.9844 7.86229 19.9872C7.8691 19.9901 7.87641 19.9915 7.88379 19.9915H39.3924C39.3998 19.9915 39.4071 19.9901 39.4139 19.9872C39.4207 19.9844 39.4269 19.9803 39.4321 19.9751C39.4373 19.9698 39.4415 19.9636 39.4443 19.9568C39.4471 19.95 39.4486 19.9427 39.4486 19.9353V18.0407ZM39.4507 21.2539C39.4507 21.2489 39.4497 21.244 39.4478 21.2395C39.4459 21.2349 39.4432 21.2307 39.4397 21.2272C39.4362 21.2237 39.432 21.2209 39.4274 21.2191C39.4229 21.2172 39.418 21.2162 39.413 21.2162H7.86174C7.85679 21.2162 7.85189 21.2172 7.84732 21.2191C7.84274 21.2209 7.83859 21.2237 7.83509 21.2272C7.83159 21.2307 7.82881 21.2349 7.82692 21.2395C7.82502 21.244 7.82405 21.2489 7.82405 21.2539V23.1826C7.82405 23.1926 7.82802 23.2022 7.83509 23.2093C7.84216 23.2163 7.85175 23.2203 7.86174 23.2203H39.413C39.423 23.2203 39.4326 23.2163 39.4397 23.2093C39.4467 23.2022 39.4507 23.1926 39.4507 23.1826V21.2539Z" fill="#F4F4F4"/>
<path d="M18.0767 13.192C18.0767 13.3502 18.0138 13.502 17.9019 13.6139C17.79 13.7258 17.6383 13.7887 17.48 13.7887H14.0791C13.9209 13.7887 13.7691 13.7258 13.6572 13.6139C13.5453 13.502 13.4824 13.3502 13.4824 13.192V9.95607C13.4824 9.79781 13.5453 9.64604 13.6572 9.53414C13.7691 9.42224 13.9209 9.35938 14.0791 9.35938H17.48C17.6383 9.35938 17.79 9.42224 17.9019 9.53414C18.0138 9.64604 18.0767 9.79781 18.0767 9.95607V13.192ZM16.9345 10.6011C16.9345 10.596 16.9335 10.5909 16.9316 10.5861C16.9296 10.5814 16.9267 10.5771 16.9231 10.5735C16.9195 10.5698 16.9151 10.5669 16.9104 10.565C16.9057 10.563 16.9006 10.562 16.8954 10.562H14.668C14.6576 10.562 14.6477 10.5661 14.6403 10.5735C14.633 10.5808 14.6289 10.5907 14.6289 10.6011V12.5668C14.6289 12.5772 14.633 12.5872 14.6403 12.5945C14.6477 12.6018 14.6576 12.606 14.668 12.606H16.8954C16.9006 12.606 16.9057 12.605 16.9104 12.603C16.9151 12.601 16.9195 12.5981 16.9231 12.5945C16.9267 12.5909 16.9296 12.5866 16.9316 12.5818C16.9335 12.5771 16.9345 12.572 16.9345 12.5668V10.6011Z" fill="#F4F4F4"/>
<path d="M25.9617 13.1783C25.9617 13.3414 25.8969 13.4979 25.7815 13.6133C25.6662 13.7287 25.5097 13.7935 25.3465 13.7935H21.9413C21.7782 13.7935 21.6217 13.7287 21.5064 13.6133C21.391 13.4979 21.3262 13.3414 21.3262 13.1783V9.97651C21.3262 9.81335 21.391 9.65688 21.5064 9.54151C21.6217 9.42614 21.7782 9.36133 21.9413 9.36133H25.3465C25.5097 9.36133 25.6662 9.42614 25.7815 9.54151C25.8969 9.65688 25.9617 9.81335 25.9617 9.97651V13.1783ZM24.8 10.5833C24.8 10.5803 24.7994 10.5773 24.7983 10.5746C24.7971 10.5718 24.7954 10.5693 24.7933 10.5672C24.7912 10.5651 24.7887 10.5634 24.7859 10.5623C24.7832 10.5611 24.7802 10.5605 24.7772 10.5605L22.5028 10.5645C22.4998 10.5645 22.4969 10.5651 22.4941 10.5663C22.4914 10.5674 22.4889 10.5691 22.4867 10.5712C22.4846 10.5733 22.483 10.5758 22.4818 10.5786C22.4807 10.5814 22.4801 10.5843 22.4801 10.5873L22.4836 12.5872C22.4836 12.5902 22.4842 12.5931 22.4854 12.5959C22.4865 12.5986 22.4882 12.6011 22.4903 12.6033C22.4924 12.6054 22.4949 12.607 22.4977 12.6082C22.5005 12.6093 22.5034 12.6099 22.5064 12.6099L24.7808 12.6059C24.7838 12.6059 24.7867 12.6053 24.7895 12.6042C24.7923 12.603 24.7948 12.6014 24.7969 12.5992C24.799 12.5971 24.8006 12.5946 24.8018 12.5918C24.8029 12.5891 24.8035 12.5861 24.8035 12.5831L24.8 10.5833Z" fill="#F4F4F4"/>
<path d="M33.8135 13.1897C33.8137 13.2683 33.7983 13.3462 33.7684 13.4189C33.7384 13.4916 33.6944 13.5577 33.6389 13.6134C33.5834 13.6691 33.5174 13.7134 33.4448 13.7436C33.3722 13.7738 33.2944 13.7894 33.2158 13.7896L29.8106 13.7955C29.7319 13.7956 29.6541 13.7803 29.5813 13.7503C29.5086 13.7203 29.4426 13.6764 29.3868 13.6208C29.3311 13.5653 29.2869 13.4994 29.2567 13.4268C29.2265 13.3542 29.2109 13.2764 29.2107 13.1977L29.2051 9.96323C29.2049 9.88459 29.2203 9.8067 29.2503 9.73399C29.2802 9.66129 29.3242 9.59519 29.3797 9.53949C29.4352 9.48379 29.5012 9.43957 29.5738 9.40934C29.6464 9.37912 29.7242 9.3635 29.8029 9.36336L33.208 9.35742C33.2867 9.35729 33.3646 9.37264 33.4373 9.40261C33.51 9.43257 33.5761 9.47657 33.6318 9.53208C33.6875 9.58758 33.7317 9.65352 33.7619 9.72612C33.7921 9.79872 33.8078 9.87656 33.8079 9.9552L33.8135 13.1897ZM32.6575 10.6055C32.6575 10.601 32.6566 10.5964 32.6548 10.5922C32.6531 10.588 32.6505 10.5841 32.6473 10.5809C32.6441 10.5776 32.6402 10.5751 32.636 10.5733C32.6318 10.5716 32.6273 10.5706 32.6227 10.5706L30.4038 10.5668C30.3945 10.5668 30.3856 10.5704 30.3791 10.5769C30.3726 10.5835 30.3689 10.5923 30.3689 10.6016L30.3654 12.5687C30.3654 12.5733 30.3663 12.5778 30.368 12.582C30.3698 12.5863 30.3724 12.5901 30.3756 12.5934C30.3788 12.5966 30.3826 12.5992 30.3869 12.6009C30.3911 12.6027 30.3956 12.6036 30.4002 12.6036L32.6191 12.6075C32.6284 12.6075 32.6372 12.6038 32.6438 12.5973C32.6503 12.5908 32.654 12.5819 32.654 12.5727L32.6575 10.6055Z" fill="#F4F4F4"/>
<path d="M44.5139 43.7398C44.5119 43.7296 44.5064 43.7203 44.4984 43.7137C44.4903 43.7071 44.4802 43.7035 44.4698 43.7035H32.9314C32.9213 43.7036 32.9116 43.707 32.9038 43.7132C32.896 43.7194 32.8907 43.7281 32.8888 43.7377C32.6512 44.8642 32.0503 45.647 31.0859 46.086C30.209 46.485 29.1422 46.4295 28.3258 45.9523C27.469 45.4516 26.957 44.7141 26.7896 43.7398C26.7881 43.7301 26.7831 43.7213 26.7755 43.7149C26.768 43.7085 26.7583 43.705 26.7484 43.7049C25.6925 43.6978 24.9846 43.6988 24.6247 43.7078C24.1347 43.7206 23.7798 43.5855 23.5956 43.158C23.5515 43.0552 23.5295 42.847 23.5295 42.5336C23.5361 37.9355 23.5354 33.3659 23.5274 28.8247C23.5264 28.4933 23.557 28.2719 23.6191 28.1604C23.8951 27.6619 24.3552 27.6903 24.8822 27.6903C30.1768 27.6922 36.0213 27.6913 42.4159 27.6875C42.7421 27.6875 42.9758 27.7226 43.1171 27.7928C43.4097 27.9383 43.555 28.205 43.5531 28.5928C43.5502 29.0888 43.5512 29.86 43.5559 30.9064C43.5561 30.93 43.5656 30.9526 43.5822 30.9693C43.5989 30.9859 43.6214 30.9952 43.6448 30.9953C45.9415 30.999 47.5312 30.9964 48.4141 30.9874C48.7076 30.9841 48.9129 31.009 49.03 31.0621C49.308 31.1887 49.4524 31.338 49.6231 31.6296C50.2319 32.6684 51.3221 34.5161 52.8939 37.1727C52.9693 37.2992 52.9991 37.5368 52.9984 37.706C52.9927 39.1327 52.993 40.7243 52.9991 42.481C53.0013 43.0535 52.9543 43.365 52.4942 43.616C52.3889 43.6734 52.2097 43.7023 51.9565 43.7028C51.6972 43.7033 51.2603 43.7033 50.6458 43.7028C50.6387 43.7027 50.6317 43.7053 50.6263 43.71C50.6208 43.7147 50.6171 43.7212 50.6159 43.7284C50.4476 44.6321 50.0109 45.3279 49.3059 45.8158C48.3906 46.448 47.1496 46.5383 46.1632 46.0234C45.2599 45.5512 44.7102 44.79 44.5139 43.7398ZM42.3185 28.9058H24.7656C24.7599 28.9058 24.7545 28.908 24.7505 28.912C24.7465 28.916 24.7442 28.9214 24.7442 28.9271V42.4796C24.7442 42.486 24.7467 42.4921 24.7511 42.4967C24.7555 42.5012 24.7615 42.5037 24.7677 42.5037H26.7981C26.8077 42.5038 26.817 42.5006 26.8245 42.4949C26.8321 42.4891 26.8376 42.4809 26.8401 42.4717C27.2903 40.8388 28.8663 39.8133 30.5362 40.2123C31.6392 40.4754 32.5346 41.3687 32.8169 42.481C32.8188 42.4883 32.8231 42.4949 32.829 42.4995C32.8349 42.5041 32.8422 42.5066 32.8497 42.5066H42.3099C42.3199 42.5066 42.3295 42.5027 42.3366 42.4958C42.3436 42.4888 42.3476 42.4794 42.3476 42.4696V28.9342C42.3476 28.9267 42.3445 28.9194 42.3391 28.9141C42.3336 28.9088 42.3262 28.9058 42.3185 28.9058ZM51.7737 38.4386C50.129 38.431 48.0526 38.4305 45.5444 38.4372C45.2462 38.4381 45.0345 38.3369 44.9093 38.1335C44.8392 38.0197 44.8045 37.8395 44.8055 37.593C44.8093 36.0639 44.81 34.7897 44.8076 33.7703C44.8069 33.4688 44.8787 33.2903 45.1085 33.1374C45.1947 33.0795 45.3728 33.0501 45.6426 33.0492C46.5444 33.0454 47.448 33.0451 48.3536 33.0485C48.6262 33.0499 48.8429 33.0451 49.0037 33.0342C49.009 33.0339 49.0141 33.0322 49.0185 33.0293C49.023 33.0264 49.0266 33.0224 49.0291 33.0177C49.0316 33.013 49.0329 33.0077 49.0328 33.0024C49.0327 32.9971 49.0312 32.9919 49.0285 32.9873L48.6289 32.2953C48.6122 32.2665 48.5882 32.2426 48.5594 32.226C48.5305 32.2094 48.4978 32.2007 48.4646 32.2007H43.595C43.5832 32.2007 43.5718 32.2054 43.5634 32.2138C43.555 32.2222 43.5502 32.2336 43.5502 32.2455V42.4625C43.5502 42.4746 43.555 42.4861 43.5636 42.4947C43.5721 42.5032 43.5837 42.508 43.5958 42.508H44.5345C44.5425 42.508 44.5502 42.5054 44.5564 42.5006C44.5626 42.4958 44.5669 42.4892 44.5687 42.4817C45.0644 40.5473 47.1979 39.5402 48.988 40.4932C49.777 40.9138 50.2994 41.5669 50.5555 42.4525C50.5604 42.4689 50.5704 42.4833 50.5841 42.4936C50.5978 42.5038 50.6145 42.5094 50.6316 42.5094H51.7417C51.7574 42.5094 51.7724 42.5032 51.7835 42.4921C51.7945 42.4811 51.8008 42.4661 51.8008 42.4504V38.4656C51.8008 38.4584 51.7979 38.4516 51.7928 38.4465C51.7878 38.4414 51.7809 38.4386 51.7737 38.4386ZM45.9676 37.2096C45.9676 37.2208 45.972 37.2314 45.9799 37.2393C45.9877 37.2472 45.9984 37.2516 46.0095 37.2516H51.4701C51.4775 37.2516 51.4848 37.2497 51.4912 37.246C51.4976 37.2423 51.5029 37.2369 51.5066 37.2305C51.5103 37.2241 51.5122 37.2168 51.5122 37.2094C51.5121 37.202 51.5101 37.1947 51.5063 37.1883L49.8137 34.2582C49.81 34.2519 49.8047 34.2467 49.7983 34.2431C49.7919 34.2394 49.7847 34.2375 49.7774 34.2376H46.0095C45.9984 34.2376 45.9877 34.242 45.9799 34.2499C45.972 34.2577 45.9676 34.2684 45.9676 34.2795V37.2096ZM31.7402 43.2384C31.7402 42.7295 31.538 42.2415 31.1782 41.8816C30.8184 41.5218 30.3303 41.3196 29.8214 41.3196C29.3125 41.3196 28.8245 41.5218 28.4646 41.8816C28.1048 42.2415 27.9026 42.7295 27.9026 43.2384C27.9026 43.7473 28.1048 44.2353 28.4646 44.5952C28.8245 44.955 29.3125 45.1572 29.8214 45.1572C30.3303 45.1572 30.8184 44.955 31.1782 44.5952C31.538 44.2353 31.7402 43.7473 31.7402 43.2384ZM49.478 43.2384C49.478 42.7297 49.2759 42.2418 48.9162 41.8821C48.5565 41.5224 48.0686 41.3203 47.5599 41.3203C47.0512 41.3203 46.5634 41.5224 46.2036 41.8821C45.8439 42.2418 45.6419 42.7297 45.6419 43.2384C45.6419 43.7471 45.8439 44.235 46.2036 44.5947C46.5634 44.9544 47.0512 45.1565 47.5599 45.1565C48.0686 45.1565 48.5565 44.9544 48.9162 44.5947C49.2759 44.235 49.478 43.7471 49.478 43.2384Z" fill="#F4F4F4"/>
<path d="M15.0834 29.2214C16.0871 29.2219 17.0996 29.2228 18.1209 29.2243C18.4589 29.2247 18.6616 29.2473 18.729 29.2918C18.9957 29.4675 19.0284 29.6801 19.0269 30.0279C19.0213 31.6006 19.0196 33.5445 19.022 35.8597C19.022 35.8719 19.0269 35.8837 19.0357 35.8924C19.0445 35.901 19.0565 35.9059 19.0689 35.9059H20.8341C20.8379 35.9059 20.8414 35.9064 20.8448 35.9073C21.1947 35.987 21.371 36.1927 21.3739 36.5246C21.3805 37.3619 21.3805 39.3621 21.3739 42.525C21.3732 42.9367 21.3461 43.1828 21.0026 43.3442C20.9519 43.368 20.8239 43.3803 20.6186 43.3812C20.1141 43.3836 18.2662 43.3838 15.0749 43.3819C11.8835 43.38 10.0356 43.3777 9.53113 43.3748C9.32583 43.3734 9.19782 43.3608 9.14709 43.3371C8.80358 43.175 8.77727 42.9289 8.77655 42.5171C8.77371 39.3542 8.77608 37.3541 8.78367 36.5168C8.78699 36.1849 8.96383 35.9794 9.31421 35.9002C9.31752 35.8993 9.32112 35.8988 9.32488 35.8988L11.0901 35.9009C11.0962 35.9009 11.1023 35.8997 11.108 35.8974C11.1137 35.8951 11.1189 35.8917 11.1232 35.8874C11.1276 35.8831 11.1311 35.878 11.1334 35.8724C11.1358 35.8668 11.137 35.8608 11.137 35.8547C11.1417 33.5395 11.1422 31.5956 11.1384 30.0229C11.1377 29.6752 11.1704 29.4625 11.4378 29.2876C11.5052 29.243 11.7078 29.2207 12.0459 29.2207C13.0667 29.2207 14.0792 29.2209 15.0834 29.2214ZM15.0877 35.9002C16.895 35.9012 17.7992 35.9016 17.8001 35.9016C17.8166 35.9014 17.8324 35.8948 17.8439 35.8831C17.8555 35.8713 17.862 35.8555 17.862 35.839L17.8656 30.4447C17.8656 30.4349 17.8618 30.4255 17.855 30.4185C17.8481 30.4116 17.8389 30.4077 17.8293 30.4077H16.3351C16.3242 30.4077 16.3137 30.412 16.3059 30.4198C16.2982 30.4275 16.2938 30.438 16.2938 30.4489L16.2903 31.7881C16.2903 31.7928 16.2898 31.7976 16.2889 31.8023C16.2576 31.9431 16.186 32.0527 16.0741 32.1309C15.902 32.2525 15.328 32.1956 15.0905 32.1949C14.853 32.1949 14.279 32.2511 14.1069 32.1295C13.995 32.0512 13.9237 31.9417 13.8929 31.8009C13.8919 31.7962 13.8914 31.7914 13.8914 31.7867L13.89 30.4475C13.89 30.4366 13.8857 30.4261 13.8779 30.4183C13.8702 30.4106 13.8597 30.4063 13.8488 30.4063L12.3546 30.4041C12.3449 30.4041 12.3357 30.408 12.3289 30.415C12.3221 30.4219 12.3183 30.4313 12.3183 30.4411L12.314 35.8355C12.314 35.852 12.3205 35.8678 12.3321 35.8795C12.3437 35.8912 12.3594 35.8979 12.3759 35.8981C12.3768 35.8981 13.2808 35.8988 15.0877 35.9002ZM15.3472 30.4494C15.3472 30.4442 15.3462 30.4391 15.3443 30.4344C15.3423 30.4296 15.3394 30.4253 15.3358 30.4217C15.3322 30.418 15.3279 30.4152 15.3231 30.4132C15.3184 30.4112 15.3133 30.4102 15.3082 30.4102L14.89 30.4095C14.8848 30.4094 14.8798 30.4104 14.875 30.4124C14.8703 30.4144 14.8659 30.4172 14.8623 30.4209C14.8587 30.4245 14.8558 30.4288 14.8538 30.4335C14.8518 30.4383 14.8508 30.4434 14.8508 30.4485L14.8495 31.2137C14.8494 31.2189 14.8505 31.224 14.8524 31.2287C14.8544 31.2335 14.8572 31.2378 14.8609 31.2414C14.8645 31.2451 14.8688 31.248 14.8735 31.2499C14.8783 31.2519 14.8834 31.2529 14.8885 31.2529L15.3067 31.2537C15.3118 31.2537 15.3169 31.2527 15.3217 31.2507C15.3264 31.2487 15.3307 31.2459 15.3344 31.2422C15.338 31.2386 15.3409 31.2343 15.3429 31.2296C15.3448 31.2248 15.3459 31.2197 15.3459 31.2146L15.3472 30.4494ZM17.9502 42.1502C19.3873 42.1487 20.1274 42.1471 20.1705 42.1452C20.1824 42.1448 20.1937 42.1399 20.2021 42.1314C20.2104 42.1229 20.2152 42.1116 20.2154 42.0997L20.2125 37.1363C20.2123 37.1256 20.208 37.1155 20.2004 37.1081C20.1928 37.1006 20.1826 37.0964 20.172 37.0964L19.0803 37.0971C19.0701 37.0971 19.0603 37.1012 19.0531 37.1084C19.0459 37.1156 19.0419 37.1254 19.0419 37.1356C19.0509 37.539 19.0504 37.8958 19.0405 38.2059C19.0291 38.5586 18.8563 38.7073 18.4893 38.7144C18.4258 38.7153 18.2449 38.7161 17.9466 38.7165C17.6484 38.7165 17.4678 38.7161 17.4047 38.7151C17.037 38.7094 16.8635 38.5608 16.8521 38.208C16.8417 37.8979 16.8403 37.5414 16.8479 37.1384C16.848 37.1334 16.8471 37.1283 16.8452 37.1236C16.8434 37.1189 16.8406 37.1147 16.8371 37.111C16.8336 37.1074 16.8294 37.1045 16.8248 37.1025C16.8202 37.1005 16.8152 37.0994 16.8102 37.0993L15.7178 37.1007C15.7125 37.1007 15.7072 37.1017 15.7023 37.1038C15.6973 37.1058 15.6929 37.1088 15.6891 37.1126C15.6853 37.1163 15.6824 37.1208 15.6803 37.1257C15.6783 37.1306 15.6772 37.1359 15.6772 37.1412L15.6851 42.1039C15.6851 42.1159 15.6897 42.1275 15.6981 42.1361C15.7065 42.1448 15.7179 42.1498 15.7299 42.1502C15.7735 42.1516 16.5136 42.1516 17.9502 42.1502ZM12.2457 42.1601C13.6909 42.1592 14.4353 42.158 14.4789 42.1566C14.4909 42.1562 14.5023 42.1512 14.5107 42.1425C14.519 42.1339 14.5237 42.1224 14.5237 42.1103V37.1199C14.5237 37.1092 14.5194 37.0988 14.5118 37.0912C14.5042 37.0836 14.4939 37.0794 14.4832 37.0794H13.3851C13.38 37.0794 13.3749 37.0804 13.3702 37.0824C13.3655 37.0843 13.3612 37.0872 13.3577 37.0909C13.3541 37.0945 13.3513 37.0988 13.3494 37.1036C13.3475 37.1083 13.3466 37.1134 13.3467 37.1185C13.3552 37.5239 13.3545 37.8825 13.3445 38.1945C13.3332 38.5494 13.1589 38.6987 12.7898 38.7051C12.7263 38.7066 12.5444 38.7073 12.2443 38.7073C11.9442 38.7073 11.7624 38.7068 11.6988 38.7059C11.3297 38.6995 11.1555 38.5508 11.1434 38.1959C11.1334 37.884 11.1325 37.5253 11.1406 37.1199C11.1406 37.1148 11.1397 37.1097 11.1378 37.105C11.1359 37.1002 11.1331 37.0959 11.1296 37.0923C11.126 37.0886 11.1217 37.0858 11.117 37.0838C11.1123 37.0818 11.1073 37.0808 11.1021 37.0808L10.0041 37.0815C9.99875 37.0815 9.99347 37.0825 9.98856 37.0846C9.98364 37.0866 9.97917 37.0896 9.97541 37.0934C9.97164 37.0971 9.96866 37.1016 9.96662 37.1065C9.96458 37.1114 9.96353 37.1167 9.96353 37.122L9.96851 42.1125C9.96851 42.1245 9.97318 42.136 9.98154 42.1447C9.98991 42.1533 10.0013 42.1583 10.0133 42.1587C10.0569 42.1601 10.8011 42.1606 12.2457 42.1601ZM12.4203 37.1377C12.4203 37.1267 12.416 37.1162 12.4083 37.1084C12.4006 37.1007 12.3901 37.0963 12.3792 37.0963L12.0706 37.0952C12.0596 37.0952 12.0491 37.0995 12.0413 37.1072C12.0336 37.1149 12.0292 37.1253 12.0292 37.1363L12.0271 37.7294C12.0271 37.7404 12.0314 37.7509 12.0391 37.7586C12.0468 37.7664 12.0573 37.7708 12.0682 37.7708L12.3768 37.7719C12.3878 37.7719 12.3983 37.7676 12.4061 37.7599C12.4138 37.7522 12.4182 37.7417 12.4182 37.7308L12.4203 37.1377ZM18.1418 37.1455C18.1418 37.1383 18.1405 37.1312 18.1377 37.1245C18.135 37.1179 18.131 37.1118 18.1259 37.1067C18.1208 37.1016 18.1148 37.0976 18.1082 37.0948C18.1015 37.092 18.0944 37.0906 18.0872 37.0906L17.7871 37.0895C17.7799 37.0895 17.7728 37.0909 17.7662 37.0936C17.7595 37.0963 17.7534 37.1003 17.7483 37.1054C17.7432 37.1105 17.7392 37.1165 17.7364 37.1231C17.7336 37.1298 17.7322 37.1369 17.7322 37.1441L17.7302 37.7216C17.7301 37.7288 17.7315 37.7359 17.7342 37.7425C17.737 37.7492 17.741 37.7552 17.7461 37.7603C17.7511 37.7654 17.7571 37.7695 17.7638 37.7723C17.7704 37.7751 17.7775 37.7765 17.7847 37.7765L18.0848 37.7776C18.092 37.7776 18.0992 37.7762 18.1058 37.7735C18.1125 37.7707 18.1185 37.7667 18.1236 37.7617C18.1287 37.7566 18.1328 37.7506 18.1356 37.7439C18.1383 37.7373 18.1398 37.7302 18.1398 37.723L18.1418 37.1455Z" fill="#EFBF04"/>
</svg>
