<svg width="51" height="38" viewBox="0 0 51 38" fill="none" xmlns="http://www.w3.org/2000/svg">
<path d="M15.2599 0.000274621C16.3832 -0.00844811 17.4947 0.190305 18.5222 0.642017C21.0237 1.7417 22.8499 4.07441 23.2287 6.79029C23.3238 7.47399 23.3419 8.17949 23.2829 8.9068C23.0019 12.3523 20.4947 15.232 17.1708 16.0277C16.6291 16.1573 16.0353 16.2245 15.3895 16.2295C14.744 16.2349 14.1494 16.1772 13.6057 16.0563C10.2698 15.3136 7.71657 12.475 7.38074 9.0339C7.30972 8.30784 7.31636 7.60234 7.40068 6.9174C7.73588 4.19528 9.52467 1.83392 12.0082 0.694355C13.0281 0.226443 14.1365 0.0096204 15.2599 0.000274621ZM15.3738 1.51134C14.5204 1.50538 13.6741 1.67016 12.8833 1.99626C12.0925 2.32237 11.3727 2.80341 10.7649 3.41193C10.1572 4.02046 9.67339 4.74454 9.3412 5.54283C9.00901 6.34113 8.83492 7.19801 8.82887 8.06455C8.81665 9.8146 9.48964 11.4978 10.6998 12.7437C11.9099 13.9897 13.5581 14.6965 15.2817 14.7085C16.1351 14.7145 16.9814 14.5497 17.7722 14.2236C18.563 13.8975 19.2829 13.4164 19.8906 12.8079C20.4984 12.1994 20.9822 11.4753 21.3143 10.677C21.6465 9.87871 21.8206 9.02183 21.8267 8.15529C21.8389 6.40524 21.1659 4.72208 19.9558 3.4761C18.7456 2.23012 17.0975 1.52337 15.3738 1.51134Z" fill="#F4F4F4"/>
<path d="M36.6272 16.2188C35.9826 16.2238 35.3888 16.166 34.8459 16.0456C31.5138 15.3041 28.9637 12.468 28.6285 9.03187C28.5579 8.30664 28.5645 7.60197 28.6484 6.91786C28.9836 4.19948 30.7699 1.84061 33.2503 0.702913C34.269 0.235001 35.3755 0.0188026 36.4976 0.0100799C37.6197 0.000734138 38.73 0.199488 39.7562 0.650577C42.2546 1.74902 44.0783 4.07861 44.4565 6.79138C44.5516 7.47424 44.5697 8.17871 44.5107 8.90477C44.2303 12.3459 41.7263 15.2225 38.406 16.0169C37.8652 16.1465 37.2723 16.2138 36.6272 16.2188ZM36.6889 1.52033C34.9705 1.48733 33.3092 2.14967 32.0704 3.36163C30.8316 4.57359 30.1168 6.2359 30.0833 7.98286C30.0497 9.72982 30.7002 11.4183 31.8915 12.677C33.0829 13.9356 34.7176 14.6612 36.4359 14.6942C38.1543 14.7272 39.8157 14.0649 41.0545 12.8529C42.2933 11.6409 43.008 9.97863 43.0416 8.23167C43.0751 6.4847 42.4247 4.79618 41.2333 3.53756C40.042 2.27894 38.4073 1.55332 36.6889 1.52033Z" fill="#F4F4F4"/>
<path d="M26.4075 19.0319C26.5284 18.9559 26.7078 18.8497 26.9458 18.7135C27.8293 18.2063 28.7969 17.8688 29.8486 17.701C30.2412 17.6383 30.9084 17.608 31.8505 17.6101C36.27 17.618 39.3736 17.6182 41.1614 17.6107C42.2272 17.6061 42.9819 17.6377 43.4256 17.7054C46.0168 18.1029 48.2785 19.668 49.6523 21.8935C50.5524 23.3515 51.0014 24.9419 50.9994 26.6649C50.996 29.5862 50.9963 32.5986 51 35.7022C51.0004 36.1043 50.979 36.3872 50.9358 36.5508C50.7981 37.0717 50.4654 37.4973 49.9738 37.7278C49.7117 37.8503 49.4839 37.913 49.2903 37.9159C48.8683 37.9226 48.5462 37.9259 48.324 37.9259C47.9601 37.9259 32.4877 37.9259 1.90663 37.9259C1.06924 37.9259 0.373918 37.4811 0.0929214 36.6755C0.023555 36.4773 -0.00697463 36.1552 0.00133273 35.7091C0.00507104 35.5064 0.00590231 32.5955 0.00382547 26.9764C0.00257937 23.9241 1.52345 21.0244 4.02936 19.2736C5.20901 18.4495 6.54628 17.9251 8.04119 17.7004C8.50516 17.6302 9.29747 17.6007 10.4181 17.6119C11.0549 17.6182 14.3378 17.6173 20.2667 17.6094C21.4484 17.6078 22.2507 17.6371 22.6736 17.6973C23.9608 17.8809 25.1834 18.326 26.3415 19.0325C26.3514 19.0386 26.3628 19.0418 26.3745 19.0417C26.3862 19.0416 26.3976 19.0382 26.4075 19.0319ZM6.40506 36.3764C6.40423 33.0202 6.40464 30.323 6.40631 28.2848C6.40693 27.4649 7.59197 27.2923 7.85739 28.0362C7.88938 28.1255 7.90537 28.2942 7.90537 28.5421C7.90745 31.1452 7.90579 33.7461 7.90039 36.3446C7.90039 36.3648 7.90839 36.3841 7.92265 36.3984C7.9369 36.4126 7.95624 36.4206 7.9764 36.4206H22.7957C22.8081 36.4206 22.82 36.4157 22.8287 36.4069C22.8375 36.3982 22.8424 36.3863 22.8424 36.3739C22.8441 31.1361 22.8443 28.4912 22.843 28.4393C22.8376 28.2379 22.858 28.0879 22.9041 27.9895C23.1147 27.5428 23.7209 27.4281 24.091 27.7471C24.2547 27.8888 24.3367 28.0836 24.3371 28.3315C24.3417 31.0721 24.3413 33.7554 24.3359 36.3814C24.3358 36.3864 24.3367 36.3914 24.3386 36.3961C24.3405 36.4008 24.3434 36.4051 24.347 36.4086C24.3506 36.4122 24.3548 36.4151 24.3596 36.417C24.3643 36.419 24.3694 36.42 24.3745 36.42H29.1907C29.2072 36.4201 29.2231 36.4139 29.2353 36.4027C29.2475 36.3915 29.2552 36.3761 29.2567 36.3596C29.2634 36.2806 29.2667 36.1754 29.2667 36.0437C29.2634 31.63 29.2638 29.0049 29.2679 28.1683C29.2733 27.1124 29.2399 26.3509 29.1676 25.8836C29.0119 24.8742 28.6715 23.9214 28.1465 23.025C26.9583 20.9957 24.8723 19.5565 22.4891 19.2057C22.0659 19.1434 21.4786 19.1127 20.7272 19.1135C18.4555 19.1168 14.9859 19.1172 10.3184 19.1147C9.3332 19.1143 8.62832 19.1484 8.20381 19.2169C4.73092 19.7789 2.14837 22.4231 1.58949 25.8829C1.52303 26.2967 1.49022 27.0063 1.49105 28.0119C1.49479 30.8684 1.49583 33.4092 1.49417 35.6343C1.49354 36.0518 1.44619 36.4206 1.93716 36.4206C3.94504 36.4206 5.42085 36.4192 6.36456 36.4163C6.3753 36.4163 6.3856 36.4121 6.3932 36.4046C6.40079 36.3971 6.40506 36.387 6.40506 36.3764ZM27.6817 20.0643C29.6623 21.8998 30.7664 24.3976 30.7676 27.1004C30.7685 29.5095 30.7678 32.6032 30.7658 36.3814C30.7658 36.3918 30.7699 36.4018 30.7773 36.4091C30.7846 36.4165 30.7946 36.4206 30.805 36.4206H43.4555C43.4697 36.4206 43.4833 36.415 43.4934 36.4049C43.5034 36.3949 43.509 36.3813 43.509 36.367C43.5144 33.8615 43.5142 31.2869 43.5084 28.6431C43.5078 28.2705 43.4854 27.9995 43.7333 27.7739C44.2193 27.3315 45.0125 27.6157 45.0118 28.301C45.0089 31.3556 45.0081 34.0341 45.0094 36.3365C45.0094 36.3591 45.0184 36.3809 45.0345 36.3969C45.0507 36.4129 45.0725 36.4219 45.0953 36.4219C46.7369 36.4223 48.0465 36.42 49.0243 36.415C49.3279 36.4138 49.476 36.2582 49.4685 35.9484C49.466 35.8532 49.4669 33.0115 49.471 27.4231C49.4714 26.491 49.4399 25.831 49.3763 25.4431C48.9857 23.0724 47.5078 21.0132 45.3826 19.9185C44.7321 19.5837 44.0158 19.3484 43.2337 19.2126C42.8536 19.1465 42.2577 19.1137 41.4461 19.1141C35.874 19.1174 32.7969 19.1174 32.215 19.1141C31.1678 19.1087 30.4451 19.1397 30.0468 19.2069C29.2173 19.3469 28.4306 19.6204 27.6866 20.0275C27.6835 20.0292 27.6808 20.0317 27.6787 20.0347C27.6767 20.0376 27.6754 20.0411 27.6749 20.0446C27.6744 20.0482 27.6747 20.0518 27.6759 20.0553C27.6771 20.0587 27.6791 20.0618 27.6817 20.0643Z" fill="#EFBF04"/>
</svg>
