<svg width="54" height="62" viewBox="0 0 54 62" fill="none" xmlns="http://www.w3.org/2000/svg">
<path d="M26.5306 0.00115013C30.6663 -0.0493766 34.6529 1.56667 37.6135 4.49379C40.574 7.42091 42.266 11.4193 42.3172 15.6094C42.3426 17.6841 41.9643 19.7435 41.2041 21.6698C40.4439 23.5962 39.3165 25.3519 37.8864 26.8366C36.4564 28.3214 34.7516 29.5061 32.8694 30.3232C30.9872 31.1403 28.9645 31.5737 26.9167 31.5987C22.781 31.6493 18.7944 30.0332 15.8338 27.1061C12.8733 24.179 11.1813 20.1806 11.1301 15.9905C11.1048 13.9157 11.483 11.8564 12.2432 9.93002C13.0034 8.00365 14.1308 6.24797 15.5609 4.76323C16.9909 3.27848 18.6957 2.09375 20.5779 1.27667C22.4601 0.459592 24.4829 0.0261697 26.5306 0.00115013ZM26.7477 2.60927C23.2943 2.60324 19.98 3.9873 17.5337 6.45695C15.0875 8.92661 13.7098 12.2796 13.7037 15.7782C13.7007 17.5106 14.0345 19.2266 14.686 20.8282C15.3376 22.4298 16.2942 23.8857 17.5012 25.1128C18.7081 26.3399 20.1419 27.3141 21.7205 27.9798C23.2991 28.6455 24.9917 28.9897 26.7016 28.9926C30.155 28.9987 33.4694 27.6146 35.9156 25.145C38.3618 22.6753 39.7395 19.3223 39.7457 15.8237C39.7487 14.0913 39.4149 12.3753 38.7633 10.7737C38.1117 9.17208 37.1552 7.71617 35.9482 6.4891C34.7412 5.26202 33.3075 4.28783 31.7289 3.62213C30.1502 2.95642 28.4576 2.61225 26.7477 2.60927Z" fill="#F4F4F4"/>
<path d="M3.45466 61.9996C2.53842 61.9996 1.65972 61.6356 1.01185 60.9878C0.363972 60.3399 0 59.4612 0 58.545V54.3059C0 49.4224 1.94104 44.7389 5.39611 41.2857C8.85118 37.8325 13.5373 35.8926 18.4235 35.8926H35.0018C37.4212 35.8926 39.8169 36.3689 42.0521 37.2942C44.2874 38.2196 46.3183 39.5759 48.0291 41.2857C49.7399 42.9955 51.097 45.0254 52.0228 47.2594C52.9487 49.4934 53.4252 51.8878 53.4252 54.3059V58.545C53.4252 59.4612 53.0613 60.3399 52.4134 60.9878C51.7655 61.6356 50.8868 61.9996 49.9706 61.9996H3.45466ZM3.42417 59.4107H49.9889C50.2241 59.4107 50.4497 59.3172 50.6161 59.1508C50.7824 58.9845 50.8759 58.7589 50.8759 58.5236V54.4288C50.8759 50.1988 49.1944 46.142 46.2012 43.151C43.208 40.1599 39.1484 38.4795 34.9154 38.4795H18.4976C14.2647 38.4795 10.205 40.1599 7.21186 43.151C4.21869 46.142 2.53714 50.1988 2.53714 54.4288V58.5236C2.53714 58.7589 2.6306 58.9845 2.79695 59.1508C2.9633 59.3172 3.18892 59.4107 3.42417 59.4107Z" fill="#EFBF04"/>
</svg>
