<svg width="119" height="119" viewBox="0 0 119 119" fill="none" xmlns="http://www.w3.org/2000/svg">
<circle cx="59.5" cy="59.5" r="59.5" fill="#C9CDE6"/>
<path d="M73.2576 81.7124C72.8836 84.9564 69.8425 86.7611 66.8112 85.4705C66.7998 85.4655 66.7868 85.4652 66.7751 85.4696C66.7633 85.4741 66.7537 85.483 66.7482 85.4945C66.6838 85.6298 66.6221 85.7754 66.563 85.9314C66.251 86.7531 65.5632 87.5455 64.7699 88.0099C63.0707 89.0035 61.1739 88.7421 59.4553 87.9107C58.5128 87.4551 57.6634 86.9528 56.907 86.4039C56.4249 86.054 55.9968 85.7391 55.6227 85.459C55.6116 85.4506 55.598 85.4466 55.5843 85.4476C55.5705 85.4485 55.5577 85.4545 55.5483 85.4643C55.3001 85.716 54.9308 86.1108 54.4403 86.6485C54.0704 87.0538 53.7374 87.3449 53.4414 87.5215C50.9135 89.0292 47.821 87.6527 47.291 84.788C47.2891 84.777 47.2848 84.7666 47.2784 84.7575C47.272 84.7483 47.2637 84.7406 47.254 84.735C47.2443 84.7293 47.2335 84.7259 47.2223 84.7248C47.2111 84.7237 47.1997 84.725 47.1891 84.7286C46.7766 84.8716 46.3639 84.9567 45.9508 84.9839C43.7987 85.1257 41.8399 83.4541 41.6813 81.2931C41.6804 81.2833 41.6775 81.2737 41.6725 81.2652C41.6676 81.2566 41.6609 81.2493 41.6528 81.2436C41.6447 81.238 41.6355 81.2343 41.6259 81.2328C41.6163 81.2312 41.6064 81.2318 41.597 81.2346C39.5008 81.8666 37.3213 80.8695 36.4792 78.8654C36.1401 78.0576 36.0603 77.1937 36.2399 76.2737C36.2414 76.2661 36.2411 76.2584 36.2392 76.2509C36.2373 76.2435 36.2337 76.2365 36.2288 76.2306C36.2239 76.2247 36.2177 76.2199 36.2108 76.2166C36.2038 76.2134 36.1962 76.2117 36.1885 76.2117C35.002 76.2264 34.0155 75.8672 33.229 75.1339C32.6115 74.5583 32.2038 73.8605 32.0058 73.0403C31.6601 71.6062 32.0617 69.9593 33.1971 68.9533C33.2067 68.9448 33.2146 68.9344 33.2201 68.9227C33.2256 68.911 33.2286 68.8983 33.229 68.8854C33.2294 68.8725 33.2272 68.8596 33.2225 68.8475C33.2177 68.8354 33.2106 68.8243 33.2015 68.815L29.2989 64.9124C29.2951 64.9088 29.2905 64.9061 29.2856 64.9045C29.2806 64.9029 29.2754 64.9024 29.2702 64.9031C29.2651 64.9038 29.2602 64.9056 29.256 64.9085C29.2518 64.9113 29.2482 64.9151 29.2457 64.9195C29.1083 65.1642 28.9027 65.5409 28.6722 65.7527C27.9567 66.4115 27.1315 66.4996 26.1966 66.0168C25.9467 65.8874 25.4279 65.5934 24.6402 65.1349C23.5234 64.4837 21.387 63.2201 18.231 61.344C17.7908 61.0822 17.5083 60.8689 17.3836 60.704C17.0705 60.2886 16.949 59.8144 17.0193 59.2814C17.0447 59.0888 17.165 58.8022 17.3801 58.4217C19.3974 54.847 21.4254 51.3849 23.2672 48.1843C25.1611 44.8941 27.2996 41.2096 29.6827 37.1306C29.8925 36.7713 30.0529 36.5411 30.164 36.4401C30.5646 36.0731 31.1186 35.9242 31.6397 36.0368C31.7762 36.0663 31.9981 36.1703 32.3054 36.3488C35.2392 38.0559 38.9929 40.3569 40.6965 41.4143C41.6653 42.0161 41.8736 43.2393 41.3294 44.1921C41.3254 44.1991 41.3229 44.2069 41.3219 44.2149C41.321 44.2229 41.3218 44.231 41.3241 44.2387C41.3264 44.2464 41.3303 44.2535 41.3354 44.2597C41.3406 44.2659 41.347 44.2709 41.3542 44.2746C43.4933 45.3317 45.7535 45.9453 48.1348 46.1155C49.1618 46.1888 50.1468 46.1149 51.0899 45.8939C51.1736 45.8746 51.2528 45.8391 51.323 45.7893C51.6486 45.5577 51.8941 45.3875 52.0596 45.2788C52.7651 44.8155 53.5185 44.4767 54.3198 44.2622C54.5756 44.1936 55.2995 44.0382 56.4913 43.7959C59.0245 43.2818 61.6366 42.9858 64.1867 43.1267C66.038 43.229 67.8786 43.5209 69.7087 44.0025C71.1321 44.3765 72.2427 44.7284 73.5014 44.9739C75.3414 45.3329 77.1425 45.1591 78.7787 44.31C78.7842 44.3073 78.7891 44.3036 78.793 44.2989C78.797 44.2943 78.8 44.2889 78.8018 44.283C78.8036 44.2771 78.8042 44.2709 78.8036 44.2647C78.803 44.2585 78.8012 44.2526 78.7982 44.2471C78.3072 43.3442 78.35 42.5326 78.9267 41.8123C79.0567 41.6498 79.3238 41.4465 79.728 41.2025C83.9624 38.6409 86.5116 37.1001 87.3755 36.5801C87.821 36.3124 88.1357 36.1603 88.3194 36.1237C89.0223 35.9845 89.7119 36.3124 90.0788 36.9418C91.3723 39.1612 92.997 42.0052 94.9529 45.4738C96.4727 48.1683 97.7257 50.3547 98.7119 52.0328C99.5634 53.4817 100.824 55.6616 102.495 58.5723C102.773 59.0563 102.838 59.5674 102.692 60.1057C102.539 60.6659 102.191 60.9566 101.647 61.2766C99.3392 62.6333 96.9395 64.0733 94.4477 65.5967C94.0453 65.8425 93.774 65.9988 93.634 66.0656C92.7211 66.5008 91.6113 66.2641 91.0574 65.4159C90.9504 65.2522 90.8411 65.0699 90.7294 64.869C90.7247 64.8605 90.7182 64.8532 90.7103 64.8476C90.7023 64.8421 90.6932 64.8384 90.6837 64.8368C90.6741 64.8353 90.6643 64.8359 90.655 64.8388C90.6458 64.8416 90.6373 64.8465 90.6301 64.853C88.697 66.6337 86.654 68.5172 84.5905 70.2093C84.5683 70.2274 84.5526 70.2524 84.5457 70.2803C84.5389 70.3083 84.5412 70.3378 84.5524 70.3644C85.3643 72.2621 84.9362 74.4771 83.4099 75.8474C82.2701 76.8711 80.7916 77.2079 79.2689 76.9208C79.2641 76.9199 79.2592 76.9202 79.2546 76.9216C79.2499 76.9229 79.2456 76.9253 79.2421 76.9285C79.2385 76.9318 79.2357 76.9358 79.2339 76.9403C79.2321 76.9448 79.2313 76.9496 79.2316 76.9544C79.3268 78.2083 79.0272 79.2864 78.3329 80.1887C77.3029 81.5271 75.5932 82.1635 73.9516 81.8205C73.7153 81.7715 73.5019 81.723 73.3117 81.6752C73.3056 81.6736 73.2994 81.6733 73.2932 81.6744C73.2871 81.6755 73.2813 81.6779 73.2761 81.6814C73.271 81.685 73.2667 81.6895 73.2635 81.6949C73.2603 81.7002 73.2583 81.7062 73.2576 81.7124ZM27.2133 64.5012C27.2537 64.5247 27.3018 64.5311 27.3471 64.5192C27.3923 64.5072 27.4309 64.4778 27.4544 64.4373L39.8297 43.218C39.8528 43.1781 39.8594 43.1306 39.848 43.0859C39.8365 43.0411 39.808 43.0027 39.7685 42.9787L31.505 37.9974C31.485 37.9853 31.4628 37.9773 31.4396 37.9738C31.4164 37.9704 31.3928 37.9716 31.3701 37.9773C31.3475 37.9831 31.3261 37.9934 31.3075 38.0075C31.2888 38.0215 31.2731 38.0392 31.2613 38.0594L18.87 59.4303C18.8465 59.4707 18.8399 59.5187 18.8517 59.5639C18.8635 59.6091 18.8927 59.6478 18.933 59.6714L27.2133 64.5012ZM88.6101 37.9841C88.609 37.9819 88.6075 37.9799 88.6055 37.9782C88.6036 37.9766 88.6014 37.9754 88.599 37.9746C88.5966 37.9739 88.5941 37.9736 88.5916 37.9739C88.5891 37.9741 88.5866 37.9749 88.5844 37.9761L80.2802 43.0177C80.2647 43.0271 80.253 43.0418 80.2474 43.059C80.2417 43.0762 80.2423 43.0949 80.2492 43.1117C80.3136 43.2683 80.3768 43.4003 80.4389 43.5079C83.2929 48.4378 87.3376 55.4146 92.573 64.4382C92.5815 64.4527 92.5928 64.4653 92.6062 64.4753C92.6196 64.4854 92.6349 64.4927 92.6511 64.4968C92.6673 64.5009 92.6842 64.5018 92.7008 64.4993C92.7174 64.4969 92.7333 64.4912 92.7476 64.4825L100.961 59.558C100.969 59.5534 100.974 59.5463 100.976 59.5381C100.978 59.53 100.977 59.5215 100.973 59.5145C99.234 56.4992 97.9697 54.3235 97.1803 52.9874C95.6741 50.4389 94.4134 48.2593 93.3982 46.4488C92.1136 44.1579 90.8287 41.8917 89.5435 39.6505C88.9963 38.6961 88.6852 38.1407 88.6101 37.9841ZM83.4817 68.7424C85.4624 67.105 87.543 65.2687 89.7234 63.2337C89.7274 63.2302 89.73 63.2254 89.7308 63.22C89.7316 63.2147 89.7305 63.2092 89.7278 63.2044L79.767 45.9524C79.7583 45.9367 79.7437 45.925 79.7264 45.9197C79.709 45.9144 79.6903 45.916 79.6739 45.9241C77.2719 47.1419 74.736 47.235 72.155 46.5569C70.9797 46.2479 70.2505 46.0535 69.9675 45.9737C66.7633 45.0696 63.5441 44.7053 60.2832 45.0678C58.7081 45.2433 57.2571 45.5358 55.6759 45.8567C54.903 46.0139 54.3484 46.1628 54.0122 46.3034C53.3923 46.5634 52.831 46.8985 52.3281 47.3086C52.0386 47.5449 51.6631 47.958 51.2016 48.5477C49.4572 50.7777 47.5622 53.1591 45.5165 55.6917C45.3454 55.9035 45.2213 56.11 45.2072 56.3591C45.1451 57.4183 45.9464 58.1948 46.9169 58.4793C48.2713 58.8772 49.6053 58.5502 50.7531 57.7773C51.305 57.405 51.726 57.0877 52.0161 56.8253C53.0337 55.9041 54.0669 54.8325 55.1157 53.6105C55.3804 53.3021 55.6165 53.0805 55.8239 52.9458C56.156 52.7301 56.4961 52.5812 56.8441 52.499C58.1163 52.2 59.3814 52.1989 60.6395 52.4955C61.1199 52.6084 61.5072 52.7676 61.8015 52.9732C63.0713 53.8608 65.9505 55.9077 70.439 59.1139C74.7742 62.2117 79.1926 65.6047 83.3363 68.745C83.3572 68.761 83.3829 68.7694 83.4093 68.7689C83.4357 68.7684 83.4612 68.7591 83.4817 68.7424ZM49.3252 47.9547C46.6141 48.0014 44.0203 47.4654 41.5439 46.3469C41.4393 46.2996 41.0794 46.1338 40.4643 45.8496C40.4575 45.8465 40.4498 45.846 40.4428 45.8481C40.4358 45.8502 40.4298 45.8549 40.4262 45.8611L30.2783 63.2611C30.2724 63.2711 30.27 63.2827 30.2714 63.2942C30.2729 63.3058 30.2781 63.3166 30.2863 63.325L34.4069 67.4456C34.4179 67.4566 34.431 67.4652 34.4454 67.471C34.4597 67.4768 34.4751 67.4798 34.4906 67.4796C34.5061 67.4794 34.5215 67.4762 34.5357 67.4701C34.5499 67.4639 34.5628 67.455 34.5736 67.4439C34.9636 67.0344 35.5034 66.4121 35.9572 66.0975C37.7547 64.8495 40.0468 65.0135 41.5722 66.6204C41.9215 66.9883 42.2414 67.5928 42.4019 68.0918C42.4035 68.0968 42.4064 68.1014 42.4103 68.105C42.4142 68.1086 42.4189 68.1111 42.4241 68.1124C42.4292 68.1136 42.4346 68.1135 42.4397 68.1121C42.4449 68.1107 42.4495 68.1079 42.4533 68.1042C44.2198 66.2898 47.2086 66.3315 48.8173 68.3311C49.6425 69.3566 49.8862 70.5151 49.6744 71.8091C49.6729 71.8172 49.6733 71.8255 49.6755 71.8334C49.6777 71.8413 49.6817 71.8486 49.6871 71.8548C49.6926 71.861 49.6993 71.8659 49.7069 71.8692C49.7146 71.8725 49.7228 71.8741 49.7311 71.8739C51.5464 71.8145 53.1835 73.0146 53.7312 74.7199C53.9909 75.5301 53.9803 76.2657 53.8146 77.0794C53.813 77.0873 53.8132 77.0954 53.815 77.1033C53.8168 77.1111 53.8203 77.1185 53.8251 77.1249C53.83 77.1314 53.8361 77.1367 53.8431 77.1406C53.8502 77.1445 53.8579 77.1469 53.866 77.1477C55.0141 77.2351 55.9654 77.7016 56.72 78.5472C57.1419 79.0199 57.425 79.5281 57.5691 80.0717C57.9479 81.4994 57.6909 82.8061 56.798 83.9921C56.7935 83.998 56.7901 84.0048 56.7882 84.012C56.7862 84.0192 56.7858 84.0268 56.7867 84.0342C56.7877 84.0416 56.7902 84.0487 56.7939 84.0552C56.7977 84.0617 56.8027 84.0673 56.8087 84.0719C58.0513 85.0087 59.4039 85.9429 60.9346 86.5404C62.4707 87.1404 64.1769 86.8107 64.9312 85.2392C65.0724 84.9449 65.1416 84.6459 65.1386 84.3422C65.1383 84.3254 65.1342 84.3088 65.1265 84.2937C65.1188 84.2787 65.1078 84.2655 65.0943 84.2553C62.9334 82.6256 60.6463 80.8913 58.233 79.0524C57.7163 78.6589 57.8324 77.8824 58.358 77.5704C58.5122 77.4794 58.7081 77.4472 58.9456 77.4738C59.0751 77.488 59.2517 77.5799 59.4757 77.7495C62.6855 80.1757 65.034 81.968 66.5213 83.1261C67.0608 83.5463 67.4674 83.8045 67.7409 83.9008C69.807 84.6329 71.8066 82.9878 71.4246 80.8225C71.3904 80.6281 71.3236 80.4866 71.2243 80.3979C70.3007 79.5801 69.2347 78.726 68.0263 77.8355C66.1733 76.4711 64.1828 75.0287 62.055 73.5083C61.7318 73.2772 61.5456 73.1322 61.4966 73.0731C60.9532 72.4181 61.5187 71.4519 62.3617 71.6159C62.4651 71.636 62.653 71.7433 62.9254 71.9377C66.251 74.3072 69.4912 76.7305 72.646 79.2075C72.9722 79.4646 73.2727 79.7012 73.6299 79.8564C76.2189 80.9838 78.5332 78.1661 77.0016 75.819C76.9734 75.7762 76.9384 75.7381 76.8979 75.7064C76.8583 75.6751 76.7871 75.6225 76.6843 75.5487C73.0017 72.8902 69.446 70.3561 66.017 67.9464C65.5126 67.5919 65.1962 67.2294 65.4719 66.6204C65.7059 66.1019 66.3538 65.9902 66.797 66.2951C70.2351 68.6617 73.8382 71.2401 77.9943 74.2448C78.5834 74.6709 78.9994 74.9282 79.2423 75.0169C80.9343 75.632 82.7771 74.6614 83.1094 72.8737C83.2572 72.0759 83.1006 71.3379 82.6397 70.6595C82.4908 70.4409 82.1737 70.1478 81.6886 69.7803C76.265 65.6756 73.5909 63.6201 69.3736 60.6225C66.6856 58.7121 63.8832 56.7116 60.9665 54.621C60.7317 54.4526 60.5003 54.3152 60.2575 54.262C59.38 54.0714 57.2084 53.8853 56.5472 54.6857C55.5001 55.9514 54.3836 57.1169 53.1976 58.1823C52.2563 59.0288 51.1856 59.8044 49.9802 60.189C47.5268 60.9717 44.4245 60.2192 43.563 57.5131C43.313 56.7269 43.376 55.4949 43.906 54.8284C46.9941 50.942 48.8058 48.6614 49.3411 47.9866C49.3435 47.9837 49.345 47.9802 49.3455 47.9764C49.3459 47.9726 49.3452 47.9688 49.3435 47.9655C49.3418 47.9621 49.3392 47.9593 49.336 47.9574C49.3327 47.9554 49.3289 47.9545 49.3252 47.9547ZM40.7054 70.2695C41.4437 68.1334 39.3209 66.3873 37.3381 67.3809C37.1023 67.4991 36.7942 67.7609 36.4137 68.1662C35.4806 69.1619 34.8646 69.8081 34.5656 70.1047C34.2512 70.4155 34.0512 70.6575 33.9655 70.8306C33.5481 71.6709 33.5552 72.5528 34.0497 73.3248C34.3594 73.8082 34.7928 74.1385 35.35 74.3158C36.0745 74.5468 36.7912 74.4245 37.5003 73.9488C37.5651 73.9053 37.624 73.8537 37.6758 73.7955L40.5379 70.5558C40.6116 70.4727 40.6685 70.3755 40.7054 70.2695ZM41.0768 72.5244C40.5266 73.1727 39.6394 74.2188 38.415 75.663C38.2821 75.8196 38.1763 76.0022 38.0977 76.2108C37.7184 77.2177 37.9169 78.3318 38.7563 79.0445C39.5965 79.7571 40.7275 79.7713 41.6591 79.2324C41.8523 79.1207 42.0154 78.9865 42.1484 78.83C43.3733 77.387 44.2611 76.3411 44.8119 75.6923C45.362 75.0435 46.2492 73.9973 47.4736 72.5537C47.6065 72.3971 47.7123 72.2142 47.7909 72.005C48.1694 70.9981 47.9717 69.884 47.1314 69.1722C46.2921 68.4596 45.1602 68.4454 44.2286 68.9834C44.0354 69.0951 43.8723 69.2293 43.7394 69.3859C42.5144 70.8294 41.6269 71.8756 41.0768 72.5244ZM48.5407 74.0206C48.5102 74.04 48.4824 74.0642 48.4583 74.0924C46.8806 75.913 45.3363 77.7244 43.8253 79.5266C43.6046 79.7899 43.4903 79.9742 43.4353 80.2916C43.0888 82.2708 44.9413 83.8166 46.8124 82.9497C47.0871 82.8221 47.265 82.7128 47.3459 82.6218C48.5549 81.2527 49.9128 79.6767 51.4196 77.894C51.6997 77.5625 51.8817 77.2877 51.9656 77.0697C52.454 75.7986 51.947 74.3051 50.6059 73.8079C49.8756 73.5367 49.1872 73.6076 48.5407 74.0206ZM49.0477 83.3752C48.8764 84.1191 48.9733 84.7588 49.3385 85.2941C50.1495 86.4854 51.8734 86.6955 52.9193 85.6035C53.489 85.0096 54.2019 84.2432 55.0581 83.3043C55.3896 82.9403 55.5973 82.6696 55.6812 82.4924C56.1341 81.5325 56.0313 80.4538 55.3081 79.6782C54.669 78.9922 53.6577 78.7785 52.7819 79.1677C52.6254 79.2374 52.4995 79.3275 52.4044 79.438C51.7632 80.1831 50.8077 81.3017 49.5379 82.7937C49.4374 82.9113 49.3515 83.0047 49.28 83.0738C49.1411 83.2074 49.0637 83.3078 49.0477 83.3752Z" fill="#03051F"/>
</svg>
