<svg width="53" height="65" viewBox="0 0 53 65" fill="none" xmlns="http://www.w3.org/2000/svg">
<path d="M26.1144 0C26.4053 0 26.6787 0.0900742 26.8844 0.30131C28.7725 2.24734 30.925 3.87505 33.3418 5.18445C36.677 6.99125 40.2542 8.2321 44.0734 8.90699C46.3442 9.30821 48.6691 9.5593 51.0482 9.66027C51.603 9.68338 51.9497 9.71208 52.1713 10.1728C52.2155 10.2632 52.2375 10.4361 52.2375 10.6917C52.2343 20.6451 52.2367 26.667 52.2447 28.7576C52.2532 30.8753 52.2128 32.4116 52.1235 33.3665C51.481 40.268 48.4241 46.6672 43.8351 51.8166C41.0795 54.9078 37.8551 57.5734 34.4841 59.8994C32.2564 61.4362 29.8606 62.9255 27.2965 64.3672C26.9027 64.5883 26.5172 64.6991 26.1399 64.6996C25.7626 64.6996 25.3768 64.5891 24.9825 64.368C22.4173 62.9284 20.0204 61.441 17.7917 59.9058C14.4191 57.5822 11.1923 54.9198 8.4343 51.8302C3.84131 46.6848 0.779581 40.2879 0.131524 33.3865C0.0417153 32.4315 0.000265414 30.8952 0.00717377 28.7775C0.0135507 26.687 0.0111596 20.665 0 10.7117C0 10.4561 0.0220525 10.2831 0.0661597 10.1927C0.286961 9.73201 0.633709 9.70331 1.1885 9.6794C3.56763 9.57684 5.89229 9.32388 8.16248 8.92054C11.9812 8.24299 15.5576 6.99949 18.8917 5.19003C21.3075 3.87904 23.4586 2.24947 25.3451 0.30131C25.55 0.0900742 25.8242 0 26.1144 0ZM26.1351 63.1182C26.252 63.1182 26.3973 63.0682 26.5711 62.9683C33.2414 59.1294 39.8511 54.7054 44.5071 48.5405C48.3524 43.4501 50.711 37.1927 50.7158 30.7656C50.7227 20.8005 50.7227 14.2992 50.7158 11.2617C50.7158 11.2462 50.7099 11.2314 50.6994 11.2202C50.6888 11.2091 50.6744 11.2025 50.6592 11.2019C46.908 11.0393 43.2596 10.5483 39.7267 9.53353C36.6329 8.64447 33.7186 7.34411 30.984 5.63243C29.2266 4.53241 27.6175 3.24427 26.1566 1.76801C26.1492 1.76057 26.1391 1.75685 26.1263 1.75685C26.1136 1.75685 26.1035 1.76057 26.096 1.76801C24.6357 3.2448 23.0269 4.53347 21.2695 5.63403C18.5354 7.34624 15.6216 8.6474 12.5283 9.53751C8.99547 10.553 5.34706 11.0449 1.59583 11.2091C1.5806 11.2097 1.5662 11.2163 1.55565 11.2274C1.5451 11.2385 1.53921 11.2534 1.53923 11.2689C1.53339 14.3064 1.53525 20.8077 1.54481 30.7727C1.55199 37.1999 3.91225 43.4565 7.75914 48.5461C12.4167 54.7094 19.0272 59.1318 25.6991 62.9683C25.8728 63.0682 26.0182 63.1182 26.1351 63.1182Z" fill="#EFBF04"/>
<path d="M11.4232 28.4614C11.4231 28.4558 11.4215 28.4503 11.4185 28.4456C11.4154 28.4408 11.4111 28.4371 11.406 28.4347C11.4009 28.4324 11.3952 28.4316 11.3896 28.4323C11.384 28.4331 11.3788 28.4354 11.3745 28.4391C10.5338 29.156 9.9206 29.6778 9.53479 30.0046C9.10594 30.3673 8.42042 30.1075 8.31042 29.5303C8.2509 29.2142 8.34363 28.9516 8.58861 28.7428C16.1081 22.3366 21.5487 17.7213 24.9104 14.8969C25.1522 14.6933 25.2994 14.5695 25.352 14.5254C25.5444 14.3623 25.7067 14.2618 25.839 14.2241C26.2201 14.1157 26.557 14.1826 26.8498 14.425C28.8553 16.0846 31.0825 17.9658 33.5312 20.0686C33.5351 20.0719 33.5399 20.074 33.5449 20.0747C33.55 20.0755 33.5551 20.0747 33.5598 20.0726C33.5645 20.0706 33.5685 20.0672 33.5713 20.063C33.5741 20.0587 33.5757 20.0537 33.5759 20.0486C33.5806 19.5225 33.5796 18.7772 33.5727 17.8127C33.5695 17.2739 33.5902 16.8681 34.0772 16.692C34.1538 16.6643 34.331 16.6505 34.6089 16.6505C37.1225 16.651 38.4226 16.6497 38.5092 16.6465C38.9168 16.6295 39.1892 16.6646 39.3263 16.7517C39.5611 16.9005 39.6794 17.141 39.681 17.4731C39.6916 20.3762 39.6935 22.9743 39.6866 25.2674C39.6866 25.2808 39.6895 25.2942 39.6951 25.3064C39.7008 25.3187 39.709 25.3295 39.7192 25.3383C41.4894 26.847 42.8307 27.9871 43.7431 28.7587C44.0162 28.9894 44.1029 29.2787 44.003 29.6268C43.8834 30.0397 43.4123 30.2589 43.0113 30.129C42.9067 30.095 42.7608 29.9953 42.5737 29.8301C42.156 29.4597 41.6121 28.9912 40.942 28.4247C40.9394 28.4225 40.9362 28.421 40.9327 28.4205C40.9293 28.42 40.9258 28.4205 40.9226 28.4219C40.9194 28.4233 40.9167 28.4256 40.9148 28.4285C40.9128 28.4314 40.9118 28.4348 40.9117 28.4383C40.9085 38.948 40.9096 44.8568 40.9149 46.1646C40.9165 46.5786 40.8822 46.8368 40.8121 46.9394C40.5714 47.2949 40.3362 47.3228 39.8755 47.322C36.0403 47.3162 32.7283 47.3159 29.9394 47.3212C29.6004 47.3217 29.3652 47.203 29.234 46.9649C29.1569 46.8241 29.1184 46.5528 29.1184 46.151C29.1168 42.6591 29.1184 39.6761 29.1232 37.2018C29.1232 37.1885 29.1179 37.1757 29.1084 37.1663C29.099 37.1569 29.0863 37.1516 29.0729 37.1516H23.2101C23.2032 37.1516 23.1965 37.1544 23.1915 37.1593C23.1866 37.1642 23.1838 37.1709 23.1838 37.1779C23.1934 40.1389 23.1937 43.2551 23.1846 46.5265C23.1841 46.8416 23.0579 47.072 22.806 47.2176C22.6742 47.2936 22.4008 47.3292 21.9858 47.3244C21.4076 47.318 18.1532 47.3159 12.2227 47.318C11.8826 47.318 11.6511 47.1953 11.5284 46.9498C11.4614 46.8153 11.4279 46.5424 11.4279 46.1311C11.4327 38.4729 11.4311 32.583 11.4232 28.4614ZM12.9983 45.7724H21.6016C21.6085 45.7724 21.6153 45.771 21.6217 45.7684C21.6281 45.7658 21.6339 45.7619 21.6388 45.757C21.6436 45.7521 21.6475 45.7463 21.6502 45.7399C21.6528 45.7335 21.6542 45.7267 21.6542 45.7198V36.3058C21.6542 36.3 21.6547 36.2944 21.6558 36.2891C21.7817 35.6745 22.2281 35.586 22.8307 35.602C22.9583 35.6052 25.1825 35.6046 29.5034 35.6004C29.8217 35.5999 30.03 35.6185 30.1283 35.6562C30.7094 35.8794 30.6425 36.3449 30.6393 37.0177C30.6334 38.3202 30.6324 41.223 30.6361 45.7262C30.6361 45.7387 30.6411 45.7506 30.6501 45.7594C30.6591 45.7683 30.6712 45.7732 30.6839 45.7732H39.3733C39.3826 45.7732 39.3915 45.7695 39.3981 45.7629C39.4047 45.7564 39.4084 45.7474 39.4084 45.7381V27.139C39.4084 27.128 39.406 27.1172 39.4015 27.1073C39.3969 27.0973 39.3903 27.0886 39.3821 27.0816L26.2017 15.8988C26.1912 15.8901 26.178 15.8854 26.1645 15.8854C26.1509 15.8854 26.1379 15.8901 26.1276 15.8988L12.9863 27.0625C12.9766 27.071 12.9687 27.0814 12.9634 27.0931C12.958 27.1048 12.9552 27.1174 12.9552 27.1302V45.7286C12.9552 45.7402 12.9598 45.7513 12.9678 45.7596C12.9759 45.7678 12.9869 45.7724 12.9983 45.7724ZM35.1263 18.1913C35.1157 18.1913 35.1055 18.1955 35.0981 18.203C35.0906 18.2105 35.0864 18.2206 35.0864 18.2312V21.3695C35.0864 21.3752 35.0878 21.3809 35.0902 21.3862C35.0927 21.3914 35.0963 21.396 35.1007 21.3997L38.1146 23.9561C38.1204 23.9609 38.1275 23.964 38.135 23.965C38.1425 23.966 38.1501 23.9648 38.1569 23.9616C38.1638 23.9585 38.1696 23.9534 38.1737 23.9471C38.1777 23.9407 38.1799 23.9334 38.18 23.9258V18.2312C38.18 18.2206 38.1758 18.2105 38.1683 18.203C38.1609 18.1955 38.1507 18.1913 38.1402 18.1913H35.1263Z" fill="#F4F4F4"/>
</svg>
